<svg xmlns="http://www.w3.org/2000/svg" viewBox="0 0 201.54 67.91"><g id="Layer_2" data-name="Layer 2"><g id="Layer_1-2" data-name="Layer 1"><path id="Path_3701" data-name="Path 3701" d="M106.13,46.48c.26.32.79.22,1.35.05C107.33,46,106.85,46.52,106.13,46.48ZM63.07,45.16c-.57-.24-1.26-.29-1.85-.5-.22.74,1,.3,1.85.5Zm46.08,1.14a13,13,0,0,0-1.53,0c0,.66.1,1.2.76,1.2a1.2,1.2,0,0,0,1.2-1.2ZM160,67.91c5.06-.88,9.17-4.77,6.13-10-1.24-2.13-5.13-4.19-7.21-5.87C155.05,49,149.59,46,147.16,42a44.92,44.92,0,0,1,15.92-6.08c7.34-1.38,15-1.32,20.24.5,1.63,2.93,2.88,5.6,6.76,4.83a15,15,0,0,0,4.6-2.3c5.13-3.78,8.91-13.68,5.65-19.61-1.88-3.42-5.11-3.24-9.88-2.71-7.54.84-14.28,2.31-20.06,3.28-8.64,1.47-15.3,4.6-23,5.19-.87-.44-1.75-.84-2.62-1.27-2.94-4.51-4.91-12.67-7.93-17.95-.38-.65-.54-1.49-.86-1.89-1.9-2.41-4.46-3-7.12-4-4,.8-7.37,2.6-7.58,6.49-.09,1.7.33,4.58,1,5.68,1.64,2.55,7.89,1.95,9.2-.76-.73-.62-2-2.94-1.26-4.29,1.28-.72,2.93.7,3.7,1.76a36.35,36.35,0,0,1,4,8.21c1.13,3.4,2.21,7.3,1.13,9.88-1.5-.72-.67-3.42-.36-4.51-.35-3.62-2.69-6.36-5.78-2.39a13,13,0,0,0-2.43,9.42c-1.69,1.38-3.25,1.12-5.37,1.53-8.74,1.71-16.27,3.6-23.76,4.6-14.37,1.9-29.77,2.69-42.79,1.3A45.06,45.06,0,0,1,45,33.22c-1.46-.64-2.72-1.71-4.1-1.85-1.8-.19-3.68.41-5.46.4A126.19,126.19,0,0,1,0,26.62C15,40.16,38.54,45.67,60.91,48a305.79,305.79,0,0,0,74.17-1.47c6.46,9.93,13.47,19.1,24.88,21.37Zm-30.1-63c-.3-.85.92-.78,1.08-.27l-1.08.27ZM126.7,1.48c.77-.21,1.24-.7,1.85-.27-.27.32-1.64.85-1.85.28Zm-1.17.68a4.26,4.26,0,0,1-1,.63c-.39-.55.72-1,1-.63Zm2.7,7c-.44.45-1,.85-.95,1.58a4.15,4.15,0,0,1-2.21-5c-.42,0-.44.66-.58,0-.09-2.8,3.36-3.4,5.59-3.7.61,1.28,2.86,1.19,2.93,2.52-1-.38-1.68-1.29-2.84-1.4A4.22,4.22,0,0,0,128,8.65a3.4,3.4,0,0,0,.26.5Zm5.05-2.8c-.78-.06-1.28-.59-2.07-.63.76-.81,1.7,0,2.07.64Zm1.22-1.26c2.32,2.52,3.88,7.67,4.82,11.64A54.47,54.47,0,0,1,134.5,5.1ZM21.68,33.65a9.8,9.8,0,0,1,5,1.45,13.91,13.91,0,0,1-5-1.45ZM163.07,57.36c-.44.2-1.18-.38-.76-.77.24.28.56.42.76.77Zm-1.85-1.27c-.14,0-.35.09-.4-.09-1.51-1.74-4.5-2.38-5.18-4.64,1.72,1.81,3.79,3,5.59,4.74Zm-1.66.23c-.36-.86-1.88-1.12-1.8-1.85.48.52,2.32,1.32,1.8,1.85Zm-5.5-2.08c-.07-.66-.75-.28-.82-.94.43-.09,1.19.54.82,1Zm1.12-3.92a8.79,8.79,0,0,1-1.08-.5c-2.26-1.58,1.09,0,1.08.5Zm1.31-15.46c.55-.09.72-.94,1.09-.27-.09.17-.91.65-1.08.27ZM194,21.48l.18.72a4.78,4.78,0,0,1-2.62-1.26C192.64,20.62,193.07,21.44,194,21.48Zm-9.92.94c1.45-.12,3.85-.46,4.28.27-1.3-.3-3,.06-4.28-.27Zm8.16,1.22c-.24-.19-.34-.62-.59-.81.56-.31,1.13.66,1.36,0-.22-.57-1-.12-1.18-.85.64-.21.8.37,1.4.22,1.16,4-1,8.39-2.61,11.77,2-1.66,2.44-4.21,3.15-6.54.37-1.2.53-2.67,1.4-3.6.24,2.58-1.67,5.62-1.85,7.93-.37.42-.54,2.19-1.75,2.93,4.15-1.54,4.52-5.6,6.4-8.88.5,4.13-.95,6.25-2.94,9,1.15-.62,1.36-1.58,2.44-2.52-.77,1.33-.93,3-2.71,3.74l.14.54c-.93-.21-.76.61-1.31.9-2.7,1.43-5.84-.09-7.26-2.21-.21-1.56.76-2.41,1.9-3.16-.06-.76-.43-1-1.13-.67-1-2.54,1.45-3.38,3-5-.23-.55.16-.72-.14-1.31.81-.48,1.92-.79,2.3-1.53ZM163.53,33.1c-1.11.15-2.58.9-3.47.68a7.51,7.51,0,0,1,3.47-.68Zm-9.65.49c.76-.15.92-.55,1.49-.17a1.94,1.94,0,0,1-1.49.18ZM186,32.66l.14.54c-.65-.08,0,.62-.64.54,0-.46,0-.9.5-1.08Zm-23.09-4.2c-.71.43-2.73,1.82-3.15,1.17.89.22,1.89-1.62,3.15-1.17Zm4.78.72c-.21-.84-1.46.06-2-.27,3.6-1.65,6.79-2.8,9.2-2.3-1,.54-2.2,1.74-3.65,1.49.22-.44,1.24-.39,1.08-1a8.64,8.64,0,0,1-4.55,1.71c.17.48.84.14,1.08.5-1.15,1-4,1.61-5.77,1.44a8,8,0,0,1,4.6-1.53Zm9.16-1.71c.33-.48,1.34-.53,1.53,0-.4-.18-1.2.29-1.53,0Zm-3.11.58A3.5,3.5,0,0,1,177,26.3c0-.1.1-.24.18-.05-.3.17.12.17.27.32a4.28,4.28,0,0,1-3.65,1.49Zm2.39,1.13c.43.31,1.58-.59,1.75.14-1.11,1-2,.17-3.51.49.15-1.07,1.88-1.64,2.8-1.08-.09.48-.94-.18-1,.45Zm5.18.05a2,2,0,0,1-2.69.58,2.09,2.09,0,0,1-.28-.22,2.77,2.77,0,0,1,3-.36Zm3.43.67a27.82,27.82,0,0,1-3,.19c.11-1.33,2.67-1.42,3-.18Zm-10.24-1.08c-.68.27-1.35,1.33-2.26.95,1.52-.59-.51-.34-.9-.54C172.13,28.63,173.77,28.11,174.53,28.82Zm-5.55.81c.31-.42,1.7-1.3,2.53-.63-1.11.15-1.74,1.15-2.52.63Zm14.79,1.67a4,4,0,0,1-2.16-.22c.73.06,1.65-.19,2.17.22Zm-24.84.27c.89-.75,1.95-.64,3.11-1.35.05.18.09.36.14.54a5.88,5.88,0,0,1-3.25.81Zm16.63-.9a2.4,2.4,0,0,1-1.93-.09c.69,0,1.56-.38,1.94.09Zm4.24.09a5.71,5.71,0,0,1-3.47-.09c1.33-.25,2.61-.43,3.48.09Zm-21-.5c-.53.3-1.19,1.32-1.62,1.17.47-.79-.52.16-.63-.23.74-.22,1.44-1.27,2.26-.94Zm-9.74.9a4.15,4.15,0,0,0-1,.63c-.2-.44,1-1.29,1-.63Zm17,0c-.63.12-2.86.9-3.84.76a12.66,12.66,0,0,1,3.84-.76Zm12.31.95c-2.07.27-3.25.65-4.78,0a13,13,0,0,1,4.78,0Zm1.35-6.86a3,3,0,0,1-2.75.5c1-.32,2-1.2,2.75-.49Zm6.09-.17c-.75.47-2.86.45-4.29.49-.43,0-1.55.62-1.4-.23,1.22-1,4.24-.59,5.69-.26ZM175,24.67c-2,.44-4,1.54-5.87,1.85,1.2-1,4.58-2.31,5.87-1.85Zm-7.13,2.16c-1.3.19-2,1.42-3.52,1.26,1.2-.23,2.58-1.88,3.52-1.25Zm-56.59,9.73a.19.19,0,0,1,.09.36,13.2,13.2,0,0,0-3.29.63c-.68-.2,2.35-.7,3.21-1Zm22-12.57c-.21,0-.22.33-.36.09.33-.36.11-1.06.63-1.31.35.36,1.35-.37,1.58.18-1.59,1.29.22,3.57.13,5.14-3.06,1.17.79,3.85.31,5.86-.37.39-1.3.44-1,1.22.65,1.91,4.87,2.75,2.57,4.91,1.16,1.56,3.61,2.52,3.74,4.24-.72.08-.85-.8-1.4-1-2.64.06-4-1.94-5.14-4.46.71-.08.53,1.32,1.53.76C132.7,35,132.61,28.39,133.28,24Zm-8,17.71,1.26-.31c0,.22.16.5-.05.59C126.28,41.51,125.5,42,125.25,41.7ZM106,39.63c-1.11,0,.72-.4,1.22-.5a12.32,12.32,0,0,1,4.32-.32,27.24,27.24,0,0,1-5.54.81Zm-6-1.94c-.13.5.71.61.22.9,0-.11-.08-.21-.22-.14,0,.1-.1.24-.18,0-.62-.42-3.27.33-4.29-.27,1.54-.2,2.75-.46,4.47-.54Zm-63.76,1c-.4-.58,1.73-.14,1.22.27a1.92,1.92,0,0,0-1.22-.27Zm19.66.46c.25.44,1.07-.09,1.26.45-.4,0-1.68.11-1.26-.45Zm-14.11.27a10.35,10.35,0,0,1,3.78.58,10.56,10.56,0,0,1-3.78-.58Zm4,.54a4.2,4.2,0,0,1,2.21.4,5.91,5.91,0,0,1-2.2-.4Zm34.81.5c-3.35-.58-7.34.14-10.28-.5,4-.42,7.39-.12,10.87-.23,4.55-.13,10.45-.68,15.42-.4-3.63.51-8,.43-10.54.93.43,0,.65.3.93.51-4.55.29-8.28.93-13.25-.13,2.27-.12,5.71.19,6.85-.18Zm9.29.36a.91.91,0,0,0-.31-.5c.45-.31,1.32,0,.85.36-.15-.28-.22.11-.54.15Zm5.59-.63c.39-.51,1.58-.22,1.71,0-.65.16-1.39.46-1.71,0Zm-9.06,1.31c-.84-.14-2.09.41-2.57-.32.85.13,2.09-.4,2.57.32Zm.18,0c1.56-.43,2.7-.72,4-.22-1.6.07-2.49.45-4,.22Zm-51.4-.19a3,3,0,0,1,2.07.63,4,4,0,0,1-2.07-.63Zm8.83.86c.51.52,1.61,0,2.08.63-.69,0-2.24,0-2.07-.63Zm29.8,5.78c-1-.26-3.82.32-4.51-.41.86.08,4.11-.38,4.52.41Zm31.84-.67a8.82,8.82,0,0,1-1.31-.64,3,3,0,0,0-1.76.63c-6.29.09-12.91.74-18.49-.36-3.25.64-6.39.09-9.6-.09-4.87-.28-9.83-.13-14.11-1.27-.23.42-.49,0-1.08.27-.31-.35,0-.56-.72-.58.1.21.37.3-.09.4-4.11-.72-8.62-.8-12.27-2.3.84.32.84-.81,1.49-.18-.29.15-.53-.15-.54.14,1.43,0,3.57,1.24,4.51.4a65.06,65.06,0,0,0,9.11,1.18c-7-1.2-13.71-2.28-20.74-4,6.82-.47,12.59,2.19,18.71,2-.21,0-.33-.13-.45-.28.84.24,2.36,1.28,3.74.41a6.24,6.24,0,0,1-2.57-.32c7.44.38,18.34.38,23.72.6a8.41,8.41,0,0,0,1.58.18c.94-.26,0-.13.94,0S88.43,43,89.35,43c5.37.15,11.2-1.27,16-1.3.36,0,.31.67.85.36,5.48-.87,11.59-1.05,18.44-2.88.1,1,2,.34,1.8,1.09a11,11,0,0,0-4.6.76c1.1-.32.23.51.68,1.17a2.91,2.91,0,0,1,2.61-.27c-1.68,1.2-5,.29-5.72,1.62a6.18,6.18,0,0,1,3-.18c-.86.49-1.9,0-2.34.59.6,0,1.5-.45,1.75.13-1.17.8-2.48.18-3.78.95,1.2-.22,2.43-.47,3.24,0-.52.19-2.43-.06-2.7.68A12.77,12.77,0,0,1,122,45.4c-6,1-10.62.89-16.41,1.8ZM71.77,42.41a26.08,26.08,0,0,1-6-.41,16.87,16.87,0,0,1,6,.41Zm65,1.77a15.84,15.84,0,0,1,2.71,1.63,22.72,22.72,0,0,1,6.71,3.87c.32.27.59,1.45,1.22,1-.33.68.89,1.09.45,1.8-2.46-.92-4.41-2.69-6.44-4.33a7,7,0,0,1-4.64-4Zm13.3,12.59c-3.9-2.54-8.5-4.1-11.49-7.67.21-.83-.59-.74-.32-1.27a6.7,6.7,0,0,0,3,2.12c.83.31,3.45,2.3,5.64,3.39.7.34,1.48.28,2.07.63,2.37,1.4,4.21,3.71,6.22,5-.17,1.23,1.58,1.68.9,2.08-1.81-.3-2.84-1.91-4.46-2.53,0-.7-.91-1.28-1.57-1.71Zm1.09,3.56A13.58,13.58,0,0,1,149,58.57c5.09,1.57,8.43,6.05,14.25,6.4-1.21,2-3.24.71-4.74.23A25.62,25.62,0,0,1,149,59.34c1-.22,1.6,1.41,2.17,1ZM112.48,45.84c.75.55,2.14,0,3.25,0-.65-.38-2,.15-3.24.05Zm-40-1.5c-.29-.11-.52-.34-.88-.33a3.43,3.43,0,0,0-.34.06,1,1,0,0,1,.34-.06c2.24-.48,5.62,0,8.54-.43-3.93-.45-7.9.44-11.77-.32-1.73.61-3.89-.1-5.63-.32.21.82,1.54.45,2.43.55,1.5.15,3.33.77,4.46.22.17.25.19.26.68.41.46-.11.19-.19.09-.41.78.06.85.89,2.08.64Zm46.35-.07c.35-.59-1.28-.3-1.54,0,.45.33,1.47-.29,1.54,0Zm-38-4.12c-.27.63,1.31.36,2,.27-.32-.63-1.44,0-2-.26Zm21.68,2.44c.91.24,1.4-.41,2.39-.4,0-.27-1.8,0-2.38.41ZM81.37,44.8c.39-.34-1.92-.49-2.61-.5a50.92,50.92,0,0,1-6.18-.19c2.9.85,5.6.42,8.8.69Zm4-4.64c-.83-.36-1.4.41-2.11,0-.24.63,1.78.32,2.12,0Zm.56.06a1.3,1.3,0,0,0-.33.07l.33-.06Z"/></g></g></svg>