<svg xmlns="http://www.w3.org/2000/svg" xmlns:xlink="http://www.w3.org/1999/xlink" width="163" height="189" viewBox="0 0 163 189">
  <defs>
    <clipPath id="clip-path">
      <rect id="Rectangle_152" data-name="Rectangle 152" width="163" height="189" transform="translate(-15718 -5875)" fill="#9b794e"/>
    </clipPath>
  </defs>
  <g id="Group_914" data-name="Group 914" transform="translate(15718 5875)">
    <rect id="Rectangle_85" data-name="Rectangle 85" width="163" height="189" transform="translate(-15718 -5875)" fill="#9b794e"/>
    <g id="Mask_Group_2" data-name="Mask Group 2" clip-path="url(#clip-path)">
      <path id="Path_1589" data-name="Path 1589" d="M983.076,3194.873c.959-.549-.354-1.416-.133-2.284C981.3,3192.967,982.434,3194.321,983.076,3194.873Zm99.6,33.852c-1.969.286-3.18,2.175-6.09,2.32a20.64,20.64,0,0,1-12.307-3.217c-5.379.686-12.008,4.157-17.326.681-.782,1.717,2.773,2.983,3.781,3.055,3.5.251,8.829-2.209,12.333-2.025,2.545.132,5.25,2.246,8.355,2.79s8.956.154,11-2.278c5.577.453,11.337,6.968,17.5,2.257C1093.428,3235.6,1088.565,3227.875,1082.673,3228.725Zm42.238-34.233c.014,1.253.274.1,1,.269a1.648,1.648,0,0,1-.923,1.035c4.518-.931,2.813-7.248,3.888-12.021,2.432,3.089,2.555,11.391,1.853,14.963,4.445.221,3.73-8.93,1.834-13.539,4.085,3.73,4.823,10.5,5.136,15.1,1.934-.754,2.357-2.857,3.691-4.145-.164-4.687-2.073-7.409-3.873-10.26-1.456-1.031-3.746-1.123-3.819-3.708,5.332,2.589,8.981,7.068,10.631,13.8,2.314-2.389.853-8.252-.225-9.486-3.714-4.262-13.712-4.186-14.126-11.957,6.723,4.912,15.4,11.136,26.093,9.294-6.157-.1-8.84-1.633-13.347-4.137-1.744-.971-4.427-1.114-3.818-3.71,1.422-.206,1.631.95,2.072,1.843,5.126.526,15.017,7.971,20.051,1.128-5.553-1.064-11.854-1.292-15.957-3.985,1.633-1.125,5.673,2.4,6.547-.054,4.538,2.734,11.126,3.188,15.078.107-3.217-.5-5.973.244-8.259-1.16-1.1-.678-1.205-1.952-2.128-2.824-2.967-2.8-7.573-3.535-10.846-6.249-4.886.33-12.072-1.123-14.292,2.141l-1.959.114c.221,2.055-1.2,2.646-1.733,4.033-1.462-.095-3.022-.083-3.974-.753C1121.3,3177.218,1124.048,3186.5,1124.911,3194.492Zm2.361-27c-.7.412-1.022,1.155-1.882,1.419a1.43,1.43,0,0,0,1.342.578C1126.881,3168.792,1127.487,3168.507,1127.273,3167.489Zm-53.035,68.28c-6.343-1.787-14.553-5.963-21.011-.746,4.538.111,11.793-2.924,15.824,1.7,4.409,2.609,8.211-1.829,12-2.01,4.929-.233,8.473,4.322,15.23,2.719-3.844-1.67-10.277-3.139-14.345-4.407A19.072,19.072,0,0,0,1074.237,3235.769Zm60.661-72.329a32.77,32.77,0,0,1,12.808.566c-.93-10.937-7.3-18.942-18-16.643-1.964,2.767-2.413,7.749-.949,11.849C1130.317,3161.167,1134.7,3159.955,1134.9,3163.44Zm-15.849,9.114c-.882.678.548,1.675.477,2.593C1120.947,3174.566,1119.59,3173.018,1119.049,3172.554Zm-61.72,14.727c-.514-.929-1.884-.9-3.321-.79C1053.949,3188.78,1055.666,3186.929,1057.33,3187.281Zm68.314,31.083c6.745-1.271,12.869-2.8,20.688-4.806,3.66-.939,7.9-3.287,10.566-4.218,5.992-2.1,7.615-5.076,11.606-8.866,7.074-6.717,10.748-16.284,9.1-29.357-2.913-23.176-15.7-44.717-36.078-45.736-.621-.227-1.342-.345-1.688-.886-.872,1.3-3.254.016-3.285-.136-16.963-2.466-31.648,12.411-28.174,28.174.656,2.98,2.341,5.265,2.452,8.378,3.16,3.291,5.442,7.567,10.039,9.243-.174-2.819-1.178-4.705-3.26-5.377.78-.306,3.1.96,4.589.061-.01.807,1.215,2.031,2.131,2.823,1.089-.062,1.052-1.127,2.228-1.112-.608-2.973-1.578-3.65-2.012-6.436,1.1.792,2.238,1.577,1.821,3.169.423-.141.479-.6.945-.709.488.57.82,3.492,3.435,2.748a2.754,2.754,0,0,0-2.764-2.459c-2.031-5.168-4.012-16.263,2.24-17.823,5.79-1.443,11.714,3.747,15.417,5.985,1.112,4.815,5.686,7.476,4.715,13.484,3.048,1.612,9.6,8.755,13.3,9.057,2.92.236,4.213-2.042,6.667-3.667a9.063,9.063,0,0,1-3.5,7.412c-.745.55-2.136.324-2.9.826-.733.48-1.4,2.344-2.423,3.417-1.188,1.241-2.6,1.193-2.768,3.108-3.109,1.9-8.271,2.667-11.986,2.337,2.106,5.014.118,10.446-2.083,14.863-1.757-.229-1.343-2.9-1.59-4.821-2.693,2.97-4.578,6.658-8.688,8.367.623-2.025,1.465-3.856.908-6.932-2.87,1.781-3.619,5.448-8.185,5.716.712-2.769,2.467-4.611,2.136-8.313-2.4,1.061-3.466,3.313-5.976,4.278-.827-.856.294-2.614-.248-4.244-1.9.266-2.44,1.75-4.474,1.9.374-2.045,2.725-5,2.444-8.663-24.4.056-36.066-14.206-53.686-21.774-4.294-.325-8.321-3.835-12.749-5.156-7.121-5.011-16.974-7.458-28.957-7.817-4.88-.146-10.053,1.173-15.02.874-5.194-.313-10.32-2.794-14.344-4.409,1.022,6.271,7.727,6.162,12.287,8.458-1.561,2.176-8.108-.786-10.373,1.915-.978,11.1,11.054,12.367,11.74,21.594-3.321-1.553-8.544-7.459-12.654-3.522a4.336,4.336,0,0,0-1.079,3.991c.673,5.28,8.895,8.521,9.039,14.545-2.238-.108-2.22-2.715-3.516-4.053-3.244-3.355-11.859-4.4-11.639,2.642.157,5.034,9.115,14.043,4.191,21.379-1.3-5.838-4.088-10.016-9.808-10.9-1.338,4.123,4.484,8.879,1.779,13.655.074.379.611.241,1,.27-1.632.419-.558,2.246-.445,3.629-4.091-2.938-6.414-7.867-12.306-8.784a14.375,14.375,0,0,1-1.556,1.4c-.328,4.082,1.994,5.18,3.376,7.339,2.894.186,5.072,1.977,7.625,1.522,2.315.983,4.232.873,6.316,1.6,4.709,1.644,7.85,6.525,11.652,8.824,1.841,1.114,6.131.126,8.873.466,3.265.407,5.323,1.568,8.372,3.117,1.14-4.07,6.854-2.816,8.854.143,2.32-2.568,6.145-2.853,9.641-3.182.244-3.4,3.251-4.333,6.593-4.972-1.161-1.593-3.013-2.411-2.629-5.743-1.035.006-1.04.93-2.246.785,1.7-4.247,5.664-5.889,10.546-4.544,2.356.649,4.417,3.189,6.72,2.885,1.378-.182,2.161-2.139,3.46-2.494,5.432-1.49,9.545,3.652,13.4,5.117,1.915-.675,4.489-2.4,6.435-2.013-1.505-2.366-5.577-4.862-9.194-6.017,1.5-1.331,5.991.348,7.95,1.5,1.45.857,2.3,2.806,3.82,3.711,6.382,3.8,15.047.877,22.564,4.911,2.426,2.79.816,6.511,1.837,9.068,1.1,2.754,4.446,2.067,5.852,4.9.639-.457-1.164-2.362-.188-3.266,2.663-1.915,5.32,1.176,6.413,3.231,2.825,1.258,8.614,4.113,11.215,1.314a5.28,5.28,0,0,1-4.377-2.04c-.615-4.268,6.123-4.377,10.163-5.506a43.164,43.164,0,0,0,4-4.491c-6.106,3.574-18.4,1.437-14.841-7.326a17.393,17.393,0,0,1,10.065-1.568c-3.008-1.928-5.084-3.6-8.428-4.1-2.816-.421-4.684.939-7.8,1.108-5.73.313-9.976-4.325-14.786-6.347-3.377-1.422-9.213-2.633-11.924-2.255-4.02.56-7.032,3.047-11.314,2.624.582-2.286,5.1-.985,4.287-5.164,1.806-.3,1.254,1.019,1.729,1.537,4.439-1.351,8.412.283,11.734-1.009.839.1.629,1.378,1.4,1.556,9.041.873,14.5,11.154,24.215,5.144.441-1.307-.888-.628-1.058-1.249C1125.911,3215.509,1124.634,3217.708,1125.644,3218.363ZM1004.11,3162.2l.978-.057c.083,1.2,1.888,2.266.861,3.555C1005.79,3164.02,1004.073,3164.1,1004.11,3162.2Zm2.068,7.416c-1.241.252-1.563-2.7-.5-2.921C1006.12,3167.934,1006.54,3168.16,1006.178,3169.617Zm.805,2.573c-.521-.591-2.714-1.1-2.072-1.845C1005.247,3171.143,1007.734,3171.323,1006.984,3172.19Zm-16.706,50.771a1.528,1.528,0,0,0-.384-.961c.936-.123,1.663-.015,2,.538A2.13,2.13,0,0,0,990.278,3222.96Zm136.995.878c-.928.619-2.314.831-2.845,1.8q.027-1.072-1.036-.923c-.562.9.918,1.05-.213,1.98-1.042.125-.616-1.4-1.708-1.213l.075,1.306c-1.747.172-1.795-1-2.937.172a2.578,2.578,0,0,0-3.978-.752c-2.356-1.756-5.6-2.514-7.486-4.808C1112.851,3223.712,1121.255,3223.754,1127.273,3223.839Zm-5.692,9.177a1.841,1.841,0,0,0,1.288-.4c1.253,3.229,6.046,2.481,8.139,4.769-2.251,1.248-4.433-.579-6.279-.945-1.043-.1-.027,1.628-1.231,1.382.339-2.469-1.936-2-2.8-3.113-.724.716.742,1.617-.883,1.689-.606-.926.491-2.56-1.478-2.861.09.813.683.983-.251,1.322a6.047,6.047,0,0,0-1.84-3.5c-.617.073-.163,1.092-.923,1.037-.454-5.477-10.34-3.172-11.96-8.477C1109.48,3227.582,1117.813,3227.25,1121.581,3233.015Zm-11.675-3.582c4.024,4.526,7.9,9.216,13.168,12.34-.973.073-1.88.664-3.554.861a18.4,18.4,0,0,0-4.2-4.669c-.633.366-.431,1.473-1.556,1.4-.285-1.182.633-1.294.52-2.324-1.13-.315-1.359-2.027-2.686-1.153.307-.938-.1-2.835-.787-2.247.565.127-.123,1.718-1.231,1.38.515-1.648.515-2.97-.879-3.88-.514.06-.21.847-.944.709-.979-3.787-7.437-3.212-7.6-6.766A41.161,41.161,0,0,0,1109.906,3229.433Zm19.064-15.851c2.177-.231,3.443-2.912,5.436-2.281C1133.978,3213.228,1130.366,3214.431,1128.97,3213.582Zm9.833.084c-.108-1.126,1.672-.576,1.882-1.42a1.542,1.542,0,0,0,.386.96C1140.388,3214.119,1139.407,3212.841,1138.8,3213.667Zm5.379-3.262c-.215-.821-.63-1.233.577-1.345C1144.977,3209.883,1145.39,3210.295,1144.182,3210.405Zm7.9-10.615c1.073-.077.7-1.44,1.883-1.422.177.617.968.54.749,1.6C1153.569,3200.388,1152.784,3201.068,1152.083,3199.79Zm1.09,7.472c.554-1.781,3.163-3.369,4.38-3.532C1156.741,3205.485,1154.193,3205.694,1153.173,3207.262Zm5-4.222c.111-.933.857-1.3,1.538-1.728A1.457,1.457,0,0,1,1158.168,3203.04Zm1.5-2.381c-.288-1.081.48-1.226,1.23-1.382C1160.831,3200.043,1160.776,3200.821,1159.669,3200.659Zm.848-2.343c-1.1.074-.755-1.473-1.422-1.883,1.191.41,1.9-1.163,2.267-.459C1160.085,3196.534,1160.82,3197.272,1160.517,3198.316Zm3.552-.86c-.134-.739.007-1.232.577-1.345.692.615,2.071.457,2.688,1.154l.095,1.635C1166.219,3198.621,1165.841,3195.99,1164.069,3197.456Zm2.734-9.332c-.088-.252-.3-.365-.671-.29-.147-1.059.961-1,1.211-1.707C1168,3186.7,1167.48,3187.819,1166.8,3188.124Zm7.837-.457c-1.364.073-1.357-2.314-.134-2.286C1174.284,3186.59,1175.184,3187.087,1174.639,3187.667Zm1.643-16.8c-.613-1.511-2.169-1.971-2.82-3.44C1174.6,3166.752,1177.431,3170.087,1176.282,3170.864Zm-2.884,6.719c.591.83-.15,1.113.44,1.94l-.98.059C1173.433,3178.575,1172.328,3178,1173.4,3177.583Zm-1.4-1.557c.362-1.68-1.549-.809-1.438-2.208l1.307-.078C1172.089,3174.463,1173.092,3175.829,1172,3176.026Zm-3.593-22.4c-2.1-.378-2.642.243-3.92.229C1164.977,3151.77,1167.364,3152.565,1168.4,3153.63Zm-4.592-.06c.95,1.137,1.244,3.011,1.9,4.477a1.772,1.772,0,0,1-2.055-1.521C1165.167,3156.621,1163,3153.773,1163.81,3153.57Zm4.374,7.608c-1.808,1-2.118-1.788-3.111-2.767C1167.186,3158.125,1167.311,3160.074,1168.184,3161.178Zm-4.924-17.077c.174,1.079,1.3,1.083,1.746,1.864-.841.772-1.972-.362-2.362-1.173C1162.693,3144.421,1162.978,3144.263,1163.261,3144.1Zm-.962.382c-1.013-.178-.927.62-1.939.44-.061-.4-.144-.765-.691-.615-1.8.649-.825.91-2.19,1.765-.813-.879.945-1.449.828-2.668-.279-1.079-1.109-1.537-1.459-2.535C1158.528,3142.23,1160.668,3143.072,1162.3,3144.484Zm-5.486-9.837c.914-.3,2.35.563,1.384,1.23C1157.951,3135.224,1156.54,3135.88,1156.813,3134.647Zm-1.294,11.542c.795.841,1.322.947,2.65.5-.087.793.638.675.424,1.614a6.629,6.629,0,0,1,3.53,4.382c-1.706-.695-3.753-2.663-3.53-4.382a1.533,1.533,0,0,0-.963.383C1157.522,3147.4,1154.815,3147.229,1155.519,3146.189Zm-.539,2c-.086-.25-.294-.363-.671-.288a1.841,1.841,0,0,0-.4-1.287C1154.82,3146.6,1156.24,3147.8,1154.98,3148.186Zm-1.224-9.755c-2.609-1.07-1.154-6.86,1.4-4.015-3.769.9.813,4.924.053,6.549-.941-.744-1.6-.763-.764-1.921a11.255,11.255,0,0,0-3.209,1.169C1150.265,3137.725,1153.141,3139.66,1153.756,3138.43Zm-2.691,4.414c.494,1.3,2.007,1.456,2.148,3.152-1.283-.29-1.094,1.222-1.939.438-.036-3.669-2.675-4.414-3.991-6.647C1150.454,3138.933,1152.34,3140.676,1151.065,3142.844Zm-1.492-8.76c-1.083.63-2.713-.683-3.63-.443.031-.387-.11-.924.271-1C1147.144,3133.335,1149.076,3132.9,1149.573,3134.085Zm-7.313-7.437c-.249.085-.361.294-.287.672a1.441,1.441,0,0,1-1.343-.577C1140.815,3126.545,1142.133,3125.888,1142.259,3126.648Zm-.041,4.916c-.943-.562-3.343.51-3.649-.771C1139.453,3130.051,1142.2,3130.184,1142.219,3131.564Zm-3.838-4.035c.072.614,1.091.164,1.037.921-.795-.086-.676.638-1.615.422C1137.669,3128.134,1137.812,3127.641,1138.381,3127.529Zm.7,12.08c-.435.128-.6.5-1.287.4l-.1-1.632A1.228,1.228,0,0,1,1139.083,3139.609Zm-1.473-8.431c-.277.622-2.67.706-2.631-.176C1136.013,3131.346,1137.388,3129.606,1137.609,3131.178Zm-.812,8.564c-.042-.682-1.851-1.122-1.073-1.575C1136.118,3138.452,1137.928,3138.894,1136.8,3139.742Zm-3.722-7.646a1.531,1.531,0,0,0,.385.961c-.889.24-1.318.892-2.23,1.111C1131.416,3133.094,1131.654,3132.068,1133.076,3132.1Zm-1.827,2.4c1.034.115,1.128,1.284,2.669.826-.026.975,1.386,1.537.115,1.961-1.177-1.554-2.509-1.136-3.593.208C1130.182,3136.065,1132.655,3135.97,1131.25,3134.5Zm-1.13-2.556c-1.309-.3-2.212,1.116-2.633-.176C1128.28,3131.919,1129.833,3131.218,1130.12,3131.941Zm-6.146,1.341c.37,1.568-.654,1.895-1.5,2.382-.072-.618-1.092-.167-1.037-.925C1122.368,3134.33,1122.582,3133.284,1123.974,3133.281Zm-4.018,4.165c-2.428-1-2.922,1.772-4.44,2.553.174-2.713.733-3.229,2.692-4.417C1118.34,3136.711,1119.963,3136.161,1119.956,3137.446Zm-4.448,13.69c.476,1.551,2.079,1.84,2.5,3.458A2.778,2.778,0,0,1,1115.509,3151.136Zm.214-1.979a2.138,2.138,0,0,1,.421,1.614C1114.962,3151.156,1114.752,3149.243,1115.723,3149.157Zm-.825-2.9c.362-.09.488-.393.615-.691.815-.011,1.046.553,1.632-.1a1.547,1.547,0,0,0,.383.961C1116.317,3146.729,1115.423,3147.672,1114.9,3146.258Zm-.107-13.1c1.082-.5,2.36-3.368,3.151-2.15-1.8.872-1.562,3.563-3,4.762C1114.233,3134.986,1115.7,3134.264,1114.792,3133.16Zm-3.45,19.529c-.412-.574.181-2.249-1.439-2.209.153-.585-.507-1.9.212-1.978a1.792,1.792,0,0,0,1.382,1.23C1111.009,3150.887,1112.124,3151.669,1111.342,3152.689Zm2.7-9.985c-.88,1.133-.338,1.827-.811,3C1112.894,3144.55,1112.354,3141.7,1114.038,3142.7Zm-.643,11.5c.551.891,1.622,1.194,1.479,2.864C1113.976,3156.787,1112.631,3155.2,1113.395,3154.206Zm.8,8.146a.892.892,0,0,0,1.017.6c1.558-2.255-2.208-4.783-.977-5.513,1.163,1.708,2.841,2.837,2.953,5.726C1116.122,3164.459,1113.547,3163.589,1114.2,3162.352Zm4.726-3.225c-.7-1.413-2.123-2.017-2.513-3.784.432-.028.266-.589.615-.69.071.614,1.094.162,1.037.923C1117.441,3156.948,1119.785,3157.666,1118.923,3159.127Zm-1.359-6.472a2.14,2.14,0,0,1,1.615-.421C1119.508,3153.986,1117.677,3154.332,1117.564,3152.655Zm1.309-5.646c.261-1.452-1.168-1.007-1.114-2.228C1118.818,3144.784,1120.9,3146.681,1118.873,3147.01Zm3.519-7.083c-.038-.682-2.115-1.9-.46-2.268.507,1.169,1.364,1.947,1.824,3.171-.917,1.1-1.916,3.794-3.8,2.186C1121.281,3142.445,1121.471,3140.859,1122.393,3139.926Zm2.377,7.068c-1.094.985-1.327,2.74-3.784,2.513C1120.6,3147.409,1124.314,3147.319,1124.769,3146.994Zm-4.575,5.835c1.161.206,1.6,1.213,2.093,2.171C1120.9,3155.054,1120.182,3154.35,1120.194,3152.829Zm1.3,5.495a1.562,1.562,0,0,1,.864-2.016c.243,2.171,1.786,3.511,1.612,5.149C1122.121,3161.563,1123.558,3157.981,1121.5,3158.324Zm2.634-5.4c-.691-.917-.415-3.115.444-3.629C1125.266,3150.215,1124.99,3152.415,1124.132,3152.928Zm.185-19.339c-.507-1.361,1.717-1.87,1.922-.769C1125.676,3133.146,1125.462,3133.78,1124.317,3133.589Zm3.049,7.355c-.251-.969,1.27-1.932,1.9-1.092-.481.4-.75.984-1.231,1.381C1127.954,3140.986,1127.743,3140.871,1127.366,3140.945Zm8.949,1.773c-2.45,1.756-9.148,1.872-8.6-1.465,2.021,2.2,5.466,1.7,8.2.179,2.1,1.346,3.933,3,7.065,3.194-.264-.209-.965-1.9.232-1.652.71.938,1.9,1.341,1.822,3.17C1141.73,3146.557,1139.359,3143.674,1136.315,3142.718Zm7.78-1.433c-.65.041-.363.914-1.27.728C1141.792,3141.331,1143.735,3139.843,1144.1,3141.285Zm-2.108-8.069c-.151,1.1-.923,1.656-1.155,2.688.232.668.748,1.018,1.076,1.577-.43.763-1.866,2.836-2.882,1.15.755-.155,1.385-.417,1.574-1.076-.383-.725-1.085-1.1-1.112-2.229.681-.736,2.2-.721,1.828-2.4,1.535.131,1.832-.844,2.535-1.458a13.345,13.345,0,0,1,1.747,1.864C1143.866,3133.129,1143.221,3133.616,1141.987,3133.216Zm2.616-5.72-.076-1.308c1.853.355,3.913.474,4.7,2.021C1147.293,3128.2,1146.387,3126.721,1144.6,3127.5Zm2.1,13.639c.058-.761-.964-.309-1.036-.926.43-.027.266-.587.615-.689C1146.4,3139.9,1147.672,3140.677,1146.706,3141.134Zm.379,6.529c1.5.4,2.169,1.737,3.419,2.42.438-.487-.165-1.58-.46-2.265,1.377.66,2.9,2.993,2.552,4.438C1150.878,3150.82,1147.332,3149.595,1147.085,3147.663Zm3.684,6.992c.8-.424,1.018-1.365,2.21-1.439a17.654,17.654,0,0,1-2.078,3.726C1150.566,3155.786,1151.546,3155.321,1150.769,3154.655Zm7.711,14.294c-2.763-.2-1.463-3.66-2.609-5.418-1.109-1.7-5.469-2.651-3.549-4.707a14.581,14.581,0,0,0,2.494,3.458c1.456.072,1.6-.542,2.612-.152.029-.386-.11-.922.268-1,.037.539.919.13,1.021.6-.933.409-1.892.793-2.191,1.764C1157.459,3166.033,1157.127,3166.755,1158.48,3168.949Zm1.522-7.624c-.621-2.4-3.406-3.4-2.993-6.377.32,1.939,1.75-1.2,2,.539C1157.909,3158.194,1160.4,3159.737,1160,3161.325Zm-.724-6.838c1.314-.346,1.121-.115,2.611-.15-.057.9,1.741,1.487.786,2.247C1162.061,3155.3,1160.28,3155.332,1159.278,3154.488Zm4.853,10.2c1.033,2.531.309,4.943,1.722,7.108-2.594-1.505-2.63-4.767-3.086-8.01,4.549-4.723,9.679,3.021,8.887,6.362C1171.255,3167.508,1167.81,3160.29,1164.131,3164.688Zm7.782,21.172c-.648,1.282-.231,3.512-2.077,3.725.228-1.389,1.051-3.342-.555-3.9-1.034-.1-.8,1.176-1.613.421a21.634,21.634,0,0,1,.481-2.977l1.635-.095c.32,1.216-1.721.326-1.211,1.709C1170.126,3184.623,1170.432,3185.9,1171.913,3185.86Zm-3.243-5.054c-.3-.278-1.043-1.787-.441-1.939,1.627,1.463-.15,2.614,1.842,3.5-1.01,1.165-2.147-1.093-3.264.192C1166.569,3181.207,1168.657,3181.931,1168.67,3180.806Zm-2.191,1.765c-2.85,1.181-4.138,5.4-6.88,5.645C1162.056,3186.832,1163.541,3181.48,1166.479,3182.571Zm-12.142,5.294c-.736.583-1.066,1.527-2.19,1.766C1151.88,3188.346,1153.583,3187.214,1154.338,3187.865Zm-.368,4.937c3.192,1.233,2.889-3.167,5.016-3.9-.344,2.273-2.1,3.292-3.326,4.78,3.817-2.388,6.189-4.492,10.165-5.5.561,1.636-1.735.727-1.174,2.362-3.878-1.11-8.446,3.426-8.8,6.408.551-.258,1.825-1.437,2.593-.478-1.183.6-2.307,1.25-3.5,1.841-1.445-1.659.2-3.35-.611-4.877-2.084.724-3.161,2.347-5.052,3.241C1149.679,3194.347,1152.269,3193.969,1153.969,3192.8Zm-3.366,9.7c-1.748.509-1.8,2.528-2.385,4.07-.613.108-.742-.327-1.325-.251-.138-1.152,1.494-.733,1.193-2.034-.492-.027-1.2.186-1.325-.251.809-.1.031-1.112-.077-1.305C1148.47,3203.423,1149.527,3202.038,1150.6,3202.5Zm-8.859,5.43c.751-.874.737.648,1.978.211-.041-.415-.443-.427-.384-.961,1.392,0,1.71-.955,3.228-.842-.832,1.119-2.7,1.312-3.112,2.8C1143.324,3208.24,1141.6,3209.127,1141.744,3207.927Zm-10.656-2.985c-.179,1.013.619.929.441,1.942a11.487,11.487,0,0,0-2.842,1.8c2.017.287,4.339.228,5.644,1.311,1.411-1.325,4.475-1.176,5.4-2.935l-.076-1.306c-.149-.877-1.408-.5-1.708-1.211,2.41-1.7,3.5,2.723,3.184,4.072-5.5,1.543-10.754,2.833-15.71.259C1127.854,3208.049,1129.359,3206.4,1131.088,3204.942Zm-11.155-5.9c-.9.154-2.364,1.59-2.939.172C1117.641,3199.038,1119.368,3198.259,1119.933,3199.038Zm-1.937-5.128c-.807.283-3.722.358-3.685-1.422C1116.059,3192.378,1117.724,3192.358,1118,3193.909Zm-1.246,1.055c.329,1.244-1.788,1.895-2.557,1.132A4.213,4.213,0,0,1,1116.75,3194.965Zm-2.348,4.724a1.552,1.552,0,0,0,.96-.384c-.037.623.411.7.4,1.289C1114.916,3200.733,1114.354,3200.554,1114.4,3199.689Zm.5,2.919a1.6,1.6,0,0,1-1.671-.558C1113.687,3201.5,1115.063,3201.464,1114.9,3202.608Zm.041-4.918.076,1.307a6.151,6.151,0,0,1-3.4-2.1c.622.038.7-.41,1.287-.4C1112.98,3197.574,1113.908,3197.691,1114.941,3197.69Zm-2.207-4.13c-1.214.319-1.154-.79-1.707-1.211C1112.087,3192.2,1112.62,3192.646,1112.734,3193.559Zm-4.089-2.71c-.538.037-.129.917-.595,1.018-.742-1.486-3.053-1.208-3.763-2.73C1105.787,3189.654,1107.949,3189.428,1108.645,3190.849Zm-10.656-2.984c.4,1.173,2.643.277,2.727,1.807l-2.613.151C1098.158,3189.247,1097.088,3188.25,1097.988,3187.865Zm-1.347,4.995c1.216.738,3.594-1.051,3.994,1.076C1098.974,3194.416,1096.368,3192.938,1096.641,3192.86Zm-4.392-7.937c.969,1.217,4.693,1.178,4.146,3.691C1095.279,3187.409,1091.056,3186.453,1092.249,3184.922Zm-5.935-.636c-2.5-1.6-4.367-3.906-6.872-5.5C1082.183,3179.928,1085.246,3181.583,1086.313,3184.286Zm-8.125,1.128c-.388-1.462-2.957-.146-3.013-1.135C1075.857,3183.421,1078.831,3184.78,1078.189,3185.414Zm-2.072-1.845q-1.711-.284-1.232,1.381c-1.016.215-1.358-.329-1.689-.884,1.685.134,1.39-1.553,1.238-2.01-.015-.01-.031-.017-.047-.026-.029-.141.005-.106.047.026C1075.107,3182.437,1076.391,3182.125,1076.117,3183.569Zm-2.26-10.681c.453,1.755-1.6.841-1.632.094Zm1.188,3.535c-.758,1.3-2.566,1.9-2.958-.156C1073.425,3176.549,1074.545,3175.057,1075.045,3176.423Zm1.446,19.247c-1.368-.2-3.971.982-3.975-.753.942.011,1.654-.18,1.922-.768-1.872-.727-4.091,1.137-4.992-1.346,1.222-.43,2.087.745,2.266-.46-1.225-.131-2.1-.659-3.322-.789.133-.88-1.439-1.585-.459-2.267,1.459-.007,1.878,2.978,3.072,2.114-.865.276-.672-.639-1.037-.923a3.678,3.678,0,0,1,2.686,1.154c.136.636-.4.675-.594,1.019,1.107.793,2.745-.354,3.61.117C1075.668,3194.018,1076.992,3194.931,1076.491,3195.669Zm2.15,3.148c-.036.623.41.7.4,1.288-1.041.108-.9,1.265-1.884,1.42-.381-.964-1.24-1.39-1.15-2.881A16.665,16.665,0,0,1,1078.641,3198.818Zm-7.354-2.52c.113.284.968,1.378,1.018.6.147-.481-1.319-.722-.383-.96,1.213.846,4.27,1.45,3.474,3.4C1074.277,3197.541,1071.182,3197.85,1071.286,3196.3Zm2.742,7.7c-.341.832-1.381.67-1.958.115.454-.112.328-.739.6-1.018C1073.513,3202.955,1074.076,3203.135,1074.028,3204Zm-12.311-3.215c.524.5,1.62-.373,1.71,1.21C1062.51,3202.189,1060.847,3201.456,1061.718,3200.785Zm2.516,3.786a1.821,1.821,0,0,0,.4,1.288c-1.491.386-3.552-1.868-2.111-2.5C1062.639,3204.276,1063.172,3204.718,1064.234,3204.571Zm-8.885-11.934c-.108-3.471-2.57-4.3-3.357-7.013,2.918-1.078,4.992.334,8.257,1.159-.184,2.588-3.6.444-4.8,1.917,1.145,4.976,7.961,3.582,9.944,7.613l.038.653C1061.63,3196.016,1059.557,3193.129,1055.349,3192.637Zm.872,15.02c2.469.137,1.745.95-.306.346-.269-.52.567-1.458.616-.691C1056.33,3207.342,1056.145,3207.384,1056.221,3207.657Zm.5-2.649c.035,1.118,2,.074,2.033,1.193C1057.849,3206.271,1055.921,3205.707,1056.724,3205.008Zm-3.435-2.749a24.823,24.823,0,0,0-2.976-6.05c2.62.2,3.156-1.293,6.185-.688.125,1.649.824,1.626,1.5,3.189-1.695.447-3.967-1.153-4.571.266,1.012,1.372,2.944.9,5.319,1.328-.419,1.52.337,1.367.5,2.92C1056.909,3203.454,1055.482,3201.046,1053.289,3202.259Zm-8.872-6.037c-.6-1.068-.65-2.746-2.131-2.824-.133-.637.406-.673.6-1.018-1.849-1.749-4.262-2.863-5.547-5.248a9.37,9.37,0,0,0,4.785-2.244c.931,2.65,2.656,2.9,3.566,5.034-1.407.52-2.755-.82-3.592.208a12.254,12.254,0,0,1,3.512,4.057c1.781.783,4.218.828,4.761,3C1048.19,3197.248,1046.555,3195.076,1044.417,3196.222Zm7.868,11.338c-.383-.163-2.661-.251-2.035-1.193C1050.663,3206.854,1053.151,3206.784,1052.285,3207.56Zm-11.273-2.293c.8.773,1.479,1.938.151,2.61C1040.319,3207.339,1040.442,3206.1,1041.012,3205.267Zm-.135,3.282a1.6,1.6,0,0,1-1.67-.558c.46-.1.517-.569.942-.709C1040.188,3207.932,1041.061,3207.646,1040.877,3208.549Zm-1.323-5.819c2.028-.421,2.359,1.063,2.764,2.459C1041.225,3205.8,1040.041,3203.926,1039.553,3202.73Zm1.808-2.727c2.2-.183,4.011.516,5.531-.649-2.182-.325-4.527-.734-6.876.074-.021-.491-1.289-1.267-.422-1.615.074.624,1.072-.447,1.959-.113-.38-1.683,1.391-1.447,2.173-2.095.659,1.144,0,.968-.212,1.98,1.522-.568,3.393,2.128,4.376,2.038-.135-.659-.92-.588-1.054-1.25.612-.107.74.328,1.324.25.262,1.162-.288,1.6-.521,2.325C1045.349,3200.859,1042,3201.956,1041.361,3200Zm-16.465,9.8c-.068-3.289-4.288-1.909-4.547-4.978,1.328-.334,1.7.4,2.955.156.138.637-.4.674-.595,1.018,2.974.368,3.576,3.4,6.451,3.884C1027.653,3209.957,1025.975,3210.217,1024.9,3209.807Zm-.411,9.852c-.08-.838-1.3-.393-1.381-1.231l1.959-.112C1025.2,3219.054,1025.054,3219.545,1024.485,3219.659Zm-19.363,5.057c-.885.639-3.468,1.433-3.936-.1C1003.142,3224.767,1004.2,3223.023,1005.122,3224.717Zm-5.66-7.207c1.127-.741,2.866.364,3.667,1.1A13.7,13.7,0,0,1,999.462,3217.51Zm4.433,3.019a1.385,1.385,0,0,1,1.442,2.21C1004.743,3222.127,1003.647,3222.086,1003.895,3220.529Zm1.373-10.237c-.4-1.294,1.874-1.427,1.632-.093Zm.558-1.669a14.7,14.7,0,0,1-1.558,1.4,8.163,8.163,0,0,1,.138-3.284c1.539,2.1,4.946,2.092,5.547,5.247C1007.644,3211.913,1007.805,3209.065,1005.826,3208.623Zm-.2-14.733a3.1,3.1,0,0,1,.828-2.667C1006.616,3192.666,1007.3,3193.625,1005.625,3193.889Zm25.573-16.555c.443,1.33.339,1.856-.5,2.649C1029.516,3179.228,1030.575,3178.164,1031.2,3177.334Zm-.247-4.244c.108,1.283,2.549,1.757,1.8,2.842-.335-.941-.8.474-1.635.1C1030.724,3175.636,1030.316,3173.491,1030.951,3173.091Zm-.214,7.547c-.178.978-2.306.22-2.213,1.439,4.978.007,7.67,4.306,9.6,7.3-.424-.449-1.272-.423-1.689-.885-.481.809-.8,1.765-1.843,2.074a5.372,5.372,0,0,1,.521-2.323c-.817.1-.835-.687-1.365-.9a1.434,1.434,0,0,0,.578-1.344c-2.026-2.132-5.761-2.34-7.181-5.151C1029.018,3181.066,1029.879,3178.709,1030.737,3180.637Zm5.047,2.328c.586.153,1.9-.507,1.979.211-.732.586-.683,1.87-2.191,1.767C1034.642,3184.145,1035.913,3183.934,1035.784,3182.966Zm-1.38-1.23c1.494-.236,2.44-.608,2.994.807C1036.019,3182.7,1034.81,3182.669,1034.4,3181.735Zm-4.542,12.058c.132-2.36,3.529-1.813,4.383-3.532,1.3,1.931-1.229,2.163-2.462,2.765,1.561.333,3.175.607,3.418,2.423-.959.9-2.327.038-3.591.208C1032.46,3194.117,1030.84,3194.211,1029.861,3193.793Zm-.592-4.553c-.588.742-3.592-.438-2.63-.175.819.008.992-.561,1.248-1.056-.326-.331-1.211-.031-1.038-.921.433-.03.266-.588.617-.692.538.557,1.929.153,2.035,1.193C1028.79,3187.574,1029.42,3188.756,1029.269,3189.24Zm-3.8-3.382c.076.841,1.418.261,1.074,1.574C1025.286,3187.825,1024.2,3186.244,1025.47,3185.859Zm2.44-3.092c-.766-.068-1.542-.122-1.381-1.229C1027.542,3181.324,1027.5,3182.3,1027.91,3182.767Zm-3.986-12.216c.768-.69,2.827-.6,2.977.48C1025.836,3170.953,1024.1,3171.625,1023.924,3170.551Zm-.547,13.136a16.158,16.158,0,0,1,1.713-4.358,6.235,6.235,0,0,1,1.17,3.207C1024.7,3182.343,1024.454,3184.419,1023.376,3183.687Zm.057.979c-1.639.458-2.207,1.486-3.553.861-.045-1.689,2.379-1.184,3.153-2.149C1022.993,3184,1023.442,3184.078,1023.433,3184.666Zm-1.845,2.073c-.471.778,1.758,1.489,2.419,2.154a5.335,5.335,0,0,0,.17,2.938c5.434-.192,6.39,4.645,9.885,6.63-.709,1.768.084,5.365-2.326,5.05,1.894-5.935-3.337-9-7.175-10.72a9.448,9.448,0,0,0-1.847,2.073c-.222-2.42.736-5.072-1.742-7.435-1.451.112-2.948-1.54-2.438-2.479C1019.383,3185.822,1020.8,3186.829,1021.589,3186.739Zm13.912,19.5c-.964-.092-2.442-1.407-2.073-1.844C1034.1,3205.031,1035.286,3205.089,1035.5,3206.241Zm-5.7-2.29c-.25,1.6-.635.917.44,1.942-1.463.352-3.441-.52-2.706-1.482q.506.475,1.037.923C1028.278,3204.252,1029.045,3204.109,1029.8,3203.951Zm-3.511-4.053c-.735.251-1.933.761-2.613.151l-.076-1.307C1024.521,3197.96,1026.556,3198.251,1026.286,3199.9Zm-3.053-1.789a1.834,1.834,0,0,0-.4-1.286c1.06-.146,1.594.295,1.707,1.211Zm-6.794-4.19c.007-.589-.372-.746-1.018-.6a1.839,1.839,0,0,0-.4-1.286l1.306-.078C1015.922,3192.922,1017.308,3193.566,1016.439,3193.919Zm.142,13.752c-.557.817-.924.577-2.574.8C1013.955,3207.416,1016.1,3206.368,1016.581,3207.671Zm.132,2.284c.135.738-.006,1.232-.576,1.343-.326-.559-.844-.907-1.076-1.577C1015.97,3209.4,1015.935,3210.134,1016.713,3209.955Zm-.721-12.406c.486.5,1.632.252,2.016.865.053.767-.5.992-.212,1.977C1016.62,3200.309,1015.6,3198.24,1015.992,3197.549Zm1.4,7.123a1.514,1.514,0,0,0,.96-.382c.089.251.047.644.365.634a3.941,3.941,0,0,1-1.516,2.055C1017.15,3206.111,1016.964,3205.122,1017.389,3204.672Zm-1.1-13.365c1.568.259.661-1.686,1.865-1.749-.216.939.508.82.421,1.614-1.8.68.957,1.506.805,2.575C1017.423,3194.99,1016.653,3192.892,1016.285,3191.307Zm3-10.333-3.266.189c-.448-1-1.2-1.662-1.477-2.861a12.106,12.106,0,0,0,1.806-2.727c.772,1.439.106,3.3,3.15,3.421C1019.794,3179.982,1018.993,3179.99,1019.288,3180.975Zm-.812,8.567c-.961-3.3-4.366-6.373-5.453-10,.223.549.464-.687.907-.552C1014.262,3182.7,1019.508,3184.448,1018.476,3189.542Zm-3.422,3.146.058.98c-.995-.261-2.527.072-3.3-.463C1013.128,3192.791,1013.6,3192.316,1015.055,3192.687Zm-.368,4.936c-1.139.157.675,1.413-.251,1.324-.112-.566-.6-.71-1.344-.576.133,1.77.354,3.62-1.078,4-.785-.788,1.417-4.2-.919-4.534-.31-1.1,1.3-.491.885-1.688-.634-.913-.5-2.689-2.419-2.154.618-2.228-1.466-2.793-2.726-1.806a2.13,2.13,0,0,1,.231-1.651C1011.094,3191.224,1012.07,3195.345,1014.686,3197.623Zm-6.761,2.032a12.231,12.231,0,0,0-.787-2.248C1008.386,3197.08,1009.148,3199.3,1007.925,3199.655Zm3.063,13.252c-.256,1.337.594,1.423,1.094,1.9-.942.017-2.127.3-2.63-.175A1.563,1.563,0,0,1,1010.988,3212.907Zm-.919-4.532c.785-.258,1.642-.756,1.672.558A1.6,1.6,0,0,1,1010.069,3208.375Zm.138-3.285c1.054-1.1-.59-2.1-1.44-2.208,1.283-.364,2.214-1.218,2.938-.17a2.3,2.3,0,0,0-.94.709c1.1.152,1.655.921,2.689,1.153.118.931.143,1.781-.887,1.69C1011.845,3205.288,1010.993,3206.26,1010.207,3205.091Zm5.2,10.51c.246,1.213-2.365.6-2.3-.195C1014.149,3215.156,1014.632,3215.541,1015.4,3215.6Zm1.36,6.474a2.128,2.128,0,0,1-.232,1.651c-1.017.223-1.318-.639-1.958.113C1014.759,3222.2,1016.429,3223.692,1016.763,3222.074Zm-.073-6.875c1.966.029,2.772-.377,3.632.444C1018.895,3215.737,1017.378,3215.933,1016.69,3215.2Zm2.3-11.273c.946-.445,1.481,1.3.747,1.593C1019.555,3204.906,1018.981,3204.741,1018.985,3203.926Zm-.306-5.224c-.019-2.184,1.921-2.626,3.4-3.475-.333,1.324,1.289,2.234.5,2.919-.529-1.323-4-.156-1.92.769A2.8,2.8,0,0,1,1018.68,3198.7Zm13.008,20.865c-.9,2.314-4.563.014-5.57,0C1028.316,3218.593,1030.262,3219.579,1031.688,3219.568Zm1.554,4.169c-.079-.956-1.287-.641-1.095-1.9a1.54,1.54,0,0,0,.961-.386c1.614,1.245.523,5.12-1.751,3.707C1032.385,3225.04,1033.291,3224.814,1033.242,3223.737Zm-2.641-17.209a5.146,5.146,0,0,0-.171-2.94c1.978.725,4.611,2.41,4.819,3.979C1033.88,3207.02,1031.794,3207.273,1030.6,3206.527Zm4.374,7.609.98-.056a1.85,1.85,0,0,0,.4,1.287c-.854-.3-1.061,1.472-1.613.419C1036.107,3215.29,1035.264,3215.234,1034.975,3214.136Zm-1.3-16.634c1.745.476,4.845-.571,5.321,1.327-1.579.7-.146.677.112,1.959C1036.148,3200.992,1034.984,3199.167,1033.68,3197.5Zm25.689-14.6c-1.706-.054-3.324-.206-3.7-1.75,1.646.179,1.947-.167,3.918-.229C1059.633,3181.693,1059.074,3181.921,1059.369,3182.9Zm-3.261-5.379c-1.7.06-3.024-.313-3.379-1.77l2.939-.172C1055.7,3176.352,1056.285,3176.512,1056.107,3177.525Zm-3.091-2.442c-1.016.212-1.356-.331-1.688-.885,1.624.311.7-1.65,1.864-1.747C1054.145,3173.336,1053.107,3174.2,1053.016,3175.083Zm-.213,1.977c-.546.949-1.87-1.531-2.285.132-.032-1.471-1.647-1.165-1.477-2.861C1051.42,3173.979,1052.01,3175.633,1052.8,3177.06Zm-1.537,1.728c.038-.622-.41-.7-.4-1.289,1.957.816,2.988,2.676,4.493,4-3.4-1.237-4.427-3.016-7.469-4.479.377-.078.323-.537.269-1C1049.778,3176.29,1050.121,3177.991,1051.267,3178.788Zm.938,4.859c-.455.542-1.438.449-1.345-.577,1.152-.456,3.011-1.974,3.285.137-1.217.323-1.584-.309-2.632-.173C1051.543,3183.466,1052.1,3183.3,1052.205,3183.648Zm-3.74-7.974c-.087-.249-.3-.361-.673-.286.028-.493-.185-1.2.253-1.326C1048.162,3174.442,1049.43,3175.217,1048.465,3175.674Zm2.109,8.069c-.488.083-1.215-.046-1.288.4,1.109.492,2.474.7,2.438,2.479-2.982-.258-2.56-2.718-4.166-4.017C1048.413,3181.988,1050.63,3182.243,1050.574,3183.742Zm-1.737,9.6a7.488,7.488,0,0,0,5.858-.669C1055.217,3195.138,1049.3,3196.3,1048.837,3193.344Zm.056.98c-1.044-.45-2.75-.157-3.34-1.118C1046.8,3192.238,1048.277,3193.483,1048.893,3194.324Zm.043-4.918c-1.844,1.759-5.007-1.454-3.723-2.074C1046.433,3188.047,1048.787,3187.489,1048.936,3189.406Zm8.563,6.383c.541,1.3,2.835,1.509,2.148,3.151C1057.94,3199.224,1057.306,3196.483,1057.5,3195.789Zm1.917,4.8c.128.667,1.448-.007,1.362.9C1060.027,3202.219,1058.67,3201.256,1059.416,3200.593Zm1.859,3.822c-.776-.518-1.793-.768-1.764-2.192C1060.548,3202.236,1061.91,3203.68,1061.275,3204.415Zm4.622-16.323c.143,1,.793,1.428,1.112,2.229-2.161,2.048-6.149,1.257-8.508.167C1060.462,3189.849,1064.869,3191.712,1065.9,3188.092Zm-5.2-4.938c1.873.221,4.217,1.749,3.8,3.383-1.3-.355-1.68-2.534-3.051-1.789C1061.265,3184.135,1060.69,3183.969,1060.694,3183.154Zm4.658,12.505c.384-1.973,5.05-1.188,4.955.7C1068.578,3196.213,1067.418,3195.425,1065.352,3195.659Zm2.13,2.826c1.455.221,3.257.052,3.688,1.425A19,19,0,0,1,1067.482,3198.486Zm3.4,2.094a7.216,7.216,0,0,1-4.243.249l-.076-1.307C1068.067,3198.553,1069.75,3200.007,1070.879,3200.579Zm.2-13.444c.994-.053,2.224,1.417,1.745,1.865A12.991,12.991,0,0,1,1071.083,3187.135Zm1.191-2.034c-1.141-.218-2.762-.163-3.686-1.423C1070.236,3183.682,1072.161,3183.373,1072.274,3185.1Zm-2.575.806c.143,2.106-4.22,1.386-3.974-.752C1067.456,3184.949,1068.341,3185.693,1069.7,3185.907Zm-4.233-16.462c.74-.136,1.232.006,1.344.577-.462.1-.52.568-.943.709C1065.741,3170.3,1065.368,3170.134,1065.466,3169.446Zm.745,7.164c-.252.087-.364.3-.289.672a2.018,2.018,0,0,1-2.343-.847C1064.534,3175.893,1065.459,3175.467,1066.211,3176.609Zm-2.953-5.726c-.336-.782-1.843-.248-1.729-1.536C1062.6,3169.093,1063.954,3170.3,1063.257,3170.883Zm.512,8.816c.578,2.063-2.3,1.047-3.171,1.822C1060.524,3179.906,1062.1,3179.758,1063.769,3179.7Zm-3.1-8.338c.314,1.135-.771,1.511-1.251,1.057C1059.266,3171.563,1059.805,3171.32,1060.664,3171.361Zm-6.333-7.493c.662,1.109,2.2,1.242,2.763,2.46a11.615,11.615,0,0,1-3.724-2.079A1.537,1.537,0,0,0,1054.331,3163.868Zm-2.922,6.066c.523.8,2.015.516,2.378,1.5C1052.609,3171.582,1050.814,3170.624,1051.409,3169.934Zm-7.432-3.826a23.771,23.771,0,0,1,6.739,3.211C1048.137,3168.621,1045.629,3167.845,1043.977,3166.108Zm-.756,9.544c-.817.529-1.143,1.275-2.247.787-.035-1.067.317-1.785,1.192-2.037C1042.3,3175.063,1043.087,3174.991,1043.221,3175.653Zm-.989-11.41c1.747,0,3.3.082,4.262.081C1045.907,3165.689,1042.381,3165.916,1042.232,3164.243Zm.876,9.451c1.345-.121,2.078.447,3.611.115-.179,1.3.243,1.688-.195,2.3C1045.441,3175.247,1043.716,3175.1,1043.108,3173.694Zm6.249-10.848c-1.038-.1-.156,1.511-.884,1.689.01-1.453-1.239-3.123-2.533-4.111C1047.973,3160.227,1048.622,3161.587,1049.357,3162.846Zm-7.85-5.441c.634.8,1.851.933,2.706,1.481C1042.868,3159.107,1040.936,3158.182,1041.506,3157.405Zm-.6,1.019c-.183,1.018.934.576.749,1.594-.462.548-1.376.071-1.671-.558C1041.177,3159.9,1040.12,3158.34,1040.908,3158.424Zm.4,6.856c-1.5-.521-3.163-.851-3.435-2.749C1039.561,3162.837,1040.438,3164.054,1041.308,3165.28Zm-3-.809a3.044,3.044,0,0,1,2.036,1.193c-1.239-.278-.884.865-1.921.769C1037.783,3165.884,1038.643,3165.585,1038.312,3164.47Zm.152,2.612a1.841,1.841,0,0,0-1.285.4,1.528,1.528,0,0,0-.384-.959C1037.559,3166.289,1038.284,3165.937,1038.464,3167.082Zm.879,9.451c2.329,1.9,2.4,6.347,7.2,5.477a5.5,5.5,0,0,1,1.824,3.171c-2.014.034-4.575-2-5.57,0,.041-1.679-2.624-2.142-1.842-3.5,1.315-2-3.288-3.217-4.222-5Zm-4.394-7.935c-.418-.253-1.6-.16-1.036-.924C1036.72,3169.212,1037.6,3170.19,1034.948,3168.6Zm.14-8.853c-1.557.241-2.182-.562-3.013-1.137A8.038,8.038,0,0,1,1035.088,3159.745Zm-3.021,10c-.921,1.005-2.216-.16-2.21,1.438.182-.012.385.243.017.326-.587-.843-1.723-1.077-2.4-1.827C1028.559,3169.124,1031.509,3168.073,1032.067,3169.749Zm-4.01-6.976c2.016.171,3.111,1.376,3.473,3.4A4.182,4.182,0,0,1,1028.057,3162.774Zm3.384-3.8c-2.364,1.57-4.122-2.826-6.74-3.212C1027.944,3155.713,1029.3,3157.785,1031.441,3158.974Zm-4,4.49c-.443-1.357-2.88-.473-3.685-1.423C1024.712,3159.876,1028.261,3161.783,1027.443,3163.465Zm-1.787,3.052a12.484,12.484,0,0,0-2.557,1.133c-.073-1.542-.716-2.441-.88-3.882C1023.546,3164.8,1023.693,3167.084,1025.655,3166.517Zm-8.156-10.665,2.286-.132c.315,1.209-.275,1.614-1.21,1.709C1019.1,3155.911,1017.25,3157.06,1017.5,3155.852Zm.605,16.02c2.46,2.337,6.715,2.656,7.291,7.11-1.014-4.078-6.338-3.312-7.925-6.747C1017.527,3171.977,1017.719,3171.842,1018.1,3171.871Zm-1.424,3.687c-.322-1.807-1.762-3.941-1.609-5.147C1016.621,3171.291,1019.113,3174.216,1016.68,3175.558Zm-1.66-17.268c-1.529.329-2.433-.051-2.688-1.156C1013.532,3157.178,1014.911,3157.019,1015.02,3158.29Zm-.3,11.811c-1.415-.378-2.677-.933-2.784-2.786C1013.282,3167.653,1015.02,3169.043,1014.724,3170.1Zm-3.1,8.7c.353.557,1.609,1.872.8,2.574C1012.209,3180.673,1011.143,3179.143,1011.626,3178.8Zm-1.488-14.329q-.219,1.291,1.036.924l.095,1.632a2.689,2.689,0,0,1-2.744-2.135A2.143,2.143,0,0,1,1010.138,3164.47Zm-1.351,10.563c-.419-1.218.82-2.544,1.192-2.034-.943.333.471.8.094,1.632C1009.452,3174.594,1009.375,3175.043,1008.787,3175.033Zm-2.351,10.293c.9,1.08,1.565,2.416,3.723,2.078.079-.448.429-.65.253-1.324-1.415.3-3.273-.711-2.4-1.828.886.862,1.692,1.809,3.379,1.769l.132,2.285a31.421,31.421,0,0,1-3.284-.135c-.562.46.84,2.031-.864,2.016C1006.453,3189.473,1005.89,3186.533,1006.436,3185.326Zm-6.2.361a2.135,2.135,0,0,1,1.652.231C1001.873,3187.336,1000.211,3186.949,1000.234,3185.687Zm4.4-3.205c.622.038.7-.409,1.289-.4-.8.833.784,2.264.1,1.634C1005.6,3183.247,1004.635,3183.407,1004.632,3182.482Zm1.252,21.549c-1,.511-2.015-.692-2.284.133a5.393,5.393,0,0,1,.789,2.249c-2.311-1.232-3.1-4.169-5.549-5.247C1000.99,3201,1003.692,3203.1,1005.884,3204.031Zm-9.793.571c2.081.316,4.583,3.374,1.57,4.494-.089-.359-.39-.485-.689-.614-.349-1.031,1.049-.509.9-1.361C997.032,3206.776,995.557,3205.338,996.091,3204.6Zm-1.114-2.229c2.256-2.246,2.694-5.759,2.118-8.642.615.587,1.442.934,2.056,1.521C998.043,3197.6,999.033,3201.958,994.978,3202.373Zm-.512,19.359c3.188-.765,4.566-2.84,2.944-5.74a1.535,1.535,0,0,0,.959-.383c1.017,1.37-.453,3.419.9,4.208C998.55,3221.361,996.02,3223.649,994.465,3221.732Zm44.129,9.556c-2.595-.125-4.257-2.486-7.027-2.541-3.194-.061-5.85,1.866-8.684,2.8,2.084,1.717,5.439,2.008,6.816,4.517-5.266.208-8.506-4.3-13.728-5.1-6.533-.995-13.15-.013-18.224-3.525,3.824,1.292,7.384.691,11.195.987,4.33.337,8.483,2.185,12.887,1.873,4.866-.346,9.77-5.528,15.81-4.2.2,1.623-2.169.958-2.844,1.8C1036.162,3228.864,1039.153,3229.257,1038.594,3231.288Zm-.026-17.359c2.813-.265,4.908.28,6.318,1.6C1042.564,3216.508,1040.023,3214.063,1038.568,3213.928Zm1.954,5.454c1.978.463,2.432-1.07,4.534-.919C1044.378,3220.281,1041.492,3220.773,1040.523,3219.382Zm11.971-8.23c-.873-3.213-6.19-5.885-9.848-5.981-.014-.713-1.017-2.06-.459-2.267C1045.475,3203.966,1053.662,3207.7,1052.493,3211.152Zm-1.817-8.742a1.561,1.561,0,0,1,2.014.865A1.863,1.863,0,0,1,1050.676,3202.41Zm2.223,4.457c.785.4,2.437-.186,2.362,1.174C1054.478,3207.647,1052.824,3208.228,1052.9,3206.867Zm9.1,9.956c-1.777,1.142-2.75.044-3.553.86-.143-1.345-2.5-.2-2.708-1.479,2.489.56,7.585.226,5.016-3.9C1063.584,3212.129,1061.756,3214.974,1062,3216.823Zm-1.03-6.493c-2.027-.334-5.324,2.206-4.685-1.692,2.634,1.71,5.008.585,7.314,1.87C1062.435,3211.518,1062.125,3210.521,1060.965,3210.33Zm3.244-.516c.125-1.189.423-2.22-.189-3.266a2.126,2.126,0,0,1,1.652.234C1065.145,3207.757,1066.033,3209.991,1064.209,3209.814Zm-.148-8.182c-.087-.249-.3-.362-.67-.288a3.1,3.1,0,0,1,2.786-2.783C1066.289,3200.313,1064.949,3200.77,1064.061,3201.632Zm.733-4.3,1.307-.076a1.544,1.544,0,0,0,.383.96C1065.468,3198.428,1065.125,3197.885,1064.794,3197.331Zm1.7,12.35c.848-.141,1.411.038,1.362.905C1067.011,3210.727,1066.447,3210.547,1066.5,3209.68Zm.58-6.913c.991.857,3.925-.467,4.935.368C1071.676,3205.433,1066.676,3203.467,1067.076,3202.768Zm4.008,6.972c-.125-1.787,2.268-.87,2.305.2C1072.273,3210.263,1072.109,3209.522,1071.084,3209.74Zm2.231-1.11c.806-.1,1.58-.154,1.67.558-.668.222-.663.549-.271,1C1073.841,3210.124,1073.564,3209.394,1073.315,3208.63Zm.862,3.551c-.179-.709.871-1.855,1.248-1.053C1074.8,3211.3,1075.485,3212.625,1074.177,3212.181Zm2.5-7.678a2.767,2.767,0,0,1-1.939.439,12.145,12.145,0,0,1-.786-2.247,2.051,2.051,0,0,1,2.956.154c-.187.659-1.824.027-1.918.769C1075.166,3204.344,1076.776,3203.466,1076.677,3204.5Zm.283,10.467a3.845,3.845,0,0,0,3.243-.516C1080.352,3215.8,1076.242,3216.22,1076.96,3214.97Zm2.6-6.048c1.543.125,3.885-.654,4.917.042A7.321,7.321,0,0,1,1079.556,3208.922Zm.617-6.261c-.085.793.641.676.423,1.615C1079.346,3204.442,1078.768,3202.837,1080.173,3202.661Zm3.979-4.819c.841-.84,1.835.253,3.266-.188l.076,1.306c-1.285.356-2.44-.349-2.937.17-.345-2.225-3.641-.029-3.938-.1,1.281,1.324,3.84,1.216,6.338,1.925-.193,2.407-1.914,3.457-3.672,4.47.133-1.635,2.4-1.372,2.1-3.4-1.1-.748-2.975-1.9-3.976-.752-.978-.407-1.534-1.291-1.478-2.863.941-.709,2.14-1.192,2.825-2.13-1.275-2.274-2.867-5.332-5.393-2.635a1.477,1.477,0,0,1-.441-1.939c-1.534-.944-3.068-1.889-3.821-3.71,2.779.938,4.775,2.753,6.817,4.519.1-.568-.534-.809-.058-.98,2.905,1.741,6.458,3.532,9.353,3.06a2.326,2.326,0,0,1-1.021-.6c1.5-.25.8-1.774,1.176-2.362.071.616,1.092.164,1.037.923-1.006.243-.529,2.244-.5,2.649-1.745,1.014-3.879.132-6.589-.6C1082.748,3195.5,1082.973,3197.827,1084.152,3197.842Zm10.581,1.68c-1.149-1.379-1.252-2.952-3.091-3.342a1.23,1.23,0,0,1-.381-.061c.136.017.261.037.381.061.591,0,.458-.646.886-.79,1.57,1.7,3.677,1.875,5.972,1.292.119.544.9,1.764-.193,2.3-.611-1.091-3.436.271-2.535,1.458a3.382,3.382,0,0,1-2.921.5c.022.892.582.625.075,1.306-1.7-.3-3.517-.456-4.666-1.369C1090.222,3199.085,1092.811,3201.334,1094.734,3199.522Zm-5.131,7.5c3.454.5,3.28-2.24,5.4-2.934,1.2,1.837-1.456,1.957-2.461,2.764l.038.654c1.461.215,3.361-.064,4,1.078C1094.2,3207.362,1090.887,3209.351,1089.6,3207.026Zm5.649-4.258.056.979c-.758-.21-2.238-1.4-1.439-2.208a13.821,13.821,0,0,0,3,.808c-.1,1.034.848,1.288-.23,1.65C1096.221,3203.536,1096.265,3202.555,1095.252,3202.768Zm1.648,5.8c.641-.224,1.62-.74,2,.539C1098.306,3208.842,1097.259,3209.09,1096.9,3208.568Zm2.076-3.726c-.571-.4-.593-1.421-1.094-1.9,2.123.356,4.214-1.38,4.935.368C1100.8,3203.169,1100.395,3204.455,1098.976,3204.843Zm2.98-5.087c1.366.371,2.619-.942,3.265-.19C1104.742,3200.384,1102.224,3201.4,1101.957,3199.755Zm3.743,2.4.057.98c-1.247.124-2.578.345-2.671-.828A2.553,2.553,0,0,1,1105.7,3202.159Zm-4.113,2.533c.416-.471,2.244-.755,2.305.193C1103.2,3204.73,1101.771,3205.413,1101.587,3204.693Zm3.9,5.015c-1.4.01-1.62.857-2.3-.193,1.074-.477,1.852-.97,2.593-.479C1105.522,3209.123,1105.409,3209.331,1105.483,3209.707Zm.464-3.3c-.842-.446-1.858-.7-1.766-2.191.386.029.924-.11,1,.271C1103.836,3205.352,1107.289,3205.535,1105.947,3206.4Zm.6-6.587c.181-1.13-1.35-.338-1.074-1.577a1.6,1.6,0,0,1,1.67.559C1106.6,3198.836,1107.013,3199.715,1106.546,3199.817Zm.137-3.283c-1.353-.229-4.238-.56-4.013-1.407.108.5.542.018.634-.364-.517-.463-1.866.011-1.706-1.21,2.207-.28,3.019,1.861,5.681,1.962-.017-.328-.287-.373-.365-.634.934-.123,1.664-.014,2,.54C1107.837,3195.5,1106.592,3195.422,1106.682,3196.534Zm2.636-5.4c-.014,1.637,1.969,1.034,2.11,2.5a2.122,2.122,0,0,0-1.614.422C1109.235,3193.757,1108.551,3191.8,1109.319,3191.138Zm10.246,12.835c-.377.837,1.037,1.3.094,1.632-1.531-1.746-7.329-.57-8.986-2.424C1112.956,3201.893,1116.206,3203.779,1119.565,3203.974Zm1.131,2.556a1.046,1.046,0,0,1-1.92.767C1119.645,3207.165,1119.937,3205.849,1120.7,3206.53Zm-3.8,2.188c.038-.622-.41-.7-.4-1.289.9-.059,2.971.34,2.034,1.192-.048-.768-.884.172-.614.691.911.135,1.85.24,1.728,1.539l-1.961.113c-1.852-2.33-4.608-.457-6.68-2.231C1113.091,3207.746,1114.646,3207.867,1116.893,3208.718Zm3.743,2.4c1.073,3.332-2.4,2.615-3.019,4.437-2.482-1.17-4.561.228-5.972-1.291a12.771,12.771,0,0,0,7.741-2.091c.267-.771.782-3.194,2.191-1.763A.9.9,0,0,0,1120.636,3211.119Zm-1.436-7.778,1.306-.077c.02,1.6,1.114,1.995,1.188,3.534C1120.136,3206.464,1120.52,3203.946,1119.2,3203.341Zm3.3,6.032c.727-.716,2.488-.484,2.649.5C1124.158,3209.829,1122.632,3210.384,1122.5,3209.372Zm-83.473-21.354c.671,1.217,2.813.78,4.627.713C1042.29,3187.818,1040.395,3187.048,1039.028,3188.018Zm-119.095-2.9c5.72,12.59,14.466,21.779,27.407,26.252,3.29,3.262,6.64,6.455,9.751,9.918-3-.808-4.578-3.206-6.833-4.845-1.513,5.295,5.179,4.383,5.736,8.512,1.11-1.142,2.485-3.126,4.438-2.552,1.1.62,1.482,2.048,1.535,3.843,1.534-3.259,6.48-6.435,9.644-3.182.213-2.562-1.792-5.182-.438-7.51,1.174-2.015,4.5-2.428,7.108-1.724,3.271.884,3.612,4.769,6.219,5.537,2.514-4.511-4.035-8.127-2.372-12.641,2.474-4.959,9.728-2.326,10.618,2.331-.369-5.667-7.056-11.064-3.926-16.807a9.847,9.847,0,0,1,7.665-3.4c-5.936-5.524.433-15.852,8.5-11.632-3.34-1.962-15.094-14.566-5.346-18.691-8.473-1.808-5.145-15.43-.428-18.647-1.677,1.232-2.818.925-5.148,1.607-2.262.663-3.892,3.3-7.032,3.031-4.7-.407-5.473-6.722-3.276-11.278-6.576.649-4.876,8.668-9.516,11.038-1.23-.241-2.638-.28-3.34-1.115,1.652-.667,3.254.238,4.841-1.265-.193-1.547-1.468.281-2.631-.174-1.868-.917-2.46-3.266-2.953-5.725-.791.844-1.043,2.169-1.788,3.051l-2.941.171c-1.214-1.07-2.022-2.6-3.165-3.747-.429,1.782-.611,3.789-.982,5.627a5.141,5.141,0,0,0-4.095,2.859c.784.862,2.711.434,3.977.75.4-1.488,2.716-3.546,4.474-1.9.076,2.222-3.168-.442-3.15,2.149,2.885-1.37,7.224,2.059,11.9,1.93,2.153-.061,4.135-1.511,6.147-1.344,2.889.248,5.083,2.628,7.085,3.521,3.179,8.024,5.043,17.527,10.2,23.323-3.242.742-5.1-3.079-6.853-5.169-1.472,3.323-1.443,9.276-.508,13.788.665,3.212,3.29,5.187,2.722,7.378-2.9-.339-3.212-3.581-5.2-4.941-4.88,1.982-3.572,13.689-.626,17.4-3.235,2.256-3.672-4.379-6.2-5.208-1.363,4.67-4.842,13.467-.28,17.706-4.354,1.891-4.778-5.261-7.292-7.109-4.145,2.3-4.794,7.706-5.808,12.786-1.464.252-1.466-1.135-1.46-2.534a8.621,8.621,0,0,0-2.667-.828c-1.536,1.255-5,4.553-7.415,2.069.3-1.564,1.763-.423,3.553-.861a10.193,10.193,0,0,1,6.88-5.643c2.818-4.92,6.9-8.718,11.07-12.438,2.185-6.86,9.165-15.755,9.583-26.768.4-10.375.422-21.366-7.953-24.106-.8,1.929-3.06.807-3.44,2.82-3.1-2.985-9.033-3.983-15.016-4.7-6.785-.807-11.966-.141-18.939,1.1-7.352,1.31-13.044,5.282-18.558,7.631-4.777,5.218-16.749,3.176-22.188,7.188-.795,1.947-1.761,2.26-3,4.759,1.354.892,4.7,1.369,6.7,2.56,1.13.181.338-1.35,1.574-1.075,2.63.292,2.9,3.241,3.609,5.688-4.761,8.1-3.836,24.806,4.646,29.215-4.944-6.47-8.4-12.478-4.826-21.015,1.893-4.525,5.021-11.462,2.642-16.535,3.532.731,3.519,5.606,3.144,8.991,3.147,1.337,5.464,3.6,8.177,5.421a46.338,46.338,0,0,0,6.673-9.234c1.819-.112,1.047,2.968-.156,2.958a67.216,67.216,0,0,1-2.5,7.681,7.024,7.024,0,0,0,2.092,2.172c2.115-2.969,4.167-5.995,8.782-6.736-1.318,3.06-3.613,5.248-4.059,9.081,1.741-.332,2.7.218,3.957.426,1.589-1.308,2.9-4.383,5.686-3.607-.117,1.857-1.376,2.694-2.057,4.051,4.374,2.05,11.464,3.294,9.769,10.243-1.334,5.463-10.233,1.333-12.214-1.584.833-2.292.027-8.331,2-10.6-3.328,1.785-3.795,6.117-5.693,9.178-2.124-.282-2.742-2.254-4.433-3.019,1.347-.968.813-3.612.984-5.628.85-1.927,1.834-3.734,2.615-5.721-2.848,2.107-3.514,6.159-6.747,7.926-.34,1.082,1.071.188.729,1.269-1.564-.1-2.268-1.161-3.379-1.77.2-3.147-.031-5.508,1.485-8.275-1.2.929-4.1,4.206-3.192,7.063-2.813.621-5.95-3.707-4.951-6.263C916.161,3179.939,918.418,3184.722,919.933,3185.115Zm-18.5-19.564-.133-2.286c1.873-1.53,5.113-.926,6.838-.726-.4.063-.767.145-.614.693,1.782.622,1.855-.937,3.88-.881C911.142,3165.974,904.744,3166.608,901.432,3165.551Zm41.563-.778c-1.384-12.351,13.617-8.938,16.883-2.622-4.713-1.55-10.662-7.375-13.9-2.467C944.947,3161.238,945.83,3164.354,942.994,3164.773Zm4.264.079c-2.215-.806-.137-2.883.426-3.955,8.608-2.435,12.738,5.429,17.278,9.805,1.226-.25,1.993-.909,3.553-.861-.094,5.549-6.545,1.283-9.488.223.11.614-.327.743-.251,1.326-.085.792,1.477-.269,1.036.923-3.865,1.784-8.235-1.514-11.041-3.945.381-2.035.271-4.506,1.292-5.973C947.748,3161.985,948.652,3164.442,947.258,3164.851Zm6.836,27.45c-1.715-2.36-5.287-2.638-6.237-5.862.933-.118,1.781-.144,1.692.886,9.381,1.006,8.085,17.51.774,18.955C952.289,3202.365,956.268,3198.9,954.094,3192.3Zm-26-2.092c5.012,4.458,12.931,5.647,17.028,11.131-.551.232.115,1.548-.557,1.671-2.754-4.674-8.376-6.124-13.266-8.4C930.41,3193.344,927.158,3191.224,928.091,3190.209Zm-11.824,21.981c.1-2.932,1.307-4.734-.418-7.183C915.952,3207.38,913.594,3211.276,916.267,3212.191Zm33.5-15.378c.372.775,1.374-1.3.559-1.672C949.339,3195.458,950.252,3196.686,949.772,3196.813Zm-4.731,36.967c1.824-.335,3.021-1.284,4.515-1.245,3.642.1,7.548,4.056,11.4,4.578,4.652.63,10.989-1.713,15.691-.584,2.166.52,4.053,2.587,5.722,2.616,2.329.042,4.067-2.137,6.414-2.339,3.107-.265,4.44,2.115,7.606,1.2-2.826-2.687-9.69-3.545-12.791-.239-2.3-.4-4.312-2.788-6.739-3.212-4.094-.716-7.913.232-13.079.434-4,.155-8.482-3.487-12.345-3.87-3.238-.319-7.258,1.508-11.064,1.3-2.5-.138-4.875-1.034-6.913-.581-2.345.526-4.446,3.223-7.357,3.052a7.514,7.514,0,0,0-1.443,3.358c2.361-1.51,5.759-4.185,9.874-4.833C937.959,3232.869,941.381,3234.454,945.041,3233.78Zm31.319,8.991c8.13-1.089,14.858,5.3,23.662,1.245,4.257,1.393,9.161,1.088,13.845,1.488-.566-1.7-3.019-1.08-4.667-1.369-3.3-.57-6.495-1.983-9.927-1.715-3.1.244-6,1.858-9.43,1.2-1.9-.362-3.647-1.96-5.7-2.29a16.277,16.277,0,0,0-11.986,2.337C972.708,3244.439,975.116,3243.566,976.36,3242.771Zm-6.982-13.027c-1.934.254-3.375,1.627-5.474,1.628-1.694,0-3.829-1.561-5.589-.328.934,1.5,3.363,1.876,4.7,2.017,2.245.237,3.927-.84,5.494-1.3a14.67,14.67,0,0,1,6.55-.055c2.438.416,4.635,2.468,8.313,2.138,2.576-.233,4.637-2.5,7.108-1.724-2.371-2.731-5.182.761-7.837.456C978.77,3232.127,974.816,3229.027,969.378,3229.744ZM943.3,3192.6a2.457,2.457,0,0,0,1.781,2.517c.01-.587-.437-.664-.4-1.287,1.15.561,1.639,1.869,2.149,3.152,1.288-1.142-1.385-3.121-1.9-4.476a4.608,4.608,0,0,1,3.857,4.362c1.856-2.162-1.452-4.344-2.3-5.764-.491.241.754,1.444,1.094,1.9-.722.446-1.9-1.563-3.36-1.442C944.47,3193.1,943.837,3191.951,943.3,3192.6Zm-42.929-22.731c-4.29,1.3-1.416,9.989-4.468,13.365-3.015.72-5.29,2.1-6.282,4.625a11.765,11.765,0,0,1,.958,5.186c-2.409.023-3.95-.229-5.167,1.283a36.418,36.418,0,0,1,6.914.582c.094-2.541-.736-4.043-1.322-5.821.3-3.652,4.864-3.514,7.569-5.026A69.472,69.472,0,0,1,900.374,3169.87Zm51.588-3c.059-.773.444-1.255.192-2.3a1.834,1.834,0,0,1-1.288.4C950.932,3165.941,950.954,3166.96,951.963,3166.871Zm99.953-10.727a2.783,2.783,0,0,0,1.94-.44C1053.822,3155.206,1051.395,3155.13,1051.916,3156.144Zm-94.463,14.995c.4-.779.467-1.856,1.863-1.747-.291-1.18-1.331-1.52-1.784-2.518-1.169,1.329-1.084,2.4-2.1,3.4A1.869,1.869,0,0,0,957.453,3171.139Zm74.186-20.04c-.959-.83-1.732,1.128-2.538,1.458.128.437.835.224,1.327.25C1030.109,3151.595,1031.217,3151.654,1031.639,3151.1Zm-21.493,2.232c6.2.98,9-3.751,13.1-5.676.688-.193.649.432.711.941,1.571-1.079,3.3-2.015,4.034-3.839l1.307-.076c-.031.384.106.576.364.636-2.075,3.417-6.98,4.314-9.4,7.425,4.37-1.991,9.884-2.968,11.01-7.846,1.208.17,1.767-.911,2.611-.153-1.325,4.673-5.915,5.177-9.05,7.732,3.3.462,4.97-3.207,7.607-4.372.839.374.01,1.838-.539,2,.361.79,1.227-.523,2.284-.132.306,1.818-1.6,1.67-1.787,3.053.825-.4,1.145-1.252,2.21-1.44,1.314.413-1.316,1.444-.231,1.651,1.465.274,1.592-.648,2.574-.8,1.149.021-.508,1.479.4,1.287,5.024,2.05,13.389.57,19.013.2-.023,1.468.741,1.3,1.765,2.189-1.182,1.355-5.178,1.394-6.8,1.378,1.285,1.818,5.017-.751,6.567.274-.156,1.405-2.31,1.039-3.859,1.208.906.942,2.966.451,4.262.079.639.541-.025,1.015-.577,1.344,6.033,2.912,12.21,6.235,20.586,4.7.213,1.732-1.277,1.028-1.883,1.42.45.537,1.578.313,1.708,1.21-.167,1.2-2.456.7-3.247.518.281.96,1.365,1.018,2.669.826.9,2.4,3.7,4.606,7.8,4.461.447.075.318.8.4,1.287,2.625-.514,3.7.717,5.319,1.329a3.38,3.38,0,0,0,.5,2.92c.574-.622,1.256-1.152,1.863-1.746-2.851-4.659-18.351-4.5-11.9-13.069-4.888-2.539-14.093,1.283-17.862-2.893a6.493,6.493,0,0,1,4.37-9.425c-4.42-6.615-12.133-.275-17.979.715a10.269,10.269,0,0,1-10.426-4.634c-.216-2.775-.222-5.358.91-6.933-11.467-3.923-21.4,5.286-27.531,11.1A4.2,4.2,0,0,0,1010.146,3153.332Z" transform="translate(-16587.137 -8965.216)" fill="#000001"/>
    </g>
  </g>
</svg>
