<svg xmlns="http://www.w3.org/2000/svg" viewBox="0 0 142.33 182.33"><defs><style>.cls-1{fill:#fff;}</style></defs><g id="Layer_2" data-name="Layer 2"><g id="Layer_1-2" data-name="Layer 1"><path id="Path_3676" data-name="Path 3676" class="cls-1" d="M14.14,37.64C8.14,43-1.43,59.33.18,68.74,11,63.85,16.15,46.51,30,52.24,25.17,58,14.47,63.9,18,73.82,25.3,73,27,63.59,33.18,63.67a4.46,4.46,0,0,1,0-3.81c6.23-.55,9.27-7.65,13.33-8.25-6,9.85-20,18.32-18.4,34.27.23,2.35,2.22,4.39,2.53,7,.27,2.16-3.33,5.83.64,7,3.1.35,1.51-4,1.91-6.35a170.64,170.64,0,0,1,5.7-19.67C43.71,71.23,46.57,63.31,51.58,63c-1.87,2.57-2.73,6.15-5.07,8.25-.43,7-5.16,15.26-1.27,19.67,3.79-2.86,2.81-6.88,5.08-10.78,2.94-5.07,8.68-9.25,10.79-14.6s2.6-14.89,3.17-19.67c6,9.86,11.07,22.07,10.79,34.9-6.84-.28-14.28-.6-20.94-2.54C62.65,85.13,79.29,86,78.87,99.83c-9.5,2.87-21-1.07-27.28,6.35-2.61,3.06-3.9,8.14-4.44,12.69,2.71.64,3.52-3.87,7.61-5.07s9.61-.59,12.69,1.26c-1.31,6.3-7.49,11.75-5.07,22.22,4-2.78,6.61-10.3,9.52-12.06-3.44,5.57-.27,13.83-3.81,19,7.24-.79,4.78-11.3,11.42-12.69,2.81,19.7-10.45,32.2-8.25,47.59,8.42-2.19,9.89-16,11.43-26.65,1-7,2-16.19,1.9-21.58-.13-4.67-.57-7.76,3.8-8.88,2.39,5.86,2.8,13.7,2.54,22.21-8.25,8.7-6.3,26.13-6.34,38.07,8.19-2.73,6.87-15.58,5.07-23.48,4.5-7.88,8.7-14.35,8.25-24.11-.38-8.38-8.47-19.82-.63-27.93,5.61,1.59,8.8,5.59,12.06,9.52,1.67,5.1,3.14,10.4,5.07,15.24.2,2.13-.84,5.5,1.9,5.07,4.64-12.77-.35-28.79-11.42-33,7.83-.9,14.13,1,18.4,5.71,2,2.23,2.23,6.86,6.35,6.35-.42-5.72-1.9-10.37-3.17-15.23-6.6-3-15.42-6.19-21.58-4.44,3.76-2.55,4.15-6.52,9.52-7.62,8.83-1.81,22.81,3.81,27.92-2.54-9.07-3.9-20.58-11.21-33-6.34-3.93,1.53-5.17,5.64-8.89,8.25-.63-14,6.77-22.45,17.14-23.48-9-13.88-22.35,3.1-24.12,11.42-2.06-4.14-.42-5.66,0-10.79-19.18,2.69.67,22.34.64,30.46-2.95-6.57-9.93-9.11-14.6-14,1.38-13.45-6.94-29.09-10.15-40,7.93-3.9,13-2.68,22.84-3.17,4.15,2.2,6.36,6.34,12.06,7-3.91-7.42-9-16.48-19.67-15.87-5.25.3-11.1,4-14.6,5.71,4.49-9.79,14-19.86,25.38-20.94,4.78-.45,9.16,3,13.33,1.9-3.14-4-8.15-6.23-12.06-9.52-13.55-.86-23.34,2.05-24.11,14-1.94.6-2,3.09-4.44,3.18-1.81-9,3.84-17,8.25-23.48C62.26-1.94,57.35,13.69,56.66,25c-4.8-7.07-15.18-13.52-26-8.89,2.8,3.34,7.55,4.73,12.06,6.35,3.8,4.24,5.92,10.15,9.52,14.6C42.39,29.72,23.83,29,14.14,37.64Zm59,139.62c.87-6.79,2.35-9.9,3.81-15.24,1.57,2.95-.83,12.65-3.81,15.24ZM89.66,67.47c0,5.54,1.31,9,3.81,14.6-3.15-.79-9.2-10.65-3.81-14.6Zm26.65,60.92c-3.76-8.29-5.94-18.18-14-22.21C113.26,107.32,113.88,118.77,116.31,128.39ZM136,86.51c-6.75,1.71-14.53-.88-21.58,0-6.9.85-8.09,5.9-13.33,8.88.79-14.61,24.6-20.33,34.91-8.88Zm-10.79,20.3c-6.36-4.5-17.67-7.28-26-4.44,6.61-6.45,23.34-5.87,26,4.44ZM96.64,72.54c5.27-2.81,6.4-13,14-11.42.43,3.6-2.24,4.11-4.44,5.08-5.64,5.17-8.45,12.2-8.25,20.31-3-2.36-1.81-9.81-1.27-14ZM51,113.16c1.61-11.57,17.24-10.39,27.29-10.15C73.4,112,63,111.91,51,113.16Zm30.46,10.15c-1.52,4.83-5.72,7-8.25,10.79-.67-10.62,6.93-18.45,15.86-21.58-2,4.15-2.27,10-7.61,10.79Zm-1.9-8.88a4.49,4.49,0,0,1,3.81-2.54,4.47,4.47,0,0,1-3.81,2.54Zm0-3.81c-.66.87-3.12,3.16-1.9,3.81-6.74,3.41-8.13,12.18-14,16.5,3.23-11.37,8.47-20.72,17.77-26,2.36.87,4,3,3.81,0,2.7-.37,4.2.46,6.34.64-1.63,4.08-9.11,2.31-12.06,5.07Zm2.54-9.52c-1.37-1.75.37-2.65-.64-4.44a41.13,41.13,0,0,0,10.79,5.08c-2.66,1.58-5.81-1.79-10.15-.64Zm12.69,36.8c-1.49-1.46.05-6-1.27-7.61,2.53.27,2.28,5.82,1.27,7.62ZM94.1,99.83c-12-3-17.23-12.8-27.28-17.77C79.67,80.62,88.7,90,94.1,99.83Zm.64-62.19C89,35,78.24,36.88,74.43,37c4.08-5.19,18.4-8.8,20.31.64Zm5.71-24.75c-9.58-2.52-17.64,5-25.38,8.25C76,9.07,93.74,3.52,100.45,12.89ZM69.36,2.73c1.08-.23,1.2.5,1.27,1.27C62.93,9.77,67.19,23.61,63,32.56c-6.77-11.37-.44-22.25,6.34-29.82ZM60.47,49.06C63,49,61.17,54,59.2,53.5c-.11-2,1.69-2.11,1.27-4.44ZM49.05,75.71c1.35-7.31,6.84-10.51,8.88-17.13,2.08,7-4.38,12.43-8.88,17.14Zm3.8-14c-.11-1.2,1.26-6.33,3.18-7.61-.64,3-1.29,5.91-3.18,7.62Zm2.54-8.88c-.6-3.77,1.74-4.61,2.54-7,.32,1-.24,6.51-2.54,7ZM46.51,21.78c-3.18-1.69-7.87-1.87-9.52-5.08,10-1.39,18.39,8.88,20.94,19C50.73,34.47,49.71,27,46.5,21.78Zm8.88,22.84C51.53,48,52.69,56.3,49.68,60.49c-9.44,5.15-15.33,13.85-17.77,26C29.85,71.11,40.52,63,49.05,56c-.17-6.08,1.56-10.28,6.34-11.42ZM21.76,68.1c3.23-8.2,12.35-16,21.58-20.31-6,8-15.68,12.26-21.58,20.31Zm14-20.31c-.47-3.65,5.74-6.09,10.16-7-2.35,3.38-7,4.45-10.16,7ZM45.88,37c-7,2.76-13.57,5.9-17.14,12.06C15.42,45.68,8.2,59.52,3.36,62.39,7.5,47.39,23.59,25.89,45.87,37Z"/></g></g></svg>