<svg xmlns="http://www.w3.org/2000/svg" viewBox="0 0 195.08 141.01"><defs><style>.cls-1{fill:#9b794e;}</style></defs><g id="Layer_2" data-name="Layer 2"><g id="Layer_1-2" data-name="Layer 1"><path id="Path_1433" data-name="Path 1433" class="cls-1" d="M20.65,38.78c-3-2.47-7.09-3.81-10.95-2.11A5.26,5.26,0,0,1,7.9,38c-.05.62-.52.62-.77,1-2.75,4-2.1,10-3.89,14.35C2.44,54.58-.1,55,0,56.71c.05.79.85,1.18,1.29,1.93,7.7,2.93,15.92,5.26,24,4.8,3.31-.18,6.81-1.43,10.35-.31.23.43.72.68.93,1.13.22,3.84,1.17,9,4.08,10.59a4.22,4.22,0,0,0,2.49.52c2-.39,3.4-5.26.8-5.76-.9-.18-.88,1-2,.91S40,68,39.7,67.09a11.79,11.79,0,0,1,0-4.43c3.89.38,8-.24,12.08-.4s8.4-.09,12.49-.59c8-1,16.12-1.27,24.24-2,13.8-1.28,28.49-2,43.3-2.3,2-.05,5.07-.38,6.6.19s2,2.62,3.19,3.82c8.64-.18,17-1.27,25.67-.94s17.91.4,27.84,1.61c-.87-2.76-3-4.32-5.27-6.23-3-2.57-6.78-3.94-10.79-5.4-10.91-4-20.43-3.63-31.38-3.28-4.8.15-9.52.36-14,.71-4.76.38-9.59.25-14.44.52-22,1.27-44,1.54-65.75,3-2.48.17-5.3.72-7.3.43-.65-.09-1-.43-1.64-.5-1.21-.15-2.52.42-3.7.14.14-1,.68-2.24.79-3.43a13.47,13.47,0,0,0-.33-4.1c-.8-1.57-3-1.92-5.17-2.17-3.5,1.07-6.91,1.75-10.55.77C23,41.81,22.18,40.05,20.65,38.78Zm138.21,8.77c.24-.35,1,0,1.37-.15-.15.47-.84.2-1.37.15ZM21.47,42.1c-1.18-.35-2.38-1.65-3.19-2.35a21,21,0,0,1,3.19,2.35ZM1.39,55.71c.07.54.2,1,.23,1.63C1,57.12,1,56.12,1.39,55.71Zm.44.31.36.06c-.19.59.21.76.16,1.26-.52-.42-.46-.6-.52-1.32Zm1.33-.64a9.62,9.62,0,0,0,.59,2.42A2,2,0,0,1,3.16,55.38Zm.48.81a3.74,3.74,0,0,1,.61,1.57A2.34,2.34,0,0,1,3.64,56.19Zm1.15,2c.38-.37.53.32.8.38-.23.26-.49-.35-.8-.38Zm36.8,16.17a1.64,1.64,0,0,1,1-.08c-.25.37-.56.24-1,.08ZM60.45,60.7c.37-.46,1.33-.12,1.89-.31-.39.42-1.27.19-1.88.31ZM90,57.57c-6.78.61-14.23.63-20.11,1.45,8.58-.44,16.79-.94,25.65-1.55-10.83,1-20.61,1.81-31.68,2.43a57.68,57.68,0,0,1,6-.64.36.36,0,0,0-.2-.28c-6.94.69-14.4,1.6-21.83,1.55-.68-.85-2-.33-3.35-.53-.13-.85-1.32-.84-.85-1.61.85-.52,1.75.69,2.41,1,5.2.26,10.3-.37,15.34-.74S71.54,58,76.73,57.9c10.12-.26,20-1.77,30.3-1.55-5.62.89-11.34.7-17,1.22Zm-40.27.94a3.51,3.51,0,0,1-1.61.11c.48-.56.8,0,1.62-.11Zm-7.17-2.74c-.6-1.34,1.21-2.55,2.81-2.25-.07.31.17.59,0,.86-.43-.17-.44-.76-1-.53-.12.4.3.41.38.67-.15.57-.62.69-1.21.67,0,1.11,1.1,1.39.8,2.7a3.37,3.37,0,0,1-2-.45c.11-.53.49-.68.77-1,0-.43-.75-.3-1.16-.43s.34-.08.5,0c0-.14.06-.21.16-.22Zm-.35-1.65c-.14.39-.7.21-1.13.19.34-.43.58-.11,1.14-.19Zm19.59-1.3a74,74,0,0,1,12.09-.4c-4.8.44-8.88.3-13.24.71.22-.41.79-.26,1.16-.3Zm46.74-.77a5.56,5.56,0,0,1-1.35.11c1.4.34,5.4,0,7.09.07a13.39,13.39,0,0,0,2.19.1c-.15.33-1.3,0-1.15.3-3.7,0-8.23.19-12.25-.11,1.15-.62,2.87.3,3.76-.5a1,1,0,0,0,.28.11,1.69,1.69,0,0,1,1.44-.08ZM162,51.61c1,.3,3.75.36,5.64.77a25.94,25.94,0,0,1-5-.3,13,13,0,0,1-5-.18c0-.14,0-.22-.08-.26a9.31,9.31,0,0,1,3.15.26c-.07-.38.6.06.41-.3,0-.12.92.36.86,0ZM126.27,53.4c.2-.3.65-.27,1.13-.19-.17.34-.75.13-1.12.19Zm1.49-.13c1.46-.42,3.14.17,4.8-.1-.28.39-1.12.19-1.87.19a13,13,0,0,1-2.92-.09Zm-10.5-.33c-.17-.32-.73.05-1.2-.19a8.21,8.21,0,0,1,1.63-.23c0,.3-.26.23-.21.58-.35-.15-.39.15-.74,0,.07-.2.26-.23.53-.15Zm-1.37.15c-.34,0-.2-.28-.44-.31a.54.54,0,0,1,.52-.17Zm4.12-.45a30.18,30.18,0,0,0,6,0c0,.1-.06.11-.13.1,0,.26.34-.12.46.2-2.92.24-6.25.14-8.75.2.45-.55,1.67,0,2.27-.37-.4-.3-1.14.17-1.83,0,1.37-.45,3.26-.17,4.84-.33-.7.44-2,.09-2.86.28Zm33.58.2c.16.37-1.4.25-1.61.11a14.67,14.67,0,0,1,1.62-.1Zm-1.85.08a15.31,15.31,0,0,1-3.45.06,15.4,15.4,0,0,1,3.46-.06Zm4.86.28c1.88-.67,5.42,0,6.87,0-1.82.49-4.65-.28-6.86,0Zm13.15-.11c.29-.14.8-.11,0-.24-.31-.26.63,0,.86,0-.09.1-.18.19,0,.24-.08.26-.59,0-.85,0Zm-43-.59c1.94.19,5.43-.35,8.09.06-2.43.23-6,.6-8.08-.06Zm9.32,0c.36-.28,1.55,0,1.83.05a4.85,4.85,0,0,1-1.82-.05Zm8.64-.34a3,3,0,0,1,2-.05,18.25,18.25,0,0,1-2,.06ZM135,52a17.89,17.89,0,0,1,4.68-.11A21.45,21.45,0,0,1,135,52Zm11.87.18c.38-.36.52.06.88-.11.26.22-.53.23-.87.11Zm1.1,0a1.41,1.41,0,0,1,1.12-.07,2.45,2.45,0,0,1-1.11.07ZM157,52c-1.7-.43-2,.18-3.11-.5a45.47,45.47,0,0,1-7.74.12c0-.11.06-.11.13-.1,2.69,0,6-.15,9-.17.6,0,1.87-.34,1.74.66Zm-24.12-.28c.05-.36.86-.38,1.29-.41a25.78,25.78,0,0,1,3.17.14c-1.4.32-3.24,0-4.45.27Zm-9.36.22a33.06,33.06,0,0,1-5.54.1,13,13,0,0,1,5.55-.09Zm-13,0a3.86,3.86,0,0,1-1.85.07,3.36,3.36,0,0,1,1.86-.07Zm-14.05.45c.22.28-.8.16-.78.25-.41-.44.68,0,.78-.24Zm-1.28.29c-1.35-.76-1.86.09-2.69-.06.7-.33-1.07-.25-1.23,0-.08-.22-1-.28-1.77-.08l.06.05h-.17l-.21.07c0-.08.11-.09.21-.07l.11,0c-.41-.36-.5.05-.72.3,5.89.1,13.62-.33,21.2.18a11.33,11.33,0,0,1-5.52,0c-.25.5.34.39.66.48-1.57.1-3.8.16-5.54.1-.61,0-1.43-.43-1.75.21-2-.6-5.2-.25-7.43-.33.07.32.49-.09.84.14a11.58,11.58,0,0,1-2.49.21c0-.25.13-.3.2-.45-1.3,0-2.54,0-3.8,0A6.24,6.24,0,0,1,87.08,53c-2.28-.42-6.12,0-9.54-.17-.08.23,0,.38.18.4a62,62,0,0,1-6.25,0c-.59-.16.13,0,.15-.22,2,.12,3.85.05,5.76.05-.59-.33-1.73-.16-2.77-.31a188.83,188.83,0,0,1,21.8-.58c-.34.38-1.29-.07-1.19.55Zm53.57,1a128.62,128.62,0,0,1-15.46,0c5-.34,10.56.06,15.46,0Zm15.95,1.56c.15-.4.76-.16,1-.08-.21.21-.75-.05-1,.09Zm-.34-.17c-8.32-.14-17.37-.51-26-.71a207.33,207.33,0,0,1,26,.71Zm-66.65.17c.57-.38,1.7,0,2.37-.23.42,0,.65.28.1.14a12.67,12.67,0,0,1-2.46.1Zm1.22.81a23.43,23.43,0,0,1,3.13-.36c.14.35-1.07.08-1.29.41-.75-.21-1.1.13-1.83,0Zm-50.75-.23c.45-.47,1,0,1.71,0-.51.38-1.17-.17-1.71,0Zm11.93-.19c-.34.31-1.08.07-1.61.11.37-.27,1.11,0,1.62-.1Zm10.5.32c4.31-.5,8.85-.34,13.08-.49a70.58,70.58,0,0,1-13.08.5Zm-5.79-1.41c2.52-.46,6.57-.28,10-.13-2.78.5-6.92.1-10,.14Zm-17.13-.27c1.59-.18,3.39.13,4.78,0-.26.46-1.07.11-1.73.09a12.36,12.36,0,0,1-3-.11Zm3.06-.74c-.08.37-.52.25-.9.22.13-.32.62-.12.91-.22Zm.48.07c3.28.07,6.52.3,9.39.39a37.31,37.31,0,0,1-9.38-.38Zm23.68,0c-4.76.5-10.7.22-15.23.15A106.19,106.19,0,0,1,75,53.69Zm2.62.54a108.92,108.92,0,0,1,11-.46,49.91,49.91,0,0,1-11,.47ZM92.32,54a7.85,7.85,0,0,1,2.6-.2,6.18,6.18,0,0,1-2.6.2Zm24.34.44a1.25,1.25,0,0,1-1,.09c.23-.31.46,0,1-.08Zm-5-.06c.11,0,.07.16.08.26a6.46,6.46,0,0,1,2.59-.08c-.07.34-1,.23-1.12.06-.35,0-1.67.49-1.55-.24Zm-45.35.5a68.53,68.53,0,0,1-13.66.27c4.32-.65,8.7-.43,13.66-.26Zm16.83-.14c-6.29.62-12.79.8-19.27.85,6.36-.64,12.53-.69,19.27-.84ZM87,55c-.29,0-1.3.34-1.22-.07.51.18.71-.09,1.22.08Zm-4,.34c-.4-.26,1-.5.86,0-.18-.25-.66-.16-.85,0Zm1-.2A4,4,0,0,1,85.41,55c-.27.24-.64.25-1.37.16Zm7.89.52a2.08,2.08,0,0,1-1.49.13c.35-.24,1-.06,1.49-.12Zm-7.23,0c.11,0,.12-.11.16-.22.42.09.44.21.74,0,.41.44-3,.54-.9.23Zm37.58-.27c-6.51.75-12.16.53-18.61.59,6.22-.93,12.28-.4,18.62-.58Zm-29.9-.22A11.51,11.51,0,0,1,94.23,55c-.34.41-1.18.13-1.84.09Zm60.25-.83c.32-.39,1-.22,1.51-.25,2.67-.17,5.38,0,8.47,0,.26.81,1.52.24,2.21.72-3.56,0-8.09-.44-12.19-.46ZM132,53.69c.25-.25.84.08.88-.11.22.29-.7.3-.88.12Zm.2.28c.52.08,0,.2-.26.08-3.48.16-5.94,0-9.46.09l-.36-.06c2.73-.86,7-.4,10.09-.1ZM112,53.57c0-.16,1.17,0,1.61-.11a2.68,2.68,0,0,1-1.61.12Zm-56.23-.5c-.58.52-1.71.27-2.73.18a4.89,4.89,0,0,1,2.73-.16Zm-12.05.17a5.78,5.78,0,0,0-.69.5c-.24-.22.31-.62.69-.49Zm98.46,3.42c.2.52-1.26,0-1.43.51a3.52,3.52,0,0,0-.9-.52c.43-.43,2.11.31,2.33,0ZM121,56.59a26.93,26.93,0,0,1,6.89-.13,41.72,41.72,0,0,1-6.89.15Zm-57.77-.12a1.85,1.85,0,0,1-1.49.13,4.74,4.74,0,0,1,1.5-.12Zm-1.73.09c-2.85.25-5.88.25-8.88.3a4.2,4.2,0,0,1,2-.18c-1.21-.35.73-.32,1.77-.33,1.7,0,3.66.1,5.12.22Zm2.54,1c-.49-.57-.55.3-.94-.27,1.58-.34,3.62-.06,5.32-.25-1.07.73-3.29-.15-4.38.54Zm-19.09-.34c.1-.25.65,0,.72.12-.09.27-.64,0-.71-.1Zm26.14,0c2.07-.64,5-.16,7.3-.43-.17.35-.8.25-1.27.28a54.55,54.55,0,0,1-6,.16Zm-23-.6c.81-.35,2.9,0,4.4.09-1,.26-2.7,0-4.4-.07Zm104.74,1.73c-.19-.12,0-.29.15-.22-.13-.38-.42-.22-.71-.12.72.38-.33.36-.9.23.17-.14.07-.18.05-.36a2.73,2.73,0,0,0-.75.12c0,.39.73-.27.56.34l-.84-.14c.3-.22,0-.26-.32-.3.06.14.26.17.18.4-.31-.1-1.24,0-.8-.37-2.11,0-4-.52-6-.33.12-.43.7-.2,1-.21a67.22,67.22,0,0,1,9.62.43c-.11.28-.54.11-1,.21,0,.14.2.13.34.17-.15.37-.56,0-.63.16Zm2.45,0a67.1,67.1,0,0,1,9.4.27c-2.54.27-6.59-.21-9.4-.25Zm38.1,1.9c-.11.17-.69-.2-.8-.37s.65.24.8.39Zm-14.87-3.72a26.54,26.54,0,0,1,6.78,1.33l-.84-.14a78.58,78.58,0,0,0-12.14-1.55c-.48,0-1.52-.75-2,0A97.46,97.46,0,0,1,182,57.74c-2.42.21-4.05-.56-6.66-.57.07.36.51,0,.72.12-1.18.46-2-.1-3.45.06,4.08.59,8,.32,12.64,1.52-13.47-1-23.84-.46-35.79-1.77a7.58,7.58,0,0,1,2.81.08c-3.32-.8-6.82-.62-10.74-1.1,2.16-.23,4.83,0,6.77-.15-7.16-.31-14.09,0-21.39-.47,8.13-.71,17.09-.31,26,.1,5.33.24,9.36.13,15.28,1.08.15-.47-.36,0-.7-.23.1-.47.7.18,1-.21-2.08-.48-4.83-.14-7.37-.68a67.74,67.74,0,0,1,9,.45,6.42,6.42,0,0,0,.34-.56c2.34.29,5.31.74,7.95.9.18.08-.14.2.08.26Zm2.15-.39c-1.78-.34-4-.62-5.25-1a.12.12,0,0,0,0,.24c0,.26-.44,0-.62,0,0-.57.28.22.4-.18-.07-.36-.51,0-.72-.11,0,.11.13.11.22.15-.31.33-.73-.16-.8-.37-.22.48-1.87,0-3.29-.15.51-.58-.42.21-.32-.3-.26.67-1-.2-1.49.13.12.09.84.09,1.18.31-.93.35-2.12-.47-2.83,0-1-.59-1.85-.33-3.45-.68l-.6-.1c.06-.15.31-.05.5,0a35.54,35.54,0,0,1,4.94.54c-.06-.13-.25-.16-.18-.4,3.27.35,9.11-.08,12.34,1.87Zm0-1.48a16.62,16.62,0,0,1-4-.51c1.33-.5,2.4.22,4,.53Zm5-.79c-.44.25-1.16-.21-1.53-.37-.09-.22,1,.35,1.54.38ZM171,53.27a3,3,0,0,1,1.69.15c-.36.23-1.16-.13-1.69-.14Zm6.23.13a31.55,31.55,0,0,1-4.44-.58c0-.17.36,0,.4-.18,1.68.26,2.51.46,4.05.78ZM138,52.69c.29-.51.72,0,1.13-.19-.13.41-.82,0-1.13.2Zm41.63-.24c-1.55.26-2.94-1-4.85-1.14,1.47-.34,3.56.67,4.85,1.15Zm-6.39-1.51c-.35-.31-1.3-.18-1.63-.5.42.05,1.36,0,1.63.52Zm-13-.22a16.33,16.33,0,0,1-3.62-.34,9.42,9.42,0,0,1,3.62.35Zm-.25-2.25a8.45,8.45,0,0,1,2.79.2,14.49,14.49,0,0,1-2.79-.19Zm-12.59.45a11.91,11.91,0,0,1-4,0,12,12,0,0,1,4,0Zm-5.41.11a2.61,2.61,0,0,1-1.36,0,1.93,1.93,0,0,1,1.36,0Zm-11.55.13a5.77,5.77,0,0,1,2.58-.08,9.29,9.29,0,0,1-2.58.09Zm46.33,1c-.57.18-.92-.23-1.65-.39.48-.23,1.26.23,1.65.4Zm-6.22-.26c.25-.24.93.1,1.34.09-.37.41-.91,0-1.33-.07ZM81,50.84a39.09,39.09,0,0,1-5,.32,20.63,20.63,0,0,1,5-.3ZM95.12,51c-.9.37-2.21.16-3.24.34A9.36,9.36,0,0,1,95.13,51Zm-1.58.73a63.19,63.19,0,0,1,8.36-.88,9.38,9.38,0,0,0,1.2.19c.5,0,.91-.42,1.43-.5a30.52,30.52,0,0,1,4.78,0c8.74,0,19.89-1.19,29.93-.75,4.24.19,8.78-.12,12.76-.05,1.31,0,2.45.53,3.51.31a1.83,1.83,0,0,0,1.26.57c-2.3.46-5.19.11-7.53.27.3.26,1.13,0,1.7.15a95.46,95.46,0,0,1-12.31.25,73.5,73.5,0,0,1,8.13-.18c-4.95-.58-10.26-.16-15.64.33a44.9,44.9,0,0,1-7.15.21,40.54,40.54,0,0,0-4.12-.29c-1.42.06-2.79.3-4.22.31s-3.09,0-4.66,0c-5.77-.14-11.79.9-18.07.19-.07-.31.39-.09.64-.13Zm-6.64.05c-2.25.49-5.08.19-7.64.25,2.24-.42,5.55-.08,7.65-.24ZM39.32,44c1.68,1.64.8,3.6.25,6.17a105.55,105.55,0,0,0-1.39,11.8c-.4,3.88.11,8,2.65,9.5,1.49.39,2.36-.94,3.47-.18.18,1.13,0,3.28-1.65,3.42a8.3,8.3,0,0,0,1.14-1.78c-1.52.27.41-.11.05-1.1-.34.16-1.35.16-1.09.68-.49.21-.94,0-1.31.53.24.47,1,.24,1.4.47a3.87,3.87,0,0,1-2.39-.38c-.37,0,.25.22,0,.5a7.64,7.64,0,0,1-2.56-4,24.08,24.08,0,0,1-.65-8.2c.16-1.46.26-3.27.52-4.82,0-.2.35-.46.35-.68.06-3.4,2.33-8.3.56-11.2a4.68,4.68,0,0,0-3.61-1.19c1.14-.77,2.78,0,4.23.44ZM34.14,60.3c.16-.47,1.46-.61,2.21-.75-.48.61-1.54.42-2.21.76Zm-6-7a2,2,0,0,0-2.86.21,1.91,1.91,0,0,0-.32.51c-1.2-1.18-2.95-.5-3.77.5-.78-1.1-2.76-.57-3.36.32a12.76,12.76,0,0,1-1.06-1,5,5,0,0,0-2.15.39c-.63-.39-2-1.06-2.85-.58-.1-.49-.46-.8-1.22-.81-.25-.91-1.28-1.26-2.05-1.8-1.37-4.32-1-11.63,4.18-11.6,4.41,0,7.42,5.5,12.22,6.49,3.46.72,6.24-.62,8.87-1.78a9.19,9.19,0,0,1,4,.51c.77.81,1,5.12.45,6.45-.9,2-3.55,0-5.2.28-.75.13-1.1.82-1.69,1.33-1.15-.8-2.67-.66-3.15.62Zm-.68.38c-.05.27-.51,0-.74,0,.06-.31.62-.18.74,0Zm6.38,0a1.2,1.2,0,0,1-1,.21c.11-.39.6-.24,1-.2Zm-1,3c-.76,0-.64-.73-1.06-1-.08.58.23.89.27,1.39A5.53,5.53,0,0,1,29.58,55a3.49,3.49,0,0,1,2-.29,10.1,10.1,0,0,0,1.27,2.06Zm.45-1.27c.19.18.69.13.8.37,0,.46-.87.09-1,0s.15-.18.18-.33ZM29.53,59.2c.23-.34.3-.92-.2-1,.55-.51,1.05.3,1.51.49-.3.22-.51.38-.73,0-.28.06-.1.75-.57.53ZM28.22,59c.32-.3.67.28,1.2.19-.32.42-.77-.07-1.2-.18Zm-5.63.7c-.45.25-1.09-.27-1.41-.47-.05-.25.95.42,1.41.48ZM12.1,56.18c1.82-1.25,2.7,1.82,3.59,2.9-1.35-.42-2.53-1.89-3.58-2.89Zm.76,2.2c.33-.23.6.48.88.64-.25.18-.6-.47-.88-.62ZM7.43,54.7c1.71-1.43,3.42.88,3.11,2.82-1.19-.4-2.18-1.86-3.1-2.81Zm1.3,2.66a1.47,1.47,0,0,1-1.15-1.29c.63.26.61,1,1.15,1.3ZM7.23,56c-.37-.13-.08-.73-.21-1,.34.15.32.55.2,1Zm12.15.71c1.29-.5,3.05.8,3.22,2.1-1.63-.33-2.07-1.7-3.22-2.1Zm-2.06,1.38c-.7-.16-1.41-1.23-1.91-1.9.88-.33,1.32,1.36,1.91,1.91Zm2.95,0A4,4,0,0,1,19,57.15c.48-.13,1.08.56,1.32,1Zm-1.8-.28a4.63,4.63,0,0,1-2.14-1.94c1.24-.14,1.7,1.16,2.14,2Zm-6.8-1.21A4.54,4.54,0,0,0,12.8,58a1.55,1.55,0,0,1-1.13-1.4Zm14.91,1.89c.28.12.54.25.53.57-.4,0-.56-.22-.53-.56Zm-.53.28c-1.46-.18-2.67-1.45-3.54-2.4.37-.41,1.1-.32,1.87-.19-.12.42-.89-.06-1,.32.5.17,1.09.06,1.92.31a7.81,7.81,0,0,0,.79,2Zm.35-3c1.8-.93,2.69,1.12,3.23,2.11-1.47.26-2.22-1.37-3.23-2.1Zm3.42.91c-.23.23-.36-.51-.64-.59.32-.29.45.44.64.6Zm3.43-2.27a1.39,1.39,0,0,1,1.11-.07c.16.4-.09.69.25.77a1.23,1.23,0,0,1-1.36-.7ZM7.68,50.08c-.21-1.19-.73-2.15-.38-3.74.09,1.15.46,3.18.38,3.75Zm24.59-6.51,1,.15a12,12,0,0,1-6.64,1.64c-5.62-.36-8-5.3-12.92-6.72,1.13-.31,2.37.62,3.12,1.23-1-2.22-5.24-2.37-7.38-1.42-.2.4-.57.57-.67,1.12-1.84.76-2.07,3-2.15,5.06-.06,1.37-.43,2.83-.43,4.23,0,1,.41,2,.4,2.88,0,2.26-1.07,4.07-.56,5.8,1,1.74,3.43,1.88,5.86,2.53a43.66,43.66,0,0,0,7.6,1.58c4.73.29,10.05-.52,12.78-2.5,1.33-1,3.36-3,2.72-4.72-.08-.22-.33-.52-.48-.82-.31-.59-.1-.69-.7-1,.62,0,1.57.63,2.59.66.61.62-.15,1.69.46,2.53a1.58,1.58,0,0,1-1.11.8c.09.39.48-.1.58.21s-.38.27-.46.55c1.26.12-1,.61-.31,1.17a7.63,7.63,0,0,1-1.59.73c-.08.23,0,.38.19.4-.7.3-1.22.86-2.1.89a3.67,3.67,0,0,0,2.57,0c-.1.25-1.22.58-1.83.7a16.81,16.81,0,0,1-2.35.11c.2.51.76.18,1.3.33a9,9,0,0,1-3.16.6A24.73,24.73,0,0,1,25,62.29c-1.09,0-1.61.4-3.13.36-3.31-.09-6.9-1.08-10.59-2.06C9,60,6.85,59.92,5.66,58.22c-.66-.94-.7-2-1.5-2.94,0,.89,1.25,1.75.38,2.27a16.36,16.36,0,0,1-.85-2.34c.75-.6.39-1.7.67-2.72.19-.64.65-1.16.79-1.83s.17-1.77.3-2.66c.18-1.25.51-2.42.69-3.57a14.9,14.9,0,0,1,.34-2.89,8.53,8.53,0,0,1,3.46-4,7.36,7.36,0,0,1,4.33-.29c1.58.41,2.26,1.66,3.37,2.74.08-.48-1.14-1-.55-1.19a7.5,7.5,0,0,0,2,2c-.05.12-.25,0-.28.2,2.53,3,9.74,4.23,13.45,2.52Zm-19.8-5.12c.06-.29,1.13-.47,1.1,0-.2,0-.19-.14-.34-.17-.15.19-.38.26-.75.13Zm94.75,13.71-.08,0-.06,0,.15,0Zm-27-24.4c.85.07,1.1.24,1.72,0-.62-.06-1.37-.31-1.71,0Zm31.6,1.84c6-.3,11.91-.72,17.64-1.36,23-2.56,45.27-5.86,62-17.23,0-.15.18-.14.18-.34C181.71,11.42,167,9.12,159.16,4c-6.8,3.54-14.49,5.74-22.43,7.59A230.75,230.75,0,0,1,84.8,17.21c-9.28,0-19,.17-28.75-1.27a7.56,7.56,0,0,1,2-6.81c1.8-2.06,6.58-4.69,6-8.49-3-1.74-5.66.47-7.75,1.71-2.69,3.33-4.18,8.26-5.13,12.92-2-.78-3.59.06-5-.18-1.19-.2-2.3-1.66-3.91-.87C41,12.9,39.15,13.39,37.51,13c-.38-.09-.76-.4-1.26-.57s-1-.08-1.43-.22-.92-.6-1.34-.83c-.73-.39-1-.43-1.2-.93-.37-.75.34-1.67-.1-2.47s-1.92-1-3.06-.85S27,8.63,25.85,8.43c-1.48-.27-1.06-1.84-2.08-3.16a7.13,7.13,0,0,0-3.7-2.18c-1.7-.35-3.28.31-4.88-.16-1.18.8-2.45,1.48-2.46,3.9,0,1.07,1.09,1.74,1.53,2.7.18.38.1.89.29,1.27a8.31,8.31,0,0,0,2.17,2.55c1.71,1.2,5,0,6.38,1.51,1.12,1.17,1.16,5.59,1.77,7.4a16.25,16.25,0,0,0,1.78,3.47,33,33,0,0,0,2.19,3.17c.58.69,1.43,1.22,2.15,1.94s1.27,1.57,2,2.16c5.33,4.37,12.2,5.25,17.32,1.41.8-.6,1-1.22,2.14-1.87.3,1.94,1,5.62,3,6.25,1.3.4,3.11-.21,3.54-1.4.84-2.33-2.63-3.83-3.61-5.85a10.54,10.54,0,0,1-.89-4.43c1.36-.46,2.89-.05,4.29.07,18.07,1.48,36.45,3.27,53,2.43ZM70.3,27.41c.56-.34,1.67.07,2.45,0-.29.31-1.55.07-2.45,0ZM109,28.91a3.62,3.62,0,0,1,1.73-.09c-.18.27-1,.22-1.72.1Zm1.85-.07a45.44,45.44,0,0,1,5.71-.44c-1.68.63-3.8.45-5.7.44Zm6.69-.41c.28-.34,1-.05,1.39-.27.2.49-.79.17-1.38.28Zm24.92-3.15c-4.89.35-11.38,1.9-16.12,1.85,8.26-1,16.54-2.25,24.37-3.6-2,1-5.34.75-7.36,1.53-.43.16-.38.5-.76.12.17.48,0,.1-.13.11Zm1.91.31a14.81,14.81,0,0,1-2.39.35c1.29-.56,3-.5,4.34-1-.25.45-1.19.52-1.94.68Zm10-1.85a45.06,45.06,0,0,1-5.28.76c2.33-.64,4.95-.86,7.24-1.55a4.51,4.51,0,0,1-2,.8Zm4.63-1.34a34.11,34.11,0,0,1,6-1.38,28.52,28.52,0,0,1-6,1.38Zm5.35-11.3c-.64.21-1.16-.22-1.67-.26a2.52,2.52,0,0,1,1.68.27Zm-7.43-3.39c.07-.34.53-.14.88-.11,0,.48-.59.08-.87.12Zm-3.46.92c.17-.43.8-.39,1.14-.19-.14.4-.69.22-1.13.2Zm2.77-.42a2.23,2.23,0,0,1,1.4.47c-.36.2-1.38,0-1.4-.46Zm2.31.13c.55-.23,1.34.29,1.9.42-.37.49-1.53-.19-1.9-.41ZM150.7,9.43c0-.39.73-.26,1.15-.31a8.2,8.2,0,0,1,3.87.37,4.63,4.63,0,0,1-2.89-.34c-.31.62-1.87,0-2.13.29Zm7.75-.12c.6-.08.61.09,1.55.25-.07.23-1.14.06-1.55-.24ZM148,10.1c.54-.56,2.31,0,2.85-.15-.17.56-2.2.18-2.84.16Zm7.23.05a10.38,10.38,0,0,1-3.14-.25,6.14,6.14,0,0,1,3.15.26Zm.46.2c.15-.46-.63-.24-.91-.39a5,5,0,0,1,3.13.38c-.4.22-1.32-.26-1.62.11.37-.44-.41-.17-.59-.09Zm-2.76.42a10.11,10.11,0,0,1,3.15.26c0-.18-.35-.1-.32-.3a21.75,21.75,0,0,1,3.86.37c-.35.26-.58.05-1.23.05.41.55,2.35,0,2.32.86.4-.29,1.2-.07,1.69.14a53.39,53.39,0,0,1-6.06-.47c.34-.31,1-.15,1.31-.53-.21-.37-.85-.12-1.2-.19-1.22,1.07-3,.46-5.18.16.38-.31,1.19,0,1.84.05a.35.35,0,0,0-.18-.4ZM175.73,14c-.18-.4.89-.32,1.39-.27-.49.37-.94,0-1.39.28Zm-1.49.13c-.29-.49.85-.27,1.17-.42.33.56-.91.2-1.17.43Zm-15.32-.11c.69-.5,2.2.08,3.18,0a8.3,8.3,0,0,1-3.18,0Zm-13,.52a2.46,2.46,0,0,1,1.54-.37,2.94,2.94,0,0,1-1.53.37Zm6.57-.43c.14-.39.83,0,1.14-.19-.07.49-.87,0-1.13.19Zm5.21-1.87c.3.48-.79.26-1.25.17.09-.5,1,.16,1.26-.17Zm12,0c.3-.32.93-.06,1.34.09-.26.5-.74-.17-1.33-.08Zm-15.1,0c.2-.36.8-.25.91-.34.34.41-.57.35-.9.35Zm-2.61.2c-1.58,1-4.18.51-6.51.07,1.64-.77,4-.58,6.52-.07Zm.52.58a2.69,2.69,0,0,1-1.65.35,1.68,1.68,0,0,1,1.66-.35Zm6.6.19c.31.52-1.34-.1-1.25.17-.27-.47,1.25,0,1.26-.17Zm-5.54.1a1.86,1.86,0,0,1-1,.2,1.17,1.17,0,0,1,1-.2Zm-3.48.3a3.25,3.25,0,0,1-1.89.31c.53-.18,1.36-.61,1.9-.31Zm5.54-.1c.46.45-1,.19-1.62.11.3-.27.92-.09,1.48,0-.75-.74,2,0,2.81.08-.78.34-1.89-.23-2.67-.18Zm10.3,0c0-.13,0-.21-.09-.25.28,0,.92,0,1.72,0-.33.38-.93.38-1.63.24Zm5.45-.35c.65-.47,1.77-.29,2.75-.3-.61.33-1.79-.13-2.17.51,0-.29,0-.19-.57-.21Zm4.52.1c.25-.5.53,0,1-.2a1.18,1.18,0,0,1-1,.21Zm4.64-.61c-.15.57-1.82.32-2.55.58.6-.55,1.79-.26,2.55-.57Zm-17.95.21c-1.19.43-3-.15-4-.15,0-.22.7-.34,1-.33.86.05,2,.6,3,.49Zm8.77-.32c0-.43.48-.36.63-.15a.57.57,0,0,1-.63.15Zm11.33-.28c.61-.42,1.81-.26,2.88-.4a3.56,3.56,0,0,1-2.88.41ZM145.41,11a11.42,11.42,0,0,1,4,0c-1.13.28-2.73-.07-4,0Zm-1.91.43c.16-.42.9,0,1.36,0a2.15,2.15,0,0,1-1.35,0Zm3.8,0c.18-.2.64,0,.88-.11-.18.46-.49.18-.87.11Zm6.82.35c-.36.44-1,.2-1.4.26,0,.12.14.12.22.16a23.59,23.59,0,0,1-3.84-.49c1.62-.82,3.2-.27,5,.07ZM142.68,12a7.27,7.27,0,0,1,2.71-.06c-.79.41-1.78.08-2.69.06Zm-2.78.54c.43-.59,1.74.05,2.37-.24-.13.4-1.49.36-2.36.24Zm4.52.1a34.51,34.51,0,0,1,4.29.81,8,8,0,0,1-5.6-.28A3.74,3.74,0,0,1,141,13a10.41,10.41,0,0,1,3,0c.19-.08.23-.37.44-.41Zm-6.35.59c.26-.48,1.35.2,1.74-.1.12.41-1.15.16-1.73.11Zm-1.43.5c.19-.42.85-.2,1.38-.15-.24.36-.9.12-1.37.16Zm9.17.24c-.77.94-3.12.12-4.3.05,1.4-.72,2.86-.09,4.31-.05Zm-4.82.21a6.24,6.24,0,0,1-2.11.15,4.12,4.12,0,0,1,2.12-.14Zm-5.08.3c-.25.33-.95,0-1.27.29-.13-.83.83-.13,1.28-.29Zm-5.8.18c-.17.2-.64,0-.87.11.07-.37.71-.33.89-.11Zm2.55.16c0-.47.59-.06.88-.11-.14.23-.49.19-.86.11Zm10.48-.29a4.86,4.86,0,0,1-3.86.36,12.3,12.3,0,0,1,3.87-.36Zm1.52,1.22c.28-.22.54-.28,1.25-.17-.18.37-.85.08-1.24.17Zm-4.68.11c.2-.31.65-.27,1-.32-.2.29-.65.24-1,.33Zm9.36-.22c.55-.36,1.54-.12,2.35-.12-.26.34-1.54.07-2.34.12Zm-3.29-.16a2.82,2.82,0,0,1,2-.29,4,4,0,0,1-2,.3Zm-3.9-.13a11.14,11.14,0,0,1,2.67-.56,6,6,0,0,1-2.66.56Zm9-.4c.6.33,1.62.11,2.52.4-.55,0-2.1.26-2.51-.4Zm3.07,0c.15.07.78-.29,1-.09a.72.72,0,0,1-1,.09Zm-.6-.1c.16.23-1-.06-1.23,0,.13-.4.82,0,1.24,0ZM139,15.05a11.09,11.09,0,0,1-4.18.07,9.26,9.26,0,0,1,4.19-.06Zm-4.94.2a6.57,6.57,0,0,1-1.47,0c.29-.55,1.06-.15,1.48,0Zm-10.61.39c.54-.46,1.87-.18,3.09-.12-1,.31-1.89,0-3.08.13Zm4.06-.09c.28-.15.43-.48.92-.34-.08.23,0,.38.18.4-.16.25-.75-.07-1.09,0Zm7,.13c-.3.28-1,0-1.37.15.22-.39.91-.12,1.39-.14Zm.36.06a6.12,6.12,0,0,1,2.45,0,4.19,4.19,0,0,1-2.76.42c.07-.13.69-.19.32-.44Zm19.9.6c-.62.45-1.19.26-2.48.21.74-.72,1.57.16,2.5-.21Zm-8.82.68c.05-.14,0-.22-.08-.26.06-.26.52,0,.74,0,0,.35-.33.31-.64.27Zm-5.77.06c-.16.22-.5.18-.88.1.17-.22.52-.18.89-.1Zm-8.79-.3c0,.26.5.13.7.23a6,6,0,0,1-3.22.22c.43-.62,2,.29,2.08-.77l1.08.17c-.07.4-.21.07-.62.15Zm3.1,1.35c-.31-.55.8-.25.92-.35.44.57-.74.14-.91.36ZM107.28,24c-.06.41-.5.28-.9.23.13-.32.62-.13.91-.22Zm2.33,0c.28-.06.63-.42.87-.11a1,1,0,0,1-.86.12ZM79,23.88c-.53.41-1.14-.17-1.93-.18.62-.27,1.2.06,1.94.2Zm46.35-.59c-.14.39-.78.09-1,.33-.19-.28.74-.25,1-.32Zm-9.84.15c.24-.49,1-.3,1.63-.23a4.46,4.46,0,0,1-1.62.24Zm-19.7-.32c-.14.19-.42.2-.76.13,0-.44.51-.08.77-.12Zm-19.85-.95a9.92,9.92,0,0,1-3.8-.73c0,.6,1.21.39,1.32.95a22.66,22.66,0,0,1-5-1.28c0,.11.07.23.2.27-.13.19-.55-.3-.8-.37,1.37-.75,4.18.06,6,.34.38-.88,1.7-.14,2.8.08.25,0,.08-.24-.11-.28,2.48,0,5.5-.23,7.46.34.47,0,.08-.41.34-.56a17.08,17.08,0,0,1,5.45,1.24c-1.09.24-2.83-.61-4-.63.43.62,1.24.31,1.84.79a2.92,2.92,0,0,1-2.74-.56c-.23,0-.14.46.09.51a7.23,7.23,0,0,1-2.26-.74c-.26,0,.09.49.42.44-1,1.08-3.08-.58-4.24-.31.27.4,1,.51,1.34.83-1-.16-3.6-.5-4.19-.67-.13,0-.12.21-.17.35Zm29.53-4.37c-.1.24.14.25.32.3-.34.48-1.58-.1-2.05-.2.39-.3,1.21,0,1.74-.09Zm2.16.34c-.38-.44.69-.11,1-.09-.33.28-.82-.1-1,.1Zm.66,1.21a19.34,19.34,0,0,1-7.3-1.16c1.92.42,4.79.47,7.31,1.17Zm3.64-.53a.56.56,0,0,0-.17.34c-.62-.25-1.8-.16-2.26-.48.93-.2,1.53.24,2.44.16Zm6.94.37c-.3.31-.9.22-1.4.27.13-.55.94-.17,1.41-.25Zm-.55,1.14c-.12.37-.81,0-1,.21-.19-.29.83-.38,1-.2Zm-4.3.05c.44-.46,1.34-.29,2-.41-.38.56-1.33.32-2,.43Zm11.15.06c.1-.39.72-.07,1.12-.07-.18.3-.68.15-1.11.09Zm-6.1-.23c.16-.23.5-.19.88-.11-.24.44-.35.21-.87.12Zm1.63-.23c.2-.31.78-.11,1.24-.05-.12.42-.8.06-1.23.06Zm-2.82,0c-.31-.3.46-.33.77-.25-.08.33-.62,0-.76.26Zm-6.46-.29a12.49,12.49,0,0,1,4.56-.14,13.38,13.38,0,0,1-4.55.15Zm-12.52.82c.48-.36,1.37-.15,2.11-.15a8.24,8.24,0,0,1-2.1.16Zm-40.69.51c.07-.34.06-.79.27-.94a.57.57,0,0,0,.34.18c-.22.23-.22.76-.6.77Zm8.4-.38c.67-.34,1.14.7,1.08.91a2,2,0,0,1-1.8-1,1.94,1.94,0,0,0,.92.39c.09-.19,0-.23-.19-.26Zm-2.95,0c.53-.31,1,.34,1.12.67-.48.3-.76-.48-1.11-.66Zm-5.75-.06a.69.69,0,0,1-.25-.77l.48.08c0,.39-.25.33-.22.71ZM85,18.58c3.37-.23,7.17,1,10.31,1.52-3.32.58-7-1-10.3-1.51Zm1.12.67c1.1.19,2,.52,3.21.63a4.29,4.29,0,0,1-3.2-.62Zm7-.11c1.73-.37,4.19.6,5.74.91a26.51,26.51,0,0,1-5.73-.9Zm3.56-.05c1.65-.58,3.93.63,6,.72-2.11.73-3.28-.64-6-.71Zm5.4,0a2.52,2.52,0,0,1-1.69-.14c.38-.22,1.17.15,1.7.16Zm9.92.11c0-.6.8-.16,1.26-.17-.22.34-.72.28-1.25.18Zm-27.9-.4c1.51.3-1.21.1-1.44-.23.15-.18.53-.05.76-.12a2.71,2.71,0,0,1,.69.37Zm-3.64.53c-1.73.06-3.08-.54-4.43-.71,1-.52,2.94.41,4.44.72Zm-1.1-.79c2.09-.19,4.44,1,6.78,1.32-2.24.28-4.55-1-6.78-1.31ZM77.49,20c-.26.26-.94-.08-1.2-.19.37-.3.72.28,1.21.21ZM56.57,21.17a1.21,1.21,0,0,1-.35-.92,3.73,3.73,0,0,0,.7-.5c.27.43-.44.77-.34,1.43Zm5.23-.52c.85-.36,1.15.58,1.58.87-.58.19-1-.64-1.57-.85ZM59.38,22a.91.91,0,0,1-.48-.82c.22.25.51.43.49.83Zm.36-.68c.28-.17.86.35.86.75-.48-.09-.49-.55-.85-.74Zm5.2.46c.48-.37,1.1.2,1.51.48-.29.17-1-.23-1.5-.47Zm26.93.36a4.29,4.29,0,0,1-1.85.08c-.29-.68-1.2-.9-2.3-1,1.2-.63,2.83.65,4.16.92Zm.94.27c-.29.34-1,.13-1.5.13a12,12,0,0,1,1.51-.11Zm-19.41.24a4.18,4.18,0,0,1,2.39.38A3.43,3.43,0,0,1,73.4,22.64Zm28.28.33c0-.49.77,0,1.12-.07-.18.29-.68.14-1.12.07Zm-12.84-.2c-.17.25-.76-.08-1.1-.06a1.09,1.09,0,0,1,1.1.06Zm8.78-.45a3,3,0,0,1,1.23-.05c0,.2-.14.19-.18.34-.13,0-.21,0-.25.09-.09-.4-1.32-.16-.8-.37Zm2.47-.1a1.21,1.21,0,0,1,1-.08c-.22.46-.5,0-1,.09Zm6.71.21c.2-.35.48,0,1.23,0a.94.94,0,0,1-1.23.05Zm1.77-.33c-.11,0-.11-.06-.1-.14l0-.23.6.1c0,.11-.17.07-.26.08.06.13.25.16.18.4-.16,0-.38-.48-.46-.2Zm-5.22-.34c.3.33-.54.33-.9.23.17-.26.71,0,.9-.22Zm6.85.11c.55-.29.74-.06,1.37-.15l0,.36c-.19-.18-.81,0-1.32-.2Zm23.44-.8c-.61.77-2.7.75-4.08.95,1.27-.75,2.75-.46,4.08-.95Zm-21.15.31c-.13.16-.41.11-.64.15.44-.23.21-.49.82-.49.2.13-.1.12-.26.08,0,.14,0,.22.08.26Zm.74,0c-.15-.12.57-.27.89-.22-.71.22,0,.21.46.2,0-.12-.13-.12-.22-.16.26-.49.57.62.62,0,.35,0,.28.22.58.22-.49.3-1.38.05-2,.17.1-.46-.09-.06-.34-.18Zm3.34-.2a2.81,2.81,0,0,1,1.51-.25c-.32.33-1,.18-1.51.24Zm-20.79.37c.36.34.69.06,1.18.31-.91.43-2.56,0-3.31,0,.12.71-1.21,0-1.55.49-.08-.76-1.67-.66-2.52-1.14a5.39,5.39,0,0,1,3.15.26c.17,0,.15-.28.2-.46a6.35,6.35,0,0,1,2.41.26,1.08,1.08,0,0,1,.56-.4c3.12.05,6.81.21,9.75-.41-.94-.17-2.41.17-3.68,0,.46-.57,1.59-.24,2.49-.22a16,16,0,0,1,5.93-.28c-1.31.48-3.2.16-4.62.49,2.06.53,4.55-.35,7.61,0-5.61.61-11.65,1.83-17.6,1.11Zm40.86-.85c.2-.27.68-.14.92-.35.21.25-.54.42-.92.34Zm-9.86-.47c.28-.37.6,0,1,0-.14.25-.68-.06-1,0Zm1.28-.29a8.12,8.12,0,0,1,2.46-.1c-.26.51-1.55.28-2.47.1Zm-5.86-.2c.54-.29.85-.14,1.59,0a1.52,1.52,0,0,1-1.59,0Zm1.87-.19c.17-.26.59-.16,1-.09-.08.37-.63.11-1,.09Zm1.37-.15c.18-.39.73-.26,1.16-.31-.24.31-.69.32-1.16.31Zm8.5-.24c-.28-.26.72,0,1,0,.28.26-.72,0-1,0Zm-13.72-.1c-.26.33-.58-.1-.76.13-.34-.31.7-.36.76-.13ZM112,18.48a16.19,16.19,0,0,1,4.22.43c-1.51.28-2.5-.36-4.22-.43Zm19.1.22c0-.34.35-.3.65-.26,0,.33-.34.29-.65.26Zm-4.15-.16c0-.5.63-.11.8-.37.27.28-.46.42-.79.36Zm-1.61-.63a7.16,7.16,0,0,1-4.32.17c1.54.08,2.8-.23,4.32-.18Zm-6.21.48c0,.35-.64-.2-.64.15-.13-.24-1.81-.32-1.16-.43Zm14-.1c.15-.47.36-.18.75-.12,0,.3-.43.16-.75.12Zm-15.9.42c-1.21-.27-2.42-.44-3.7-.6-1-.12-2.27.12-3-.6,2.55.3,4.56.33,6.69,1.19Zm9.57-1.55c.83.06,1.19.21,2.16.35a4.09,4.09,0,0,1-2.37.23c0-.3.26-.23.22-.58Zm-1.79.46a2.25,2.25,0,0,1,1.12-.07c-.1.38-.72.07-1.11.06Zm6.23-1.34a5.49,5.49,0,0,1,3,.23c-.69.36-2-.18-3-.24Zm16.91.11a2,2,0,0,1-1.34-.09,1.93,1.93,0,0,1,1.34.09Zm-6.73-.09a4,4,0,0,1,1.75-.21,2.85,2.85,0,0,1-1.75.21Zm-19.45-.4c2.49.31,5.81-.1,8.75.54-2.48.56-6.18,0-8.74-.54Zm4,1.13c-1.15.38-2.4-.1-4.39-.21a15.74,15.74,0,0,1,4.39.2Zm-8.25.16a28.81,28.81,0,0,1,5.72.3c-.16.3-1,.27-1.51.25a33.09,33.09,0,0,1-4.2-.56ZM62.63,2.4c.09.39-.08.54-.05,1.1-.26-.13.07-.68-.38-.67.24-.18-.1-.51.44-.43ZM40.73,15.1c-.52,1.81.18,2.5.49,3.88-.81-.22-.69-1.12-1.23-1.54-.22.06-.21.85.11.87-.62.27-2.64-3.17-1.13-3.73.41.31,1.33.24,1.77.52ZM50,17.57a8.18,8.18,0,0,1,.61,4.63c-.46-.15-.5-.62-.84-.87a.12.12,0,0,0-.12.13.17.17,0,0,0,0,.07,4.58,4.58,0,0,1-1-4.55c.46,0,.65.44.76-.13.41.39.14,1.77.46,2.53.39-.43,0-1.2.17-1.81ZM42.78,22.3c1.13.3,2.41,2,3.53.93,1.37.65,2.14,2.56,4.21,2a6.69,6.69,0,0,1-4.8,8.15,6.89,6.89,0,0,1-2.17.19c-1-.05-2.32-.58-3.25-.4C34.24,30.5,29.24,27,27.77,21c.45-1.52.76-2.11,2-2.5.2-.06.67-.35.79-.36,1.26-.08,2.09,1.31,3.44,1.53a10.69,10.69,0,0,0,1.12-.07,14.9,14.9,0,0,1,1.54,1.1c1.34-.26,1.69.62,2.89.34.56.51.84,1.07,1.76,1.26.48.1,1-.14,1.48,0Zm-4.8-3a.57.57,0,0,0-.34-.18c-.39-1.28,0-.58.34.17Zm3.91-.73a1.32,1.32,0,0,1,.47.93,1.65,1.65,0,0,1-.46-.93Zm5.32,2.08c-.14-.36-.45-.6-.31-1.16a1.31,1.31,0,0,1,.31,1.15Zm.93-3.54a6.64,6.64,0,0,0,0,3.07c-.8-.38-.84-2.48,0-3.07Zm-3.2,1.58c-.21-.37-.47-.72-.69-1.09-.32,1.09,1.23,1.72,1.12,3a33,33,0,0,1-2.28-4.17c.1,1.34,1.12,2.93,1.78,4.21a7.54,7.54,0,0,1-2.5-4.32c0-.14-.2-.14-.34-.18.42-1.13,2.3-.17,3.23-.22.08.33-.41,2.07-.31,2.77ZM28.36,18c-.26-.14.27-.38.34-.56a.57.57,0,0,0,.34.18c-.05.36-.62,0-.67.38Zm8.24-4c.14,1.6-.22,2.27.3,3.48-1,.44-3-3.66-.29-3.48Zm-5.07,1c.34-.37.27.43.54.46-.28.33-.37-.35-.53-.46Zm3.48-1c-.07.22-.44.74-.16,1-.16.11-.61-.47-.46-.93.33.14.34-.13.62,0Zm-2.6-1.4c1,.16.42,1.64.53,2.79-.53-.46-.68-.41-.78-1.23-.58.51-1.16-1.79.25-1.56Zm-2.18-.22c0,.66.09,1.33.18,2-1,.8-1.39-1.45-1.8-1-.41-1.31,1.18-1.53,1.63-1Zm.2-3.53c-.42.4-1.12.41-1.09,1.42-.41-.13-.36.38-.77.25.51-.64.95-2.08,1.87-1.67ZM23.89,7.63c-.2-.21-.49-.35-.37-.79a1.11,1.11,0,0,1,.38.79Zm-.41-1.29c-.42-.12-.4-.56-.6-.83.18-.12.61.47.61.83Zm-9-.69c-.19.88-.14,1.52-.34,2.15-.87-.47-.45-1.88.35-2.15Zm.74.73c0,.38-.26.32-.23.7-.12-.14-.36-1,.24-.7ZM17.87,10c.58.63.56,1.7,1.23,2.28-1,.08-1.16-1.34-1.22-2.28Zm.76-2.46A24.57,24.57,0,0,1,18.84,10c-.7,0-.84-1.8-.2-2.49ZM50.78,32.9c-.34-.4.4-.51.5-.78C51.59,32.46,51,32.72,50.78,32.9ZM57.16,36c.35-.91-.32-.42-.19-1.14.83.19,1.07,2.42.08,2.59l.1-.6c-1.19.9-1.41.2-2.08-.82a7.92,7.92,0,0,1-1-4.69c.55,1.77.56,5.32,3.06,4.66Zm-.74-.74c.12.05,0,.26.2.28-.3.48-.92-.21-.88-.63.22.06.54.58.68.36Zm-6-3.28a6.75,6.75,0,0,1-1,1.92c-.93.86-2.54.65-3.34,1.68-4,.46-7.72-.76-11.51-2.45-5.42-4.9-11.5-10.85-9.15-20.35-1.1-.35-.54,1.59-1.06,2-.4-.07,0-.7-.22-.9a6.52,6.52,0,0,1-3.39-5.69,3.37,3.37,0,0,0,.08,2.59c-.27.11-.53.16-.2.46-.61-.41-.95-3-.13-3.82-1-.11-1,2-.71,3-.57-.4-.75-2-.58-3.28.27-.2.7,0,.95.15,0-.38-.62-.25-.5-.69.48.18-.13-.47.48-.66-2.48.38-2.54,3.3-2.59,5.47-.59-.7-1.38-1.26-1.2-2.52-.38.16,0,.65-.15,1-.29-.36-.08-1.07-.52-1.31.37.24,0-.84.53-1-.13-.36-.52.13-.58-.22.37-1.07.58-1.47.9-2.55a4.84,4.84,0,0,0,2-.91c3.74.28,3.46,4.05,6,4.88v0a.52.52,0,0,1,0-.21l0,.21c0,.54.73.78,1.3,1.09,0,.36-.22.28-.21.58,1.31-.63,1.88-2.27,3.87-2-.28.82-1,1-1.39,1.74-.74,1.47-.48,3.55-1.07,5.23a16.82,16.82,0,0,0-1.17,4.23c-.06,1.88,1.5,3.51,1.53,5,2,1.92,2.77,4.7,5.42,6C35,31.75,37.5,34,40.8,34.74c4,.85,9.39-1.82,10.28-5.24a26,26,0,0,0,.84-5.26c0-.93-.29-2,.3-2.65-.13-7,.94-15.34,5.68-19.46,1.44-.51,3.53-2.5,5.27-.76-.17.44,0,.6,0,1-.78-.18,0-.82-.55-1.19-.51,0,0,.5-.35.68C57.88,3.05,55.36,7,53.6,11.38a7.19,7.19,0,0,0,1.18-2c.48-.49-.45.81-.15,1a3.79,3.79,0,0,0-.69,1.24c.82-.44,1-1.61,1.46-2.22.73-1.06,1.56-1.75,2.13-2.6.33.15-.2.27-.1.6.92-1,1.48-2.44,2.69-3,.58-.27.73.63,1-.09,0,.71-.95,1.42-1.62,1.7-2.2,2.83-4,4.39-5.58,8.07-.22,1.73-.93,3.25-1,5.37-.1,3.86,1.43,10.35-2.5,12.6ZM59.28,4.2c.17.48-.77.68-.92,1.2C58.14,4.85,59,4.6,59.28,4.2ZM56.73,7.1c0,.68-.85,1.35-1.18,2,0-.6.83-1.39,1.18-2ZM53.8,19.39A3.07,3.07,0,0,1,54,21.5a5,5,0,0,1-.15-2.11Zm1.38,3.66c.26.09,0,.6,0,.86-.35-.07-.17-.73,0-.86Zm-.35,1.42a.82.82,0,0,1,.36.79c-.38-.08-.48-.36-.36-.8Zm2.41,1c1.39.07,2.52.59,4.17.78a7.93,7.93,0,0,1-4.17-.79Zm4,0a8.93,8.93,0,0,1-4.61-1.1c-1-.73-1.08-2-1.36-3,.4,0,.34.28.6.1-.51-.74-.09-2.34,1-2.18.14.53-1,.44-1.05,1.18a4.41,4.41,0,0,1,.2,1.87c.1.74.82,1,1.09,1.65a29.53,29.53,0,0,0,6.14,1.47c11.12,1.11,22.81,1.86,32.89.7a45.23,45.23,0,0,0,7.63-.14c7.13-.65,14.86-1.07,22.21-2.35,9.51-1.64,18.9-3.83,28.34-5.42.27-.51,1.46-.85,2.57-.7.14-.53.83-.31,1.09-.68.4,0,.43.18.56.33a5.27,5.27,0,0,1,4.07-.94c.49-.07,0-.57.58-.52a.87.87,0,0,1,1.05.29c.24-.26.42-.6.74-.75,5-1.08,11.64-.82,16-1.62,2.14-1.19,5.41-.81,7.55-2-.42,1-1.8,1.13-2.83,1.63s-1.94,1.35-3.06,1.48c-4.49,2.51-10.08,3.52-15.18,5.19-3.4.42-6.67,1.3-10,2-9.63,1.93-19.76,3.4-30.22,4.88-5.17.24-10.1,1-15.29,1.24-1.72.08-3.53-.12-5.28,0-1,.08-1.86.49-2.78.54-2.75.14-5.9-.18-8.92-.2-4.23,0-8.4-.19-12.92-.59.09.35.63.1.84.14a5.66,5.66,0,0,1-2.59.07c-6.56-.66-13.35-.94-19-2.52ZM115,24.61c-.73.46-2,.13-2.89.4-.11-.5,1.4,0,1.67-.47.37.26.7,0,1.22.07Zm-53.76.15a3.43,3.43,0,0,1-1.67-.27c-1.2-.31,1.44,0,1.67.26Zm39.28.61c.07-.34.71,0,1.14-.18-.25.24-.72.17-1.14.18Zm-2.1.16c-.1-.38,1.08-.25,1.63-.23-.43.23-1.12.1-1.63.23ZM87.3,53.2c.2-.5,1.3.24,1.41-.39a6.57,6.57,0,0,0-1.47,0C87.23,53,87.16,53.16,87.3,53.2ZM56.84,55a4.59,4.59,0,0,0,2.21,0,8.25,8.25,0,0,0-2.22,0Zm3.68,0c-.3.17-1-.18-1.23,0,.12.07,1.07.3,1.23,0ZM23,11.66c.22,0,.58.22.52-.16-1,0-.6-1.05-1.13-1.4,0,.08,0,.23-.16.22-.17-.34-.25-.74-.58-1,.31,1.46.55,2.33,1.72,3.1.26-.55-.52-.34-.37-.8Zm103.42,102c-.16-.19-.46-.13-.79,0C125.73,113.93,126,113.62,126.43,113.65Zm25.35.77c.34.15.74.17,1.09.29.13-.43-.61-.17-1.09-.29Zm-27.13-.67a6.76,6.76,0,0,0,.9,0,.72.72,0,0,0-.9,0ZM94.74,101c-3,.52-5.4,2.81-3.61,5.86.73,1.26,3,2.47,4.24,3.46,2.26,1.81,5.47,3.58,6.9,6a26.45,26.45,0,0,1-9.37,3.58c-4.32.81-8.85.78-11.92-.3-1-1.73-1.7-3.3-4-2.85a9,9,0,0,0-2.71,1.36c-3,2.22-5.24,8-3.32,11.55,1.11,2,3,1.9,5.81,1.59,4.44-.5,8.41-1.36,11.82-1.93,5.09-.87,9-2.71,13.56-3.06.51.26,1,.5,1.54.75,1.74,2.65,2.9,7.46,4.67,10.57.23.38.32.87.5,1.11,1.13,1.42,2.63,1.78,4.2,2.34,2.33-.47,4.34-1.53,4.46-3.82a7.4,7.4,0,0,0-.61-3.35c-1-1.5-4.64-1.15-5.42.45.43.36,1.2,1.73.75,2.52-.76.43-1.73-.41-2.18-1a21.77,21.77,0,0,1-2.34-4.83c-.66-2-1.3-4.3-.66-5.82.88.42.4,2,.21,2.66.2,2.12,1.58,3.74,3.4,1.4a7.67,7.67,0,0,0,1.44-5.54c1-.82,1.91-.66,3.16-.9,5.14-1,9.58-2.13,14-2.71a110.57,110.57,0,0,1,25.19-.76,26.42,26.42,0,0,1,8,2.18,9.76,9.76,0,0,0,2.42,1.09c1.06.1,2.16-.25,3.21-.24a73.94,73.94,0,0,1,20.84,3c-8.8-8-22.69-11.22-35.86-12.59a179.76,179.76,0,0,0-43.67.86c-3.81-5.84-7.93-11.24-14.65-12.58Zm17.72,37.09c.18.5-.54.46-.63.16l.63-.16Zm1.86,2c-.45.12-.73.41-1.09.15.16-.18,1-.49,1.09-.15Zm.69-.4a2.76,2.76,0,0,1,.58-.38c.23.33-.43.58-.58.38Zm-1.59-4.12c.26-.27.57-.5.56-.93a2.45,2.45,0,0,1,1.3,2.95c.25,0,.26-.39.34,0,.06,1.65-2,2-3.29,2.18-.36-.75-1.68-.7-1.73-1.49.59.23,1,.76,1.68.83a2.49,2.49,0,0,0,1.28-3.27c0-.1-.09-.19-.14-.29Zm-3,1.65c.46,0,.76.34,1.23.37-.45.48-1,0-1.23-.37Zm-.71.74c-1.37-1.49-2.29-4.51-2.84-6.85a32.26,32.26,0,0,1,2.84,6.85Zm66.42-16.81a5.9,5.9,0,0,1-2.92-.85A8.06,8.06,0,0,1,176.15,121.2Zm-83.25-14c.27-.12.7.22.45.45-.14-.16-.33-.24-.45-.45ZM94,108c.09,0,.21,0,.24.06.89,1,2.65,1.4,3,2.73-1-1.06-2.23-1.79-3.29-2.79Zm1-.13c.21.51,1.11.66,1.07,1.09-.29-.31-1.38-.78-1.07-1.09Zm3.24,1.22c0,.39.44.17.48.56-.25.05-.7-.32-.48-.56Zm-.66,2.31a5.24,5.24,0,0,1,.64.29c1.33.94-.65,0-.64-.29Zm-.77,9.1c-.33,0-.42.55-.64.16,0-.09.53-.38.64-.15Zm-22.07,7.88-.1-.42a2.66,2.66,0,0,1,1.54.74c-.65.19-.91-.29-1.44-.31Zm5.84-.56c-.85.08-2.27.28-2.52-.16.77.19,1.77,0,2.52.17Zm-4.8-.71c.15.11.2.36.35.47-.33.19-.66-.38-.8,0,.13.34.62.07.69.5-.38.12-.47-.22-.82-.13-.68-2.38.6-4.94,1.54-6.93-1.21,1-1.44,2.48-1.86,3.85A5.39,5.39,0,0,1,74,127c-.14-1.52,1-3.31,1.08-4.67.22-.25.33-1.29,1-1.73-2.44.91-2.66,3.3-3.77,5.23-.3-2.42.56-3.67,1.73-5.28-.68.37-.8.93-1.44,1.49.45-.79.55-1.78,1.6-2.2l-.08-.32c.54.13.44-.36.77-.53a3.4,3.4,0,0,1,4.27,1.3c.12.91-.45,1.42-1.12,1.86,0,.44.26.58.67.4.57,1.49-.86,2-1.76,2.92.14.32-.1.42.08.77-.47.29-1.13.46-1.35.91Zm16.89-5.58c.65-.09,1.52-.52,2-.4a4.38,4.38,0,0,1-2.05.41Zm5.68-.29c-.45.1-.54.33-.88.11a1.17,1.17,0,0,1,.88-.1Zm-18.93.56-.08-.32c.38,0,0-.37.37-.32,0,.28,0,.54-.29.64ZM93,124.25c.43-.25,1.61-1.08,1.86-.69-.53-.12-1.12,1-1.86.7Zm-2.81-.43c.13.5.86,0,1.17.16-2.12,1-4,1.65-5.42,1.36.57-.32,1.3-1,2.15-.88-.12.25-.73.22-.63.61a5.18,5.18,0,0,1,2.68-1c-.1-.28-.5-.08-.64-.29a5.67,5.67,0,0,1,3.4-.85,4.67,4.67,0,0,1-2.71.91Zm-5.39,1c-.2.28-.79.31-.9,0,.23.11.7-.16.9,0Zm1.83-.34a2,2,0,0,1-1.88,1c0,.06-.06.14-.11,0,.18-.1-.07-.1-.16-.19a2.47,2.47,0,0,1,2.15-.86Zm-1.4-.67c-.26-.18-.94.35-1-.08.66-.57,1.19-.1,2.07-.29a1.18,1.18,0,0,1-1.52.69l-.12,0c0-.27.54.11.6-.26Zm-3.06,0a1.16,1.16,0,0,1,1.59-.34l.16.13a1.62,1.62,0,0,1-1.75.22Zm-2-.4c.6-.06,1.19-.1,1.78-.1-.07.79-1.57.84-1.78.11Zm6,.64c.4-.15.79-.78,1.33-.55-.89.35.3.2.53.32-.45.35-1.41.66-1.86.24Zm3.27-.47c-.19.24-1,.76-1.49.37.65-.08,1-.67,1.48-.36Zm-8.71-1a2.39,2.39,0,0,1,1.27.14c-.43,0-1,.12-1.28-.13Zm14.63-.15c-.53.44-1.15.37-1.83.8l-.09-.32a3.38,3.38,0,0,1,1.91-.47Zm-9.8.53a1.38,1.38,0,0,1,1.14,0c-.41,0-.92.23-1.14,0Zm-2.5-.06a3.46,3.46,0,0,1,2,0,3,3,0,0,1-2,0Zm12.37.3c.31-.18.7-.78,1-.69-.28.47.31-.1.37.13-.43.14-.84.76-1.32.57Zm5.73-.53a2.78,2.78,0,0,0,.59-.37c.12.26-.58.76-.58.37Zm-10,0a9.66,9.66,0,0,1,2.25-.45,7.51,7.51,0,0,1-2.25.46Zm-7.25-.56a5.26,5.26,0,0,1,2.81,0,7.8,7.8,0,0,1-2.81,0Zm-.8,4a1.75,1.75,0,0,1,1.62-.29c-.56.2-1.14.71-1.61.3Zm-3.58.1A6.92,6.92,0,0,1,82,126c.26,0,.92-.37.82.13-.7.58-2.48.36-3.34.17Zm6.37.21c1.18-.25,2.35-.9,3.45-1.09-.69.62-2.69,1.38-3.45,1.1Zm4.2-1.27c.76-.11,1.17-.83,2.07-.74-.7.15-1.52,1.12-2.07.75Zm33.31-5.73a.11.11,0,0,1-.12-.1.14.14,0,0,1,.07-.11,8,8,0,0,0,1.94-.37c.4.13-1.38.43-1.88.59Zm-12.93,7.4c.13,0,.13-.2.22-.05-.2.21-.07.62-.38.77-.2-.21-.79.22-.92-.11.93-.76-.14-2.1-.08-3,1.8-.69-.47-2.27-.19-3.45.22-.23.77-.26.61-.72-.38-1.13-2.86-1.62-1.51-2.89-.69-.92-2.13-1.49-2.2-2.5.42-.05.5.47.82.58,1.56,0,2.39,1.14,3,2.63-.42,0-.32-.78-.9-.45,1.85,2.74,1.9,6.64,1.51,9.23Zm4.73-10.43-.74.19c0-.13-.09-.3,0-.35.1.29.56,0,.71.18Zm11.36,1.23c.65,0-.42.23-.71.29a7.32,7.32,0,0,1-2.55.18,16.31,16.31,0,0,1,3.27-.46Zm3.56,1.14c.07-.3-.42-.37-.13-.53,0,.06,0,.12.13.07s.06-.14.11,0c.36.25,1.92-.2,2.52.16a22.74,22.74,0,0,1-2.63.33Zm37.54-.58c.23.34-1,.08-.72-.16a1.08,1.08,0,0,0,.72.18ZM156.05,118c-.14-.26-.63.05-.74-.26.24,0,1,0,.75.28Zm8.31-.15a6.27,6.27,0,0,1-2.23-.35,6.25,6.25,0,0,1,2.23.36Zm-2.33-.32a2.52,2.52,0,0,1-1.3-.24,3.62,3.62,0,0,1,1.3.25Zm-20.5-.3c2,.34,4.32-.09,6.06.29-2.37.25-4.35.07-6.4.13-2.68.08-6.16.41-9.08.24,2.13-.3,4.72-.25,6.2-.54-.25,0-.39-.18-.55-.31,2.68-.17,4.87-.54,7.8.08a31.87,31.87,0,0,0-4,.13Zm-5.47-.22a.53.53,0,0,0,.19.29c-.27.19-.78,0-.5-.21.09.19.13,0,.32,0Zm-3.29.37c-.23.3-.93.13-1,0,.39-.07.83-.25,1,0Zm5.34-.77c.49.08,1.23-.24,1.51.19-.5-.05-1.22.26-1.51-.16Zm-.11,0a3.46,3.46,0,0,1-2.33.13,10.68,10.68,0,0,1,2.33-.11Zm30.27.11a1.81,1.81,0,0,1-1.23-.37,2.45,2.45,0,0,1,1.23.39Zm-5.2-.5c-.3-.3-.95,0-1.23-.37.41,0,1.32,0,1.22.39Zm-17.55-3.4c.6.15,2.25-.19,2.65.24-.5,0-2.41.24-2.65-.22Zm-18.74.4a4.93,4.93,0,0,1,.77.37,1.75,1.75,0,0,0,1-.37c3.7-.06,7.6-.43,10.89.21a22.26,22.26,0,0,1,5.65.06c2.87.16,5.79.07,8.31.74.14-.24.29,0,.64-.16.18.21,0,.34.42.35-.05-.13-.22-.18.06-.24,2.42.43,5.07.47,7.22,1.36-.5-.19-.5.47-.88.1.17-.09.31.09.32-.08-.84,0-2.1-.74-2.66-.24a37.25,37.25,0,0,0-5.36-.69c4.09.7,8.07,1.34,12.21,2.36-4,.28-7.41-1.28-11-1.2.13,0,.2.08.27.16-.5-.14-1.39-.75-2.2-.24a3.68,3.68,0,0,1,1.51.19c-4.38-.22-10.79-.22-14-.35a4.92,4.92,0,0,0-.93-.11c-.56.16,0,.08-.56,0s-1.66.21-2.2.21c-3.16-.08-6.59.75-9.4.77-.21,0-.19-.39-.5-.21-3.22.51-6.82.62-10.86,1.7,0-.62-1.2-.2-1.06-.64a6.58,6.58,0,0,0,2.71-.45c-.65.18-.13-.3-.4-.69a1.75,1.75,0,0,1-1.54.16c1-.71,3-.17,3.37-1a3.58,3.58,0,0,1-1.78.11c.51-.29,1.12,0,1.38-.35-.36,0-.88.27-1-.08.69-.47,1.46-.1,2.23-.55a3.36,3.36,0,0,1-1.91,0c.31-.11,1.43,0,1.59-.4a7.37,7.37,0,0,1-2,.16c3.55-.58,6.25-.5,9.66-1ZM146.66,116a15.17,15.17,0,0,1,3.56.24,9.92,9.92,0,0,1-3.56-.23Zm-38.28-1a9.16,9.16,0,0,1-1.59-1,13.52,13.52,0,0,1-4-2.29c-.18-.16-.34-.85-.71-.61.19-.4-.52-.64-.27-1.06a14.15,14.15,0,0,1,3.8,2.55,4.14,4.14,0,0,1,2.73,2.38Zm-7.83-7.41c2.3,1.5,5,2.41,6.77,4.52-.13.49.35.43.18.74a4,4,0,0,0-1.77-1.25c-.49-.18-2-1.35-3.32-2-.41-.2-.88-.17-1.22-.37-1.4-.83-2.48-2.18-3.67-2.92.1-.73-.92-1-.53-1.22,1.07.17,1.68,1.12,2.63,1.48,0,.43.54.77.93,1Zm-.64-2.1a8,8,0,0,1,1.28,1c-3-.93-5-3.57-8.39-3.77.71-1.15,1.91-.42,2.79-.14a15.14,15.14,0,0,1,5.6,3.46c-.57.15-1-.82-1.28-.57ZM122.69,114c-.44-.32-1.26,0-1.91,0,.38.24,1.21-.07,1.91,0Zm23.57.88c.17.07.3.2.52.2l.2,0a.65.65,0,0,1-.2,0c-1.32.28-3.31,0-5,.25,2.32.27,4.65-.26,6.93.19,1-.36,2.29.06,3.32.19-.13-.48-.91-.27-1.44-.32-.88-.09-2-.46-2.62-.14-.1-.14-.11-.15-.4-.24-.28.07-.11.12-.06.24-.45,0-.49-.5-1.22-.35Zm-27.29.05c-.21.34.76.17.9,0-.26-.18-.86.18-.9,0Zm22.38,2.42c.16-.37-.77-.21-1.17-.16.19.4.85,0,1.17.18Zm-12.77-1.44c-.53-.13-.82.25-1.4.24,0,.18,1.06,0,1.4-.22ZM141,114.62c-.23.2,1.13.28,1.54.29a31.44,31.44,0,0,1,3.63.1c-1.7-.47-3.3-.21-5.18-.38Zm-2.37,2.73c.49.21.82-.25,1.25,0,.14-.34-1-.16-1.25,0ZM154.81,82a4,4,0,0,0,1.36-.4c-.3-.15-.72.33-.85-.1A6.59,6.59,0,0,0,157,81c-.59,0-1,.32-1.59.34-.13.52-.21.43-.57.75Zm-136-41.23c-.5,0-.67-1.05-1-.53.4.12.71,1,1,.54ZM170.23,56.22a2.62,2.62,0,0,0-1.59,0c.47.34,1.06,0,1.59,0ZM163,57c.93,0,1.88,0,.28-.2,0,.17-.23.09-.28.21ZM65.09,87.4a1,1,0,0,0-.73-.06l-.09.35c.46.25.63,0,.82-.27ZM89,84.94l1,0A5.65,5.65,0,0,0,89,85Zm81.4-27.47c.49-.15,1.31.15,1.63-.23-.6,0-1.36-.21-1.63.25Zm-14.58-.11a12.84,12.84,0,0,0-3.27-.28,14.34,14.34,0,0,0,2.77.32c.45.17,1.48.14.5,0ZM88.4,85.29c.18.54.83.19,1.2.18,7.16,0,15.4-.21,22.64-.91-8.4.18-15.44.64-23.83.75Zm81.92-28.08c-.2-.2-.8,0-1.12.07.44.08.94.23,1.12-.05Zm-4.76-.14c-.43-.15-.73-.27-1.1,0,.34,0,.93.32,1.1.06Zm.24,0c1.24.1,2,.37,2.82,0-1,.14-2-.13-2.82,0ZM121.5,84.57a3.7,3.7,0,0,0,1.94-.25,15.88,15.88,0,0,0-1.94.27Zm22.4-1.47c.3-.29,1.52.13,1.35-.4-.3.28-1.52-.1-1.35.42Zm-1.33-.22c-.5.23-1.81,0-1.85.4.48-.24,1.83.08,1.86-.38ZM155,81.45c-.33.18-1.24.25-1.15.58.25-.29,1.34-.06,1.15-.56Zm-18.65,1.94c-.22-.25-.85-.08-1.15.08a5,5,0,0,0,1.16-.06ZM55.18,75.33A1.29,1.29,0,0,1,55,76.65c-.12.45-1.06.12-.8.67.52,1.33,3.37,2.08,4,.8.53-1-.14-3.75-.64-4.79a12.26,12.26,0,0,0-5.25-4.86c-2.9.64-2.78,3.78-2.43,6.5.45,3.54,2,6.78,2.77,9.6-3.28.14-6.1-.3-8.84.34-3.06-1-5.82-.06-8.79-.39-.33,0-.72-.23-1-.27a10.35,10.35,0,0,1-3-.41c-1.11-.56-1.46-2.5-3.36-2.49-1.4,0-2.13,1.82-2.84,2.77-2-2.56-5.41-.67-6,2.22-.49,2.6,1.87,5.53,4.48,5.91.8.12,1-.26,2-.1,2.44,3.12,4.1,6.91,6.94,9.93,2,2.1,3.89,3.84,7.58,4.58a29.87,29.87,0,0,0,11.46-.3A17.4,17.4,0,0,0,57,103.82a10,10,0,0,0,2.49-2.36c1.57-2.91-.13-5.69-.26-8.2,23.94.26,48.1.13,70.65-1.78,17.22-1.45,33.75-3.83,49.17-8.2,5.1-1.45,10.07-3.56,13.77-7.33-6,.69-12,.86-18.05,1.1-7.82.32-16.4,1.09-23.93,2.08-6.13.81-12.18,1.6-18.38,1.89-8.33.38-16.73,1.14-25.22,1.74s-17.32.36-26,.42S64,83,55.41,83.66c-1-2.64-3-5.27-2-8.77.35-.17,1.66,0,1.77.46Zm-33.47,8.5c.24-.26.69-.17,1.06-.22-.14.76-.51.12-1.05.24ZM50.53,72.51c.51-1.28.44-2.3,1.7-2.69.39.27.26.84.73,1.06-.37-.06-.77.06-1.09-.15-.77,0-.4,2-1.33,1.8ZM29.55,84c-.12.37-.09.73.53.89a10,10,0,0,1-.52,2.49,1,1,0,0,1,0-1.26c0-.32-.41-.43-.59-.65.38-.56,0-1.59.64-1.45Zm10.33,2.17c.54.19.64.31,1,0a2.56,2.56,0,0,1,1.17.8,1.87,1.87,0,0,1,2.62-.09l0,0a8.88,8.88,0,0,0,2,4.27c-1.66-.77-3.69-2.62-3.61-4.43-1.74,1.36.75,3,.55,4.64-1.32-1.05-3.23-2.25-2.85-4a6.42,6.42,0,0,1-.88,0c.75,1.18.56,2.92,1.76,3.83-1.54-.51-2.37-2.31-3.5-3.41-.8.68.34,1.57.25,2.45-.24.1-.74-.24-.79.17-.18-.1,0-.4-.41-.36,0-.13.24,0,.38,0-1-1.42-2.64-2-2.14-4.3.49.32,1.24.2,1.55.77a.89.89,0,0,0,.71-.81c.35.38,1.31.42,1.52.89.29,0,.41-.31.63-.44Zm12.13,1a1.6,1.6,0,0,0,.28,1.32c-1.07.27.64,1.89.8,2.71a7.22,7.22,0,0,1-2.52-4.28c.67-.29,1,.7,1.44.27Zm2.82,3.6c-.87-.68-2.06-2.22-1.59-3,.62,1,1.53,1.79,1.6,3.07Zm-.89-2.85c.27.44.81.71.79,1.32a2.1,2.1,0,0,1-.78-1.3Zm-4.51,2a6.37,6.37,0,0,1-1-2.89c2.15-.49,1.8,2.68,2.76,3.84-.69.24-1.24-1-1.75-.92Zm1,1.12c-.47.11-1.1-.54-1.4-.86.42-.05,1,.64,1.41.89Zm-2.09-3a1.55,1.55,0,0,1-.37-1.47c.38.37.32,1,.38,1.5ZM47,87c.71,1.15,1.12,3.58,1.85,4.48-1.42-1.28-2.88-2.54-3.52-4.28-.12,0-.24,0-.3.17-.13-.42.14-.54.28-1.06a1.57,1.57,0,0,1,1.7.72ZM32.33,85.82a4.78,4.78,0,0,0,.64,4.3c-1.1-1-3.2-2.42-2.58-4.54.59.25.76.74,1.23,1.06.28-.2.18-.72.72-.79Zm-2.11,3.33a2.47,2.47,0,0,1-.55-1.26,2,2,0,0,1,.56,1.29Zm.2,1.18c-.79,0-1.13-1.06-1-1.89a10.33,10.33,0,0,1,1,1.92Zm.83-1.28c.83.47,1.68,1.79,2.6,2.54-1.11-.28-1.91-1.63-2.6-2.52Zm2.46,1.63c.58.06,1.08,1,1.78,1.34-.8.4-1.3-.86-1.78-1.31Zm3.9.88a.91.91,0,0,1,1.14.42c0,.41-1-.16-1.14-.39Zm5.23-.4c0-.11.85.16.61.54-.35-.07-.38-.35-.6-.51Zm4.2.71c.1-.33.29-.52.71-.32,0,.47-.36.42-.71.35Zm-2-.78c-.16.18-.43.17-.76,0,.11-.43-.34-.53-.41-.85.28,0,.64.71,1.17.82Zm-.72-1.56c.55.53,1.31,1,1.57,1.66a4.13,4.13,0,0,1-1.57-1.64Zm-5.87-1c.42.08.28.5.58.65C38.65,89.44,38.32,88.86,38.4,88.54Zm3.9-3c.08-.26.51.08.73.06-.08.33-.62.14-.73-.06Zm-7.94.7c.44,0,.28-.5,0-.62.48-.2.87,1.18.29,1.32.21,1.73,1.28,3,1.7,4.57-.5-.14-.87-.88-1.17-.8-.74-1.78-3.16-3-2.22-5.45a4.3,4.3,0,0,1,1.37,1ZM32,85.75a4.12,4.12,0,0,0-1.08-.66c.14-.38,1.27.22,1.09.67Zm-12,0c.31-1.61,3.23-1.73,2.91-.12-.12-.23-.19-.49-.46-.62,0,1.66.91,2.88,1.05,4.15A8.18,8.18,0,0,1,20.4,86c.3,1.52,1.94,2.79,3.26,3.85-.83.09-2.07-1.25-2.83-2.11a9.34,9.34,0,0,1-.86-2Zm3.86,3.5a12.33,12.33,0,0,1-.89-2.86,4.2,4.2,0,0,1,.89,2.87Zm.44-.76c.29.23,0,.78-.06,1.24a3.19,3.19,0,0,1,.07-1.23Zm.94-3.64c.16.78-.34,2.08.13,2.91-.63-.34-.71-2-.13-2.9Zm-5,2.58c.56.5,1.54,2.14,2.06,2.66-1,.14-1.75-1.52-2.06-2.65Zm100,3.91c-5.39.13-10.63.53-16.05.61.25-.4,1.16-.21,2-.25,4.44-.18,9.29-.63,13.9-.54.15,0,.91,0,.21.19Zm62.67-10.1c0-.4.87-.88,1.13-1.46.34.48-.71,1.2-1.13,1.47Zm1.1-1.84c-.14.29-.55.56-.8.17a.58.58,0,0,0,.21-.32Zm-.85-.1c-.72,2.19-3.38,2.3-5,3.46-2.82.35-5.54,1.25-8.36,1.85-2.49.52-5,.82-7.62,1.41a136,136,0,0,1-20.3,2.51c-2.12.14-4,.45-6.3.63-5.74.45-11.73,1.38-17.79,1.54-12,.31-24.35.41-36.53,1-2.28-.48-4.78,0-7.34-.14-1.82-.13-3.6-.49-5.46-.66.06-.45.74.14.91-.14-.74-.46-1.81,0-2.79-.34.08-.2.27-.22.53-.12-1.1-1-2.57,0-3.76-.47.36-.34,1-.2,1.47-.37,0-.65-.56.34-.7-.18s.42,0,.45-.26-.49-.18-.68-.3c.07-.36.54-.29.3-.68a3.45,3.45,0,0,1-1.91.14c.4-.51,1.19-.34,1.86-.4-.25-.23,0-.26-.15-.42,1.4-.64,2.65-.55,4.21-.79-1,.38-2.63,1.17-1.81,2.66,3.62,1.77,7.86,1.23,12.07,1.24a680.73,680.73,0,0,0,73.49-3.55,142.17,142.17,0,0,0,15.88-2.4c4.28-.92,9.27-1.42,12.22-3.72a11,11,0,0,0,1.53-.11c.37-.51.2-1.17.37-1.41.59,0,.53.28,1.23.08ZM62.78,89.58c-.14.49-.73.22-1.18.2C61.83,89.43,62.37,89.62,62.78,89.58Zm17.86-3.27c.13.39-.84.36-1.32.28.15-.58,1,0,1.32-.28ZM79,86.38c-.17.47-1.13.25-1.3.17.28-.31.88-.08,1.3-.17Zm-16.4,0c-.18.33-.57.28-1,.11a2.75,2.75,0,0,1,1-.11ZM93.47,87a1.16,1.16,0,0,1-1.5.65l-.15-.07c.11-.16.25-.25.36-.41.45.55.77-.32,1.3-.16Zm-3.88,0a.6.6,0,0,1,.8-.23l.12.09c-.15.31-.62.07-.91.14Zm-.46-.12c-.27.29-.8.1-1.18.2.15-.49.66-.34,1.18-.2Zm-15.35.29c-.08.25-.36.18-.64.09.07-.35.57-.24.65-.09Zm4.56-.2c0,.43-.52.32-.65.09.15-.15.43-.08.65-.09Zm.41.36.09-.35c.51.08.86-.12,1.38,0-.2.61-.94.3-1.47.37ZM90,87.46c-.14.32-.62.07-.91.14.1-.4.53-.23.92-.14Zm1.53-.1c-.15.47-.69.3-1.18.2.2-.41.71-.27,1.19-.2Zm-2.91.12c-.23.28-.79,0-1.06.23-.2-.36.62-.41,1.07-.23ZM82,87.28c.27-.72,1.14-.42,1.85-.4-.33.62-1.23.26-1.84.41ZM81.72,87c-.19.4-.63.4-1.18.2.11-.16.25-.25.36-.41.4.21.68,0,.82.21Zm18.83.73c-.29-.29.38-.36.68-.2,0,.39-.56,0-.68.21Zm1.15-.08c.26-.33.81-.19,1.29-.17-.17.5-.85.13-1.29.17Zm5-.46c0,.72-.64.27-.89.52-.15-.08,0-.32,0-.5.42.19.52-.13.89,0Zm4.23-.41c.27.78-1.18.87-1.53.61,0-.39.44,0,.38-.53.38,0,.86.11,1.15-.08Zm2.15-.07a5.73,5.73,0,0,0-.57.73c-.37,0-.86-.1-1.15.08-.42-.22.15-.47.22-.82.61.19.87-.21,1.5,0Zm6.26-.51a1.74,1.74,0,0,1-2,1c0-.38.49-.2.27-.55a1.89,1.89,0,0,1-1.41.63c-.25-.12.1-.59.09-.85,1.09,0,1.92-.35,3.06-.21Zm1.06-.23c-.05.47-.61,1.4-1.42,1.14.31-.67.67-1.23,1.42-1.13Zm8-.55c-.61.8-1.15,1.75-2.56,1.21.21-.41.43-.81.68-1.2.72.14,1.19-.12,1.89,0Zm.85,1.09c.08-.6.49-.63.57-1.23a3.05,3.05,0,0,1,1,0c-.4.62-.69,1.42-1.57,1.22Zm19.83-.26c.34.47-.61.18-.73.44-.33-.46.67-.08.74-.44Zm-19.68-.83a1.77,1.77,0,0,1-1.48,1.37c0-.57.56-1.76,1.49-1.36Zm6.66,1.35c.27.31-.46.33-.7.31,0-.52.55-.07.71-.31Zm-9.83-1.17c-.48.82-1,1.5-2.19,1.19.17-.09.2-.38.32-.54-.5.48-1.29,1-2,.62.61-1.55,2.31-1.25,3.83-1.26Zm8.42,1.3c.22.33-.55.4-.94.26.15-.36.69-.07,1-.25Zm-16,.88c-.3-.31.28-.52.59-.35.09.59-.47.1-.59.35Zm-8,.44.09-.35c.3-.23.83-.06,1.18-.2.26.66-.81.53-1.26.55Zm1.65-.08c0-.3.27-.31.38-.52.4.2.64-.12.82.21-.18.46-.69.39-1.2.32Zm1.38,0,.12-.47c.46,0,.78-.24,1.38,0-.19.67-.91.46-1.49.49Zm1.67-.19c.18-.48.72-.35,1.12-.46.23.49-.57.69-1.11.47Zm1.68-.19.09-.35c.48.18.71,0,1.12,0-.14.54-.73.34-1.2.32Zm2.64-.07c0-.38.35-.31.68-.2-.06.34-.36.27-.67.2Zm22-.21a.57.57,0,0,1,.8-.17c-.14.27-.51.15-.8.17Zm-8.43-.3c-.15.31-.63.07-.92.14.13-.36.56-.2.92-.14ZM116,86.54c-.27.78-1,.86-1.8.66.3-.74.91-.94,1.81-.65Zm-1.76,0c-.12.81-.72.8-1.33.78a1.16,1.16,0,0,1,1.34-.77Zm-5.24.9a.6.6,0,0,0-.65.08c-.31-.66.68-.53,1-.75.26.17-.22.49-.29.68ZM108.1,87c0,.3-.28.2-.27.56-.24.09-.68-.16-.88,0-.23-.59.71-.59,1.16-.57Zm-2.82.27c-.14.42-.89.39-1.06.23.19-.36.69-.2,1.07-.22Zm4.43.27c.25,0,.3.45.47.12.25.66-.81.53-1.26.55.1-.51.66-.24.8-.66ZM82.44,88c0,.47-.59,0-.88,0a1.1,1.1,0,0,1,.89,0Zm9.35.16c0-.1,0-.12-.09-.15,0-.3.26.33.7.18-.17.33-.57.27-1,.11a.34.34,0,0,1,.42-.14Zm2.32.22c0-.3.27-.31.38-.52.38.2.5-.06.85.09-.09.68-.72.46-1.23.44Zm1.5,0c0-.29.28-.2.26-.55a2.28,2.28,0,0,1,1,.12,1,1,0,0,1-1.23.44Zm1.53-.1c0-.26.15-.29.23-.44.09.1.18.2.24.06.28.22-.15.63-.47.38Zm2.35-.4c0,.32-.17.5-.47.38,0-.09,0-.12-.09-.14,0-.32.27-.34.57-.23Zm5.52.43c.29-.59.54-.2,1.09-.34-.11.53-.68.3-1.08.34Zm-3.55-.29c.32-.06.55-.29,1-.11-.19.29-.66.12-1,.11Zm4.93.27c.14-.44.47-.55,1-.37-.11.46-.57.37-1,.38Zm1.26,0,.09-.35a4.42,4.42,0,0,1,.89,0c-.18.37-.54.43-1,.38Zm-6.78-.37c-.07.5-.62.18-.86.4-.29-.46.49-.51.87-.4Zm13.27.92c-.32.06-.55.29-1,.11.21-.26.61-.2,1-.1Zm28.68-3.48c-.16.4-.73.11-1,.37-.3-.51.7-.27,1-.37Zm9.65-2c-.55,1-1.38.43-2.32.77-.2-.31.24-.31.3-.67.76.1,1.28-.19,2-.1ZM152,84.59a.67.67,0,0,1,.8-.17c0,.41-.55.06-.79.17Zm-.67.2c-.09-.1-.18-.2-.24-.06-.26-.35.32-.69.74-.44-.15.19-.37.28-.5.5Zm-2.47-.64c.18-.54.93-.82,1.27-.55-.17.55-.92.83-1.26.55Zm7.11.08c0-.47.49-.07.5-.5.44.24-.16.58-.49.51Zm-.9-.85c-.35.17-.69.55-1.06.22a1.38,1.38,0,0,1,1.07-.22Zm1.21-.32c-.16.39-.74.65-1,.38a.94.94,0,0,1,1-.37Zm2.08.66.09-.35c.34.18.4-.11.74.07-.24.16-.35.54-.83.29Zm1.76,0c.36.35-.37.25-.47.38-.35-.35.38-.25.48-.38Zm.62,0c.14-.43.6-.33,1-.37a1,1,0,0,1-1,.38Zm1.3-.16a.68.68,0,0,1,1-.5.91.91,0,0,1-1,.5Zm1.62-.46c.25-.48.9-.27,1.27-.55.2.64-.87.54-1.21.81-.12,0-.06-.16-.06-.25Zm2.68-.69c-.19.35-.62.31-1,.38.19-.34.57-.37,1-.37Zm-8.53.56c.43-.69,1.44-.39,2.15-.58-.7.57-1.29.29-2.15.58Zm-.35-.1c-.06.47-.51.26-.74.44-.26-.34.32-.68.74-.43Zm-2.26,0c-.06.45-.66,0-.83.28-.24-.3.5-.37.83-.28Zm-2.39.51c.28-.44.86-.36,1.36-.4-.25.48-.85.36-1.36.4Zm-3.9.11c0,.12-.17.06-.27.06s.12.13.2.18c-.16.47-.77.84-1.12.46.4-.23.5-1,1.18-.69Zm-1.15.08c-.27.16,0,.33-.18.7a2.29,2.29,0,0,1-1.18.2c.07-.51.38-.6.51-1,.35.17.47-.09.85.11Zm2.9.88c-.22.3-.62.3-1.06.23a1,1,0,0,1,1.06-.22Zm-1.56.22c-.07.34-.38.27-.68.2.08-.35.5-.5.68-.19Zm7.55.32c0,.4-.37.17-.47.38-.28-.21.15-.62.47-.37Zm-9.4.08c.09-.52.48-.53.88-.52a.61.61,0,0,1-.63.59.66.66,0,0,1-.25-.07Zm-1.3.16c.1-.67.8-.32,1.07-.72.16.46-.54.89-1.07.73Zm-1.29.17c-.36-.56.6-.33.77-.55.32.51-.51.49-.77.56Zm-1.65.08c.27-.45.87-.33,1.36-.4-.23.51-.82.41-1.36.4Zm10.17-.13c.36.46-.46.33-.62.46-.33-.39.5-.25.62-.45Zm14.32-5.56a48,48,0,0,1-5.51,2c-.35-.34.42-.18.48-.38-.67-.39-1.43.5-2.24.43a49.49,49.49,0,0,1,5.13-1.93c-.47.78-1.75.7-2.71,1.3,2.05-.27,3-1.33,4.85-1.37Zm-4.31-.24a7,7,0,0,1,3.08-.33,7.47,7.47,0,0,1-3.08.34Zm10.73-.36c-.14.3-.61.47-.8.17a1.29,1.29,0,0,1,.79-.17Zm-1,.11c-.23.22-.72.56-.95.26a1.51,1.51,0,0,1,.94-.26Zm4.5,0c0,.73-1.9.69-2.42.63a10.68,10.68,0,0,1,2.41-.62Zm3.81.74c-.12.31-.55.08-.71.32-.31-.35.57-.67.7-.32Zm-10.17.63a9.14,9.14,0,0,1,2.74-.92,8.05,8.05,0,0,1-2.75.92Zm-1-.13c.19-.46.83-.16,1.12-.46.1.31-.76.4-1.13.47Zm5.77-1.51c-.3.27-1,.63-1.32.28a1.79,1.79,0,0,1,1.31-.28Zm-6-.43a3.37,3.37,0,0,1-1.41.14c.22-.41,1.18-.27,1.4-.13Zm-1.85-.1c-.23.69-2.4.41-3.09.33.86-.57,2,.06,3.08-.33Zm-3.67.18c-1.52.81-3.17.45-5.15.55a42.27,42.27,0,0,1,5.14-.55ZM155.1,80c2-.73,4.75-.27,7-.56-2.26.83-5.2.52-7.83.73.11-.21.48,0,.48-.38a2.63,2.63,0,0,1-1.15.08c.42-.22,1.15-.37,1.46.13Zm-6.26.51a14.2,14.2,0,0,1,4-.21l.16-.12c0-.16-.14-.39.24-.28a1.05,1.05,0,0,1-.24.28.13.13,0,0,1-.12.13h0a4.56,4.56,0,0,1-1.9.26,8.84,8.84,0,0,1-2.12,0Zm.67.3c-8.81.87-17,2-25.82,2.59,11.45-.15,22.69-2.11,34.14-2.82,0,.2-.17.17-.21.32a26.14,26.14,0,0,1,3-.59c-.19.4-.74.2-1,.49.95.1,2.28-.63,3.53-.59-2.82,1-5.33,2-8.54,2.05,0,.35.41-.07.7.18a3.48,3.48,0,0,1-2.2.31,1.43,1.43,0,0,1,1.44-.25.72.72,0,0,1,0-.5c-.53.56-1.5-.4-2,.48-.37-.36-1.83.08-2.47.36.28.37,1.16-.42,1.5,0-1.85.32-3.73.52-5.94.72.27.28.58,0,1,.13a12.73,12.73,0,0,1-.92,1.14c-1.29-.37-2,.38-3.68.17.22-.19.29-.64.48-.88a10.09,10.09,0,0,0,1.44-.25,17.65,17.65,0,0,0-3.62.44c.55.54,1.08-.41,1.88,0-.4.53-.51,1.17-1.5,1,0-.38.29-.3.3-.68-.5.44-.9,1.07-1.74.93,0-.28.31-1.2.89-1-.65-.53-1.4.2-2.24-.08.13.57,1,0,1.47.13-.17.55-.57.72-.8,1.17-.56-.17-.83.17-1.38,0,.14-.26.29-.52.45-.76-.54.27-.75,1.09-1.51,1-.12-.66.64-1.28,1.13-1.46-.42-.09-.61.2-1,.11.21.56-.42.9-.6,1.34a8.27,8.27,0,0,0-2.67.19.62.62,0,0,1,0-.5c-.31.37-.63.73-1.27.55a2.2,2.2,0,0,0,.45-.77c-.6.18-.67,1.23-1.6.84.72-2.1,3.42-.83,5-1.46a38.91,38.91,0,0,0-5.29.14c-.46,0,0-.55-.35-.59s.08.33-.15.59c-2.78.3-5.86.17-8.12.9a2.56,2.56,0,0,0,1-.11c-.06.47-.68,1.43-1.45,1.26,0-.39.32-.36.33-.79-.56.16-.68,1.1-1.48.87.29-.7.62-1.32,1.34-1.29a24.59,24.59,0,0,0-4.7.29c-.34,0,.22-.53-.12-.53s-.25.47-.41.64a26.8,26.8,0,0,0-4.2.3c-.26,0,0-.43,0-.62-.37.26-1.64,1.35-1.82.28a3,3,0,0,1-1.3.66c-.32-.18.16-.36.15-.58a3.91,3.91,0,0,1-2.92.62c0-.29.28-.2.27-.55-.65.08-.76,1.07-1.68.69,0-.22.21-.21.24-.44-.83.13-.87,1-1.62,1,.12-.3.46-.23.44-.76-.35.52-1,.5-1.73.42.2-.73.53-1.23,1.18-1.2-.19-.25-1,0-1.26,0,.53.37-.57,1.51-1.33,1.29-.14-.41.5-1,.71-1.32-.94-.07-.68,1.44-1.74,1.43-.2-.34.15-.45.21-.83-.58-.13-.46.9-1.06.73,0-.36.24-.26.26-.56-.56.06-.56,1.07-1.41.64.35-.13.41-.77.65-1.08-.67.44-.91,1.6-2.06,1.22a7.88,7.88,0,0,0,.68-1.2c-.9.2-.77,1.74-2.21,1.3.14-.55.56-.62.68-1.2a8.13,8.13,0,0,1-1,.38c0,.18.16,0,.35.09-.22.52-.46,1-1.18.7,0-.38.35-.31.68-.2-.22-.26-.61-.28-.2-.68-.6-.17-.83.28-1.41.14s.06-.16,0-.5c-.41.08-.62.53-1,.6-.17-.07,0-.36-.15-.41-1.8-.07-3.53,0-5.26,0,.22.37.93.12,1.32.22-.89.56-2.29.27-3.47.35.38-.59,1.25-.35,2-.37-.28-.46-.82.06-1.32-.21.1-.24.52-.62-.08-.65a2.25,2.25,0,0,1-.45.76c-1.27-.29-1.88.08-3.32-.23a28.94,28.94,0,0,1,3.47-.36c-.48-.37-1.29.18-2.08-.16,1.91-.3,4-.24,6-.45-4.52-.18-9.95.44-14.37.42,4.57-1,10-.5,15-.77-.35-.47-1,0-1.55-.28A17.31,17.31,0,0,1,91,84.7a1.1,1.1,0,0,1-.63.2c9.85-.4,20.52-.51,31.17-1.2-.51-.4-1.4,0-2.09-.16,9.88-.76,19.76-2.27,30.1-2.73Zm-84.64,5c.18-.26.55-.19.91-.14-.1.4-.53.24-.91.14Zm-1.2-.69A15,15,0,0,1,68.35,85c-1.08.39-3,0-4.68.18Zm18.72-.3c.21.43-.76.28-1.17.2.19-.37.88.05,1.17-.19Zm-4-.3c.1.29-1.16.43-1.41.14.55-.27.85.05,1.4-.13Zm5.26,0c-.18.25-.55.19-.91.14.17-.25.54-.18.91-.13Zm-8,.17a2.84,2.84,0,0,1-1.53.1c.3-.36,1-.12,1.52-.09Zm-6.94.21c.37,0,1.4,0,1.85.1-.53.12-1.48.57-1.86-.09Zm49.26-1.3a2.72,2.72,0,0,1,1.41-.14,1.76,1.76,0,0,1-1.42.15Zm-3.23-.58a9.31,9.31,0,0,1-3.27.53c-3.52.25-7.4.48-11.11.39,4.38-.33,9.66-.58,14.38-.91Zm-58.6,4c.8,1.84,1.57,3.79,2.28,5.72s2.08,5.93.4,8.61a13.31,13.31,0,0,1-3,2.6,23.41,23.41,0,0,1-16.79,1.54,12.2,12.2,0,0,1-5.15-2.83,23.67,23.67,0,0,1-4.28-5.23c-.34-.68-.41-1.52-.69-2.18-.35-.84-.93-1.53-1.27-2.33a46.85,46.85,0,0,1-1.83-7c.34-1.13.84-3.66,2.18-4.07,1,.24,2,.52,1.87,1.48-2.27-1.83-1.9,2.37-1.77,4.43a24.77,24.77,0,0,0,1.11,4.41,27.17,27.17,0,0,0,.79,4.21,13.18,13.18,0,0,0,8.9,8.18c7.78,2.48,14.13.18,19-4.35a12.87,12.87,0,0,0-.19-6.55c-1.09-2.91-1.9-6.49-3.33-9.37C53,81.84,51.53,79.15,51.12,77c-.23-1.16-.46-4.16.6-5.22s3.62.26,4.13,1.44c-.17.55-1,.06-1.5,0a9.85,9.85,0,0,0-2.1,1.34c-.17,4.24,2.19,8.81,3.79,12.5ZM52.31,102a21.74,21.74,0,0,1-7.14.53C38.68,102,31.74,97,30,93c.87-.94,3.33,1.26,3.59-.32a4.74,4.74,0,0,0,4.17-.17,7,7,0,0,0,1.85.6c1.27-.94,3.79.24,5.23-.4,1.47.46,2.83.75,3.53-.1.82-.08,1.43.45,2.4.38.35,0,.72-.42,1.12-.47.8-.08,1.66.39,2.29.34s1.1-.67,1.71-.31c1.1.68.39,2.9.76,4.33-1.07,2-1.89,4.52-4.33,5.15ZM57,98.57c.39.17,0,.61-.09.85-.25-.1.1-.58.09-.84Zm-1,1.26c.11.91-.89,1.4-1.36,1.9,0-.63,1-1.21,1.36-1.89ZM43.69,103.4c-1.49.39-3.39-.52-4.6-1.06a10.64,10.64,0,0,1,4.6,1.08Zm4-.08a4.06,4.06,0,0,1-2.53.1,8.94,8.94,0,0,1,2.53-.09Zm-8.59.28c-.25.18-1.12-.13-1.29-.33.32-.19,1,.19,1.3.35Zm-2.3-2.22a15.16,15.16,0,0,1-3.18-2.2,9.51,9.51,0,0,1,3.18,2.22ZM47.3,105c-1.19.5-3,.06-5,0,1-.46,3.42.11,5,0Zm-6.17-.34c.38-.29.5,0,1,0-.15.62-.46,0-1,0ZM57,77.94a2,2,0,0,1-1.44-.24c.94-.34,1.19-1.53,1.17-2.58A2.81,2.81,0,0,1,57,78Zm81.29,39.37a.48.48,0,0,0,.2,0l-.21.06ZM125.24,84.17a1.82,1.82,0,0,0-1,.11,1,1,0,0,0,1-.1Zm32.38-2.78c.54-.26,1.86-.09,1.82-.78-.4.53-1.76.3-1.83.79ZM112.37,84.6c3.82-.27,7.9-.1,11.46-.8-3.77.37-7.8.29-11.47.81Z"/></g></g></svg>