<svg id="Group_813" data-name="Group 813" xmlns="http://www.w3.org/2000/svg" width="844.474" height="354.874" viewBox="0 0 844.474 354.874">
  <path id="Path_1595" data-name="Path 1595" d="M2477.127,585.909c-1.013,6.283.91,9.047,7.165,7.659,6.307-1.4,12.2-4.689,18.208-7.306,1.557-.682,2.8-2.04,4.27-2.94a32.817,32.817,0,0,0,11.642-12.681c2.4-4.462,5.216-9.193,4.135-14.759-.3-1.51-.581-3.805-1.552-4.255-3.553-1.637-2.432-4.551-2.733-7.24.572-.3,1.245-.931,1.562-.783,8.407,3.911,13.529,6.823,10.624,17.891-.75,2.886-2.195,5.587-3.116,8.435a36.42,36.42,0,0,0-1.674,6.973,4.428,4.428,0,0,0,3.443,4.989c2.586.788,3.632-1.153,4.6-2.891,5.1-9.162,5.089-9.174,5.6-18.437,8.087-2.389,10.742-1.437,15.868,5.784,1.09,1.545,2.331,2.075,4.436.851-.226-1.526-.485-3.191-.731-4.8,4.468-3.416,6.14-3.364,10.166-.921,8.33,5.045,10.252,12.742,9.565,21.682a17.113,17.113,0,0,0-.12,4.757,3.713,3.713,0,0,0,2.263,2.378,3.371,3.371,0,0,0,2.96-1.161c3.126-5.317,5.213-11.144,2.944-17.157-4.15-10.951-10.748-19.992-21.5-25.647-4.938-2.6-9.47-5.988-14.053-9.2-2.4-1.676-2.607-3.674-.262-5.371a88.688,88.688,0,0,1,9.31-5.4c9.6,4.323,18.285,8.079,26.809,12.184,1.992.961,3.2,3.517,5.179,4.6a14.263,14.263,0,0,1,5.25,5.055c1.173,1.782,3.58,2.745,5.137,3.857,1.354,3.936,2.5,7.863,4.043,11.631a32.935,32.935,0,0,1,2.774,15.193c-.416,5.866-1.072,11.361-8.082,13.371,2.084,3.936,5.193,4.26,8.755,4.143,6.521-.206,8.141,2.267,5.769,8.532-.828,2.2-1.913,4.309-3.172,7.094,1.5,0,2.633.363,3.206-.052,9.34-6.8,14.764-15.914,14.126-27.583a48.751,48.751,0,0,0-3.987-16.184c-2.574-6.018-6.425-11.5-9.741-17.195-1.457-2.492-3.3-4.11-6.288-2.3-.525-.778-1.084-1.233-1.154-1.747-.875-6.6-5.958-9.146-11.213-11.017a119.023,119.023,0,0,0-15.643-4.009c-4.913-1.031-7.328-3.043-8.5-7.9-.97-3.988.6-7.289,4.381-8.722a15.76,15.76,0,0,1,5.272-1.128c13.258-.094,26.384,1.28,38.424,7.116,10.661,5.169,18.3,13.464,21.265,25.363.531,2.124.531,2.12,3.173,3.848,1.818-3.006.986-6.138.8-9.254-.254-4.142,2.326-6.037,6.079-4.4a4.641,4.641,0,0,1,2.368,2.973,67.059,67.059,0,0,1,.875,9.47c.163,4.586,1.511,7.3,3.842,7.207,1.979-.082,4.459-3.59,4.025-7.3a61.922,61.922,0,0,0-3.212-12.039c-.631-1.888-2.177-3.641-.209-5.432,2.083-1.883,4.313-1.641,6.575-.063a35.938,35.938,0,0,0,4.185,2.26c8.926,4.529,13.476,11.854,15.119,21.682a37.376,37.376,0,0,1-2.9,22.446c4.914-2.354,9.315-9.469,8.459-14.733-.99-6.06-.725-12.459-4.041-18.055-.986-1.669-2.014-3.8.27-5.355,2.081-1.407,3.852-.178,5.438,1.116,9.109,7.451,13.232,16.946,11.093,28.65a95.272,95.272,0,0,1-4.4,16.8c-4.012,10.443-14.5,14.362-24.667,9.758-.711-.321-1.392-.706-2.205-1.121-2.57,1.487-4.146,3.468-3.112,6.412,1.048,2.985,3.206,5.219,6.484,5.587,4.6.518,9.259.71,13.472-1.768,6.543-3.854,13.207-7.538,19.511-11.743,14.662-9.774,17.743-26.908,9.347-42.469a56.086,56.086,0,0,0-9.054-11.9,74.1,74.1,0,0,0-35.827-20.934c-5.413-1.383-10.619-3.592-15.93-5.4-1.509-.509-3.073-1.325-4.579-1.269-1.984.082-3.065-.722-4.626-1.81-4.588-3.2-9.679-5.657-15.527-5.31-2.711.162-4.031-.971-4.791-3.444-.9-2.926-2.052-5.77-3.4-9.474,3.167-.377,5.467-.776,7.773-.9,5.992-.314,12-.516,17.983-.741a34.809,34.809,0,0,1,5.413-.059c9.663,1.123,19.343,2.187,28.962,3.646a21.547,21.547,0,0,1,8.205,3.25c3.767,2.445,7.293,5.423,4.189,11.46,2.832.328,4.871.563,7.687.886-.21-3.824-.393-6.994-.577-10.283,7.444.95,9.509,3.7,8.167,9.92-.538,2.474-1,4.968-1.466,7.371a8.846,8.846,0,0,0,2.13,1.017c7.762.753,8.94-1.212,6.215-8.447a21.1,21.1,0,0,0-10.843-12.168c-7.515-3.693-14.393-8.86-22.983-10.051-5.362-.746-10.729-1.465-16.1-2.065-14.705-1.651-29.51-2.649-44.1-5.012a142.812,142.812,0,0,0-38.234-1.081c-4.091.433-8.262.068-12.4.068-.085.394-.177.792-.263,1.186,4.8,2.094,9.622,4.1,14.356,6.326a26.6,26.6,0,0,1,5.356,3.463c6.827,5.57,13.624,11.052,22.685,12.735a85.381,85.381,0,0,1,12.048,3.526c2.378.823,4.17,4.112,3.654,6.311-.636,2.7-2.389,3.369-5.224,3.751-11.622,1.576-20.966-2.148-29.358-10.14-3.691-3.512-8.606-5.861-13.238-8.218a108.85,108.85,0,0,0-16.484-7.1c-3.688-1.167-7.872-1.236-11.809-1.088-5.679.209-11.61-.762-17.184,2.431,1.012,2.642,3.33,2.722,5.348,2.917,3.18.3,6.421.11,9.6.48a8.5,8.5,0,0,1,4.841,1.845,7.385,7.385,0,0,1,2.093,5.062c-.06.858-2.7,2.072-4.24,2.195-7.143.558-14.316,1.561-21.4-.736a5.994,5.994,0,0,0-4.108.234c-4.521,2.209-9.316,1.817-14.082,2.1a58.991,58.991,0,0,0-7.335,1.346c.018.481.042.961.06,1.437,1.631.211,3.274.406,4.891.633a23.719,23.719,0,0,1,5.276.811c4.415,1.681,5.011,4.964,1.706,8.342-6.458,6.6-14.049,6.79-20.491.12a13.955,13.955,0,0,0-9.421-4.565,30.208,30.208,0,0,1-7.028-1.4c-7.006-2.3-14.053-2.49-21.313-1.5-5.942.809-11.968,1.027-17.959,1.426-7.567.5-15.187.525-22.692,1.465-10.9,1.36-21.71,3.317-32.548,5.109-2.9.481-4.967,1.918-3.733,5.519-2.143.682-3.8,1.208-5.515,1.754,2.735,4.269,2.412,4.659-.968,7.859-5.6,5.306-12.272,6.764-19.687,7.463-14.306,1.346-28.373-1.365-42.562-1.482-2.753-.023-5.5,0-8.554,0-.146,3.153-.256,5.468-.408,8.581-6.1,1.207-12.136,2.387-18.17,3.585-1.548.312-3.676.146-4.518,1.1-4.6,5.254-9.77,3.177-14.964,1.632-.955-.284-1.908-1.142-2.772-1.039-1.419.167-3.612.553-4,1.463-1.365,3.294-4.057,4.206-6.255,4.814-5.229-2.387-9.725-5.118-14.61-6.5a49.3,49.3,0,0,0-20.145-1.658c-15.791,2.152-29.687,8.52-42.926,17.314-12.948,8.609-24.146,19.037-34.663,30.256-3.737,3.988-6.188,9.177-9.1,13.891-5.064,8.227-7.461,17.218-10.559,26.057-.794,2.265-1.152,4.675-1.883,6.964a9.394,9.394,0,0,1-1.865,3.711,3.7,3.7,0,0,1-3.176.9,3.419,3.419,0,0,1-1.627-2.762,41.254,41.254,0,0,1,1.315-8.294c1.873-6.717,3.994-13.361,6.338-21.122,1.636,6.776-2.567,11.713-1.419,17.507.514-1.746,1.109-3.477,1.522-5.247,2.128-8.857,5.64-16.749,11.771-23.9,8.467-9.87,16.312-20.29,26.132-28.87,6.023-5.256,12.869-9.568,18.84-14.881,8.529-7.591,18.826-9.971,29.6-11.784,10.739-1.8,21.39-3.135,32.149-.492,3.688.9,7.244,1.8,10.353,4.417,3.9,3.289,5.265,2.738,7.5-1.719,1.414-2.811,3.455-3.667,6.955-2.781a18.852,18.852,0,0,1,2.742,1.177c.9.389,1.806.771,3.143,1.341,1.026-3.906,4.125-3.641,7.076-3.979,7.688-.87,15.642-.113,23.393-3.81-1.12-2-2.225-3.979-3.333-5.969,1.741-3.163,4.759-3.207,7.437-3.149,5.98.124,11.979.4,17.9,1.1,13.159,1.561,26.294,2.457,39.468.338,4.007-.645,7.807-1.7,10.628-5.667a55.786,55.786,0,0,1-6.756-3.695c-1.092-.8-2.379-2.619-2.148-3.646.278-1.144,2.057-2.4,3.391-2.722,2.283-.546,4.738-.4,7.578-.568.174-4.433,3.305-5.331,6.845-5.828,10.3-1.433,20.608-2.87,30.892-4.429,2.532-.382,4.964-1.4,7.486-1.836,4.314-.745,8.763-2.166,12.978-1.7,10.252,1.121,20.382.356,30.574-.251,4.539-.274,9.142.462,13.716.755a48.782,48.782,0,0,0,7.169.436c6.029-.518,10.232,2.194,13.7,6.785,4.429,5.864,11.545,5.374,15.816-1.517-3.43-.725-6.722-1.238-9.9-2.138-3.551-.994-4.8-3.1-3.508-5.643a5.084,5.084,0,0,1,2.487-2.415c5.6-1.939,10.971-3.761,17.375-2.638,7.97,1.39,16.239,1.217,24.377,1.355,2.411.045,4.844-1.128,7.274-1.744-.027-.412-.055-.828-.079-1.245-1.432-.246-2.873-.469-4.3-.745-4.713-.91-9.446-1.719-14.121-2.8-2.2-.511-4.2-1.667-4.114-4.441.093-2.909,2.088-4.4,4.581-4.8a82.489,82.489,0,0,1,8.937-.523c1.133-.061,3.015.192,3.294-.34,1.789-3.517,4.821-1.723,6.809-1.233,5.387,1.332,10.523,3.629,15.854,5.24,8.529,2.57,16.182,6.881,23.682,11.507a23.038,23.038,0,0,1,4.376,3.1c6.432,6.5,14.412,8.907,23.273,9.129.2.005.459.1.6.007,1.177-.818,3.058-1.468,3.357-2.549.6-2.173-1.416-3.5-3.2-3.458-8.473.216-15.1-4.931-22.575-7.545-3.094-1.081-5.886-3.385-8.45-5.571-8.072-6.872-17.118-11.34-27.781-12.482-6.361-.684-12.671-1.836-19.019-2.663-2.958-.387-5.947-.5-9.072-.753-.334,1.308-.595,2.3-.832,3.247-.7-.028-1.252.115-1.465-.092-1.758-1.679-3.55-2.759-6.255-2.495-4.353.429-8.752.359-13.134.469-4,.106-8,.122-12,.253-19.026.631-38.017,1.758-56.821,4.879a19.327,19.327,0,0,1-3.6.3c-11.525-.249-22.552,3.052-33.8,4.722-8.68,1.285-17.412,2.265-26.054,3.753-4.882.844-9.588,2.612-14.437,3.644-3.306.7-6.75.7-10.093,1.285-3.7.652-7.337,1.615-11,2.413-6.64,1.446-13.257,2.959-19.924,4.283-11.939,2.361-23.9,4.609-35.851,6.872-.279.052-.638-.3-1.435-.708,1.131-.724,2.083-1.871,2.919-1.791,4.4.4,8.154-1.7,12.2-2.668,8.37-2.007,16.816-3.709,25.271-5.343,12.378-2.391,24.8-4.527,37.166-6.942,6.28-1.224,12.455-2.952,18.714-4.22,5.672-1.149,11.4-2.007,17.122-2.952,5.92-.973,11.833-2.07,17.784-2.8,19.869-2.429,39.757-4.7,59.634-7.071,8.945-1.064,17.872-2.256,26.817-3.3a27.143,27.143,0,0,1,4.075.321c2.393.094,4.8.227,7.192.143,7.378-.251,14.768-.966,22.136-.834,16.162.286,32.329,1.027,48.492,1.493,4.332.125,8.677.129,12.995-.164,14.279-.98,28.3,1.728,42.418,2.837,10.376.813,20.693,2.255,31.05,3.254,13.164,1.261,24.439,7.333,35.5,13.87,6.059,3.576,8.663,9.727,10.463,16.168a6.971,6.971,0,0,1-4.708,8.588c-4.853,1.641-9.932.019-11.38-3.772a31.988,31.988,0,0,1-1.03-4.549c-8.012.624-15.219-.949-21.628-5.538-1.6-1.144-2.411-2.6-1.378-4.9,3.335.462,6.417,3.878,10.056,1.257a11.139,11.139,0,0,0-12.858-6.539c-2.3.584-4.611,1.123-6.917,1.681-.174-2.2-1.47-3.254-3.56-2.987-5.347.673-10.535,1.805-13.736,6.862a6.263,6.263,0,0,0-4.94,3.224c2.936-.2,4.368-1.1,4.854-3.32q4.4-1.22,8.806-2.441c-2.36,1.841-4.767,3.618-7.049,5.552a20.956,20.956,0,0,0-2.454,3.125c6.106,3.81,12.582,5.709,19.1,7.369a73.417,73.417,0,0,1,42.443,28.744c12.6,17.546,11.261,39.435-7.85,52.794a147.993,147.993,0,0,1-21.975,12.288c-3.452,1.625-7.756,1.807-11.695,1.913-3.768.106-6.846-1.922-9.066-5.111-3.252-4.663-.518-12.749,5.05-14.187a6.258,6.258,0,0,1,4.458.823c8.222,5.357,18.972.242,21.313-9.964,1.431-6.243,3.44-12.308,3.107-18.878-.469-9.4-1.378-11.549-9.8-18.972.866,4.844,1.523,9.022,2.359,13.162,1.744,8.632-1.4,15.816-6.779,22.179-2.756,3.273-6.293,5.446-11.766,4.2a36.842,36.842,0,0,1,2.339-4.223c6.214-8.264,6.128-17.518,4.287-27.016-.412-2.162-1.238-3.974-4.08-4.5-1.719-.316-3.122-2.213-4.7-3.374-1.869-1.369-3.776-2.708-6.8-4.872a55.982,55.982,0,0,1-.05,6.909,39.284,39.284,0,0,1-1.8,8.093c-1,2.745-2.995,4.851-6.29,4.633-2.729-.185-5.322-3.313-5.739-6.874-.207-1.782,0-3.606-.068-5.406-.042-1.285-.229-2.57-.361-3.85-.394-.063-.781-.122-1.186-.183-.431,2-.839,4.011-1.282,6.013-.742,3.414-2.874,5.636-5.33,5.594s-4.877-2.289-5.757-5.35c-.169-.574-.241-1.172-.361-1.761-1.254-6.419-2.271-7.2-8.341-5.406-3.962,1.175-8.253,2.091-10.557,6.7,8.541,14.135,16.023,28.708,11.288,47.448,2.422-1.175,3.948-1.758,5.317-2.607a28.647,28.647,0,0,1,16.547-4.551c2.427.1,4.275.816,5.363,3.43-1.052,3.9-4.638,5.189-7.861,6.508-4.116,1.688-8,3.481-11.242,6.693a11.107,11.107,0,0,1-5.333,2.382,3.307,3.307,0,0,1-2.712-1.725,3.257,3.257,0,0,1,1.007-3.006,39.087,39.087,0,0,1,6.535-2.94c4.675-1.768,9.415-3.395,14.084-5.172.824-.314,1.466-1.116,2-2.816-2.264-.1-4.583-.551-6.79-.256-8.364,1.121-14.513,6.335-20.486,11.694a46.971,46.971,0,0,0-5.509,6.316,7.8,7.8,0,0,0-1.611,5.17,28.234,28.234,0,0,0,4.83-1.639c13.971-7.69,27.659-5.784,41.548.525a42.129,42.129,0,0,1,15.575,11.788c4.311,5.233,3.307,12.569-2.542,15.914-3.556,2.035-5.886.741-5.87-3.355a47.63,47.63,0,0,1,.7-5.28c-2.879,1.862-4.694,3.341-6.755,4.263a5.546,5.546,0,0,1-4.171.092c-.585-.274-.831-2.677-.321-3.623,1.445-2.64,4.092-5.469,1.957-8.175a18.983,18.983,0,0,0-8.265-5.545c-8.278-2.971-16.594-1.967-24.623,1.348a14.022,14.022,0,0,0-4.519,2.928c-3.158,3.184-5.944,6.633-2.894,11.434l-2.55.685c-.111.335-.29.619-.221.7,2.895,3.534.139,8.188,2.331,11.793.807,1.329,1.882,2.928,3.2,3.432,5.315,2.016,10.773,1.618,17.459.732-3.626-3.908-7.6-2.823-10.7-4.105-3.179-1.315-5.744-3.156-7.071-6.923,1.1.408,2.225.8,3.344,1.226,2.737,1.053,5.456,2.942,8.219,3,4.518.091,7.813,2.521,12.88,4.185-5.782,4.886-11.731,5.536-18.432,5.777,1.147,1.374,1.806,2.161,2.675,3.2-11.971,1.027-23.32.279-34.211-4.644a41.005,41.005,0,0,0-10.883-3.25c-2.588-.375-5.366.615-8.78,1.088,5.125,6.5,12.471,7.779,18.765,10.879q-2.106-1.561-4.2-3.116c4.126-.427,8.083.164,9.654,3.948,1.51,3.631,4.147,4.607,7.366,5.177,3.143.553,6.319.959,9.993,1.51-3.027,3.167-6.663.314-10.038,1.676.473.938.829,1.731,1.251,2.481,2.647,4.731,1.423,7.676-4,8.323-5.136.615-10.346.542-15.524.748-1.383.054-2.776.007-4.553.007a16.669,16.669,0,0,0-.447,3.306c.139,2.912-1.394,4.534-3.929,5.315-6.49,2.009-12.983,4.019-19.522,5.826a22.651,22.651,0,0,1-6.494.722c-6.569-.136-13.177-.11-19.694-.849-4.9-.558-9.67-2.185-14.5-3.355-1.513-.37-3.008-.811-5.073-1.364,2.43,7.4-6.121,10.262-5.356,17.14-9.5.024-18.743,3.372-27.685-2.009-2.516-1.508-5.625-2.021-8.738-3.092-2.221,2.572-3.878,5.65-7.806,5.885a24.141,24.141,0,0,1-12.777-2.406c-3.209-1.639-6.423-3.275-9.685-4.806a26.669,26.669,0,0,0-18-1.65c-.4-1.808-.724-3.273-1.049-4.743,6.79.8,13.586,1.608,21.1,2.492-1.2-.973-1.9-1.632-2.675-2.14-5.75-3.711-11.236-7.657-14.763-13.791a4.2,4.2,0,0,0-2.831-1.836c-6.472-.546-12.344-2.865-18.1-5.625-.248-.117-.716.237-1.892.666.288,1.437.056,3.547,1,4.546,3.494,3.674,7.309,7.059,11.141,10.4,2.254,1.953,4.767,3.606,7.163,5.394H2409.95c.091.469.307,1.505.517,2.544l.092-.084c-3.177-2-6.467-3.848-9.514-6.033-8.608-6.168-17.218-12.353-25.62-18.789-3.473-2.661-6.457-5.963-9.579-9.054-.458-.453-.468-1.36-1.086-3.346,3.728,2.553,6.461,4.414,9.41,6.433-3.591-8.691-6.851-17.024-10.486-25.187-1.493-3.35-2.873-6.851-6.293-9.167-1.637-1.107-2.316-3.62-3.433-5.5-1.847,4.623-.867,9.46,3.983,19.764-3.214.657-5.691-.924-8.383-2.347-10.53-5.566-12.782-15.72-14.86-26.029-.37-1.817.5-4.115-2.441-5.355-3.041,9.573,1.947,19.122.228,30.005-1.971-2.513-3-3.819-4.416-5.624-1.586,6.161,1.262,11.528.879,17.242-1.023-3.482-2.031-6.964-3.119-10.656-.393.572-.973,1.008-.994,1.467-.33,7.817-.494,15.617,4.139,22.515a5.591,5.591,0,0,0,1.54,1.8c10.008,5.772,19.492,12.742,31.421,14.233.7.087,1.441-.316,2.926-.671-1.25-1.634-1.956-3.06-3.086-3.955-4.227-3.341-8.533-6.6-12.924-9.728-5.888-4.2-12.015-8.145-14.021-15.757a17.9,17.9,0,0,1-.793-5.3c.042-.865,1.248-1.681,1.915-2.518.765.771,1.932,1.411,2.2,2.328.863,2.834.933,5.978,2.158,8.607a16.323,16.323,0,0,0,5.16,6.292,168.912,168.912,0,0,1,23.079,19.141c1.906,1.9,4.507,3.1,7.332,4.982-.1.5-.312,1.583-.677,3.4,4.923,3.043,10.093,6.236,14.993,9.268-4.794.849-9.631,1.7-14.951,2.647,4.729,4.009,10.407,1.85,15.419,4.168-1.348.432-2.7,1.257-4.041,1.238-10.109-.15-20.245-.2-30.331-.816-7.743-.476-15.421-1.937-23.162-2.544-2.907-.223-5.895.9-8.87,1.125-6.5.488-13.024.792-19.812,1.189.313,1.008.634,2.07.971,3.144-.4.073-.979.309-1.075.176-2.808-3.653-6.63-5.367-10.956-6.8-4.449-1.475-8.5-4.133-12.728-6.276.23-.523.464-1.048.691-1.571,4.066,1.831,8.125,3.655,13.047,5.871-.18-1.993-.28-3.069-.37-4.145l-.107.091a6.836,6.836,0,0,1,2.051,1.2c4.532,5.62,10.892,6.089,17.292,5.964,4.942-.1,9.882-.74,14.795-1.3,3.255-.368,3.241-.5,6.717-4.33-2.8-1.447-5.449-2.811-8.1-4.183l-.09.1c3.731.5,7.462,1,12.492,1.669-6.333-4.208-11.587-7.967-17.131-11.23-1.722-1.013-4.235-.788-6.4-.947-14.792-1.1-25.685-7.836-31.642-21.738-2.594-6.061-5.079-12.163-7.8-18.7h-4.767c-2.651,7.9-1.278,15.385,2.042,22.669,3.286,7.228,10.156,10.895,15.656,16.393-1.382-.446-3.032-.549-4.087-1.39-5.335-4.225-10.72-8.438-14.187-14.5-.5-.867-.9-2.272-1.612-2.455-7.244-1.885-6.476-8.595-8.367-13.661-.733-1.965-1.125-4.058-2.71-5.922q-.337,3.731-.668,7.46l-.642-.007V641.426c-6.64,2.577-6.135,14.709.382,20.6-2.02-.328-4.044-.666-5.967-.985a11.429,11.429,0,0,0,4.133,15.221c-1.45.839-2.667,1.549-4.106,2.384,8.225,7.833,17.85,11.535,30.059,12.374-12.14,3.847-21.331-2.954-31.208-4.623-4.862-5.3-9.84-10.733-15.364-16.74-1.99,1.843-3.739,3.468-5.416,5.01-5.793-3.845-11.314-8.354-14.076-15.554-2.387,5.66,3.575,10.016,2.578,16.266-7.619-11.239-9.181-17.094-11.783-42.508-3.147,1.158-3.633,3.708-3.586,6.55.073,4.591-.248,9.223.328,13.746.53,4.274,2,8.428,3.062,12.635-.381.211-.765.427-1.141.642-1.881-2.338-3.764-4.673-6.077-7.552-.956-.281-2.109.232-1.853,2.159a74.906,74.906,0,0,1,1.026,7.915c-7.547-11.047-11.853-22.967-9.9-36.635-.378-.143-.745-.288-1.122-.431a42.682,42.682,0,0,0-3.671,5.294c-3.834,7.7-7.638,15.448-7.23,24.409.219,4.752,1.455,9.026,6.221,11.589-.41,2.771-2.186,3.467-4.07,1.779a13.8,13.8,0,0,1-3.814-5.93c-1.413-4.654-2.244-9.493-3.569-15.333-1.053,1.484-2,2.213-2.032,2.982-.184,4.29-.1,8.588-.193,12.881a8.512,8.512,0,0,1-.7,2.284c-1.138-6.889-2.271-13.774-3.516-21.286-2.392,2.255-1.288,4.2-1.062,6.007.2,1.564,1.086,3.381.576,4.64-2.928,7.135,1.606,12.6,2.922,18.777.466-.056.928-.115,1.388-.173q-.189-4.055-.384-8.11c.657,1.311,1.759,2.57,1.907,3.934.828,7.641.745,7.652,4.414,12.241-3.212,1.632-4.708,1.589-6.558-1.615-2.369-4.136-4.072-8.654-6.009-13.035a8.284,8.284,0,0,0-1.619-3.077c.715,4.082,1.215,8.216,2.2,12.234.688,2.8,1.247,5.624,4.231,7.587,1.893,1.247,2.394,4.426,4.017,6.311,2.015,2.356,4.537,4.274,7.148,6.663-1.694,2.091-3.935,1.025-5.6-.511a82.685,82.685,0,0,1-9.112-9.5c-5.426-6.874-8.6-14.9-10.652-23.345-1.312-5.451-2.292-10.977-3.571-16.432-2.267-9.678-.846-19.124,1.638-28.5.844-3.148,1.961-6.234,6.028-6.541a3.869,3.869,0,0,0,1.593-.767c4.905-3.182,4.9-3.191,7.226,2.047,3.583,1.149,4.4-1.728,5.715-3.908,2.985-4.952,6.543-9.648,8.869-14.89,6.077-13.774,18.981-19.024,30.7-25.968a21.681,21.681,0,0,1,16.7-2.389c5.032,1.146,6.593,3.022,7.439,8.813.634,4.3-.6,7.952-4.364,10.379a53.667,53.667,0,0,1-5.448,2.708c.343,2.087,1.332,3.017,3.252,2.211,1.278-.532,2.311-1.721,3.607-2.11,1.164-.352,3.008-.5,3.7.15s.479,2.438.4,3.7a2.844,2.844,0,0,1-.988,2.082c-3.843,1.981-4.356,7.153-8.669,8.724-4.235,1.545-8.193,1.934-11.731-1.414-2.065-1.958-4.178-3.064-6.815-1.088a10.466,10.466,0,0,0,12.3,7.385c3.3-.642,6.39-2.255,9.64-3.214a25.515,25.515,0,0,1,6.842-1.315c3.557-.021,4.093-.312,4.734-3.575.819-4.2,1.867-8.365,3.036-13.486,1.974,1.773,3.091,2.778,4.223,3.772,3.411.548,3.411.548,3.291-3.561-1.138,1.238-2.257,2.459-3.378,3.681-.5-2.042-1.022-4.084-1.512-6.129-.5-2.089-1.419-4.2-1.354-6.269.1-3.252,3.141-4.457,5.5-2.218,1.393,1.313,2.926,3.236,3.055,4.987a109.288,109.288,0,0,1,.183,17.919c-.243,2.638-2.579,5.088-4.78,9.106-.495-1.358-.875-2.427-1.687-4.677-1.523,3.2-3.3,5.256-3.343,7.343-.12,6.171-4.348,7.392-8.951,8.56-1.562.394-3.826-.614-4.483,2.419a7.977,7.977,0,0,0,7.641.774,45.163,45.163,0,0,0,28.616-27.928c2.7-7.221,4.152-15.08,2.16-22.985-.476-1.878-1.828-3.766.229-5.519,1.524-1.306,6.787-1.906,8.517-.905,3.4,1.965,5.372,4.734,4.734,8.879-.581,3.758-1.28,7.505-1.616,11.282-.1,1.123.6,3.1,1.355,3.329a3.948,3.948,0,0,0,3.493-1.278c2.07-3.027,5.258-5.6,4.36-10.074-.275-1.4.612-3.045.953-4.516,6.662-.56,11.213,3.758,9.986,9.932-.672,3.406-2.559,6.609-4.135,9.786-.878,1.77-2.35,3.243-3.357,4.968-1.47,2.507-.525,4.159,2.436,5.137.6-.56,1.2-1.468,2.021-1.815,7.14-3,7.331-9.7,8.489-15.837.462-2.457-.475-5.716,3.051-6.359,3.633-.666,4.753,2.629,5.833,5.043,2.317,5.151,2.116,10.646.443,15.891-1.322,4.157-2.681,8.68-5.385,11.908-2.663,3.184-6.921,5.141-10.691,7.268-2.579,1.454-5.5,2.276-8.518,3.477-1.877-.966-4.034-2.072-7.331-3.77.807,4.117.849,6.705,5.024,6.478,1.854-.1,3.767.964,6.011,1.6,2.161-1.719,3.949-4.882,7.754-3.822.438.121,1.1-.4,1.606-.722,11.308-7.137,20.509-15.983,24.12-29.443.6-2.258,1.649-4.412,2.129-6.691.65-3.022,1.812-6.037-.528-9.115-.967-1.278-.783-3.43-1.12-5.184-.922-4.839-2.171-9.458-8.119-11.137q1.044-2.894,1.744-4.79a6.64,6.64,0,0,1,1.58-.633c2.784-.066,5.584.03,8.352-.141,7.381-.448,13.2,4.971,12.965,12.365-.075,2.394-.666,4.781,1.586,6.555,3.67-2.652,4.661-5.015,3.651-8.625-1.681-6.035-.21-7.772,5.715-6.769.984.167,1.973.281,3.014.431.842,1.587,1.419,3.395,2.558,4.715,2.7,3.12,1.243,6.426.487,9.5-.89,3.622-2.687,7.02-3.724,10.621-.362,1.259.369,2.828.595,4.257,1.561-.539,3.444-.7,4.626-1.7,2.571-2.162,4.781-4.747,7.092-7.111-.5-1.161-1.812-2.76-1.451-3.646,3.723-8.9,2.186-17.2-2.3-25.293-.164-.3-.023-.776-.023-1.824a18.519,18.519,0,0,1,15.917,7.58c2.854,3.688,4.511,8.422,6.164,12.89a18.657,18.657,0,0,1-.725,14.121c-1.913,4.332-4.631,8.3-7.192,12.773,3.994,1.214,6.722-.874,8.816-2.961,8.369-8.346,14.547-17.99,16.273-30.016.989-6.968.161-13.1-6.3-17.479a6.4,6.4,0,0,1-2.492-4.914c.231-2.6,2.935-3.228,5.16-2.98,9.47,1.05,18.933,4.959,20.676,16.616,1.3,8.776,1.485,17.652-2.821,25.869a65.422,65.422,0,0,1-4.945,7.4,17.857,17.857,0,0,1-1.736,1.653c-1.73,1.857-3.126,4.026-1.327,6.377,1.673,2.2,4.038.976,6.094.277,9.977-3.388,17.721-10.006,24.371-17.816,8.657-10.194,10.646-21.989,5.236-34.253-3.617-8.208-9.421-14.824-18.722-17.263a22.949,22.949,0,0,1-9.595-4.792c6.174-1.646,11.809-3.242,17.494-4.628a23.081,23.081,0,0,1,16.3,2.192c4.6,2.349,9.325,4.715,13.232,7.981,2.205,1.841,2.979,5.465,4.211,8.365a41.207,41.207,0,0,1,1.359,5.535c2.971-4.675,1.708-9.357,3.543-13.015,6.942-.588,10.629,3.2,9.873,10.009-.256,2.321-.8,4.6-1.231,6.982,5.3-.052,6.735-.933,6.779-4.879.026-2.959-.895-5.913-1.132-8.886-.1-1.276.062-3.3.832-3.744a5.218,5.218,0,0,1,4.427-.251,13.329,13.329,0,0,1,4.694,4.45c8.455,13.737,6.611,31.494-5.746,42.752a24.47,24.47,0,0,1-17.662,6.377c-1.206-1.3-2.383-2.684-4.607-1.25C2473.155,588.867,2475.59,585.672,2477.127,585.909Zm-258.784,69.777c-.092,5.7,2.205,9.882,7.942,12.684-3.114-4.884-5.581-8.745-8.045-12.6-1.021-6.314-2.032-12.625-3.087-19.162C2213.085,643.647,2214.463,649.874,2218.343,655.686Zm364.6,19.394c-1.336-.649-2.668-1.306-4-1.953-.114.345-.239.689-.353,1.036,1.483.272,2.964.551,4.448.823.558,3.62,3.781,2.938,6.064,3.622a36.568,36.568,0,0,1,6.473,2.206c5.059,2.572,10.568,1.526,16.837-1.05-3.916-2.389-4.694-6.042-8.705-7.305a90.9,90.9,0,0,1-19.727-8.356c-6.747-4.058-14.039-4.813-22.42-6.942,4.419,5.587,8.559,9.455,14.273,11.214,1.835.565,3.9.4,5.739.949,4.762,1.414,9.475,3.008,14.183,4.6,1.371.46,2.644,1.163,4.311,1.911-2.119,2.4-4.1,1.8-6.007,1.44C2590.354,676.564,2586.656,675.813,2582.948,675.08Zm13.94-57.035-3.328-1.353c1.308,7.113,4.037,12.372,8.988,16.52a25.15,25.15,0,0,0-2.33-6.408c-1.04-2.333-1.971-4.712-2.95-7.076,3.075.6,1.831-1.761,1.984-3.015.227-1.9-1-4.3,2.6-5.7v10.449c1.413-.6,2.249-.966,3.095-1.329,1.081,2.952-.06,6.175,2.258,8.94.375-.968.45-1.643.831-2.007.745-.722,1.62-1.653,2.521-1.756.549-.059,1.566,1.172,1.808,2,.325,1.1-.1,2.412.152,3.554.976,4.457,1.9,8.94,3.243,13.289.434,1.407,2.087,2.439,3.19,3.641.428-.176.856-.357,1.283-.537.131-2.7,1.134-5.756.216-8.03a79.467,79.467,0,0,1-5.268-22.629,21.8,21.8,0,0,1-3.287-.021c-3.9-.673-4.713-2.34-2.824-5.782.667-1.219,1.747-2.232,2.314-3.489,1.022-2.253,1.8-4.614,2.886-7.479-4.219-.486-7.61-.507-10.785-1.35-3.113-.828-6.007-2.492-9.34-3.934C2592.657,603.15,2594.353,610.645,2596.889,618.045Zm-77.757,2.827c-1.623-1.47-3.239-2.937-5.115-4.647q.79,6.26,1.589,12.5a14.137,14.137,0,0,1-2.656-6.011c-.829-4.731-1.508-9.5-1.988-14.278-.256-2.537-.77-4.717-3.437-6.241-.8,2.253-1.586,4.445-2.382,6.675-.889-.588-1.61-1.055-2.94-1.922.083,1.578-.139,2.83.178,2.984,3.668,1.74,2.762,4.7,2.317,7.648-.266,1.775-.2,3.594-.353,5.388a13.885,13.885,0,0,0,4.256,11.34c8.691,9.031,20.237,11.65,31.668,14.627a2.508,2.508,0,0,0,.6.036c2.24.012,3.737-1.151,3.009-3.306-1.25-3.686-1.936-7.7-6.151-9.8-4.386-2.166-6.8-6.1-7.527-10.946-.406-2.762-.567-5.564-.966-8.328-.314-2.157-.091-4.576-2.365-6.541.1,4.935.1,4.935-3.33,8.335-3.732-7.029-3.219-15.608-9.171-21.952-.176,1.768-.643,3.128-.376,4.323,1.088,4.865,2.4,9.674,3.625,14.5.48,1.9.95,3.793,1.422,5.69Zm42.132,55.3c.6,6.29,6.162,5.223,10.331,6.173q-5.222-3.028-10.445-6.065c-4.727-5.449-4.727-5.449-4.187-9.029,7.365,9.2,17,14.4,28.19,18.287-.179-2.159-.3-3.678-.426-5.155-1.029-.425-1.778-.7-2.5-1.034-6.246-2.937-13.235-4.8-16.778-11.673-.321-.629-1.276-.924-1.9-1.426-3.574-2.891-7.812-5.277-10.535-8.82-3.936-5.116-8.871-6.391-14.687-6.37-8.012.037-15.368-2.441-22.469-5.852-1.9-.912-3.82-1.8-5.948-2.8.164,1.322.264,2.159.375,3-3.314-3.353-5.468-7.51-8.538-10.792-7.451-7.941-10.263-17.42-10.675-27.942a42.8,42.8,0,0,0-.779-4.947l-1.533.089a30.431,30.431,0,0,0,.127,11.312c.792,3.861.975,7.854,1.43,11.788-.508.063-1.013.126-1.521.188a100.873,100.873,0,0,1-2.358-28.315c-2.275.441-3.937.759-6.267,1.214,1.078,2.1,1.927,3.568,2.59,5.118.146.342-.36.964-.577,1.474-1.607-.83-3.087-1.589-4.613-2.377-1.408,4.115-1.408,8.644-.09,8.672,4.089.094,3.122,3.128,3.372,5.111.981,7.742,1.73,15.5,4.8,22.8.188.445-.049,1.072-.16,2.382-5.338-5.341-5.142-12.918-10.573-19.11.518,5.542.912,9.753,1.3,13.969a8.56,8.56,0,0,1-2.666-5.059c-.328-2.966-.75-6.107-.122-8.956,1.855-8.452-.267-16.738-.417-25.091-.042-2.286-.71-4.218-3.915-5.592.527,6.037,1,11.434,1.469,16.834-.4.031-.806.056-1.209.082-.86-5.866-2.156-11.713-2.459-17.609-.305-5.976.389-12,.686-19.106-1.268,1.407-2.229,1.981-2.393,2.727-.647,3.114-1.686,6.33-1.433,9.413.953,11.913,2.34,23.787,3.595,35.672.146,1.435.544,2.851.965,5.008-3.654-3.671-.719-8.881-5.13-12.646.289,6.084.49,11.282,4.19,14.817a15.04,15.04,0,0,1,3.481,5.165c3.617,8.028,7.174,16.2,15.252,20.92,4.315,2.525,8.793,4.783,13.325,6.888,5.554,2.572,11.228,4.855,16.842,7.268-.058.277-.124.556-.182.83-1.5.171-3,.333-4.5.5a16.122,16.122,0,0,0-2.557-1.365c-9.132-3.032-18.083-6.349-26.48-11.219-10.93-6.342-19.545-14.545-24.5-26.345-1.557-3.685-3.4-7.249-5.321-10.763-.454-.821-1.735-1.2-2.634-1.779-.621,1.081-1.75,2.143-1.772,3.236a31.073,31.073,0,0,0,.913,5.88l.1-.082c-1.726-2.952-3.455-5.9-5.3-9.062-4.053,2.973-.842,6.71-1.405,9.847-.878-.173-1.461-.288-2.021-.41.092-2.764.278-5.533.239-8.3a5.951,5.951,0,0,0-.852-3.324c-1.681-2.218-3.645-4.208-6.4-7.3,1.864,7.312,2.689,13.7,7.1,18.84-.083,6.173,4.891,9.352,9.388,14.271-6.5-2.18-9.471-6.07-11.662-10.612s-4.121-9.232-6.168-13.854l-1.219.532a62.406,62.406,0,0,0,7.34,17.178c.757,1.193.856,2.8,1.259,4.215l.1-.108c-4.866-1.862-5.674-7.329-9.047-10.616-.681.952-1.206,1.676-2.029,2.818-1.795-4.077-2.189-8.618-6.542-11.753-.564,9.062,4.1,15.851,7.165,24.2-5.262-4.748-5.746-11.256-10.449-15.359-2.5,3.4-3.517,6.6-2.061,9.931a109.88,109.88,0,0,0,5.605,10.452c.975,1.719,2.171,3.32,3.271,4.979-.373.237-.743.474-1.109.713-2.775-3.282-5.549-6.562-8.753-10.353-1.283,5.669.451,10.431,2.408,14.8,2.07,4.626,3.579,9.861,7.971,13.078,3.8,2.781,7.817,5.261,11.742,7.878.248-.345.494-.689.744-1.036-2.022-1.678-4.05-3.359-6.446-5.355,5.139-.286,10.73,3.791,15.046,10.494-3.369,2.209-8.077-1.606-11.012,2.211,2.826,6.942,5.712,9.2,10.271,7.943-.682-2.108-1.377-4.213-2.061-6.316.413-.246.825-.495,1.231-.741,1.343,1.592,2.621,3.235,4.04,4.754,1.594,1.714,3.054,3.833,5.05,4.856,4.789,2.457,9.859,4.354,14.8,6.513,2.2.966,3.824.521,4.981-1.871-1.9-1.182-3.745-2.331-5.591-3.477a3.221,3.221,0,0,1,3.139,0c6.328,3.435,13,6.377,18.824,10.517,6.676,4.74,12.908,2.652,19.805,1.142-1.751-3.718-5.07-4.394-7.772-4.769-3.117-.433-4.767-2.332-6.813-4.037l.091.108c-2.478-2.5-4.959-4.992-8.187-8.246,7.4,1.125,12.064,5.845,18.747,7.408-1.622.975-2.358,1.419-4.038,2.431,3.8,1.175,6.57,2.256,9.45,2.821,1.132.22,3.207-.387,3.578-1.2a6.364,6.364,0,0,0-.249-4.36c-.371-1-1.593-1.73-2.51-2.483-3.219-2.672-6.688-5.076-9.658-8.009a31.3,31.3,0,0,0-12.648-7.735c-5.42-1.758-10.215-4.637-13.443-9.559a10.9,10.9,0,0,1-.889-2.685c.312-.244.616-.49.927-.731,4.623,8.386,13.045,10.867,20.92,14.146,1.229.514,2.968,1.079,3.971.591,2.662-1.294,3.507.556,4.9,1.972,1.932,1.974,3.8,4.523,6.208,5.411,4.906,1.812,10.158,2.68,15.273,3.943-2.2-5.634-7.551-8.654-11.837-12.658-1.288-1.2-2.963-2.3-3.589-3.8-2.065-4.97-5.362-6.783-10.809-6.386-10.282.757-19.549-2.729-28.523-7.608-4.541-2.473-8.659-6.511-14.635-5.875-.649.068-1.515-1.756-2.61-3.1,4.474-1.587,7.217.83,10.075,2.267,4.806,2.415,9.277,5.592,14.24,7.582,9.825,3.943,19.82,7.812,30.786,4.581,7.478.769,14.946,1.606,22.437,2.262,2.6.232,4.483-1.095,5.794-4.054-1.85-.7-3.473-1.271-5.048-1.932-5.714-2.38-11.434-4.734-17.093-7.219-2.481-1.09-2.783-2.572-.65-4.019,4.314,2.3,8.225,4.67,12.368,6.515,4.293,1.906,8.811,3.3,13.3,4.938-.883,6.759-7.778,5.894-11.958,9.319,2.957,3.6,4.78,7.8,10.843,9.692-2.268-3.015-3.774-5.022-5.9-7.849,3.556.136,4.69,1.5,6.063,3.031,1.946,2.176,4.161,4.968,6.709,5.571,5.472,1.3,11.2,2.516,17.6.9-4.306-4.455-10.758-5.111-14.905-11.27C2555.41,674.836,2558.345,675.5,2561.264,676.175Zm-127.621,4.635c-5.75-4.365-11.462-8.614-17.071-12.979-2.207-1.711-4.058-3.885-6.314-5.509-7.573-5.437-13.673-12.36-19.236-19.657-3.3-4.323-6.984-8.839-6.646-15.075.121-2.077-1.075-4.108-3.647-5.357-1.224,2.816-2.8,5.341-1.4,8.11,2.5,4.956,2.635,11.275,8.528,14.735-1.261.638-2.331,1.184-4.053,2.058,3.133,5.388,6.053,10.45,8.984,15.507-7.275-4.987-8.961-14-14.236-20.644-2.532,3.2-3.183,6.082-2.2,9.367a6.764,6.764,0,0,1,.354,3.561c-1.758,6.021,1.432,10.184,5.05,14.234a7.6,7.6,0,0,1,.692.987c5.288,8.5,14.264,11.214,22.873,14.451.816.312,1.9-.075,3.338-.171-.887-3.964-.668-7.388,3.678-9.465C2418.793,679.234,2425.693,682.458,2433.643,680.81Zm-117.5,5.064c-4.2-6.215-11.752-7.746-14.553-14.24,6.645,1.088,10.958,6.372,17.112,9.413-.267-1.289-.206-1.981-.523-2.356-5.312-6.29-6.979-13.7-7.394-21.736a38.877,38.877,0,0,0-2.882-12.2c-1.1-2.738-2.464-6.03-6.4-6.693-1.943,3.233-1.706,6.858-.945,9.957.966,3.96.945,7.481-.715,10.968-3.711-4.872-7.2-10.032-13.764-13.378-1.77,10.668,2.153,18.679,7.067,26.247C2298.266,679.762,2305.767,684.272,2316.139,685.874Zm26.6,7.573c.308-.527.614-1.055.926-1.575,1.346.635,2.739,1.205,4.041,1.937,5.568,3.123,11.021,6.464,16.685,9.387,4.245,2.187,14.2,1.616,19.367-.867-8.089-4.22-15.814-8.333-23.64-12.269a8.851,8.851,0,0,0-4.629-.835c-17.881,1.786-31.641-11.259-35.038-26.4-.221-.98-.176-2.253-.783-2.842-.879-.851-2.378-1.805-3.367-1.594a3.584,3.584,0,0,0-2.047,2.923c.6,3.724.874,7.866,2.762,10.942a64.577,64.577,0,0,0,16.768,18.55,27.417,27.417,0,0,1,3.958,4.2c.784.877,1.312,2.11,2.264,2.71a30.96,30.96,0,0,0,17.141,4.966Q2349.951,698.064,2342.741,693.446Zm277.244-66.495c2.767-2.441,4.865-4.942,7.523-6.534,9.162-5.5,19.2-5.46,29.025-2.7,9.928,2.793,12.188,7.128,10.582,18.041,3.252-2.265,5.971-4.159,8.687-6.058q.639.39,1.263.785c-.388,3.338-.789,6.672-1.215,10.259,6.7-1.773,9.765-7.941,5.775-11.512-4.642-4.173-8.782-9.361-15.39-10.991a41.869,41.869,0,0,1-7.307-2.7c-13.2-6.014-25.429-2.117-37.349,3.789C2618.1,621.06,2618.078,622.352,2619.985,626.951Zm-74.757,11.6c1.066,8.644,1.616,9.2,9.139,11.235.865.229,1.5,1.2,2.315,1.707a19.852,19.852,0,0,0,4.088,2.314c5.133,1.683,10.307,3.226,15.49,4.708a13.836,13.836,0,0,0,3.407.042C2571.192,646.341,2557.834,644.1,2545.228,638.552Zm12.051,49.359c.7,1.395,1.008,2,1.763,3.491l-12.4-4.1c-.2.375-.389.75-.586,1.125a18.331,18.331,0,0,0,3.473,2.607c3.1,1.362,6.482,2.147,9.465,3.72,4.088,2.162,8.049,1.862,12.152.464,4.736-1.608,9.454-3.226,14.153-4.909.477-.171.783-.828,1.182-1.273-4.487-2.825-12.252-4.288-15.147-2.037-2.116,1.639-4.051,1.343-6.15,1.343C2562.8,688.352,2560.416,688.1,2557.279,687.911Zm43.551-125.331c-2.738,8.907-7.6,17.211-5.631,27.149,2.148-.5,4.075-.968,6.009-1.381a5.335,5.335,0,0,0,4.45-4.307C2607.367,576.277,2606.1,569.1,2600.831,562.581Zm-12.815,76.2c-5.423-10.9-10.386-20.892-15.34-30.884a5.4,5.4,0,0,0-.7,3.983c1.855,6.309,3.6,12.674,5.919,18.814C2579.428,634.735,2582.665,637.462,2588.015,638.779ZM2410.7,609.759c-.486-.162-.98-.326-1.471-.493-.6.9-1.662,1.761-1.739,2.7-.551,7.123-1,14.259-1.283,21.4a16.8,16.8,0,0,0,.905,5.3,10.2,10.2,0,0,0,5.208,6.7c1.938-4.947.774-9.057-1.177-13.134-2.11-4.389-3.42-8.714-1.3-13.732C2410.936,615.925,2410.462,612.7,2410.7,609.759Zm165.25,22.463c-4.344-9.559-7-18.679-6.76-28.511.042-1.707-1.182-3.446-1.816-5.17-.487.129-.981.253-1.465.38-2.515,9.183.883,17.8,3.314,26.474C2570.082,628.452,2571.182,631.577,2575.948,632.222Zm-179.667-12.243c-3.31,11.788.464,21.816,7.305,31.1.04-2.19-.67-4.216-1.065-6.293-.849-4.492-1.734-9-2.225-13.542-.27-2.549.27-5.175.36-7.768C2400.769,620.288,2399.282,619.086,2396.281,619.979Zm-129.171,7.608c-6.1,11.552-3.622,21.926.9,32.27.667-9.98.674-19.968.624-29.951C2268.633,629.439,2268.057,628.98,2267.11,627.587Zm292.473,5.383c-1.974-5.582-3.429-10.494-5.523-15.122-.644-1.437-3.03-2.089-4.607-3.113-.6-.385-1.176-.8-1.908-1.306C2546.266,621.838,2552.018,631.809,2559.583,632.97Zm-210.389,9.73c.725-11.774-1.745-22.043-4.071-32.4-2.385,3.048-2.018,6.452-1.58,9.685.481,3.47,1.577,6.858,2.392,10.281-.743.036-1.49.073-2.891.136C2344.662,634.585,2344.35,639.18,2349.194,642.7Zm103.351,61.025c4.967,2.333,8.614,4.408,12.509,5.734,2.13.722,4.719.378,7.048.11.948-.11,2.6-1.517,2.488-1.962a4.645,4.645,0,0,0-2.213-2.968c-4.463-1.709-9.052-3.088-13.9-4.685C2457.046,700.86,2455.436,701.887,2452.544,703.725Zm62.523-31.944c1.523,4.954,9.426,8.956,17.671,8.961C2527.232,671.038,2526.366,670.562,2515.067,671.781Zm-266.833-.333c0-4.8.317-9.709-.093-14.559-.426-4.957,1.415-10.079-.488-15.5C2242.34,647.171,2242.854,660.016,2248.235,671.448Zm346.209-30.026c5.1,9.915,10.729,14.164,19.521,14.637-6.495-4.492-11.958-9.481-14.192-17.04C2597.635,639.982,2596.237,640.611,2594.444,641.421Zm-11.457,9.186a15.616,15.616,0,0,0-1.941-2.443,42.606,42.606,0,0,1-10.213-11.465c-1.551-2.656-4.4-4.64-8.864-6.091,2.881,4.7,3.683,9.369,9.025,9.873C2570.351,646.374,2574.42,649.768,2582.987,650.608Zm-29.811,45.308c-5.9-3.144-11.809-6.264-17.7-9.427-2.865-1.534-5.674-3.2-10.5-2.073A52.69,52.69,0,0,0,2553.176,695.915Zm-146.027-5.069c3.4.474,6.024.839,9.478,1.315-2.994-5.05-7.336-4.211-11.064-4.923-3.679-.706-7.346-1.48-11.91-2.4,4.644,6.3,8.6,8.963,12.7,9.08C2406.595,692.987,2406.827,692.063,2407.149,690.846Zm177.583-77.638c-1.328,8.649,5.61,19.5,13.907,21.462C2593.037,627.824,2590.827,619.6,2584.731,613.208Zm-413.679,37.751c4.733-2.565,7.1-6.056,7.578-11.127-1.25-.75-2.523-1.519-3.8-2.29.2-2.084.374-3.941.624-6.534C2169.785,637.34,2171.822,644.223,2171.053,650.959Zm434.515-8.881c-.332.579-.655,1.154-.99,1.735,5.28,7.341,12.591,11.716,21.3,14.065a3.771,3.771,0,0,0-1.822-2.141c-5.583-3.027-11.471-5.575-14.887-11.5C2608.566,643.178,2606.8,642.781,2605.567,642.078ZM2339.5,706.1c.09.525.188,1.048.279,1.573q11.408,1.231,22.83,2.466c-6.58-3.927-13.772-5.064-21.041-5.716C2340.924,704.367,2340.188,705.509,2339.5,706.1ZM2456.556,609.1c1.648-1.784,3.045-2.607,3.005-3.355-.316-5.667-.917-11.322-1.426-16.981C2455.133,594.965,2455.042,601.227,2456.556,609.1Zm117.533-11.882c-1.85,4.71-.869,8.8,1.613,10.733,2.537,1.963,3.507,4.556,5.358,7.446-.3-3.873.123-7.268-.962-10.079C2578.989,602.477,2576.4,600.208,2574.089,597.221Zm13.847-6.356c-5.76,7.547-5.659,9.476,1.191,19.745C2588.713,603.762,2588.328,597.408,2587.936,590.865Zm-37.786,17.743c2.285-5,2.156-14.611,1.017-17.078-4.841,3.1-1.585,8.152-2.854,12.07C2547.882,604.934,2549.476,606.918,2550.15,608.608Zm-74.608,35.28c-5.083-8.738-12.144-15.077-13.527-24.444C2461.235,627.659,2467.648,639.694,2475.542,643.888Zm-249.58,4.089c.85,6.672-.927,14.273,6.471,18.866Q2229.2,657.408,2225.962,647.977Zm350.082-8.391c3.971,6.783,7.97,9.167,14.514,8.434-2.849-1.683-5.052-3.519-7.58-4.324C2580.371,642.861,2580.32,638.4,2576.043,639.586Zm-381.689,13.7c.491-.073.981-.146,1.475-.216q-.455-10.188-.9-20.376C2191.361,639.7,2193.426,646.467,2194.354,653.285Zm304.94-33.306c.412-5.3.85-10.614-.687-15.772C2496.115,609.6,2496,614.873,2499.295,619.979Zm-206.1,15.439c-3.195,3.078-.726,6.3-1.027,9.209-.086.9,1.262,1.943,1.951,2.924.375-.15.76-.3,1.135-.448C2294.291,643.4,2296.134,639.312,2293.2,635.418Zm266.641-28.638c.457.014.922.023,1.378.033.115-2.572.247-5.146.343-7.716.084-2.494,2.116-5.123-.906-8.618C2559.007,596.621,2558.407,601.647,2559.839,606.779ZM2368.829,620.5c-2.426,5.186-1.657,9.481-.77,13.788C2368.2,629.962,2373.667,626.086,2368.829,620.5Zm-55.127,6.037c-.349-.3-.691-.6-1.031-.907-.75,1.116-2.014,2.176-2.143,3.359a87.041,87.041,0,0,0-.289,10.089c.009.746.6,1.489,1.4,3.376C2312.439,636.271,2313.073,631.4,2313.7,626.541Zm-94.308,10.644c1.566-2.708,2.812-4.675,3.869-6.736,1.234-2.4-.087-3.1-2.72-3.324C2220.553,630.421,2216.012,632.642,2219.395,637.185Zm142.924-11.526a26.676,26.676,0,0,0,3.073,16.212c-.625-5.474-1.161-10.264-1.751-15.047C2363.61,626.553,2363.11,626.339,2362.319,625.66Zm47.005,23.115q2.724,4.755,5.456,9.5C2413.458,650.65,2413.458,650.65,2409.324,648.774ZM2661.084,494.5c-6.278-1.594-6.946-1.193-9.594,4.912C2654.4,497.919,2657.549,496.3,2661.084,494.5ZM2544.014,627.474c-1.548-3.163-3.086-6.33-5.193-10.658C2537.643,622.748,2540.075,625.484,2544.014,627.474ZM2375.841,609.55c-3.61,2.685-3.535,5.671-.482,8.846Q2375.594,613.972,2375.841,609.55Zm-100.018,24.313c-2.866,7.932-2.866,7.932,0,10.651Zm136.125,61.208c-.092.532-.192,1.067-.284,1.6q4.043.548,8.1,1.095c.063-.434.133-.87.206-1.306C2417.468,695.041,2415.08,693.1,2411.948,695.071Zm-23.6-79.355c-.092,8.811-.092,8.811,3.783,11.749C2390.8,623.332,2389.756,620.084,2388.35,615.716Zm30.978-9.9c-2.164,2.542-2.1,4.961.518,7.7C2421.609,610.516,2419.864,608.214,2419.328,605.818Zm-141.619-.232c-1.694.148-3.352-.122-3.657.405-1.014,1.7-.775,3.526,1.054,5.542C2276.048,609.384,2276.729,607.825,2277.709,605.586Zm-123.428,47.188c.549-.014,1.087-.023,1.628-.037-.466-2.553-.941-5.1-1.406-7.657-.328.051-.648.1-.97.15C2153.786,647.741,2154.032,650.26,2154.281,652.774ZM2485.7,575.353c-.537-.056-1.071-.12-1.608-.178-.208,1.709-.415,3.423-.674,5.472C2488.465,579.651,2486.527,577.37,2485.7,575.353ZM2306.66,631.565c-.309-.19-.605-.38-.908-.572l-2.368,2.481c.757.647,1.5,1.294,2.907,2.5C2306.458,633.9,2306.558,632.733,2306.66,631.565Zm-14.974-10.48c.745.124,1.5.251,2.252.373q.215-2.507.443-5.019c-.511-.08-1.029-.16-1.543-.244Q2292.263,618.639,2291.686,621.085Zm342.65-82.9c-3.593-2.771-3.593-2.771-5.943,1.789C2630.325,539.4,2631.91,538.917,2634.336,538.19ZM2533.943,612.1l1.417.033q.259-3.9.525-7.793c-.3-.024-.6-.052-.894-.075Q2534.472,608.184,2533.943,612.1Zm38.661-38.265c-.086-.009-.173-.021-.27-.03q-.384,3.383-.768,6.773c.346.023.695.042,1.037.063Zm-392.942,63.51c2.831-2.706,4.816-4.415,1.207-7.214C2180.495,632.383,2180.183,634.231,2179.662,637.347Zm58.521,6.183c-.354,4.021-.336,4.018,1.712,6.578C2239.937,647.7,2240.5,645.4,2238.184,643.53Zm141.555-25.265c.461-.07.915-.143,1.385-.216q-.492-3.26-.98-6.531c-.451.072-.909.143-1.359.216Q2379.259,615,2379.738,618.265Zm-95.851,22.057c1.808-2.577,1.808-2.577.836-6.281C2284.33,636.963,2284.117,638.641,2283.888,640.322Zm-36.894-5.448c-.545-.2-1.079-.389-1.627-.582q-1.009,2.747-2.023,5.491c.4.16.812.317,1.212.479Q2245.772,637.564,2246.994,634.874Zm84.616-52.911c.657.127,1.315.26,1.975.391a28.427,28.427,0,0,0,.3-3.224c0-.136-.965-.265-1.488-.394Q2332,580.351,2331.609,581.963Zm178.143,4.757c-3.04,1.236-4.168,2.345-2.444,5.189C2508.136,590.152,2508.7,588.956,2509.752,586.719Zm83.135,59.657c-2.268-3.407-2.268-3.407-6.114-3.9C2588.986,643.888,2590.476,644.833,2592.888,646.376Zm-244.131-55.539c.512-.65,1.149-1.257,1.062-1.39a8.953,8.953,0,0,0-1.456-1.461c-.451.483-.9.964-1.347,1.449Zm121.318-24.812c.28.066.553.134.837.2q.557-2.339,1.112-4.684c-.3-.068-.59-.141-.882-.208C2470.795,562.895,2470.427,564.461,2470.075,566.024Zm-226.708,63.253c4,1.637,4,1.637,4.3-1.463C2246.543,628.2,2245.555,628.532,2243.367,629.277Zm129.45,80.761c.1-.427.2-.853.3-1.275-1.436-.347-2.868-.692-4.306-1.041q-.148.615-.3,1.226C2369.952,709.312,2371.38,709.673,2372.817,710.039Zm182.149-128.092c.418.143.812.286,1.218.434q.7-1.653,1.4-3.3c-.539-.173-1.075-.352-1.616-.523C2555.636,579.686,2555.3,580.818,2554.966,581.946ZM2498.9,594.464c-.9-.38-1.524-.9-1.959-.767-.614.183-1.441.8-1.508,1.318-.063.5.739,1.1,1.156,1.655C2497.1,596.173,2497.623,595.673,2498.9,594.464Zm42.636.663-.965-.255c-.242,1.214-.491,2.426-.737,3.639.2.054.4.106.62.157C2540.807,597.488,2541.17,596.306,2541.531,595.127Zm-345.518,16.784c-.3-.087-.616-.166-.924-.251-.2.893-.412,1.786-.618,2.675.264.068.541.136.81.206C2195.522,613.663,2195.766,612.788,2196.013,611.911Zm208.314-2.492c-.225.007-.461.014-.7.023.1,1.407.188,2.818.278,4.23.14-.016.28-.031.417-.042Zm-56.355-22.965c.481-.731.851-1.3,1.222-1.868-.452-.293-1.066-.922-1.322-.8a6.1,6.1,0,0,0-1.48,1.414C2346.813,585.531,2347.229,585.866,2347.972,586.455ZM2317.063,653.2c-.394.389-.784.776-1.183,1.163.623.662,1.241,1.327,1.859,1.986.45-.439.9-.882,1.343-1.318C2318.409,654.415,2317.735,653.808,2317.063,653.2Zm235.311-15.35.513-1.1q-1.572-.4-3.155-.793c-.083.265-.15.535-.236.8C2550.451,637.113,2551.418,637.478,2552.374,637.846Zm38.8-2.914-.466.787c.841.521,1.7,1.034,2.546,1.554.155-.272.312-.544.465-.811C2592.879,635.95,2592.027,635.439,2591.173,634.932Zm-404.968-7.24c-.206-.187-.407-.38-.609-.569-.613.6-1.222,1.2-1.836,1.8.285.234.563.467.846.7Q2185.4,628.662,2186.206,627.692Z" transform="translate(-1976.377 -474.277)" fill="#9b794e" fill-rule="evenodd"/>
  <path id="Path_1596" data-name="Path 1596" d="M2648.019,595.344c3.025,3.128,2.8,6.879,1.989,10.71-.607,2.86-1.3,5.7-1.989,8.712,8.446-.516,11.438-6.176,7.979-14.677.957-.166,2-.7,2.675-.408,4.669,2.023,8.112,9.015,6.982,14-.86,3.833-1.854,7.643-2.9,11.94,3.868-.075,5.188-2.5,6.415-4.574,2.142-3.61,3.851-7.468,5.813-11.191,4.037-7.676,1.082-18.979-6.308-24.068a184.655,184.655,0,0,0-25.226-15.067c-7.266-3.467-14.5-6.663-22.456-8.154-3.238-.608-6.351-1.477-7.922,1.737-5.234-.949-10.1-1.317-14.611-2.8-3.962-1.3-7.515-3.843-11.248-5.828.184-.434.371-.867.55-1.3,1.181.286,2.386.483,3.53.87,6.658,2.277,13.217,3.779,20.523,3.421a53.826,53.826,0,0,1,23.569,3.908,191.082,191.082,0,0,1,32.809,17.5c7.84,5.282,10.3,12.956,11.242,21.527.38,3.463-8.37,22.606-11.146,24.845-2.069,1.676-4.214,4.593-7.268,2.373-2.883-2.11-1.275-5.188-.4-7.753,2.48-7.247,2.558-7.224.891-12.428-1.01,1.193-1.793,2.182-2.65,3.1a43.386,43.386,0,0,1-3.765,3.831c-2.307,1.921-4.972,4.274-8.008,2.788-3.168-1.543-1.754-4.851-1.415-7.578.069-.511-.32-1.081-.633-2.037-4.354,2.473-8.422,4.675-9.229,10.173-.469,3.146-1.7,6.185-2.07,9.326A13.219,13.219,0,0,0,2643,642.651a55.968,55.968,0,0,0,12.383,2.767c5.7.553,11.182,3.123,16.882,3.9,9.488,1.3,19.068,2,28.623,2.706,8.784.654,17.584.968,26.376,1.491a24.957,24.957,0,0,1,4.022,1.116c-6.915,0-12.588.2-18.229-.04-15.583-.68-31.148-1.674-46.728-2.253-4.121-.15-8.286,1.088-12.427,1.086-6.964-.005-13.942-.291-20.871-.87-3.521-.3-6.965-1.484-11.269-2.454.569,1.5.676,2.961,1.456,3.645,1.641,1.433,3.727,2.338,5.45,3.695,1.318,1.046,2.3,2.511,3.539,3.681,1.066,1.01,2.156,2.4,3.448,2.7,7.016,1.622,14.072,3.151,21.184,4.3,2.683.434,5.549-.417,8.329-.363,5.183.089,10.368.352,15.539.661,13.542.814,26.754,4.321,40.222,5.348a265.3,265.3,0,0,1,28.377,3.894,21.708,21.708,0,0,1,5.756,1.576c4.646,2.339,9.625,2.56,14.63,2.83,6.144.335,12.294.748,18.453.987,1.736.061,3.493-.363,5.37.188-4.366.577-8.733,1.62-13.1,1.62-8.609,0-17.22-.41-25.812-1.034-2.418-.174-4.7-1.777-7.106-2.542-3.22-1.02-6.448-2.391-9.739-2.675-8.371-.718-16.778-.968-25.171-1.261-1.3-.047-2.617.67-3.943.954-1.1.23-2.407.807-3.315.452-8.072-3.149-16.6-2.122-24.914-2.888-13.157-1.21-26.35-2-39.477-3.379-3.476-.368-6.779-2.25-10.171-3.4-2.753-.94-5.518-1.831-8.28-2.739-.153.4-.315.814-.47,1.219,2.614,1.194,5.208,2.413,7.82,3.578,9.116,4.07,18.051,8.633,27.42,12.009,6.877,2.482,14.274,3.622,21.513,4.961,8.805,1.627,17.666,2.924,26.526,4.178,7.267,1.036,14.556,1.808,21.949,3.62a8.94,8.94,0,0,1-2.727.6c-16.706-1.8-33.4-3.74-50.116-5.458-7.533-.778-15.109-1.057-22.656-1.73-3.366-.293-6.689-1.346-10.049-1.468-10.47-.378-20.4-3.285-30.36-6.065-.659-.195-1.2-.854-2.552-1.86h5.428c.606-1.2,1.216-2.417,1.96-3.887-1.706-.846-3.093-1.6-4.536-2.253-5.211-2.349-5.53-2.174-7.422,4.487-1.662-2.338-3.252-4.068-4.247-6.1a18.146,18.146,0,0,0-6.372-7.763c.735-.037,1.47-.084,2.091-.124-1.221-9.146-1.782-18-.706-26.939-.424-.117-.842-.239-1.265-.361-2.494,5.425-4.986,10.846-7.529,16.4.961.263,1.854.5,2,.546,1.24,3.374,2.285,6.255,3.343,9.132-3.372,1.372-1.805,3.669-.673,5.353a73.783,73.783,0,0,0,5.775,6.675c-1.737-.957-3.233-1.78-4.9-2.7.495,6.14,5.054,10.213,14.374,12.906.169-.879.337-1.714.5-2.553.368.07.884.016,1.046.232,2.258,3.043,5.339,4.544,8.979,5.336,7.231,1.58,14.379,3.519,21.627,4.991,4.283.863,8.789.736,13.018,1.761,3.188.769,6.091,2.7,9.159,4.035,3.6,1.562,7.217,3.1,10.879,4.515,1.485.565,3.17.584,4.657,1.12,10.873,3.955,22.224,4.738,33.63,5.229a3.511,3.511,0,0,1,2.815,1.453c-1.3.059-2.6.141-3.9.167a30.3,30.3,0,0,1-4.812,0c-11.077-1.573-22.177-3.107-33.212-4.947a23.442,23.442,0,0,1-8.377-3.144c-4.752-2.975-9.984-4.047-15.326-4.87-6.332-.978-12.7-1.73-19.04-2.68a34.545,34.545,0,0,1-3.974-1.252c-4.044-1.118-8.082-3.06-12.159-3.142-10.037-.208-16.58-6.649-23.778-12.034-1.426-1.071-2.862-2.6-1.786-4.628,2.376-4.455.115-8.054-1.97-11.669a46.872,46.872,0,0,0-3.272-4.3c-1.562,3.09-.1,5.528.116,7.868a78.515,78.515,0,0,0,1.682,8.15c-5.224-2.919-3.993-8.942-7.519-12.255-3.824.446-3.123,3.191-2,5.163a130.691,130.691,0,0,0,7.968,12.014,23.915,23.915,0,0,0,4.976,5.186c3.266,2.4,6.818,4.412,10.478,6.727-1.145.41-2.678.964-4.521,1.622.588.539,1.033,1.233,1.646,1.463,8.59,3.242,17.18,6.5,25.832,9.581,4.515,1.616,9.129,2.971,13.736,4.336,7.854,2.328,15.643,4.989,24.059,4.419a8.837,8.837,0,0,1,5.515,1.606c-4.7,0-9.462.459-14.1-.08a173.617,173.617,0,0,1-52.842-15.277c-7.056-3.247-14.4-5.9-21.739-8.5-3.224-1.149-6.367-3.416-10.292-1.472-1.036.516-2.939-.729-4.579-1.805.928-.117,1.845-.23,3.768-.474-2.353-3.284-4.794-6.011-6.443-9.153-1.616-3.081-2.417-6.581-3.948-10.931-1.433,6.117,1.613,10.562,1.109,15.774-1.437-2.593-2.9-5.188-4.157-7.45-3.04-.563-5.855-1.081-8.766-1.62,1.258,7.765,5.744,12.737,14.864,14.578-5.224,1.175-8.921.6-11.612-2.863-3.425-4.394-6.634-8.956-9.9-13.476-1.086-1.512-2.073-3.095-3.659-5.486-2.1,5.732,2.889,7.971,3.55,12.274-1.378-.117-2.739.19-3.294-.342-3-2.9-5.78-6.028-8.687-9.031a20,20,0,0,0-2.531-1.854c-1.793,2.227-1.5,4.342-.628,6.379,4.466,10.422,2.24,11.575,7.6,14.18,2.2-2.567,4.619-1.625,7.605-.4,7,2.863,14.218,5.231,21.429,7.514q18.587,5.891,37.294,11.38c3.219.95,6.625,1.308,9.849,2.729-3.761-.4-7.532-.677-11.269-1.235-15.043-2.239-29.984-5.273-45.238-5.932a23.7,23.7,0,0,1-5.3-1.067c-9.041-2.534-18.079-5.059-27.078-7.732a19.317,19.317,0,0,1-10.578-7.526c-1.717-2.431-3.724-4.673-7.85-5.125,1.632,1.953,2.819,3.365,4,4.783-.1.185-.183.366-.273.549-3.186-1.822-6.377-3.641-10.586-6.044.855,2.764,1.355,4.36,1.946,6.248-5.02-.019-8.238-2.935-10.824-6.529-1.5-2.08-2.329-4.638-3.473-6.971-.431-.884-.851-2.464-1.374-2.506-6.16-.5-4.524-5.519-5.375-9.047a10.272,10.272,0,0,1-.029-2.359c-1.381-.588-2.645-1.128-3.809-1.62-3.683,1.449-3.654,9.35-.083,17.563-3.417-2.389-3.417-2.389-6-14.618-2.479,2.8-3.512,5.28-1.4,8.646,1.456,2.312,2.009,5.214,3.58,7.42,1.537,2.148,3.838,3.749,5.573,5.821-6.072-2.2-10.656-5.852-12.334-12.433-1.795-7.052,1.963-11.619,8.211-16.032-12.073,3.2-16.862,10.283-16.218,19.434-2.062-2.087-2.062-2.087-2.09-11.106-10.412,2.778-17.589-3.9-25.775-9.723-.385,2-.683,3.069-.8,4.159-.255,2.542.765,4.415,2.4,6.466.989,1.243,0,3.927.413,5.852.2.91,1.589,1.557,3.125,2.938,1.358-2.579,2.468-4.673,3.658-6.933l7.6,12.124a12.391,12.391,0,0,0,2.458-.342c4.906-2.089,7.684-1.362,10.426,2.837.317.48.795,1.175.655,1.585-2.12,6.218,3.242,8.785,6.532,11.331a64.96,64.96,0,0,0,16.283,8.763,241.512,241.512,0,0,0,37.925,11.277,37.72,37.72,0,0,1,4.565,1.6c-1.63,2.452-3.546,1.782-5.139,1.442-7.23-1.552-14.475-3.114-21.641-4.94-4.844-1.231-9.6-2.846-14.365-4.4-12.079-3.934-22.729-9.99-30.181-20.691-1.638-2.361-1.621-2.367-5.509-3.095.376,1.116.7,2.12,1.438,4.335-5.441-3.137-10.261-5.383-14.46-8.475-5.629-4.148-10.939-8.874-13.431-15.757a12.476,12.476,0,0,1-.559-5.775c.837-5.9,1.983-11.753,3.215-18.773-4.451,4.07-5.157,8.586-5.669,12.895-.52,4.288-.109,8.684-.109,12.288-2.387-3.937-2.849-9.615-1.86-19.445-1.521,2.614-3.026,5.23-5.271,9.078-.457-4.152.042-7.491-3.729-8.4-8.159,8.921-4.368,20.3,10.748,30.137-.645-1.376-.846-1.96-1.173-2.478-.4-.659-.909-1.261-1.423-1.953.48-.127.895-.373,1.053-.256,6.673,4.684,13.317,9.395,20.378,14.4-.637.9-1.465,2.084-2.42,3.416.77.671,1.633,1.426,2.479,2.162-2.637.553-5.3,1.116-7.278,1.534-2.058-1.841-3.7-3.555-5.589-4.921-1.613-1.163-3.673-1.714-5.23-2.923-3.162-2.443-6.139-2.345-9.465.26.779,5.224,8.984,6.518,7.39,13.373-2.092.741-2.984-1.268-4.3-2.182-1.583-1.093-2.9-2.809-4.625-3.428-11.841-4.241-18.51-13.05-21.234-24.765-1.569-6.734-1.72-13.8-2.632-21.83-.146-.129-1.332-1.153-1.983-1.709-2.874.178-5.132.326-7.622.481a13.456,13.456,0,0,1-4.021,8.487A9.906,9.906,0,0,0,2357,660.28c-4-2.019-6.941-3.5-9.713-4.893-3.488,2.506-3.563,5.059-2.455,8.607,3.906,12.44,17.277,21.157,27.553,20.878-.952-6.234-6.519-11.71-3.4-19.755,1.41,4.659,2.383,8.21,3.581,11.685,2.616,7.6,8.315,12.557,14.709,16.914a49.75,49.75,0,0,1,4.437,3.81l.086-.1c-4.812-2.8-9.7-5.488-14.405-8.452a12.6,12.6,0,0,0-5.331-2.073,69.424,69.424,0,0,1-13.824-3.566c-3.964-1.447-8.273-1.853-11.544-5.505-4.785-5.35-9.052-10.949-9.887-18.1a22.41,22.41,0,0,0-5.292-12.791c-6.191,3.742-7.5,9.324-3.1,14.735,2.258,2.773,5.17,5,7.681,7.58,1.769,1.826,3.379,3.819,5.467,6.2-3.088.83-4.694-.279-6.2-1.929a22.892,22.892,0,0,0-4.665-4.157c1.018,5.42,4.261,9.209,8.084,12.77,4.177,3.873,10,2.317,14.769,4.919-1.085.485-1.926.86-3.036,1.359.847.891,1.6,1.686,2.345,2.483-.087.244-.178.479-.274.723q-4.835-1.562-9.681-3.132c-.147.279-.3.555-.445.834q7.761,4.688,15.521,9.376l.1-.105c-2.265-.429-4.776-.382-6.757-1.369-6.96-3.43-14.076-6.668-19.7-12.283a8.618,8.618,0,0,0-3.082-1.781c-12.755-4.795-17.858-15.106-20.286-27.551-1.4-7.19,1.205-13.3,4.308-19.415,1.072-2.1,1.628-4.527,3-6.38a49.939,49.939,0,0,1,6.4-6.783,43.171,43.171,0,0,1,5.111-3.453,12.421,12.421,0,0,0-11.939,2.4c-2.964,2.314-5.43,5.271-8.072,7.978-1.513,1.545-2.955,3.163-4.43,4.745l.082.089q3.306-5.918,6.6-11.847c-5.019-.047-6.09,1.43-14.053,18,.627-2.368,1.168-4.759,1.913-7.092.773-2.4,1.744-4.736,2.744-7.409-9.374,1.322-16.019,7.81-17.186,16.189a34.7,34.7,0,0,0,1.865,15.978c.554,1.669.821,3.428,1.221,5.141l.091-.089c-7-8.555-7.24-18.135-4.244-28.19.338-1.147.975-2.209,1.3-3.355a19.211,19.211,0,0,0,.389-2.914c1.343-.38,2.616-.743,4.091-1.158-.313-.809-.364-1.589-.729-1.784-2.98-1.582-5.895-3.477-9.076-4.485-9.494-3-19.092-5.716-28.692-8.356-1.945-.537-4.112-.265-6.754-.392,5.324,7.531,17.647,12.588,35.584,15.2-7.241,3.831-14.687-.211-22.838.513,1.783,1.965,3.141,3.479,4.511,4.994-2.47-1.255-5.011-2.38-7.39-3.78-4.524-2.668-9.228-4.684-14.58-4.719-3.755-.029-7.51,0-11.261,0,4.1,1.934,8.829,2.581,10.789,7.423,6.265,3.421,12.876,5.094,20.062,4.145,2.019-.267,2.847-1.172,2.261-3.191,3.319,1.1,6.63,2.2,11.137,3.688-4.147,2.168-7.337,1.1-10.345,1.341-2.332.188-4.844-.359-5.66,3.005-.14.589-2.3.69-3.524,1.013-.143,1.076-.286,2.157-.439,3.325-4.377-2.6-8.459-4.97-12.465-7.446-1.168-.722-2.807-1.61-3.086-2.705-1.384-5.641-6.416-5.892-10.487-7.617-5.881-2.483-11.8-4.928-17.619-7.554-3.228-1.456-6.369-2.98-10.809-1.923l12.468,7.219c-2.529,3.249-5.126,3.439-8.058,1.974-6.886-3.439-13.764-6.9-20.9-10.489.673,5.6,4.775,9.333,8.9,11.861,4.268,2.619,9.744,3.256,14.826,4.8-1.094.415-2.1.8-4.055,1.541,2.705,1.2,4.592,2.028,7.471,3.3-16.911,1.414-32.978.774-48.991,3.468.289.41.5,1.072.87,1.17a74.245,74.245,0,0,1,27.116,13.706c6.921,5.465,15.351,7.57,23.566,10.121,2.243.694,4.39,1.7,6.6,2.563l.081-.1c-7.014-.272-13.669-2.171-20.332-4.241-5.006-1.552-10.146-2.64-15.638-4.037.237-1,.583-2.445,1-4.218a42.335,42.335,0,0,0-18.573-9.1c-2.73-.6-5.556-.839-8.245-1.579-2.448-.676-5.307-1.3-4.62-5.088-3.327-1.47-7.625-.527-10.692-4.448,4.666-1.592,8.015,1.05,11.6,1.217,3.6.167,7.2.42,10.821.5a40.575,40.575,0,0,0,11.669-1.057c-1.356-.778-2.716-1.552-5.249-3.01,10.111,1.418,18.788,4.6,28.666,2.194-3.96-2.891-7.23-5.224-11.474-6.058a78.472,78.472,0,0,1-9.219-2.7c-2.062-.682-4.094-1.536-5-5.193,3.663,1.386,6.547,2.474,9.694,3.658-1.652-5.146-2.884-9.662-4.6-13.983-.7-1.779-2.4-3.165-3.684-4.7-4.493-5.376-9.062-10.691-13.454-16.146a32.565,32.565,0,0,1-2.863-5.212c3.338-2.012,4.977-.483,6.309,1.716,2.484,4.113,5.179,7.61,10.4,8.888,2.559.623,4.616,3.341,7.447,5.54.941-3.289-.287-5.109-1.206-6.939-.812-1.611-1.817-3.121-2.642-4.722-.981-1.9-1.385-3.913.444-5.5a4.9,4.9,0,0,1,6.1-.755,23.151,23.151,0,0,1,3.755,2.935c1.863,1.756,3.52,1.418,4.759.077,4.619,4.9,8.612,10.517,13.9,14.379,5.374,3.917,12.012,6.114,18.183,9.111,1.507-2.129,2.532-3.576,3.118-4.417-.8-4.237-1.491-7.864-2.178-11.486l1.011-.741c8.714,8.346,18.063,15.474,30.928,16.883-.774-2.727-2.963-3.794-4.736-5.114-3.936-2.928-7.347-6.318-9.043-10.981a7.715,7.715,0,0,1,.188-4.961c.383-1.013,2-1.571,3.068-2.335a11.108,11.108,0,0,1,1.759,2.767c1.033,3.988,3.771,6.6,7.033,8.621,7.819,4.853,15.764,9.5,23.663,14.232.857.511,1.95,1.615,2.566,1.4,5.437-1.937,9.078,3.129,13.97,3.378,5.727.3,11.443,1.05,17.167,1.55a2.778,2.778,0,0,0,1.68-.5c9.687-6.532,20.68-4.43,31.374-5.434.073,4.424-4.464,1.587-5.231,4.741,4.2,3.777,8.925-.481,13.582.569.968,3.224,1.012,5.906-2.911,7.625-2.542,1.116-3.312,3.728-4.369,7.3,2.463-.968,3.979-1.974,5.564-2.079s3.248.68,4.873,1.071c-.53,1.36-.765,2.968-1.663,4.014-1.139,1.339-2.908,2.176-1.63,5.407,3.706-4.872,9.018-7.113,11.9-12.447,2.4-4.431,5.307-8.313,11.708-8.93,5.76-.555,11.371-3.489,16.87-5.8,10.615-4.469,21.234-5.3,32.073-1.039,1.858.729,3.656,1.641,5.533,2.319,2.938,1.062,5.575,2.37,5.92,5.779a58.728,58.728,0,0,1,6.355.056,7.236,7.236,0,0,1,3.753,1.379c4.77,4.068,4.708,4.128,10.079,2.234,7.033,8.346,6.082,15.647-3.388,26.073,5.814-.5,11.118-5.09,12.054-10.428a9.162,9.162,0,0,0,.324-2.377c-.54-5.02,1.542-8.792,5.523-11.838,3.892-.457,5.617,2.263,8.008,4.886,2.638,2.9,1.5,5.756,1.293,9.17,2.782-.99,3.57-3.043,4.622-4.853,1.379-2.373,3.009-2.164,4.91-.553a15.863,15.863,0,0,1,4.68,17.42c-1.222,3.561-2.734,7.031-4.172,10.684a14.151,14.151,0,0,0,12.158-10.691c.956-4.26,2.367-8.011,5.947-10.571-.255-2.026-.583-3.8-.682-5.58-.337-5.421-2.739-9.1-7.742-11.751-3.275-1.742-6.659-4.368-6.164-9.252.116-1.167-.91-2.447-1.373-3.578.63-.729.933-1.407,1.422-1.587,6.563-2.476,13.341-3.728,19.45.565,2.977,2.084,5.11,5.491,7.286,8.541,2.994,4.187,5.669,8.6,8.466,12.883,7.446-4.661,8.023-7.837,3.137-13.75-.961-1.165-1.878-2.356-3.376-4.248,9.342-.661,12.956,6.49,18.635,10.778v5.984c1.854.3,3.522.572,5.443.876,6.31-9.174.247-15.947-5.784-23.729,3.008,0,4.516-.269,5.9.045,7.265,1.65,12.376,6.316,16.355,12.339,1.435,2.164,2.172,4.827,3.738,6.853,5.985,7.723,4.636,15.678,1.253,23.827-.57,1.372-.874,2.851-1.628,5.388,6.223-3.4,10.761-6.668,12.647-12.562,1.2-3.758,3.779-7.172,3.105-11.4-.373-2.34-.377-5.085-1.645-6.876-3.836-5.407-6.4-11.943-13.151-14.968-2.876-1.287-5.276-3.639-8.259-5.772.27-10.375,4.225-12.646,13.65-14.808,1.341-.312,2.805-.075,4.195-.274,10.183-1.468,13.585,7.582,12.446,15.309,6.463-.23,7.208-3.357,2.72-12.89,3.979-1.437,7.458.117,10.623,1.821.982.528.934,2.954,1.366,4.511-.4.181-.8.358-1.193.542-.658-.877-1.318-1.754-2-2.67-3.212,2.166-3.431,3.338-.638,4.548,2.537,1.106,5.267,1.77,8.279,2.743.2,1.977.422,4.105.706,6.853,3.752,0,7.479.021,11.214-.016a5.417,5.417,0,0,0,2.356-.364,29.51,29.51,0,0,0,3.2-2.206c-1.036-.854-2.08-1.7-3.448-2.828,1.4-3.135,5.394-2.185,7.508-3.838,3.278-2.553,5.656.509,8.98.061.64-2.441,1.322-5.043,2-7.643Zm-28.759,74.4c1.681.837,3.367,1.681,5.045,2.523.133-.3.257-.6.393-.9-1.849-.5-3.689-1.006-5.535-1.515-1.75-1.238-3.353-2.825-5.275-3.648-3.334-1.412-6.865-2.354-10.309-3.491C2608.459,665.782,2613.047,669.559,2619.26,669.74Zm-108.371,10.8c.927.127,1.859.253,3.027.41a100.844,100.844,0,0,1-4.153-9.319,85.388,85.388,0,0,1-2.028-9.27c-2.559,2.921-2.771,5.6-1.209,8.562,1.667,3.153,3,6.49,4.488,9.744-1.448-.19-2.89-.375-4.868-.631,1.212,3.507,3.594,3.16,6.011,3.758C2511.59,682.346,2511.239,681.441,2510.889,680.541ZM2389.314,644.9c-5.37,4.6-7.286,10.112-6.029,16.67a28.3,28.3,0,0,1,.361,5.856c-.068,3.648,1.229,5.58,4.817,7.174,1.185.532,2.645,1.205,3.224,2.237,2.16,3.857,5.367,3.751,9.081,3.3-3.555-5.512-6.605-10.848-10.285-15.7a9.324,9.324,0,0,1-1.976-6.523C2388.665,653.577,2389.037,649.239,2389.314,644.9Zm-71.76-7.165c-1.9,5.132-4.45,9.594-5.037,14.3-.634,5.139,3.661,8.128,7.178,11.005.394-.185.783-.37,1.178-.555-.361-3.114-.712-6.223-.992-8.661,1.616-2.935,2.98-5.421,3.731-6.773C2321.347,643.575,2319.835,641.245,2317.554,637.739Zm228.537,34.5c.547-1.42,1.479-2.818,1.557-4.255.192-3.5.916-7.395-.308-10.44-1.387-3.479-4.655-6.213-7.35-9.578-.241,3.632-.136,7.038-.75,10.309C2537.9,665.4,2539.273,668.523,2546.091,672.236ZM2225.2,621.586c.115-.38.23-.757.348-1.139-4.415-2.645-9.024-5-13.16-8.021a130.543,130.543,0,0,1-11.251-9.847c-3.671-3.392-7.226-6.926-10.834-10.394,1.63,9.981,9.585,14.484,16.49,19.488C2212.386,615.734,2218.083,620.252,2225.2,621.586Zm360.369,66.462c-2.642-2.349-4.938-5.626-8.027-6.809-3.375-1.285-4.613-3.322-5.574-6.231-.548-1.674-1.317-3.278-2.009-4.95-3.21,1.894-4.182,3.979-2.249,7.022C2571.719,683.422,2576.6,688.883,2585.567,688.048Zm-158.581-40.9c-1.091,5.442.562,8.714,4.8,10.853,5.864,2.966,11.218,2.213,15.56-2.286a6.321,6.321,0,0,0-1.8-.1c-7.779,2.072-8.625,1.725-13.559-4.394C2430.752,649.692,2428.9,648.672,2426.987,647.143Zm14.109,6.83a53.671,53.671,0,0,1-.99-6.959,49.649,49.649,0,0,1,.793-6.677c-2.455,1.538-4.415,2.764-6.562,4.105C2434.164,650.343,2435.8,653.061,2441.1,653.973ZM2214.683,610.2c1.788,4.359,6.133,4.966,9.489,6.706,8.358,4.328,8.432,4.2,10.8,3.772C2229.824,615.973,2219.391,610.524,2214.683,610.2Zm77.586,15.54c.985-.739,2.617-1.96,4.675-3.515-5.718-2.478-10.852-4.262-17.712-2.161C2284.042,622.162,2287.777,623.785,2292.269,625.743Zm-43.36-26.409c3.008,8.145,10.8,9.169,17.732,11.554Q2257.77,605.113,2248.908,599.334ZM2181.45,605.4c4.161,4.239,8.018,8.919,14.549,9.284C2191.67,610.754,2187.5,606.614,2181.45,605.4Zm357.071,89.354c-.127.518-.248,1.039-.375,1.552,6.667,2.544,13.724,3.446,20.959,3.632Zm-133.754-65.14c4.116-.34,6.653-2.1,9.925-7.221C2411.125,625.511,2405.622,623.916,2404.766,629.611Zm204.319,6.59c-1.139,6.3-.727,7.2,3.873,9.357C2613.5,641.91,2612.309,639.121,2609.085,636.2Zm45.952,13.183q-6.673-2.008-13.339-4.021c-.123.4-.239.809-.363,1.212C2645.545,648.733,2649.643,651.274,2655.038,649.385Zm-178.725,10.567c4.817-6.586,4.817-6.586,3.719-10.724C2479.052,653.274,2475.289,655.469,2476.313,659.952Zm-54.825-16.294c5.282-.415,5.406-.657,4.019-7.21C2424.093,638.994,2423.021,640.907,2421.488,643.657Zm-23.794,47.085c-.549-5.964-1.313-6.745-6.654-6.82C2393.39,686.334,2395.216,688.2,2397.694,690.742Zm213.558-40.75c.715,4.8,1.071,5.193,5.115,5.669C2616.013,652.514,2614.325,650.752,2611.252,649.992Zm-36.377-10.363c-.458-.047-.918-.1-1.375-.15-2.421,5.041-2.421,5.041-1.258,9.385C2573.217,645.443,2574.046,642.534,2574.875,639.629Zm-45.623,8.419c-1.258,2.7-4.872,5.266-1.642,9.5C2528.228,653.991,2528.74,651.021,2529.251,648.048Zm76.5,7.329c-.878,4.492,1.937,5.383,5.284,5.791Q2608.4,658.27,2605.755,655.377ZM2318.97,672.269c.461-.3.928-.6,1.406-.9-1.324-2.286-1.361-5.51-5.875-6.609C2316.286,667.765,2317.628,670.018,2318.97,672.269Zm-83.114-55.464c.369-.424.739-.848,1.109-1.268-1.779-1.815-3.2-4.12-6.84-3.505Q2232.988,614.413,2235.855,616.805Zm33.976-2.389c2.969,3.25,2.969,3.25,6.112,1.386C2273.572,615.265,2271.7,614.843,2269.831,614.416Zm274.429,32.129c.412.082.813.164,1.222.244q.762-3.714,1.532-7.432c-.437-.084-.89-.176-1.331-.263Q2544.975,642.815,2544.26,646.545Zm-309-38.424c.376-.569.747-1.142,1.117-1.711-1.823-1.2-3.659-2.408-5.486-3.615-.3.422-.595.846-.9,1.259Q2232.632,606.09,2235.263,608.121Zm237.67,24.137c1.236,1.526,2.327,2.865,3.773,4.651C2476.461,632.056,2476.461,632.056,2472.934,632.258Zm45.9,57.9c-2.115-2.954-2.115-2.954-6-2.166C2515.347,688.9,2517.086,689.525,2518.831,690.156ZM2493.6,677.7c.336-.3.669-.6,1-.9-.715-.957-1.419-1.908-2.125-2.865-.486.539-.98,1.083-1.475,1.62C2491.873,676.276,2492.743,676.991,2493.6,677.7Zm-19.767-9.408c2.513-1.875,1.648-3.06-.028-4.11-.2-.122-.654.185-1.377.417C2472.857,665.73,2473.277,666.835,2473.837,668.3Zm118.831-53.547c-2.384.527-3.574,1.449-1.426,4.3C2591.886,617.1,2592.279,615.923,2592.668,614.749Zm-149.132,12.843c-.242-.343-.484-.689-.728-1.034-1.067.581-2.125,1.161-3.191,1.744.165.317.326.636.48.945C2441.241,628.7,2442.393,628.145,2443.536,627.592ZM2643.69,669.1q.238-.718.471-1.437c-1.727-.422-3.445-.837-5.17-1.259-.1.333-.2.664-.3,1C2640.356,667.962,2642.027,668.53,2643.69,669.1Zm-229.969-19.021.59.148c.22-1.118.452-2.239.678-3.358-.3-.031-.61-.061-.913-.094C2413.96,647.875,2413.841,648.972,2413.722,650.076Zm-74.842-18.564c-.36-.253-.73-.509-1.1-.766-.442,1.05-.888,2.105-1.341,3.153.321.141.62.283.936.422C2337.867,633.388,2338.38,632.448,2338.879,631.512Zm200.74-7.84c-.28.436-.548.877-.818,1.31.875.437,1.753.863,2.628,1.3.179-.3.351-.6.53-.891C2541.181,624.816,2540.407,624.247,2539.62,623.672Zm-108.979,52.517c.25-.253.509-.5.761-.748-.458-.694-.908-1.386-1.366-2.079q-.527.513-1.047,1.025C2429.536,674.984,2430.09,675.584,2430.641,676.189Zm49.885-4.438c.3.173.586.347.884.52.423-.79.841-1.578,1.259-2.37-.25-.145-.514-.291-.775-.436C2481.443,670.23,2480.983,670.992,2480.526,671.751Zm74.009-26.343c-.394-.1-.788-.2-1.187-.3q-.13,1.747-.262,3.486c.276.037.545.08.815.117C2554.113,647.608,2554.329,646.508,2554.535,645.408ZM2431.6,644.093c-.352-.22-.706-.443-1.057-.666-.359.7-.733,1.39-1.036,2.112a4.3,4.3,0,0,0,.875.5C2430.829,645.418,2431.214,644.752,2431.6,644.093Z" transform="translate(-1949.044 -366.587)" fill="#9b794e" fill-rule="evenodd"/>
  <path id="Path_1597" data-name="Path 1597" d="M2137.951,601.762c16.613-3.51,28.793-15.242,42.508-24.449,2.489,3.093.677,5.275-.8,7.252-2.379,3.2-5.06,6.18-7.552,9.3-1.111,1.39-2.062,2.9-3.119,4.382.945,1.036,1.691,1.845,2.708,2.95-3.379,2.6-5.207,6.693-9.754,7.863-2.453-3.106-.329-5.5,1.053-7.643,2.043-3.186,4.581-6.051,6.854-9.094,1.055-1.411,1.982-2.912,3.733-5.489-2.22.64-3.439.645-4.125,1.247-6.834,6.038-15.066,9.775-23.007,13.924-4.8,2.508-10.3,2.9-15.661,2.3-2.812-.312-5.339-1.006-7.93.945-.857.652-2.625.1-3.486.1-3.335,4.136-6.4,7.931-9.584,11.882h12.975c-6.7,2.619-13.423,4.591-21.292,4.408,1.609-4.1,1.249-8,4.932-10.977,6.406-5.182,12.158-11,16.124-18.585a166.088,166.088,0,0,0,10.148-22.364c2.495-7.149,6.337-13.814,9.4-20.777,1.693-3.831,3.012-7.828,4.5-11.758,2.042-5.4,3.512-11.125,6.25-16.156,4.276-7.856,11.818-11.549,20.4-12.909a5.835,5.835,0,0,1,6.671,3.976c.421,1.1.958,2.159.972,2.19l11.753,3.348c1.612-1.611-.43-2.286-1.881-3.158,1.846-5.289,1.795-5.214-2.637-8.607-1.142-.877-2.57-2.488-2.446-3.6.123-1.036,2.006-2.253,3.341-2.692,4.4-1.449,8.786-.626,12.828,1.264,3.974,1.854,5.649,6.839,4.453,11.915-.455,1.941-1.015,3.859-1.446,5.8-.068.274.316.649.574,1.125,5.178-2.609,3.476-9.038,6.767-12.6,5.91,2.495,7.625,5.772,5.852,11.209-.727,2.218-1.739,4.34-2.844,7.069,1.792,0,3.042.366,3.907-.059,6.478-3.151,10.629-7.894,8.852-16.36-1.058-5.031-2.326-10.328-7.927-12.7a8.833,8.833,0,0,0-2.78-1.029c-7.943-.307-15.879-.53-23.821-.713-1.378-.03-2.87.628-4.146.309-9.359-2.323-16.23,2.239-22.662,8-2.831,2.527-5.434,5.315-8.28,7.81a56.728,56.728,0,0,0-15.678,22.962c-2.19,5.688-5.935,10.759-8.462,16.336-2.122,4.677-3.416,9.721-5.231,14.546a71.845,71.845,0,0,1-3.844,8.724c-2.992,5.514-5.83,11.16-9.412,16.275-4.514,6.45-9.813,12.339-14.57,18.62-7.946,10.48-19.957,14.78-30.933,20.655-1.237.661-2.7,2.182-4.318-.061,2.812-4.539,9.649-4.853,11.921-11.413-3.229,1.161-5.775,2.073-8.317,2.987-.1-.209-.2-.422-.307-.631,4.291-3.266,8.663-6.415,12.833-9.819,4.1-3.346,7.988-6.947,12.683-11.069,1.216,6.3-4.136,7.177-5.894,10.306-1.831,3.245-4.507,6.019-7.563,9.981,2.09-.4,3.341-.263,3.978-.816,5.977-5.294,11.824-10.74,17.792-16.06,1.949-1.737,3.3-3.456,1.322-5.848,3-2.124,5.668-4.013,9.337-6.614-2.4-.549-3.4-.776-4.415-1.01.018-.4-.114-.9.078-1.142,11.087-13.835,18.266-29.839,25.56-45.784,3.069-6.712,6.273-13.369,9.246-20.119,2.706-6.154,8.172-9.769,12.7-14.229a67.98,67.98,0,0,1,20.52-13.4,16.021,16.021,0,0,1,4.568-1.193c6.146-.713,12.3-1.369,18.478-1.927,6.99-.629,13.875-1,20.665,2,7.609,3.369,11.222,10.088,10.08,19.7-.9,7.491-7.361,14.637-14.467,15.84-3.97.675-5.209-.837-3.748-4.713.773-2.063,1.821-4.023,2.537-6.1.727-2.1,1.28-4.3-2.052-6.216a68,68,0,0,1-3.151,6.82,61.834,61.834,0,0,1-4.424,5.819l-5.352-1.608c-4.468,3.392-14.514,22.934-14.874,29.613,2.925-2.016,5.822-3.474,8.042-5.627,7.711-7.481,17.633-10.724,27.274-14.4,11.027-4.2,22.153-8.166,33.4-11.723,13.91-4.4,27.923-8.459,41.985-12.295,10.023-2.738,20.231-4.807,30.314-7.317,1.466-.363,2.759-1.484,4.083-2.333s2.46-2.291,3.873-2.645c7.9-1.976,15.873-3.7,25.141-5.814-5.371,3.114-9.429,5.5-13.513,7.8a11.612,11.612,0,0,1-3.306,1.383c-12.717,2.586-24.838,7.141-37.21,10.916-10.142,3.09-20.653,4.982-30.781,8.121-17.369,5.383-35.269,9.005-51.964,16.7-6.378,2.935-12.356,6.48-18.545,9.673-2.781,1.43-5.121,3.784-7.515,5.88-6.758,5.906-13.359,11.983-20.172,17.821-3.777,3.24-7.865,6.124-11.8,9.183a4.61,4.61,0,0,0-1.268,1.266c-2.394,4.478-6.127,6.6-11,8.236-3.708,1.238-6.626,4.992-9.745,7.786-1.985,1.782-3.7,3.854-5.539,5.8C2137.557,600.892,2137.745,601.326,2137.951,601.762Zm13.726-43.927a21.692,21.692,0,0,0,2.407-3.353c3.31-7,6.519-14.051,9.729-21.1a7.613,7.613,0,0,0,.327-1.8c-6.323,7.9-11.829,16.022-12.358,26.366-.98-.171-1.952-.34-3.544-.624-1.744,5.937-3.513,11.959-5.28,17.985.284.087.567.181.855.27Q2147.741,566.7,2151.677,557.835Zm5.9,14.14c4.474-3.383,9.027-6.827,10.138-12.684.8-4.22,2.6-8.843,1.593-12.658-1.079-4.105.765-6.661,1.731-9.842a32.583,32.583,0,0,0,.619-3.3c-4.537,1.8-4.67,5.376-5.317,8.457-1.564,7.521-1.937,15.317-5.767,22.284C2159.248,566.636,2158.552,569.384,2157.572,571.975ZM2150.6,536.61c-1.2,2.5-2,3.988-2.643,5.54-1.242,2.936-2.308,5.953-3.612,8.853-2.026,4.476-2.08,4.445-.066,9.512C2152.389,544.837,2153.364,541.681,2150.6,536.61Zm23.114,13.354c5.482-2.46,6.7-6.441,6.769-11.09C2178.509,542.443,2173.609,544.166,2173.719,549.964Zm11.234-17.8c-.442-.244-.9-.485-1.346-.724-.433.952-.86,1.906-1.3,2.862.363.178.725.352,1.091.525C2183.914,533.944,2184.428,533.058,2184.952,532.169Zm-28.544,31.47c-.306-.1-.622-.2-.922-.3-.3.847-.586,1.7-.875,2.542.332.108.674.215,1.006.323C2155.884,565.351,2156.143,564.5,2156.408,563.64Zm25.318-40.656c-1.042.354-1.612.4-1.661.591a9.277,9.277,0,0,0-.261,1.9C2180.312,524.805,2180.83,524.142,2181.727,522.984Zm-41.958,68.12c.4.293.8.584,1.195.882.522-.854,1.046-1.7,1.557-2.555-.3-.2-.6-.406-.9-.612C2141,589.582,2140.387,590.339,2139.769,591.1Z" transform="translate(-2047.133 -453.282)" fill="#9b794e" fill-rule="evenodd"/>
  <path id="Path_1598" data-name="Path 1598" d="M2268.174,509.6c-2.449-4.715-6.4-4.408-10.44-3.807-13.054,1.939-26.234,3.284-39.13,5.983-13.295,2.778-26.184,7.216-37.713,14.768-9.355,6.126-17.72,13.521-26.008,20.974-2.532,2.267-5.009,4.593-7.628,6.741-10.8,8.843-17.162,20.835-23.478,32.863-2.5,4.766-4.729,9.685-7.15,14.5a64.816,64.816,0,0,0-7.106,34.842c.271,3.315,1.231,6.576,1.907,10.044-2.83,1.665-4.031.387-4.208-2.366-.74-11.225-.23-22.191,3.693-33.044,4.782-13.244,11.244-25.649,17.423-38.206,2.713-5.5,5.774-10.831,8.887-16.114.96-1.646,2.359-3.545,4.012-4.194,7.456-2.94,13.184-8.323,19.043-13.373,18.135-15.624,38.761-25.947,62.332-30.244,8.657-1.578,17.324-3.165,26.042-4.309a147.351,147.351,0,0,1,16.644-.868C2268.059,503.733,2268.722,505.048,2268.174,509.6Z" transform="translate(-1991.939 -434.601)" fill="#9b794e" fill-rule="evenodd"/>
  <path id="Path_1599" data-name="Path 1599" d="M2381.84,582.638c-1.2-.594-2.4-1.182-4.862-2.389.829,2.959,1.324,4.724,1.968,7.012-2.292-1.812-5.759,2.063-7.715-2.539-.4-.924-4.089-.286-6.2-.689-2.065-.4-4.36-.753-6-1.909-3.518-2.475-6.487-5.737-10.066-8.116-2.036-1.36-4.767-1.815-7.259-2.324s-4.738-.98-4.815-4.881c1.981-.8,4.051-2.08,6.276-2.457a36.113,36.113,0,0,1,22.746,3.149c5.58,2.769,11.205,5.338,14.561,10.921.742,1.245.863,2.867,1.261,4.321Z" transform="translate(-1682.76 -353.982)" fill="#9b794e" fill-rule="evenodd"/>
  <path id="Path_1600" data-name="Path 1600" d="M2102.083,601.574c-2.282-.757-2.415-2.774-2.611-4.76-.992-10.065,1.364-19.487,5.552-28.544,2.576-5.568,5.185-11.118,8.293-17.781-8.235.987-13.021,8.419-20.694,8.292-.986-2.794,1.159-3.62,2.49-4.947,1.248-1.243,2.311-2.672,4.213-4.9-3.091.483-5.1.795-7.106,1.109,6.025-2.459,9.6-9.655,17.781-9.6-1.452,5.686-6.659,7.32-8.879,12.185,7.526-3.425,14.1-7.026,19.786-12.954,2.074,4.3-.454,7.223-2.345,9.406-7.773,8.977-12.656,19.373-16.017,30.572a43.5,43.5,0,0,0-2.009,11.186C2100.457,594.351,2101.512,597.9,2102.083,601.574Z" transform="translate(-2011.719 -386.353)" fill="#9b794e" fill-rule="evenodd"/>
  <path id="Path_1601" data-name="Path 1601" d="M2102.981,556.943c.87-1.086,2.335-2.917,4.553-5.683.221,8.706,1,16.32.453,23.841-.6,8.269,1.249,15.838,4.184,23.3,1.426,3.618,3.267,7.069,5.193,11.178,4.154-5.622,1.95-11.228,3.161-16.644a26.789,26.789,0,0,1-.1,18.01,2.733,2.733,0,0,1-5.241.207c-5.611-12.4-11.126-24.77-10.252-38.984C2105.22,567.58,2103.8,562.882,2102.981,556.943Z" transform="translate(-1997.251 -370.773)" fill="#9b794e" fill-rule="evenodd"/>
  <path id="Path_1602" data-name="Path 1602" d="M2201.53,601.075a26.118,26.118,0,0,1,12.611,13.666c1.892,4.522,5.833,7.826,10.569,10.178,3.988,1.974,7.335,5.224,11.133,7.641,3.845,2.457,7.893,4.591,11.818,7.376-2.071-.462-4.329-.556-6.193-1.454-6.649-3.207-13.2-6.6-19.7-10.088-5.99-3.215-10.262-8.244-13.513-14.074-2.422-4.326-4.436-8.879-6.63-13.333Z" transform="translate(-1864.75 -303.915)" fill="#9b794e" fill-rule="evenodd"/>
  <path id="Path_1603" data-name="Path 1603" d="M2125.677,575.951c5.988.354,9.57,2.992,10.879,7a13.342,13.342,0,0,0,7.821,8.44c9.142,3.92,18.524,7.252,27.841,10.748,2.017.757,4.154,1.219,7.025,2.046-2.362,1.843-4.185,1.412-5.958.844-9.817-3.135-19.891-5.479-29.178-10.194a46,46,0,0,1-16.261-13.814C2126.971,579.845,2126.638,578.265,2125.677,575.951Z" transform="translate(-1966.736 -337.575)" fill="#9b794e" fill-rule="evenodd"/>
  <path id="Path_1604" data-name="Path 1604" d="M2135.866,571.852c1.88,2.018,3.8,4.011,5.641,6.068,3.8,4.253,8.133,7.641,14.369,8.156-.739,1.142-1.12,1.742-1.73,2.689,9.788,6.726,21.568,7.6,32.218,11.975-5.5-1.156-11.048-2.091-16.481-3.521-7.751-2.037-15.273-4.7-21.567-10.016a17.165,17.165,0,0,0-4.249-2.152c-6.705-2.919-13.427-5.793-19.933-9.277,6.876-3.282,10.385,4.8,16.411,4.931-1.57-3.081-3.068-6.014-4.566-8.947Z" transform="translate(-1968.81 -343.213)" fill="#9b794e" fill-rule="evenodd"/>
  <path id="Path_1605" data-name="Path 1605" d="M2286.668,614.792c4.6-1.559,8.864-1.749,13.207.542,3.063,1.618,6.352,3.542,10.624,1.895.609,2.776,2.421,4.412,5.371,5.088,5.612,1.3,11.155,2.883,16.719,4.384a6.427,6.427,0,0,1,3.018,1.641C2318.774,625.769,2302.02,622.953,2286.668,614.792Z" transform="translate(-1750.279 -286.934)" fill="#9b794e" fill-rule="evenodd"/>
  <path id="Path_1606" data-name="Path 1606" d="M2229.464,502.93c-1.037-2.07-1.781-3.538-2.522-5.008.234-.347.456-.7.69-1.048l8.275,2.659c-.91,4.035-3.753,4.415-6.079,5.186-8.675,2.853-17.376,1.78-26.044-.124a27.387,27.387,0,0,1-4.05-1.036c-8.753-3.421-17.156-2.056-25.448,1.651a13.513,13.513,0,0,1-5.52,1.029c4.694-4.2,10.435-5.174,16.35-5.934,8.983-1.153,17.373,2.023,25.986,3.4A47.593,47.593,0,0,0,2229.464,502.93Z" transform="translate(-1908.803 -443.896)" fill="#9b794e" fill-rule="evenodd"/>
  <path id="Path_1607" data-name="Path 1607" d="M2128.247,589.579c.863-2.846,1.594-5.249,2.41-7.945,1.865,4.555,1.332,9.458-1.767,14.435-1.533-2.349-2.982-4.363-4.208-6.5-6.549-11.359-7.937-24.425-12.007-36.607-.1-.3.64-.886,1.086-1.458,3.447.729,3.277,3.648,3.8,6.037,1.586,7.2,2.875,14.471,4.732,21.6C2123.249,582.832,2124.392,586.719,2128.247,589.579Z" transform="translate(-1984.23 -370.441)" fill="#9b794e" fill-rule="evenodd"/>
  <path id="Path_1608" data-name="Path 1608" d="M2220.684,504.889c-3.1-.223-5.229-.673-5.421-3.908a6.893,6.893,0,0,0-.878-2.2c-2.677-5.939-2.163-6.7,4.6-6.082,4.559.415,9.085,1.137,13.633,1.608,1.7.179,3.436.031,5.967.031-1.632-1.96-2.6-3.123-3.747-4.487a10.184,10.184,0,0,1,1.668-.879,2.189,2.189,0,0,1,1.172.115c2.526.8,5.438,1.73,5.03,4.935-.41,3.313-3.68,2.682-5.847,2.539-6.149-.4-12.256-1.205-18.393-1.815a14.107,14.107,0,0,0-2.4.19C2215.019,499.476,2220.39,500.587,2220.684,504.889Z" transform="translate(-1849.495 -454.579)" fill="#9b794e" fill-rule="evenodd"/>
  <path id="Path_1609" data-name="Path 1609" d="M2131.424,586.051c-3.665-3.711-4.631-8.546-5.477-13.34-.679-3.887-.784-7.875-1.379-11.781a71.25,71.25,0,0,0-2.007-7.422c3.532,1.585,5.569,2.994,5.239,6.358a39.322,39.322,0,0,0,4.234,21.307C2132.793,582.724,2133.909,584.44,2131.424,586.051Z" transform="translate(-1970.925 -367.752)" fill="#9b794e" fill-rule="evenodd"/>
  <path id="Path_1610" data-name="Path 1610" d="M2304.384,486.214c-16.583,4.851-32.979.063-49.473-1.458C2271.4,484.017,2287.791,488.507,2304.384,486.214Z" transform="translate(-1792.979 -460.3)" fill="#9b794e" fill-rule="evenodd"/>
  <path id="Path_1611" data-name="Path 1611" d="M2130.036,531.161c-2.46,11.481-9.368,21.429-12.743,32.929-.244-.938-.9-2-.662-2.8,1.253-4.171,2.536-8.366,4.184-12.4,2.5-6.133,5.309-12.14,7.991-18.2Z" transform="translate(-1978.968 -398.429)" fill="#9b794e" fill-rule="evenodd"/>
  <path id="Path_1612" data-name="Path 1612" d="M2200.725,497.113c-.661-.821-1.48-1.833-2.624-3.245,1.293-.551,2.155-1.278,2.96-1.21q11.341.936,22.648,2.131a22.881,22.881,0,0,1,6.522,1.721C2220.481,497.418,2210.743,492.656,2200.725,497.113Z" transform="translate(-1869.361 -449.569)" fill="#9b794e" fill-rule="evenodd"/>
  <path id="Path_1613" data-name="Path 1613" d="M2349.536,551.417c7.707-.141,12.405,3.791,15.64,9.716a4.988,4.988,0,0,1-.135,4.281c-.515.807-2.493.683-3.906.572,2.739-3.229,2.983-4.014.259-6.2C2357.729,556.835,2353.708,554.329,2349.536,551.417Z" transform="translate(-1665.754 -370.567)" fill="#9b794e" fill-rule="evenodd"/>
  <path id="Path_1614" data-name="Path 1614" d="M2238.9,484.612c10.594-1.055,21.24-.448,32.247-.42C2264.43,486.194,2246.4,486.762,2238.9,484.612Z" transform="translate(-1814.507 -461.214)" fill="#9b794e" fill-rule="evenodd"/>
  <path id="Path_1615" data-name="Path 1615" d="M2230,564.219a7.439,7.439,0,0,1,2.579.46c4.044,2.427,16.345,14.552,18.487,18.522-7.73-6.415-14.663-12.18-21.615-17.945C2229.635,564.906,2229.817,564.564,2230,564.219Z" transform="translate(-1827.208 -353.349)" fill="#9b794e" fill-rule="evenodd"/>
  <path id="Path_1616" data-name="Path 1616" d="M2248.474,615.49c4.972,1.015,6.1,1.573,12.524,6.3-2.807,3.953-6.663,3.451-15.628-2.647,4.093.949,7,1.627,9.9,2.3.062-.239.131-.478.2-.706q-3.443-2.676-6.9-5.35Z" transform="translate(-1805.806 -284.553)" fill="#9b794e" fill-rule="evenodd"/>
  <path id="Path_1617" data-name="Path 1617" d="M2201.813,598.08l-24.562-2.293c.125-.525.347-1.4.554-2.229q12.055,1.7,24.106,3.392C2201.878,597.325,2201.845,597.7,2201.813,598.08Z" transform="translate(-1897.393 -313.904)" fill="#9b794e" fill-rule="evenodd"/>
  <path id="Path_1618" data-name="Path 1618" d="M2169.418,572.458c-4.938-3.395-10.913-4.713-11.534-11.983.909.825,1.606,1.576,2.407,2.171,2.327,1.707,4.545,3.674,7.1,4.914C2169.445,568.552,2170.948,569.171,2169.418,572.458Z" transform="translate(-1923.433 -358.383)" fill="#9b794e" fill-rule="evenodd"/>
  <path id="Path_1619" data-name="Path 1619" d="M2199.5,577.438c-4.142-2.729-7.314-6.358-10.681-10.8,5.029,1.522,8.615,5.43,10.574,10.89Z" transform="translate(-1881.843 -350.099)" fill="#9b794e" fill-rule="evenodd"/>
  <path id="Path_1620" data-name="Path 1620" d="M2206.546,619.161c-4.969-1.927-8.063-5.378-8.911-10.663Q2202.093,613.83,2206.546,619.161Z" transform="translate(-1869.985 -293.815)" fill="#9b794e" fill-rule="evenodd"/>
  <path id="Path_1621" data-name="Path 1621" d="M2200.356,610.706c-3.138-.575-5.454-1-8.054-1.47C2197.117,605.923,2197.179,605.93,2200.356,610.706Z" transform="translate(-1877.157 -295.948)" fill="#9b794e" fill-rule="evenodd"/>
  <path id="Path_1622" data-name="Path 1622" d="M2361.958,598.892c3.542.466,7.1.924,10.633,1.388-3.718,1.219-7.335,1.442-10.783-.026C2361.853,599.8,2361.9,599.349,2361.958,598.892Z" transform="translate(-1649.254 -306.731)" fill="#9b794e" fill-rule="evenodd"/>
  <path id="Path_1623" data-name="Path 1623" d="M2296.475,479.777c-3.21.237-6.4.478-9.922.741C2288.162,478.319,2291.634,477.85,2296.475,479.777Z" transform="translate(-1750.437 -468.51)" fill="#9b794e" fill-rule="evenodd"/>
  <path id="Path_1624" data-name="Path 1624" d="M2111.872,564.64c-4.718-2.511-2.9-4.842-1.906-7.561C2114.2,558.922,2112.008,561.51,2111.872,564.64Z" transform="translate(-1989.458 -362.949)" fill="#9b794e" fill-rule="evenodd"/>
  <path id="Path_1625" data-name="Path 1625" d="M2179.346,604.967c3.233.6,6.476,1.215,9.7,1.822-.047.272-.091.546-.139.818q-4.871-.8-9.738-1.6C2179.227,605.661,2179.287,605.314,2179.346,604.967Z" transform="translate(-1894.809 -298.563)" fill="#9b794e" fill-rule="evenodd"/>
  <path id="Path_1626" data-name="Path 1626" d="M2232.311,615.99q3.98,1.688,7.967,3.367c-.2.4-.389.8-.591,1.2-2.849-.717-5.5-1.836-7.274-4.67Z" transform="translate(-1823.366 -283.885)" fill="#9b794e" fill-rule="evenodd"/>
  <path id="Path_1627" data-name="Path 1627" d="M2210.475,618.307l-7.265-3.132c.161-.387.321-.776.486-1.163,2.373,1.057,4.747,2.12,7.1,3.219A7.085,7.085,0,0,1,2210.475,618.307Z" transform="translate(-1862.491 -286.402)" fill="#9b794e" fill-rule="evenodd"/>
  <path id="Path_1628" data-name="Path 1628" d="M2209.927,588.633c-.5,2.685-.98,5.369-1.456,7.955-1.077-4.162-1.077-4.162,1.547-7.866Z" transform="translate(-1856.327 -320.524)" fill="#9b794e" fill-rule="evenodd"/>
  <path id="Path_1629" data-name="Path 1629" d="M2212.31,571.724q-4.367-1.284-8.739-2.569c4.08-.389,4.137-.366,8.642,2.67Z" transform="translate(-1862.005 -346.948)" fill="#9b794e" fill-rule="evenodd"/>
  <path id="Path_1630" data-name="Path 1630" d="M2321.98,626.7c-1.925-.246-3.847-.5-5.755-.741.05-.37.108-.734.168-1.1,1.9.337,3.806.67,5.709,1.013C2322.063,626.148,2322.016,626.417,2321.98,626.7Z" transform="translate(-1710.542 -271.822)" fill="#9b794e" fill-rule="evenodd"/>
  <path id="Path_1631" data-name="Path 1631" d="M2131.82,575.32q-2.292-2.722-4.593-5.449c.368-.251.715-.5,1.074-.762,2.441,1.266,3.447,3.446,3.406,6.3Z" transform="translate(-1964.651 -346.775)" fill="#9b794e" fill-rule="evenodd"/>
  <path id="Path_1632" data-name="Path 1632" d="M2188.311,606.688q2.99.591,5.992,1.179c-.063.382-.132.772-.2,1.154-2.008-.382-4.014-.771-6.024-1.154C2188.153,607.476,2188.231,607.082,2188.311,606.688Z" transform="translate(-1882.832 -296.249)" fill="#9b794e" fill-rule="evenodd"/>
  <path id="Path_1633" data-name="Path 1633" d="M2171.2,595.387H2165c-.008-.1-.013-.211-.025-.319h6.2C2171.19,595.176,2171.193,595.284,2171.2,595.387Z" transform="translate(-1913.897 -311.872)" fill="#9b794e" fill-rule="evenodd"/>
  <path id="Path_1634" data-name="Path 1634" d="M2170.351,594.552h5.637c0,.115,0,.237.009.354l-5.583.307C2170.39,594.991,2170.373,594.771,2170.351,594.552Z" transform="translate(-1906.671 -312.566)" fill="#9b794e" fill-rule="evenodd"/>
  <path id="Path_1635" data-name="Path 1635" d="M2057.884,547.893c1.254-.249,2.514-.495,3.771-.745.057.26.125.521.189.781l-3.69,1.095C2058.066,548.648,2057.975,548.268,2057.884,547.893Z" transform="translate(-2057.884 -376.303)" fill="#9b794e" fill-rule="evenodd"/>
  <path id="Path_1636" data-name="Path 1636" d="M2251.235,598.354c.558.957,1.114,1.915,1.677,2.872-.24.143-.472.288-.71.434-.635-.938-1.269-1.868-1.9-2.806C2250.614,598.689,2250.919,598.523,2251.235,598.354Z" transform="translate(-1799.181 -307.454)" fill="#9b794e" fill-rule="evenodd"/>
  <path id="Path_1637" data-name="Path 1637" d="M2168.19,563.018q.684,1.192,1.375,2.377c-.27.152-.534.312-.8.466-.477-.778-.948-1.559-1.429-2.34C2167.619,563.354,2167.908,563.185,2168.19,563.018Z" transform="translate(-1910.726 -354.964)" fill="#9b794e" fill-rule="evenodd"/>
  <path id="Path_1638" data-name="Path 1638" d="M2176.519,604.217c.719.351,1.438.7,2.162,1.062-.125.239-.243.483-.363.725q-1.07-.531-2.147-1.069C2176.29,604.7,2176.4,604.454,2176.519,604.217Z" transform="translate(-1898.846 -299.572)" fill="#9b794e" fill-rule="evenodd"/>
  <path id="Path_1639" data-name="Path 1639" d="M2171.683,603.732l4.762.211c-.091.41-.183.818-.283,1.226-1.462-.511-2.921-1.029-4.391-1.536Z" transform="translate(-1904.88 -300.357)" fill="#9b794e" fill-rule="evenodd"/>
  <path id="Path_1640" data-name="Path 1640" d="M2177.559,589.987q-1.269-.531-2.54-1.058.131-.33.257-.661,1.288.475,2.573.945C2177.754,589.471,2177.66,589.726,2177.559,589.987Z" transform="translate(-1900.394 -321.015)" fill="#9b794e" fill-rule="evenodd"/>
  <path id="Path_1641" data-name="Path 1641" d="M2243.036,571.383q2.24.345,4.487.692c-.15.427-.292.851-.442,1.283-1.315-.689-2.629-1.381-3.948-2.061Z" transform="translate(-1808.945 -343.834)" fill="#9b794e" fill-rule="evenodd"/>
  <path id="Path_1642" data-name="Path 1642" d="M2281.161,576.911c2.424.181,4.862.359,7.283.539.2-.5.4-1.008.6-1.51-3.919-3.151-7.921-6.2-11.727-9.486-3.836-3.317-7.467-6.874-11.191-10.325.3-.349.6-.7.907-1.048,2.033,1.693,4.042,3.425,6.119,5.066,4.994,3.948,10.031,7.845,15.042,11.772a28.256,28.256,0,0,1,4.156,3.4c1.273,1.465.394,4.213-1.386,4.216-3.42,0-7.33,1.146-9.722-2.72Z" transform="translate(-1777.9 -365.634)" fill="#9b794e" fill-rule="evenodd"/>
  <path id="Path_1643" data-name="Path 1643" d="M2271.81,565.785c-5.7-3.606-11.833-6.567-16.647-11.528,3.988-.143,5.669,3.6,8.72,5.081,3,1.451,5.678,3.566,8.5,5.392C2272.189,565.086,2272,565.432,2271.81,565.785Z" transform="translate(-1792.639 -366.75)" fill="#9b794e" fill-rule="evenodd"/>
  <path id="Path_1644" data-name="Path 1644" d="M2287.7,574.847c-.6.546-1.475,1.69-1.764,1.559-4.616-2.091-9.1-4.41-12.386-9.657,5.275,3.043,9.758,5.624,14.241,8.2Z" transform="translate(-1767.916 -349.948)" fill="#9b794e" fill-rule="evenodd"/>
  <path id="Path_1645" data-name="Path 1645" d="M2278.8,566.576c-4.17.872-4.358.808-10.853-3.878,4.274,1.589,7.514,2.792,10.766,3.985C2278.715,566.672,2278.8,566.576,2278.8,566.576Z" transform="translate(-1775.455 -355.394)" fill="#9b794e" fill-rule="evenodd"/>
  <path id="Path_1646" data-name="Path 1646" d="M2255.483,544.036c1.147.771,2.277,1.547,3.412,2.319-.485.4-.971.8-1.456,1.2q-.932-1.809-1.855-3.623Z" transform="translate(-1792.209 -380.624)" fill="#9b794e" fill-rule="evenodd"/>
  <path id="Path_1647" data-name="Path 1647" d="M2259.579,538.932c.669,1.21,1.336,2.424,2.008,3.634-.451.141-.908.279-1.362.415-.184-1.376-.37-2.755-.549-4.131Z" transform="translate(-1786.702 -387.458)" fill="#9b794e" fill-rule="evenodd"/>
  <path id="Path_1648" data-name="Path 1648" d="M2286.221,562.437c-.8,0-1.605.033-2.4-.045-.091-.012-.12-.649-.178-1,.851-.138,1.7-.27,2.548-.41C2286.2,561.468,2286.212,561.949,2286.221,562.437Z" transform="translate(-1754.352 -357.7)" fill="#9b794e" fill-rule="evenodd"/>
  <path id="Path_1649" data-name="Path 1649" d="M2278.173,544.179a6.686,6.686,0,0,1-.849-1.4,13.334,13.334,0,0,1-.031-2.68c.88,1.939,1.284,2.846,1.7,3.756Z" transform="translate(-1762.942 -385.784)" fill="#9b794e" fill-rule="evenodd"/>
  <path id="Path_1650" data-name="Path 1650" d="M2289.343,536.884c1.14,1.581,2.307,3.146,3.426,4.746,3.043,4.347,6.063,8.71,8.993,12.939-4.524-2.124-11.489-12.065-12.323-17.764Z" transform="translate(-1746.684 -390.209)" fill="#9b794e" fill-rule="evenodd"/>
  <path id="Path_1651" data-name="Path 1651" d="M2265.12,571.944c.815.364,1.626.732,2.436,1.093-.068.188-.131.37-.2.556-.841-.284-1.688-.567-2.537-.851Z" transform="translate(-1779.66 -342.963)" fill="#9b794e" fill-rule="evenodd"/>
</svg>
