<svg xmlns="http://www.w3.org/2000/svg" width="352.515" height="697.529" viewBox="0 0 352.515 697.529">
  <path id="Path_10612" data-name="Path 10612" d="M239.287,363.924c-2.11-24.423-10.44-37.952-14.681-43.39-7.583-13.247-35.432-34.153-37.533-35.449-12-7.393-31.069-13.662-32.115-29.493-.6-9.033.412-25.387,1.965-34.734,1.191-7.187,8.379-21.614,19.006-27.524,7.5-4.184,19.315-7.585,17.043-17.041-2.319-9.646-28.009-6.18-37.36-9.171a43.181,43.181,0,0,0,2.624-19.01c-6.541-5.693-20.759-3.712-30.806-5.9.5-9.032,6.49-16.695,12.454-22.283,4.563-15.126,12.055-24.238,12.45-42.6.022-2.42-2.426-2.377-3.278-3.929,3.4-11.792-11.019-21.289-15.07-33.426,4.769-.058,3.5,9,7.212,7.867.446-6.727-6.977-10-9.175-15.072-1.132-2.606-.61-4.307-1.968-6.556-1.67-2.748-4.88-4.909-5.9-7.863-2.031-5.873,1.593-14.48-5.9-18.351-4.371,4.371.769,18.246-4.587,21.625,5.3,2.083,1.2,10.348-1.309,13.11,1.254,7.751-.643,17.6-5.249,21.625.965,11.5-7.282,18.368-3.278,28.837-8.128,17.574,8.234,34.189,15.078,47.189-.2,4.576-.056,7.608-.656,10.486-13.671-2.674-25.045,2.426-35.389,5.24,1.96,4.867,3.111,9.229,5.238,15.076-13.547.229-26.576-.762-34.731,5.9-1.125,3.646.192,4.355,1.311,6.552,9.462,10.035,24.673,21.558,28.838,41.289,1.888,8.954,3.344,28.609,1.965,41.285-1.061,9.712-7.092,14.823-14.419,19.661C59.841,285.294,47.436,292.55,38.956,299.5c-8.683,7.12-18.31,19.73-25.562,29.493C3.838,341.865,1.673,353.533.293,372.9a114.61,114.61,0,0,0,0,16.385c1.489,19.371,3.111,34.379,2.616,51.775-.97,34.419,1.555,71.478,1.314,104.86-.148,19.708-.989,44.61,0,60.3.2,3.155-.259,7.721.653,11.143,1.691,6.295,7.989,10.455,11.8,15.728,5.907,8.171,10.615,18.041,19.01,24.248,9.26,7.281,28.124,5.683,43.9,6.752s116.671,1.536,123.87,1.769c13.413.428,17.772-7.587,21.63-17.04,5.484-21.924,6.018-49.945,6.018-49.937,0-.026.026-.779.818-24.97.946-13.065,3.212-51.9,5.08-93.136,1.155-8.322,2.315-41.745,2.018-51.122C239.261,422.007,242.144,389.839,239.287,363.924Zm-6.994-.192c-2.244,1.553-1.766-5.208-3.933-5.9.1-.771,1.2-.553,1.969-.658C230.924,360.536,232.018,361.284,232.293,363.732Zm-3.28-15.076c-3.686-2.644-5.689-6.983-7.861-11.141C224.392,340.6,227.638,343.695,229.013,348.656Zm-9.17-29.495c-3.387-.1-3.312-3.68-4.594-5.894C217.181,314.828,219.376,316.136,219.843,319.161Zm-8.523-9.825c-1.63.728-4.888-2.522-6.556-3.931C207.005,304.063,209.044,308.535,211.321,309.335Zm-7.216-.656c.713.16.451,1.3,1.315,1.309-.2.891-1.64.547-2.625.656-.215-1.532-.666-2.821-1.965-3.277C202.121,304.669,203.626,310.569,204.105,308.679Zm-3.274-5.244c-2.793.6-6.244-3.794-7.861-6.552C196.106,298.551,197.5,301.966,200.831,303.436Zm2.473,9.039c.092.029.184.063.271.091,2.052-.681,2.8-1.9,4.463.048a6.592,6.592,0,0,1-4.463-.048l-.124.048c-.047-.048-.1-.093-.147-.139-4.911-1.569-10.692-6.6-10.989-11.006C198.674,303.75,199.251,308.9,203.3,312.475Zm-36.553-30.012c-2.056.312-1.73-1.762-3.278-1.967C164.437,278.752,167.074,280.773,166.751,282.463Zm10.485,11.144c5.539,1.321,10.765,2.045,13.766,6.55A382.974,382.974,0,0,0,141.2,282.463C154.639,281.057,166.41,291.024,177.236,293.606Zm-46.526-21.627c2.546.194,5.181-1.7,7.2,0-.228.861-1.155,1.027-1.309,1.965-2.394-2.849-11.045.558-11.794-3.929,1.055-.981,3.287.564,5.9,0C129.918,270.871,130.448,271.039,130.711,271.979Zm3.925-9.831c.368-1.553,2.537-2.721,3.933-1.311C137.97,261.979,136.526,262.284,134.636,262.148Zm-1.965-6.556c2.753-.344,3.663,1.149,5.9,1.312C137.444,258.2,132.793,257.48,132.671,255.592Zm-4.587-5.9c.013-1.9,3.7-1.549,4.587-.657C132.391,250.505,129.447,249.307,128.084,249.7Zm2.626,7.208c-.6,1.372-1.939,2-3.935,1.968C126.128,256.172,129.468,255.742,130.711,256.9Zm-1.973-15.071V239.21c1.373-.279,1.741.449,2.625.654C130.794,240.821,130.845,242.4,128.738,241.833Zm0-6.557c2.315-3.771,9.706-4.589,14.423-3.933,2.157-.977-2.193-.77-1.309-2.622,2.924.352,5.926.622,5.894,3.936C141.279,231.724,133.594,232.693,128.738,235.277Zm4.589-15.073c.743-2.687,2.906-.157,5.242-.654C138.085,221.024,134.9,219.806,133.327,220.2Zm16.387-10.488c1.264,1.329,2.635,1.527,4.591.657a13.3,13.3,0,0,0-1.973,3.931c-2-.472-2.385.67-3.929.658C148.664,212.47,151.421,212.476,149.714,209.716Zm1.969,67.507c-.98,1.355-5.674.9-5.243-1.312C148.271,276.257,149.842,276.874,151.684,277.223Zm-7.212-19.011c.2-1.958,7.244-2.314,6.552.661A16.476,16.476,0,0,0,144.472,258.212Zm6.552-39.972c-2.682,1.249-1.572,6.289-4.583,7.208-.576-1.936.166-7.5,1.3-9.83C150.205,215.124,149.176,218.119,151.023,218.24Zm-8.52,15.726c2.268-.232,3.487-.765,5.242.657.128,2.969-6.09-.412-4.585,3.928-1.037.059-2.5-.312-2.622.659C139.056,237.9,143.782,237.25,142.5,233.967Zm33.424-46.533c-2.994.024-.034-2.3-.656-3.931-3.669.262-3.5,4.371-5.243,6.551-8.892,2.472-11.014,11.706-15.072,19.006-2.3-.978-6.774.218-5.9-3.931,2.061-.328,2.682,1.546,3.278-.651.5-2.467-3.479-.457-2.618-3.28,2.206-1.153,3.361.437,6.552,0-.263-3.635-5.443-3.3-7.863-2.621-3.632,1.01-2.74,4.7-5.243,5.243.4,2.007,3.137,1.665,3.929,3.278-1.089,1.751-4.521,1.155-5.894,2.618-.329,2.058,2.257,1.734.655,3.279-4.863-.5-6.577,2.166-9.83,3.276-1.828-3.465-.322-6.537-3.937-8.518h4.587c1.094-3.713-3.086-2.152-3.933-3.932.814-1.992,2.257.708,3.933,0,1.965-.432-.621-1.4,0-2.623a16.439,16.439,0,0,1,6.554-.656c-1.085-3.279-6.659-2.075-9.828-3.276,2.6-1.484,8.568-.721,10.485.655,2.206-4.625-5.838-4.637-9.829-5.242,3.8-2.7,9.246.209,13.759.655,1.247-3.649-2.486-2.318-2.616-4.587,3.062.255,2.174.4,5.245.651.657-1.969-1.465-1.158-2.629-1.309,5.168-1.009,22.777,4.916,24.25-5.239-4.627-1.709-10.357-2.315-16.379-2.621,6.005-2.843,18.051,1.9,25.553,2.621C175.823,183.4,177.484,187.024,175.927,187.434ZM136.6,174.983c1.046-1.837,2.949.919,5.247,0C141.288,176.336,137.288,175.677,136.6,174.983Zm13.763,9.175c1.649-2.223,9.9-1.094,11.145,1.309C158.66,186.566,154.03,184.376,150.368,184.159Zm33.427-9.175c-17.052-.529-34.1-2.687-52.432-3.932,2.031-1.47,12.4-.26,17.693-.656C158.66,172.52,173.341,171.911,183.794,174.983Zm-30.8-10.486c-.342,4-7.453,1.406-9.832,1.966C143.19,161.151,149.08,165.767,152.992,164.5Zm-7.211-15.071c-2.069.316-2.315-1.185-4.585-.66C141.352,147.819,146.586,147.244,145.781,149.427Zm-.655,2.62c-1.948,1.258-8,1.025-8.521-1.313A70.545,70.545,0,0,0,145.125,152.047Zm-11.8,9.171c-1.335,1.508-5.439.239-7.863.656C126.8,160.371,130.912,161.639,133.327,161.218Zm-8.516-30.8c-.888-.638-.848-2.207-1.969-2.617-.69-2.439,2.215-1.285,2.622-2.621.258-7.378,3.158-20.555,5.9-30.8C132.539,108.012,130.006,120.4,124.81,130.415Zm1.965-70.778c2.285,1.887.987,10.256-1.311,11.8C124.539,68.743,127.292,64.1,126.775,59.637Zm0,33.426c-.306,2.314-1.657,3.586-2.62,5.242-.647-1.551-.551-5.225.656-7.865C126.156,90.625,126.119,92.189,126.775,93.063Zm-4.585-7.211c-1.484-2.594,1.623-6.219,2.62-8.522C126.211,79.851,122.658,83.028,122.191,85.853ZM129.4,81.92c1.956,1.386,1.781,6.371-.66,7.865A27.615,27.615,0,0,1,129.4,81.92ZM118.912,7.862c3.195.4-.056,3.825.655,5.9C117.823,12.237,118.519,10.235,118.912,7.862ZM109.076,108.79c-2.052-.352-2.355-2.444-2.614-4.589C109.578,103.489,109.136,106.335,109.076,108.79Zm6.558,11.142c-5.748-5.387-3.955-18.327-7.207-26.215-2.283.843-1.657,5.605-1.315,7.209-4.512-1.364-2.768-4.02-3.278-7.209-.3-2.7,1.653.512,2.629-1.309,4.07-8.632,5.392-22.1,7.208-28.837-4.764,1.351-3.912,8.321-6.558,11.794,2.116,2.378,2.633,6.822-1.309,7.866-1.886-9.342,3.321-16.6,3.933-25.56,1.068,1.118,1.081,3.287,2.625,3.93,1.783-4.764,2.68-10.423,5.239-14.418-4.888-9.256,1.435-19.617,1.968-29.49,13.2,6.031,10.306,28.14,21.629,36.048,2.219,6.733,2.669,15.241,6.549,20.314-1.473,6.06.487,10.562.658,16.386-6.674,5.643-5.3,15.956-9.178,23.6-2.651-.908-2.069,1.421-3.93,1.307.224-1.313-.134-2.049-1.311-1.968-.1-1.849,1.973-1.526,1.969-3.274-.613-19.732,2.511-35.569-5.9-51.119,4.621-7.923-4.271-15.176-3.278-25.557-3.254-.38-2.62,12.044-1.965,16.379.278,1.857,1.091,4.466,2.618,4.589-1.339.622-1.813,2.114-2.618,3.277,2.96,14.859-9,25.6-7.867,38.67.263,3,2.686,5.992,2.624,9.176C119.476,110,116.619,115.308,115.634,119.932Zm5.243-19.006c-2.449-1.249-1.514-5.619-1.309-7.862C121.622,94.063,120.655,98.085,120.877,100.926ZM103.184,152.7c2.582-.832,1.7,1.794,2.618,2.622,6.191-.125,12.86-2.6,19.008-.659-2.253,1.685-8.13-.261-10.487,1.315V158.6c.41,1.554,4.034-.1,4.589,1.308.5,2.468-3.483.455-2.62,3.28.905,1.493,4.555.245,6.549.654-6.921,1.855-21.517.143-28.18-2.623.35-1.592,1.67-4.294-1.313-4.587C95.23,152.912,103.184,157.255,103.184,152.7ZM86.137,177.6c8.484-2.59,22.715-1.324,31.462,0C107.368,177.843,98.363,178.927,86.137,177.6Zm12.454,5.9c-5.826.338-13.12-.507-17.037,0C86.5,182.333,96.031,179.282,98.591,183.5Zm-.654-13.766c-11.521-.089-20.544.919-30.8-.65C74.684,167.483,90.56,166.359,97.938,169.737ZM71.722,182.191c1.615-.91,4.664-2.725,6.554-1.311C76.733,183.182,74.894,182.642,71.722,182.191Zm11.145,16.385c2.687.069,5.343.1,6.547-1.311-2.163-3.4-7.331-.928-11.139-.656.566-2.714,7.028.47,6.552-3.275.113-1.42-2.319-.3-3.274-.655-.423-1.618,4.566-.12,5.9-1.306-.229-.868-1.151-1.039-1.314-1.974H79.59c-4.617,1.591,2.819-2.584,4.587-.651,1.6-.074.143-2.169-.653-1.966,5.3-2.141,14.848-1.985,20.966-1.313.892,4.139,3.85,6.2,9.18,5.905.6,2.779-1.574,2.79-3.934,2.615a6.963,6.963,0,0,0,7.208,3.933c1.435.646-2.718,1.15-3.93,1.309,1.653,1.406,2.832,3.287,6.554,2.625-.226,2.618-5.377.3-6.554,1.965-.3,2.048,1.4,2.094,3.278,1.966.773,4.063-.662,3.728,0,6.554-7.873,2.033-8.725,2.815-16.387,0-.207-1.739,3.675.611,2.624-1.967,2.057.775,3.466,2.213,5.9,2.622-1.881-4.678-8.41-4.7-10.49-9.175.972-1.348,2.535,2.227,4.591,1.966,1.089-2.21-3.694-4.158-5.246-5.9,1.563-6.444-3.186-5.661-3.274-12.454-2.915-.5-2.646,2.173-3.934,3.281,3.829,6.659.368,15.292.656,20.968-2.925.741.4-4.766-3.28-3.273C90.1,204.018,84.416,202.194,82.868,198.577ZM111.7,253.628c2.836.19,1.865,3.469-.655,3.277C110.778,255.328,112.243,255.481,111.7,253.628Zm-6.547-1.967c2.3-1.843,6.406-1.893,8.517-3.932C113.495,251.707,108.835,251.2,105.153,251.661ZM89.415,293.606c6.936-3.559,10.624-4.058,19.661-3.929-.666.854-.636,2.412-1.309,3.273C102.279,291.041,92.424,295.386,89.415,293.606Zm17.7,1.965c-1.192,4.485-8.9,2.46-13.1,3.93C96.048,296.293,102.1,293.625,107.112,295.572ZM36.989,361.766c-.957-4.681,6.163-6.938,9.829-9.177C46.674,356.17,39.737,358.605,36.989,361.766Zm5.9.653c-1.488,2.442-2.526,5.333-5.9,5.9C38.715,366.115,39.821,363.281,42.885,362.419Zm-9.172-13.763c.021-4.136,5.057-8.917,10.487-9.831-1.294,1.627.558,3.338,2.618,1.966C42.394,343.362,37.318,345.269,33.713,348.656Zm18.348-29.495c-2.061-.31-2.561.938-3.933,1.318-.417-1.1,3.837-3.133,4.589-5.244C53.921,316.626,51.786,317.674,52.062,319.161Zm-12.45,2.625c3.47-.434,4.35-4.555,9.176-5.238C47.427,319.239,41.51,323.959,39.612,321.786Zm5.238-8.519c1.456-1.826,3.654-2.9,5.247-4.587C52.384,309.3,47.733,313.523,44.85,313.267Zm-7.861,0c1.86-4.7,6.7-6.411,10.489-9.176C49.422,307.449,40.18,310.7,36.989,313.267Zm1.967,12.449c1.636.848-.692,3.18-2.618,2.626C35.849,326.108,38.749,327.256,38.956,325.716Zm-1.314,10.491c1.728,2.717-2.96,3.787-4.582,5.239C34.885,340,35.323,337.163,37.642,336.208Zm-3.929,18.348a4.3,4.3,0,0,1,.651-3.276C35.8,351.857,36.372,354.937,33.713,354.556ZM44.85,336.208c3.291-5.238,9.868-7.179,15.732-9.834,1.666,2.125-3.756,3.638-6.556,5.246C51.111,333.293,47.97,336.247,44.85,336.208Zm3.938-10.491c.713-3.006,6.127-6.965,11.794-7.207C58.622,322.885,52.841,323.44,48.788,325.716Zm10.481-9.169c4.1-6.391,10.481-10.5,19.666-11.8C72.235,308.537,67.338,314.125,59.268,316.547Zm-4.583-7.868C60.249,304.2,67.9,301.8,74.343,298.192,71.932,300.634,61.8,306.581,54.686,308.679Zm22.284-5.9c4.087-2.295,7.658-5.371,16.379-5.9C89.678,300.638,83.493,301.88,76.97,302.784ZM75,299.5c3.622-3.37,8.348-5.642,13.11-7.862C88.255,296.166,80.335,298.276,75,299.5Zm19.013-11.794v-1.964c-2.862-.2-2.919,1.936-5.243.653,4.876-3.247,14.968-1.2,20.97-2.624C105.679,286.27,99.668,286.814,94.009,287.707Zm5.242-61.6c-7.329,2.288-5.255-6.2-12.45-5.9C89.24,218.744,97.6,222.428,99.251,226.1ZM86.137,214.3c2.827-.2,5.294-.049,5.247,2.622C90.284,215.407,85.516,217.555,86.137,214.3Zm7.211,13.107c.213,1.739-4.542,1.229-4.583-.653C90.618,227.794,91.546,226,93.348,227.411Zm10.485,6.555c-4.788,2.327-12.708.1-15.728-3.275C93.5,230.874,99,231.687,103.834,233.967Zm8.527-5.245c-.621,2.014-7.32.891-7.871-1.31C107.584,227.38,109.46,228.565,112.361,228.721Zm-1.315-13.1c.909-1.495,4.564-.244,6.554-.655C116.051,215.768,112.668,216.913,111.045,215.618Zm-4.583,49.15c-.809,2.563-3.854-.042-6.558,1.316C101.641,263.978,104.543,265.579,106.462,264.768ZM96.626,249.04c2.371-1.322,3.171.066,5.247.657C101.378,251.249,96.1,252.086,96.626,249.04Zm-3.278-7.863c3.365-1.319,5.26.223,8.525.656C101.47,244.7,92.9,244.956,93.348,241.177Zm10.485,19.66c-1.134,1.116-1.713-.1-3.929.656-.2-1.512,1.894-.728,1.969-1.968C102.73,259.758,102.9,260.679,103.834,260.837Zm-2.618-5.9c-2.1,2.636-5.777-.3-8.518,1.308C94.775,253.28,97.795,253.311,101.216,254.939Zm0,26.87c-2.266,1.561-2.87.937-6.554,1.311C95.459,281.3,98.687,281.9,101.216,281.809Zm-7.207-31.453c-.948,1.531-3.9-.423-5.243-.659C90.459,246.092,91.3,251.033,94.009,250.356Zm0,20.311c-.681.907-2.657,3.118.653,2.624-1.358,2.415-3.835-.1-4.587-1.97C92.076,271.8,92,270.192,94.009,270.667ZM105.8,281.809c-.237-2.2,2.84-1.093,3.933-1.967C109.8,281.873,107.755,281.794,105.8,281.809Zm-1.969-3.936c1.5-.681,2.328-2.042,4.593-1.962-.7-.612-.209-2.417-1.965-1.967.658-1.084,2.783-.708,3.925-1.311a4.266,4.266,0,0,1,.658,3.278C108.891,276.646,106.1,279.326,103.834,277.873Zm8.527-57.669c.908-1.5,4.557-.245,6.552-.654C118,221.042,114.349,219.791,112.361,220.2ZM92.04,281.155c-2.537-.89-1.685-1.886,1.309-1.968.143,1.12-1.117,1.7,0,1.968-2.157,1.777-5.714,2.15-9.172,2.617C85.291,281.4,90.028,282.638,92.04,281.155Zm-7.212-11.14c-.9,2.152-2.336,3.775-5.238,3.929A10.735,10.735,0,0,1,84.828,270.016Zm-.651,17.692c-.4.612-1.522,2.417.651,1.971-.228.854-1.147,1.027-1.3,1.962-.514-.661-.414-1.636-1.969-2.624-1.151.6-1.2,2.3-1.964,3.276-4.935.607-11.451,10.374-14.423,4.592C72.248,294.569,75.878,288.8,84.176,287.707Zm-30.8,14.416c2.274-1.435,4.322-3.1,7.207-3.931C58.84,299.927,55.412,302.8,53.375,302.123Zm0-6.551c-1.856,2.51-3.79,4.952-7.211,5.9A16.767,16.767,0,0,1,53.375,295.572Zm-8.525,2.62c-.963,2.76-5.467,7.63-9.167,9.83C34.081,305.227,42.936,301.817,44.85,298.192Zm-8.512,23.594c1.685.158-.905,1.13,0,2.619-3.654-.368-4.6,1.966-6.56,3.279C28.868,325.224,34.548,323.734,36.338,321.786Zm-5.247,7.865c2.761,1.366-2.161,4.273-4.589,4.586C26.912,331.591,30.448,332.068,31.091,329.651Zm-2.625,11.14c-.583-2.768.673-3.7,1.969-4.583C31.858,337.246,31.471,342,28.466,340.791Zm-5.243-14.417c1.136.755-1.663,3.1-2.618,3.932C19.162,329.24,22.585,327.52,23.224,326.374Zm0,11.8c.2,1.743-3.694,5.027-6.551,5.9C18.353,341.6,20.856,339.95,23.224,338.172Zm3.278,2.618c1.6,2.771-3.69,3.517-5.9,4.588-3.9,2.44-4.993,7.676-9.176,9.831C13.71,347.661,20.476,344.6,26.5,340.791Zm.656,1.967c1.618,6.022-7.321,12.158-9.83,18.352-2.248-1.923-2.849,2-5.9,1.31C17.39,355.334,23.574,351.161,27.158,342.757ZM8.805,346.036c.827.446-.25,4.509-1.309,5.244C5.807,349.965,8.171,347.189,8.805,346.036Zm5.247,19c.634.021.506.807.655,1.311,3.27-4.946,9.042-12.1,13.106-18.348-2.362,11.619-13.994,19.646-20.968,28.835C6.533,372.8,12.713,369.611,14.052,365.039Zm11.8-8.518c-.384,4.647-6.577,9.144-8.521,14.419-.529-.453-1.794-1.018-1.965,0C16.611,366.5,23.241,361.785,25.848,356.521ZM8.805,383.394c.451,2.2-1.1,2.4-2.614,2.618C6.958,385.04,6.753,383.084,8.805,383.394Zm3.282,42.6c-2.406-1.475-3.54-7.158-3.282-9.173,2.4,0,.965,3.843,3.933,3.273C12.3,423.246,11.338,422.459,12.087,425.99Zm5.241,18.352c-4.463-3.4-7.207-8.524-9.172-14.418C11.737,434.2,16.681,437.123,17.328,444.342ZM8.156,527.573c7.681,2.937,15.482,8.052,22.279,9.833-1.222-5.548-9.614-3.931-11.145-9.177-2.063-.322-2.313,1.182-4.583.657.513-4.227-4.367-3.067-3.933-7.211,3.342,1.026,3.771,4.972,7.863,5.242.384-3.439-3.107-3.009-3.93-5.242,6.8,1.289,8.328,13.513,20.317,11.8-2.59-3.143-6.97-2.784-9.832-5.245-2.332-2.007-3.141-5.139-5.247-7.208,5.306,2.559,9.142,6.588,16.392,7.208a27.406,27.406,0,0,1,1.3,7.863c-9.4,1.087-12.83,8.145-25.555,5.9-1.725-1.771-1.3-5.687-1.313-9.174a3.207,3.207,0,0,0,3.933,0C14.4,529.189,8.1,531.551,8.156,527.573Zm9.172-37.354c-.957-.94-2.078-.5-1.965,1.306-3.212-2.114-5.159-5.746-7.207-10.483C11.079,484.233,15.211,486.214,17.328,490.219ZM7.5,477.111c-.084-1.178.8-1.383.66-2.623,2.769.068,3.912,1.764,4.582,3.934C10.236,478.737,8.555,478.234,7.5,477.111Zm6.556-9.178a5.969,5.969,0,0,1-3.278-4.587C12.051,464.6,15.376,466.13,14.052,467.933Zm5.238,34.082c-4.171,1.32-8.044-3.3-8.516-7.864C16.55,493.834,15.98,499.869,19.29,502.015Zm15.074,7.209c.109-.762-.141-1.168-.651-1.311.288-.974.835.256,1.969,0,.354-1.453-1.256-.934-1.318-1.967-.192-1.727,1.373-1.691,2.625-1.965C36.912,506.523,37.782,510.016,34.365,509.224Zm1.973,7.208c-2.248.277-1.973-1.961-3.278-2.621C33.34,512.939,37.331,513.854,36.338,516.432Zm-2.625-16.384c.231-.862,1.151-1.031,1.311-1.962,1.843-.1,1.888,1.6,1.965,3.273C35.358,501.462,34.961,500.328,33.713,500.048Zm-9.829-10.485c.117-1.43-.542-2.086-1.969-1.968,1.552-.85,3.712-1.092,5.243-1.965,2.376,3.739,6.436,5.8,9.832,8.522C32.425,493.017,27.32,489.725,23.884,489.563Zm-2.625-10.49c1.326-.633,3.885,3.091,5.9,3.934C25.63,483.853,22.487,480.713,21.259,479.073Zm2.625,6.556c-2.407,0-5.063.257-4.594-2.622C20.672,485.384,23.376,482.379,23.884,485.629ZM19.29,496.117c4.051.319,4.318,4.419,8.523,4.588a14.241,14.241,0,0,0,.653,5.9c-4.124-1.824-3.84-6.229-9.829-7.209C18.1,497.542,19.562,497.7,19.29,496.117Zm10.487,17.694c-4.326-2.659-10.966-3.013-10.487-10.487C22.912,506.7,29.393,507.207,29.778,513.811Zm-13.105-9.174c.012,2.825.638,5.037,2.618,5.9-2.364.811-5.558-3.165-6.552-5.9Zm3.273,6.55c6.118,4.595,15.395,6.026,17.043,15.076-9.215-1.493-14.79-6.623-19-13.107C19.412,513.274,20.068,512.62,19.946,511.187ZM36.338,481.7c.2-.894,1.636-.545,2.618-.658.276,1.372-.448,1.737-.658,2.623C37.064,483.588,37.848,481.5,36.338,481.7Zm1.3-17.7c-6.569-.2-7.895-5.649-13.759-6.555.542,8.7,10.857,12.756,9.176,26.871.924,2.13,4.358,1.757,3.929,5.242-2.016.837-3.846-3.363-6.554-3.933A4.654,4.654,0,0,1,32.4,484.32c-5.527-4.525-12.87-7.224-15.072-15.074,3.891,2.011,5.243,6.551,11.139,6.551-5.1-3.628-8.642-8.829-13.759-12.452,5.068-4.237,5.531,5.83,11.141,5.245-.664-2.188-5.251-6.1-7.863-8.521.547-1.415,1.693-2.232,1.3-4.588-.549-.972-2.11-.944-3.274-1.307-2.569,1.157,3.224,2.768.656,3.931-2.144-1.467-7.97-4.62-7.867-10.488,2.182,7.027,14.015,5.045,20.972,9.176-1.548-5.223-10.961-2.58-10.487-9.832,5.415,3.327,10.208,7.269,18.352,7.867ZM26.5,445.653c1.377.807,2.558,1.811,3.933,2.62C29.438,449.651,26.361,447.582,26.5,445.653Zm-1.309-11.141c.98-1.558,8.171.633,7.867,4.587C30.361,437.644,28.225,435.627,25.193,434.512Zm3.274,4.587c-1.051,1.893-2.447.792-3.927,0C25.064,436.682,27.232,438.557,28.466,439.1Zm-3.274,6.553c-1.48,3.236-4.433-.5-4.587-2.62C23.3,442.734,23.061,445.377,25.193,445.653ZM14.708,430.577c2.428-.662,4.743,4.425,7.863,5.243C18.848,437.78,16.843,432.389,14.708,430.577ZM11.43,443.685c-1.657-2.392-6.319-4.568-3.274-7.865C9.32,438.429,12.927,440.4,11.43,443.685Zm-2.625,9.179a12.344,12.344,0,0,0,1.969,3.931c-1.16,2.15-2.657-.764-3.278-1.313-2.552,1.765,2.031,1.843,1.309,3.931-1.221.627-2.189-1.961-2.614,0a57.33,57.33,0,0,1-1.316-10.483c2.383-.2.878,3.493,1.969,4.585A3.051,3.051,0,0,1,8.805,452.863Zm-3.929,8.517c4.356,1.988,5.1,7.57,7.863,11.142-2.447.463-6.022-3.578-5.242-8.518-1.843-.093-1.89,1.6-1.969,3.276C4.048,466.583,5.278,463.16,4.876,461.381ZM4.223,469.9c1.379-1.967,2.372,1.941,1.969,3.935C3.208,474.152,5.115,470.056,4.223,469.9Zm1.3,23.592c2.8,2.658,4.341,6.588,7.211,9.176C10.445,502.457,5.115,496.445,5.527,493.493Zm.664,8.523c2.176,3.026,3.72,6.69,8.516,8.521-.564.529-.389,1.792-1.313,1.966,2.026,2.56,4.918,4.256,5.9,7.862-4.928.147-9.441-7.882-9.825-12.452C7.379,507.958,5.408,506.486,6.192,502.015Zm0,11.8c1.533.207,1.462,2.029,2.614,2.621.2,2.048-1.892-1.668-1.96.655C5.418,517.2,6.541,514.762,6.192,513.811Zm1.3,79.955c1.5.546,1.794,4.027.66,5.244C6.674,598.521,7.9,595.331,7.5,593.766ZM6.845,580c1.694.924,3.124,2.118,2.62,5.244C7.15,584.933,7.313,582.162,6.845,580ZM8.156,601.63c.683,1.5,2.044,2.323,1.96,4.589C8.431,605.72,7.842,604.129,8.156,601.63Zm1.309,5.243c1.034,1.151.876,3.5,1.309,5.244C9.211,611.483,8.231,608.3,9.465,606.874Zm8.521,19.662c3.733,3.253,7.286,6.693,9.827,11.141C21.092,636.574,20.125,630.712,17.986,626.536Zm-.658-10.484H19.29c.389,3.76,3.124,5.178,3.933,8.518C19.92,623.067,17.352,620.832,17.328,616.052Zm8.521,10.484c3-6.925-4.121-9.367-2.625-15.075-6.018-1.474-9.413-6.43-10.485-14.421,3.186.973,3.1,5.2,5.9,6.556,1.51-1.858-.718-4.063.653-6.556-2.08-4.468-8.275-4.824-7.861-11.793,3.161.329,1.364,1.547,3.933,0-.218,2.928-1.151,5.174,1.309,6.555,1.488-.7-1.882-1.989-1.309-3.932,2.977.7,4.333,5.9,7.861,3.932-3.86-4.872-8.35-9.122-10.485-15.731,2.958-.551,3.274,1.531,5.247,1.967.861-.231,1.032-1.156,1.96-1.31-2.736-1.631-4.655-4-9.172-5.244-.662-1.971,1.461-1.162,2.62-1.313-1.189-2.307-3.186-3.8-3.929-6.55,1.514-1.328,2.8,1.565,5.243,1.309-1.356,2.916,2.635,5.487,4.583,7.208,2.024.49,1.26-1.8,3.28-1.311,1.226,2.271,3.839,3.151,7.207,3.277-1.339-3.463-5.431-4.179-7.207-7.207-2.932.043-.835,1.5-1.965,2.621-4.117-1.781-4.484-7.314-9.176-8.52,9.646-2.816,13.451,8.442,20.97,7.863.88-3.5-2.526-2.716-4.587-3.276-3.084-4.778-8.533-7.194-12.45-11.143,5.541-.51,9.371,6.348,17.037,5.9-3.169-5.251-15.365-4.569-14.414-11.8-1.886-.137-3.332.166-3.933,1.316-2.259-.809-1.677-4.444-3.936-5.246-.786,1.256,2.605,3.926,2.622,6.555-2.42-.351-5.26-.372-5.894-3.934,2.328-1.017.393,2.225,1.96,1.968,1.911-2.6-2.968-4-1.96-7.865,7.391,6.126,18.147,7.632,31.453,7.207-.967,10.642-.568,24.829,1.969,34.08-2.915,17.1-4.525,32.625-6.554,46.53-2.035.066-3.131-.8-4.587-1.309v-3.933C26.3,623.055,28.313,627.034,25.848,626.536ZM9.465,554.443c3.716.349,6.285.349,7.863,3.933C15.12,559.251,9.535,557.883,9.465,554.443Zm32.767,53.738c3.462,1.44-.3,2.621,1.309,5.9C40.291,613.611,42.4,610.757,42.232,608.182Zm7.211,13.109c-.459,2.02-.459,1.262,0,3.279-4.179-.717-5.018-7.229-9.831-5.242-.284-1.25-1.41-1.649-1.314-3.276.929.053,1.856.109,1.969-.659A13.3,13.3,0,0,0,49.443,621.29Zm-5.243,11.8c-.059-1.037.312-2.5-.66-2.621,3.129-1.583,7.417,1.307,7.867,4.585C48.2,635.2,47.291,633.059,44.2,633.091Zm3.928,7.861c-1.077.606-5.676-.848-5.243-3.93C46.368,636.595,46,640.026,48.128,640.952ZM44.85,625.224c2.381.681,3.946,2.172,5.9,3.279C49.029,629.753,45.492,627.237,44.85,625.224Zm-8.512,15.727c-.166.715-1.3.447-1.313,1.313-.769-.985-1.894-1.6-1.965-3.281C34.418,639.371,35.174,640.365,36.338,640.952Zm-5.247,5.9c1.26-.789,5.133,1.389,5.9,3.275C33.893,650.164,33.16,647.839,31.091,646.854Zm5.9-24.907c1.542.21,1.467,2.031,2.622,2.622C38.448,626.52,36.116,624.191,36.989,621.948Zm2.622,11.143c1.431.094,1.409,1.651,1.309,3.271C39.586,635.888,38.243,634.4,39.612,633.091Zm2.62,19.659c1.222-1.175,3.932,1.714,5.9,1.966C46.7,656.109,43.611,653.589,42.232,652.75Zm-1.311-7.211c2.24-2.921,9.065.41,9.832,3.281C46.722,648.477,44.087,646.745,40.921,645.538Zm8.523-4.586c1.418-1.583,3.825,1.381,5.9,1.313C53.851,643.919,51,641.4,49.443,640.952Zm9.825,12.455c-.2-2.791,3.5-.668,4.589-.657C63.115,653.38,59.531,654.462,59.268,653.406Zm5.9-2.623c2.1-2.909,6.436-.367,7.87,1.311C71.977,652.682,66.275,652.329,65.167,650.783ZM75,654.716c5.044.859,9.328,2.475,13.77,3.929C83.656,659.68,77.762,656.668,75,654.716Zm65.542-11.141c-1.414-1.266,5.012-.629,5.9,0C145.2,646.73,143.75,642.388,140.538,643.575Zm2.622,5.9c-17.154-.35-28.829-2.889-43.256-3.276,4.755-2.805,12.006-2.432,17.695-.659C123.762,642.542,136.376,646.9,143.16,649.474ZM111.7,637.022c8.756-2.983,21.938-1.189,30.8,1.963C133.7,638.651,122.316,636.229,111.7,637.022Zm22.935,5.243c-11.777-.639-32.049.945-42.6,1.966,1.113-2.166,4.113-2.441,6.552-3.28C109.5,643.488,122.829,636.813,134.636,642.265ZM94.009,654.716c-1.41-1.215-4.8-.443-7.208-.655C87.589,650.025,93.033,652.011,94.009,654.716Zm-3.278,2.623a12.3,12.3,0,0,0,5.243.656c-2.035-3.827,6.184-1.187,9.18-1.97-.117,1.642,1,2.053,1.959,2.62C104.188,658.022,93.133,661.688,90.73,657.339Zm15.072-.658c1.119-1.408,5.469-1.915,7.211-.656C111.571,657.114,107.65,658.051,105.8,656.681ZM94.662,652.75a51.89,51.89,0,0,1,22.282-3.276c6.511.509-3.316.759-7.867,1.966-.434,2.841,3.05,1.765,5.247,1.967C111.522,654.586,98.788,654.594,94.662,652.75Zm65.538,4.589c-13.577,1.007-31.643,1.14-43.256-1.967-.626-2.372,2.831-.666,3.274-1.965-.588-2.208-1.459-.08-2.618-1.312.012-1.955,4.858.925,3.931-1.965,10.974,2.133,31.144.436,41.943,3.932-3.353,3.122-10.761-.427-14.419,1.311C150.786,657.072,166.23,656.294,160.2,657.339Zm-12.454-13.107c7.22-.224,9.973,4.011,15.728,5.242C158.948,649.623,150.156,648.375,147.745,644.231Zm8.521,1.307c1.664-1.19,6.03.5,6.552,2.624C161.1,646.832,157.993,646.871,156.266,645.538Zm32.111,17.7c2.565-1.4,4.839-.965,7.867-.653C195.768,664.816,189.838,664.057,188.377,663.235Zm-1.3-5.9c1.142-1.036,3.492-.873,5.242-1.314C191.576,658.555,189.112,657.4,187.073,657.339Zm13.106-1.314c-.4-2.581,3.6-.77,5.242-1.309C204.752,656.231,202.407,656.072,200.178,656.025Zm9.834-4.585c.417-.666,1.5-.676,1.309-1.966h1.311c-.122.56.25.62.653.656C212.807,651.461,211.308,652.806,210.012,651.44Zm3.929,6.555c-.075-2.479,1.279-3.524,3.274-3.933C217.293,656.537,215.933,657.586,213.941,657.994Zm7.212-91.1c-.748,30.363-1.164,55.411-5.9,77.334-2.372.627-.666-2.83-1.965-3.28a49.6,49.6,0,0,0-6.556,9.178c-15.553,4.354-29.972-.421-41.943-5.244-15.723-6.33-27.757-13-49.152-12.453-15.725.408-29.042,9.584-44.565,10.486-3.842.224-9.761-1.1-11.8-2.621-5.084-3.8-3.4-9.393-4.583-15.073-.41-1.942-2.486-3.335-3.278-5.9-2.052-6.641-.748-23.939,1.967-28.177-.019,2.133,1.57,4.429,3.276,6.548,2-.476,2.389.67,3.931.658,14.983,15.568,41.4,19.491,67.5,16.381,12.646-1.5,24.624-8.835,38.018-5.245,8.544,8.714,22.424,12.089,30.142,21.628,2.516-2.069,6.089-3.089,7.207-6.552-6.1-7.875-18.514-9.451-26.215-15.727-7.235-11.771-10.513-36.707,9.836-36.7,4.145,3.505,9.142,4.983,12.446,7.864-7.086,1.842-10.727-5.431-17.688-5.9-1.548,3.1,4.788,3.331,7.207,4.592,1.017,2.322-2.227.39-1.965,1.964,4.121,3.058,8.388.07,13.106,1.309,4.6,1.212,10.289,8.448,15.072,2.621-1.046-1.839-2.953.92-5.238,0a1.8,1.8,0,0,0-1.314-1.965c1-2.873,5.2.988,7.208-1.314-1.627-3.258-7.885-.758-11.8-.651-2.11-1.815-4.438-3.424-5.239-6.556,5.132-1.018,9.072,5.237,13.766,1.966-4.634-2.262-10.646-3.839-15.73-5.9,4.4-3.142,9.219.2,15.07.656.316-2.523,3.641-2.041,4.587-3.93-6.509,1.951-13.737-.89-19.657-5.9,1.727-1.689,3.968,1.679,6.549,1.309.963-.568,2.08-.98,1.969-2.618-1.845-.878-4.087.061-6.554-1.313-.241-1.115.51-1.235,1.312-1.309-3.588-1.145-5.832-2.113-8.523-5.245-2.522,1.569.3,1.935,0,4.587-2.868-2.688-5.693-5.656-9.825-3.931,1.809,3.213,7.611,2.433,8.516,6.556-3.392.752-6.511,1.79-11.141,1.309,3.575,2.542,8.8,3.43,11.8,6.555-1.653,2.413-3.159,2.7-5.9,1.308-1.221,3.582-5.823,3.792-9.176,5.245,3.637-14.729-.5-31-5.238-45.221,1.226-.954,4.341-.027,5.238-1.311,2.193.592.572,1.465,0,2.621,4.346-.923,9.631,2.883,14.419,1.309-1.106,6.225-8.083,2.369-13.763,2.627A55.618,55.618,0,0,0,191,543.3c-4.438,2.671-6.953-2.207-11.145-1.966.758,3.89,9.614,9.226,12.458,4.586,1.151.594,1.081,2.413,2.618,2.621-.182,1.353-2.9.158-2.618,1.964,7.588-1.326,11.019,6.977,16.383,1.97-.45-1.956-2.612-2.2-5.247-1.97,3.024-2.9,6.157,1.241,9.181-.648.019-3-2.3-.036-3.934-.657a6.672,6.672,0,0,0-3.278-3.934c-1.544.175-.4,2.9.654,2.622-6.744,1.8-12.52-6-16.384-11.141,4.651-2.5,8.025,1.445,9.828,3.93-.675,3.19-2.6-1.875-3.274,1.309a46.723,46.723,0,0,1,13.112,3.935c.446-2.2-1.1-2.394-2.627-2.62,2.319-2.272,8.213-.97,12.45-1.315-6.306-4.156-17.657,1.571-22.278-5.9a9.71,9.71,0,0,1,11.8,1.965c3.282-1.04-1.627-3.066,1.314-3.932-3.141-4.288-7.273-7.583-10.493-11.8,6.594-2.408,9.372,7.816,15.078,4.591.632,2.6-3.662.27-3.276,2.621,3.812-1.523,7.649,1.036,11.141-.653-4.245-3.891-7.216-4.72-12.45-3.933.31-2.494-3.037-1.333-1.973-4.588,5.565-.4,8.813-.865,14.423,0,.275,5.181.993,9.93.656,15.727-3.259.2-6.236.117-7.211-1.966-.861.235-1.036,1.158-1.965,1.312.846,4.547,4.574,2.319,9.176,2.62.5,8.6-1.41,18.247-1.314,24.25-2.125,2.082-2.349-3.3-3.929-3.931C214.366,561.556,219.688,564.614,221.153,566.9Zm-151.395,3.93c-2.272.526-2.518-.975-4.591-.656.4-2.218,4.412-.831,5.9-1.966C71.876,570.331,68.945,568.71,69.758,570.828Zm-3.929,2.623c8.326,2.228,19.208.252,26.211,3.929-14.156,2.157-26.063-1.168-38.665-5.241C57.264,566.822,62.077,572.447,65.829,573.451Zm13.105-1.966c1.3,1.237-3.594-1.278-5.9-.657C74.225,569.261,78.142,570.481,78.934,571.485Zm-2.622-1.966c3.186-2.447,8.437-1.5,13.1-.656C86.351,570.384,80.469,569.088,76.312,569.519Zm15.072,14.419c-3.712,1.946-8.809-.354-13.108,0C79.3,582.236,87.813,583.871,91.384,583.937Zm-18.348-1.968c-6.347,1.313-12.3-3.421-17.042-5.9C62.034,575.857,69.271,579.253,73.036,581.969Zm11.792,5.242c5.317.56,8.984-1.088,13.763-1.31,3.754-.175,7.6,1.539,11.145,1.31,2.548-.161,4.775-1.822,7.208-1.965,17.18-1.014,28.619,7.052,39.322,16.384-12.411-1.338-22.523-9.659-37.354-9.829-1.815-.02-3.412,1.208-5.242,1.311-6.7.369-14.489-2.188-21.63-1.963-6.353.189-17,2.182-23.6,1.963-5.881-.2-10.586-4.363-15.07-5.243-.805-2.48-2.33-6.986-.658-9.832C60.761,583.528,69.929,585.642,84.828,587.211Zm-24.9-79.957c-3.53.959-4.043-3.967-6.55-5.9,1.247-5.964-.145-14.564,1.311-20.316,2.272,3.423,8.57,5.516,7.861,9.832C73.5,493.9,73.771,507.615,80.9,514.468c-8.612-2.749-16.94-11.453-19.661-22.285-2.061,7.206,4.309,17.017,9.176,21.629-1.681,1.849-2.657-2.552-5.247-1.964-1.715,2.046,2.005,2.847,1.973,5.24-5.635.829-4.625-4.99-7.871-6.551C59.153,508.679,61.733,509.007,59.924,507.255Zm-6.55-49.149c.577-1.374,3.658.211,3.276,1.964C54.06,460.912,55.064,458.161,53.375,458.106Zm67.5-2.625c2.088.1,2.885,1.489,5.242,1.313-1.488,1.132-3.842,1.4-6.552,1.311C119.575,456.8,121.355,457.271,120.877,455.481Zm98.3-3.276c1.176.083,1.384-.8,2.624-.653-2.349,2.618.632,7.452-3.276,10.485-3.139-.824-2.482-3.32-6.556-1.967.83-3.1,5.746-2.114,7.871-3.931C220.563,453.6,217.52,453.8,219.18,452.205Zm-1.965,59.642c.083-1.177-.8-1.386-.655-2.623h4.594c-.013-1.3-1.79-.835-1.309-2.622h3.274a61.174,61.174,0,0,1-.656,11.142c-4.149.62-2.119-3.652-1.309-5.242C220.014,511.379,219.429,512.605,217.215,511.847Zm.66,2.621c-.673.859-.647,2.414-1.315,3.277-3.235.618-4.446-.8-5.9-1.97C212.44,514.715,215.5,514.93,217.874,514.468Zm1.305-11.143a3.333,3.333,0,0,0-1.965,1.969c-.809,2.122,2.123.5,1.314,2.62-.609-.4-2.417-1.526-1.969.654-2.142-.037-2.5-1.862-5.238-1.313.1,3.169,3.645.934,4.585,1.969a3.069,3.069,0,0,0-.656,1.963c-1.843.258-2.789-2.981-2.618.66-2.449.259-3.85-.528-3.934-2.623,1.177-.083,1.384.8,2.623.654-2.289-1.427-2.578-4.855-5.9-5.24-.056-1.039.312-2.5-.655-2.622.145-.937,3.261.608,5.246,0,.613,3.095,3.679,3.74,5.894,5.239.741-4.016-6.2-3.1-3.933-6.549,1.755,1.6,3.82-.017,5.242,2.619,2.411-1.576,3.7-.919,6.556,0C223.822,505.214,219.13,505.214,219.18,503.324Zm-17.693,16.388c-2.2,1.388-3.4.061-5.243-1.317.32-1.488,1.3-3.344,0-4.584-2.74,1.593-5.39,2.533-7.867,0,3.158-2.018,10.865-4.271,11.141,1.309,2.131.381,3.049-.447,4.587-.653.484-3.977-5.9-1.094-5.239-5.244H202.8c2.725,3.93,3.541,5.957,7.867,8.521-.534,1.642-3.457.91-4.589,1.967-3.02-.26-3.086-3.469-5.9-3.937C198.922,516.243,200.31,519.518,201.487,519.712Zm-38.669-9.176c2.208-5.239,7.557-4.312,13.765-4.59-.1.763.141,1.166.653,1.308.03,2.435-2.46,2.35-3.278,3.932-2.7-.353-4.062-2.048-5.9-3.274-2.06-.094-2.248,1.682-2.62,3.274,4.766,3.254,7.224,1.407,11.794.66-.4,3.238,1.49,4.192,1.969,6.548-4.192-.834-8.633-1.414-11.794-3.275-.017,2.855,2.272,3.408,5.238,3.275-.229.866-1.146,1.035-1.3,1.97,2.748,2.055,8.612.989,10.485,3.932-4.493,1.751-8.768.087-13.114,1.313C166.794,520.538,165.258,515.084,162.818,510.536Zm5.245,53.085c-1.678-2.595-3.367-5.988-1.96-9.833C167.544,555.327,168.049,559.024,168.062,563.622Zm-17.039-36.048c-.109-1.639,1.01-2.049,1.969-2.621-3.316-1.275-4.726-4.455-5.247-8.521,4.647-1.1,5.409,3.2,7.865.655,1.885,8.489-1.617,17.572-1.3,27.528.621,20.108,2.639,39.844,10.481,52.424-8.866-2.055-10.682-16.838-15.072-25.555C149.646,556.525,154.257,544.362,151.023,527.573Zm-8.52-21.627c1.279,1.123,3.671,1.138,5.242,1.967-.38,1.587-2.473,1.459-3.933,1.965C145.982,507.723,142.057,508.311,142.5,505.946ZM132.022,540.68c-5.245.988-4.642-5.289-5.246-10.483-1.219-10.586-3.938-26.411-2.62-38.672,9.548,12.351,5.593,30.668,10.481,46.533-3.282-2.609-1.807-9.982-5.238-12.447C126.307,529.648,131.918,535.542,132.022,540.68Zm1.305-33.425c1.948-1.689,1.71,4.383,2.627,5.9C133.611,512.654,134.785,508.641,133.327,507.255Zm-1.965-15.73c.927,1.26,3.182,1.19,4.591,1.968.056,2.451.73,1.868,0,3.932C134.395,495.484,132.208,494.18,131.362,491.525Zm11.141-1.962c-1.243,1.829-4.2-.124-5.243-.658C137.935,486.321,142.253,487.79,142.5,489.563Zm-9.176-7.209c2.257-.073,4.709-.34,5.242,1.311C137.572,485.042,133.192,484.281,133.327,482.354Zm6.556-.653a4.6,4.6,0,0,0,3.929,0C144.35,484.613,139.855,483.737,139.883,481.7Zm7.207,13.758a1.8,1.8,0,0,1-1.964,1.312c.2.888,1.644.544,2.62.654-1.619,1.893-9.3-1.057-9.832-4.584C140.149,493.592,145.256,492.692,147.09,495.459Zm11.8,10.488c-.989,4.658-4.152-.48-7.2-1.309-3.776-1.022-9.311,1.132-11.145-3.279C149.072,499.717,153.823,500.992,158.886,505.946Zm8.525-26.215c-2.4,4.129-8.488.8-11.145-.658,1.632-1.151,1.072-1.194-.655-1.962C158.1,476.673,163.8,481.174,167.411,479.731Zm-8.525-3.933c1.083-.038,4.841-1.269,6.556,0C165.617,478.162,160.362,476.011,158.886,475.8Zm31.46-7.207c2.336-1.05,5.655-1.472,7.211,0-1.3,1.108-4.092.716-5.9,1.31C191.9,468.785,191.143,468.666,190.346,468.59Zm-4.583-8.521c1.971-2.355,3.1,1.658,5.892.656C190.854,463.378,186.28,461.695,185.763,460.07Zm13.755,14.419c-6.828-.347-11.2,1.952-16.379-.653C185.953,472.492,196.774,470.436,199.518,474.488Zm8.52-15.076c-1.1,2.283-4.858,2.27-6.552.657C202.4,458.575,206.05,459.828,208.039,459.412Zm-2.618-7.86c.9-1.941,4.745-.938,6.552-1.968C210.524,451.258,207.746,452.62,205.42,451.552Zm5.9,34.077a2.841,2.841,0,0,1-4.591,0c1.085-1.533,3.72-1.52,2.627-5.242,3.084,1.555,4.055,3,8.518,1.967A22.045,22.045,0,0,0,214.6,488.9C212.322,488.99,210.787,488.342,211.321,485.629Zm1.311,7.212c-1.339-.194-1.286-1.777-2.62-1.967.551-.971,2.1-.948,3.274-1.311A4.3,4.3,0,0,1,212.632,492.841Zm-22.286,8.517c-2.718,2.032-4.591.49-7.207-.653-.468-1.783,3.086.467,2.624-1.312-1.683-.538-5.761-.767-8.527-1.968C180.408,494.483,188.977,496.787,190.346,501.359Zm-15.728-11.14a9.274,9.274,0,0,1,4.587,1.964C177.858,493.909,174.7,491.928,174.618,490.219ZM185.1,481.7c-1.715.181-2.819-.244-2.62-1.97C184.194,479.548,185.3,479.97,185.1,481.7Zm17.041-6.558c-2.294,3.772,2.874-.308,4.585,1.969-2.082,1.974-2.958,1.539-5.9,1.962-.653-.868-.622-2.434-1.965-2.618C198.963,475.025,200.52,475.048,202.145,475.143Zm-3.936-5.9c2.9-.311,3.256.9,5.243,0,.1,1.629-1.027,2.029-1.307,3.276C200.643,471.616,198.053,471.8,198.209,469.246Zm10.489,11.8c-.944,1.922-2.979,3.136-5.247,1.965C204.2,481.349,206.358,481.107,208.7,481.042Zm-3.933,7.21c-4.85,3.184-11.225-.169-13.11-3.931C197.575,484.078,200.552,486.785,204.765,488.252ZM191,479.731c1.347-1.15,4.329.03,4.587,1.97C195.042,480.063,190.472,482.447,191,479.731Zm.653,8.521c-1.884,1.83-5.952-2.429-4.582-3.931C189.782,484.444,189.287,487.78,191.655,488.252ZM179.205,512.5c2.178,1.969,4.76,3.541,6.558,5.893C182.714,519.894,178.4,517.038,179.205,512.5Zm3.934.654c1.518.441,1.751,2.174,3.273,2.618C185.029,517.745,183.26,514.612,183.139,513.157Zm-3.934-7.211c3.308-1.978,5.473,2.81,8.519,3.278C183.939,511.677,182.046,506.616,179.205,505.946Zm5.9,0c2.394-.907,5.426-.615,7.867,0,.807,2.117-2.125.5-1.316,2.621,1.382,2.523,2.117-2.021,3.278,0,.26,2.659-4.083.725-5.9,1.31C188.1,508.191,187.5,506.172,185.1,505.946Zm7.867-10.488c2.763.066,3.912,1.763,4.587,3.934C194.267,499.843,193.453,497.819,192.971,495.459Zm7.207,12.454c-2.044-.8-2.821.351-4.59-1.311C195.54,503.977,201.365,505.2,200.178,507.913Zm-1.969-5.9c.459-.528,1.025-1.8,0-1.968,1.271-1.438,3.681,1.526,3.936,3.277C201.3,502.416,199.05,502.923,198.209,502.015Zm5.9,5.9c-2.582.839-1.584-1.908-3.274-1.967C201.416,504.578,204.489,506.159,204.105,507.913Zm3.933-16.388c-.1.765.151,1.169.66,1.316-.209,1.541-3.107.389-2.624,2.618.559,1.922,2.112-.39,3.282,0C205.788,500.9,198.914,490.525,208.039,491.525Zm9.836-1.962a2.872,2.872,0,0,1,1.305,2.62c-.946-.356-3.383.768-3.274-.658C214.887,489.2,218.133,491.133,217.874,489.563Zm-7.863-15.074c3.12-.518,8.783-4.244,10.481-1.966C218.269,475.582,214.68,473.564,210.012,474.488Zm1.961-2.623c.057-.928.109-1.855-.651-1.965-2.3-.11-2.063,2.306-3.282,3.277a4.259,4.259,0,0,0-3.273-.654c.108-.763-.146-1.164-.66-1.31,3.355-1.708.546-1.883,3.28-3.28,2.864,1.358,4.587.57,7.211,1.313A2.463,2.463,0,0,1,211.972,471.866Zm-6.552-4.585a29.753,29.753,0,0,1-7.863,0C198.358,464.155,204.707,463.759,205.42,467.28Zm-24.9,3.28c.16-.715,1.3-.448,1.311-1.313C188.14,469.389,185.234,470.151,180.519,470.56Zm4.585,17.692c-3.067,1.152-9.934,1.008-11.145-3.275C178.5,485.239,184.911,483.632,185.1,488.252Zm-13.11-5.9c-.013-1.3-1.785-.836-1.3-2.623,3.15-.209,2.364-.55,5.894-.658-2.223-2.882-8.446.675-9.172-3.93,3.128.77,4.232.432,8.516.655.764.985.814,2.684,1.969,3.276C175.056,480.516,176.329,482.2,171.994,482.354Zm0,3.933c-1.576,2.166-3.483-.838-4.583-1.311C168.34,483.456,170.969,485.734,171.994,486.288Zm0,7.205c-3.69-.021-6.03-1.395-7.207-3.93C168.829,489.234,171.962,489.815,171.994,493.493Zm-10.481-7.205c.944-1.478,4.416-3.382,3.929.654C163.9,486.958,163.512,485.811,161.513,486.288Zm-3.278-3.28c-.021.639-.805.51-1.313.658.267,1.26,2.543.515,1.965,2.622-3.067-.652-6.595-.838-7.2-3.933C153.434,481.087,155.587,484.965,158.235,483.007Zm3.93,12.452c2.084.906-2.315.651-3.278.658,4.783,2.485,9.445.049,16.385,0-.057.927-.107,1.853.656,1.969-4.145,2.223-18.051,1.149-23.595-1.315C154.865,496.979,158.634,496.051,162.164,495.459Zm12.454,6.557c.32,2.36-6.27,1.89-5.243-.657,1.113-.243,1.234.511,1.314,1.31C172.688,503.145,172.611,501.541,174.618,502.015ZM160.2,541.339c1.4.3,1.252-.938,1.314-1.966,2.018,2.5,2.17,12.6,0,15.07-2.227-2.381-1.326-9.07-.658-12.454-3.368-1.4-.6,3.34-3.276,2.626.589-10.476-1.655-20.727,5.238-25.562C159.1,525.982,162.177,532.033,160.2,541.339Zm-2.62,4.586c2.091,1.446.6,6.276,1.965,9.832-2.022.488-.8-2.262-3.278-1.313C157.663,552.559,156.288,547.91,157.58,545.924ZM150.368,512.5c1.661-2.055,5.854-1.579,8.519-2.625.553,2.738-1.273,3.092-1.307,5.243C153.676,515.753,152.236,513.908,150.368,512.5Zm11.8-6.556c-.455-1.948-2.149-2.655-3.278-3.931,2.289-1.617,5.667,1,8.525-.657-.246,1.115.513,1.235,1.3,1.31C167.415,504.646,163.337,503.839,162.164,505.946Zm25.56,22.283c-.989,1.367-4.423-.341-5.894-.656C183.1,526.646,185.847,526.893,187.724,528.229Zm-.651-6.554c2.849-2.8,7.19.048,7.861,3.277C190.547,525.627,189.5,522.954,187.073,521.676Zm3.274-2.622c.209-2.154,3.7-.38,5.242,0C194.687,520.744,191.576,519.2,190.346,519.054Zm4.587,7.864c.781,2.064,3.827,1.857,3.933,4.59-3.378-.333-3.09-4.34-7.211-3.935C192.078,525.194,194.722,529.091,194.933,526.918Zm3.9-2.615c-2.949.768-2.044-2.307-3.9-2.628,1.394-1.811,3.057.882,3.9,2.628l.032-.006c.051.139.1.266.143.382.447.988.538,1.44,0,0C198.954,524.559,198.9,524.432,198.835,524.3Zm24.936,64.878c1.4.408.615,4.031,0,4.585C222.369,593.357,223.153,589.734,223.77,589.181Zm-9.829-92.411c1.768-3.016,6.423.493,9.829,0C222.965,504.924,215.792,495.6,213.941,496.771Zm9.176-3.278c-4.3-1.365.087-5.356-1.314-7.863C223.572,486.756,224.125,491.673,223.117,493.493Zm-13.106-36.7c2.065-1.647,5.005-2.42,7.863-3.28C217.065,456.425,212.869,455.943,210.012,456.794Zm-7.867-7.21c-1.23,2.972,2.6.893,1.96,3.279-5.051,1.084-5.6-2.67-9.172-1.311,4.068-3.579,10.3-4.99,17.039-5.9A39.91,39.91,0,0,1,202.145,449.584Zm-2.627,11.142c-.412,2.327-3.68-.193-6.547.655C194.826,459.88,197.032,460.186,199.518,460.726Zm-5.243-10.486c-3.886-.487-12.5-1.916-19.657-1.311,4.284-3.162,14.717-.531,19.006-1.311C195.922,447.8,191.978,450.057,194.275,450.24Zm-15.723,8.52a11.1,11.1,0,0,0,1.967,2.621c-1.988,1.943-5.379-.272-6.56-1.311C174.913,459.056,176.514,458.694,178.552,458.76Zm8.521,7.863c-4.384.878-10.932,1.468-14.423-1.308C178.4,466.139,182.408,463.028,187.073,466.623Zm-22.286-7.211c3.812.017,5.234,2.48,7.863,1.969C170.939,462.41,163.932,463.128,164.787,459.412Zm5.9,6.558c-.071,1.246-2.445-.527-3.278-.655A2.874,2.874,0,0,1,170.029,464C169.972,464.933,169.923,465.862,170.689,465.97Zm5.238,3.93c-7.846,2-15.8-1.087-20.317-1.31C159.954,464.228,168.675,470.8,175.927,469.9Zm-16.383-13.762c.41-1.4,4.034-.614,4.589,0C163.14,458.121,161.254,455.594,159.544,456.138Zm-5.238-3.275a3.671,3.671,0,0,1,3.929,0C166.769,452.668,156.383,454.665,154.306,452.863ZM156.922,464c-.6,1.144-2.044,1.441-3.929,1.311C152.371,462.944,155.57,464.4,156.922,464Zm-1.965,4.586c-1.535,1.7-5.435.232-6.554-.657C150.205,465.966,152.95,468.593,154.957,468.59Zm-3.274,19.661c1.121.842.807,3.117,2.622,3.273-5.285.68-8.132-4.686-11.145-7.2C148.341,482.864,148.738,489.645,151.684,488.252Zm-9.18-23.595c1.518-2.094,2.928,1.4,5.242.658C146.249,467.4,144.276,464.463,142.5,464.657Zm.657,1.313c.109,1.421-2.326.3-3.278.653-.562-.527-.391-1.8-1.314-1.966C139.409,463.237,140.709,466.837,143.16,465.97Zm-3.278,6.552c-2.031.7-10.436,2.146-10.485-1.31C131.471,472.124,137.974,469.823,139.883,472.522ZM135.953,464c-1.576,1.511-4.992,1.821-5.243-1.31,3,.265,6.595-.044,6.55,3.276C135.866,466.276,136.009,465.032,135.953,464Zm-9.178-12.452c2.635-.618,8.7-1.831,9.178,2.622C132.631,453.562,129.923,452.338,126.775,451.552Zm2.622,26.87c-.985-.186-2.761-2.819-3.278-1.311a2.881,2.881,0,0,1-1.309-2.623c.763.1,1.164-.147,1.309-.653C127.625,474.858,130.724,476.616,129.4,478.422Zm-7.207-15.076c1.71-1.881,4.587.615,4.585,2.625C124.777,464.243,123.634,464.642,122.191,463.346Zm.651,10.49c.513,3.039-.117,5.144.654,6.552,1.894,3.435,4.818,1.416,6.558,4.59,2.263-5.2,2.564,2.844,5.9,3.928-1.546,2.946-4.42-4.783-4.591.658-1.234-1.33-1.663-3.606-5.243-1.968-3.457-2.877-4.313-8.361-9.176-9.83-2.11,3.88,2.848,6.319,3.933,9.177-1.326,24.138,2.439,58.8,14.861,79.057q1.457,2.05,2.831,4.173c-.989-1.305-1.93-2.7-2.831-4.173a98.925,98.925,0,0,0-8.963-10.9c-1.478-13.516-8.988-27.314-11.8-43.25,1.544-.019,1.93,1.123,3.933.655-.3-3.4-3.158-3.951,0-5.9-1.484-2.667-5.527-2.779-7.867-4.587,1.911-.713,4.363.329,5.9,1.309,1.26-.466-.13-3.737-1.309-3.931,4.113.467-2.6-4.513,2.622-3.276-.529-2.74-3.37-1.207-4.587-1.966-.769-2.948-2.554-4.879-2.625-8.522,2.436,1.275,2.932,4.5,3.933,7.212,2.366.176,1.777-2.592,3.933-2.622-.679-2.751-2.6-.464-3.278-2.625-.4-1.7.267-2.355,1.965-1.965-6.437-3.658-2.529-11.271-5.9-17.039-.451-1.759,1.356-1.264,1.969-1.967-3.355-4.214-2.853-8.26-4.594-13.76,1.461-1.519,2.559.221,4.594,0-.385,2.125.446,3.047.653,4.585a1.788,1.788,0,0,0-1.963,1.311c.019,2.157,1.86,2.5,3.931,2.621C118.558,465.451,118.207,472.134,122.842,473.835Zm-8.518,35.389c-.976-.557-.946-2.11-1.309-3.278C115.28,505.486,115.363,508.24,114.323,509.224Zm-3.936-34.736c-.948-1.229-4.288-.081-5.234-1.311,1.418-.981,3.682-1.119,5.892-1.311A3.707,3.707,0,0,0,110.387,474.488Zm-3.276-26.215c-1.976.991.542,2.879,0,4.59-8.8-2.832,3-7.2,9.18-5.245C115.989,453.818,110.065,448.873,107.112,448.273Zm0,38.014c-.775,1.154-2.8-1.959-3.928-2.622C104.4,482.072,106.02,485.586,107.112,486.288Zm-7.861-19.664c1.4-1.569,4.662.541,4.583,2.623A24.623,24.623,0,0,0,99.251,466.623Zm3.278,13.764c-1.747,0-1.676-1.823-2.624-2.622C101,475.882,102.559,478.982,102.529,480.387Zm-6.556-30.8c1.529.874,3.69,1.113,5.243,1.968C100.473,454.674,95.085,452.333,95.973,449.584Zm16.387,66.191c-2.323-.516-2.532-3.149-3.933-4.588-1.444,3.209,1.768,7.391,1.96,11.14-3.517-1.283-2.891-6.713-5.9-8.516-2.9,5.093,4.149,10.985,5.9,15.728-4.965-3.774-9.857-13.292-10.483-23.593-2.714-.094-.683,4.562-1.313,6.556-5.362-11.769-2.114-26.9-7.207-36.7C102.219,485.279,108.169,499.647,112.361,515.775ZM85.488,487.594h3.927c-.4.586-.788,1.174,0,1.31-.662,1.515-3.011,1.355-5.239,1.314C84.456,489.19,86.237,489.657,85.488,487.594Zm-.66-19.661h2.623A1.4,1.4,0,1,1,84.828,467.933Zm8.521,36.7c-1.542.015-1.926-1.129-3.933-.656C89.191,502.267,94.566,501.582,93.348,504.638Zm7.207,34.075C96.648,534.325,92.674,530,90.075,524.3,93.938,528.736,98.091,532.881,100.556,538.713ZM90.075,507.255c1.632.336,3.955-.017,3.934,1.969-2.007-.473-2.39.669-3.934.654Zm-.66-46.529c.1-1.431,1.657-1.406,3.282-1.314C93.156,461.682,90.4,461.768,89.415,460.726Zm-.649-11.142c1.726-.2,1.694,1.367,1.965,2.621C88.543,452.865,88.582,451.3,88.766,449.584Zm0,6.554c-2.078,1.823-5.177-.918-7.212-1.308C83.886,452.756,86.684,455.786,88.766,456.138Zm-5.243,8.519c-1.123,1.5-5.006.244-7.211.658C76.308,462.782,82.438,464.055,83.523,464.657Zm0,37.358c-1.189,1.35-4.45-.755-4.589-2.622C81.875,498.855,81.858,501.274,83.523,502.015Zm-5.9-28.18c-.254,1.57,2.985-.367,1.969,1.962C76.607,474.226,68.387,473.9,77.621,473.835Zm-9.176-10.49c1.13-2.882,5.443-.508,5.243,1.97-.842-.9-2.845-.651-4.588-.658C69.207,463.894,68.953,463.491,68.445,463.346Zm-2.616-7.208c.585-5.383,6.519-1.041,8.514,0C69.9,457.128,69.376,454.747,65.829,456.138Zm8.514-4.586c-3.171.115-5.247-.866-7.859-1.312,1.125-1.929,6.731.617,7.859-1.311C77.412,449.009,73.629,449.884,74.343,451.552Zm-9.827-4.589c-1.23-.623,8.663-1.91,8.521.655C70.147,447.449,67.964,446.572,64.516,446.963Zm.651,1.966c.564,2.478-2.932,2.319-3.929,1.311C61.837,449.1,63.29,448.792,65.167,448.929Zm-1.309,9.831c-6.9,2.194-8.371-1.983,0,0Zm-7.207-3.93c.194-2.145,4.95-1.634,4.587.651C59.7,455.276,58.778,454.447,56.651,454.83Zm9.178,70.78c1.172-.083,1.377.8,2.616.653-.98.766-1.6,1.894-3.278,1.966-1.119-.625-1.317-2.176-2.62-2.619C61.133,523.024,66.371,529.059,65.829,525.61Zm5.24,3.929c5.7,1.149,6.417,7.092,11.139,9.834,2.6,1.5,6.136.709,9.176,1.966,4.944,2.043,8.525,7.014,11.145,11.14-13.045-7.713-28.3-13.206-41.947-20.315C61.692,530.257,69.579,534.015,71.069,529.539ZM92.04,514.468c.209-2.186,3.107,1.97,2.622-1.311a194.673,194.673,0,0,0,27.529,49.151c9.46,3.646,14.015,12.193,18.348,20.974C116.642,568.067,104.1,541.5,92.04,514.468Zm-7.212,88.476c5.719-1.06,16.875.1,23.6,1.965C99.864,604.241,92.565,604.686,84.828,602.944Zm14.423,6.549c-1.64,3.17-6.06.124-8.521,0C93.316,607.71,96.253,611.222,99.251,609.493Zm8.516-8.518c.126.56-.254.621-.655.655-16-3.209-34.83,1.745-45.874-6.554C75.385,594.447,94.538,595.514,107.767,600.975Zm-13.759-6.553c.28-1.465,3.226-.266,4.583-.656,2.765.607,4.209.6,8.521.656C103.881,597.018,100.214,594.549,94.009,594.422Zm15.068,18.352c-.2,3.117-2.964-.4-5.242.653C104.795,612.8,108.122,611.231,109.076,612.773Zm87.168,13.105V628.5A1.4,1.4,0,1,1,196.244,625.879Zm.658-49.808c-3.231-.7-4.179-3.688-7.212-4.586,2.307-4.67,6.663.263,8.519,1.966C197.929,574.478,196.148,574.012,196.9,576.071Zm-9.178-13.763c5.746-4.337,10.209,1.907,13.763,5.245C195.719,565.953,191.926,565.895,187.724,562.308Zm.653-23.6c-2.347.169-2.4-1.962-4.583-1.962C184.973,535.187,188.706,536.6,188.377,538.713Zm36.049,57.018c1,1.356.485,3.354-.656,5.244C222.066,599.858,223.493,596.377,224.426,595.731Zm-1.309,21.632c.429-1.757,1.877-2.5,2.618-3.936C227.236,614.552,225.631,618.09,223.117,617.363Zm1.964-12.454a14.754,14.754,0,0,0,1.309-3.933C227.792,601.587,227.288,605.742,225.081,604.909ZM227.7,575.42c-2.511.161.275-4.113.66-5.249C229.261,570.488,228.4,574.53,227.7,575.42Zm8.2-126.371c-1.23-1.108-1.247-3.426-2.953-4.051a50.371,50.371,0,0,0,2.5,13.652c-.024.557-.053,1.109-.084,1.661-.6-.725-.483-2.158-1.759-2.206-1.081,4.691-.451,11.3-.656,16.382-.713,17.96-2.678,40.891-1.965,62.263-4.425,11.345-.636,23.62-6.552,34.734,2.039-21.646-.579-47.339,2.62-68.816-3.3-1.553-1.444-7.946.654-9.827-4.009-2.3-.705-10.028-3.274-12.454,3.519,1.159,3.425-6.5,3.274-11.141-1.284,1.771-1.768,4.35-1.965,7.209-2.774-3.469.026-6.138-.654-11.14,1.576.266,1.423-1.2,3.278-.658-.425-2.853.85-7.408-.66-9.176-1.914.709.608,5.847-1.309,6.556-1.948.236-1.356-8.223,2.622-7.862-.816-2.076-1.9-.129-3.278-1.969,3.684-2.914.051-10.248,2.625-13.105-2.018-.492-.8,2.26-3.278,1.309-1.781-3.882,2.5-11.144-2.62-12.453-1.3,2.1.959,6.289-.658,9.174-1.632-.07-2.029-1.229-3.276,0,.21,1.538,1.036,2.461.651,4.592-6.883-.776-13.539,1.41-20.313,3.931-2.231.046-2.443-1.927-3.278-3.278-3.895-1.4-7.361,1.151-9.825,1.967-10.382,3.429-19.721.378-31.458,1.311-7.479.591-13.663-1.052-20.979-1.311-9.464-.338-20.517,1.292-31.453,1.311-11.239.018-22.655-3.543-34.08-1.311-.884-2.613-4.036-2.955-7.212-3.278v-2.621c-2.5-.314-1.334,3.033-4.587,1.965a27.9,27.9,0,0,1,0-15.074c5.96,2.818,8.905,12.017,17.042,10.485-7.568-1.17-13.208-10.522-11.8-16.383a38.99,38.99,0,0,0,12.45,15.076c7.132-2.968,12.633,6.966,18.352,3.276,2.1.522,3.308,1.937,5.9,1.963-2.532-4.89-8.655-6.2-13.11-9.175,8.871-.123,13.827,9.335,24.248,9.832.051-2.454-2.569-2.233-4.587-2.62,4.472-3.214,9.539,1.554,14.423,1.963,2.556.22,4.858-1.036,7.207-.651,2.932.476,5.58,4.777,7.865,1.309-5.225-1.109-6.66-6.016-12.454-6.555-1.017-2.325,2.227-.394,1.965-1.964-2.356-2.228-5.747-3.422-7.861-5.9,7.611,1.15,15.6,14.51,24.248,12.454,3.912,1.86,7.175.3,11.141,1.965,2.1.574,1.365-1.7,2.624-1.965,4.391-.262,6.943,3.389,10.486,1.965-7.372-4.583-16.714-7.978-22.282-15.727-2.477.343-3.077.918-4.591-.656.107-.768,1.2-.553,1.965-.653-3.885-2.309-8.79-6.834-13.106-6.555,6.093,6.8,14.711,11.067,22.284,16.384-5.96.493-11.085-5.517-15.076-9.176-1.839,3.2,2.9,4.771,3.933,7.209,1.174-.183,1.347.622.653.656-3.757-2.353-6.472-5.76-10.485-7.864-1.535-3.272-4.292-5.317-7.861-6.554-1.648-1.2-1.439-4.239-4.589-3.931-1.965.431.63,1.4,0,2.618,6.106,4.814,12.249,9.6,17.692,15.075a.664.664,0,0,0,0,1.31c-4.429.488-7.391-6.146-12.454-7.21-.459-7.417-14.506-6.291-13.105-17.69,26.006-1.094,51.172,1.712,79.961,1.96-.022.641-.806.513-1.309.657,5.317,2.76,12.824,3.337,19,5.244.766-.1.555-1.195.655-1.965a33.756,33.756,0,0,0,12.454,1.965c1.61,2.323,1.435,6.428,3.929,7.866,1.267-1.473,1.467-3.628,1.967-7.213,1.44,2.763,1.207,5.848.656,9.176,2.232-5.069,7.032-18.6,0-21.627,2.148-16.936-.224-38.5-11.141-43.91.271-3.361-1.651-6.044-3.274-9.176-4.831.93,2.62,6.384.651,8.521-1.164-5.825-6.9-7.088-8.518-12.454a12.041,12.041,0,0,1,4.585,2.623c-2.828-4.6-8.166-10.174-13.105-10.487-3.686-5.925-8.463-10.76-15.072-13.758-.944.143-.231,1.953-1.316,1.963-7.741-2.616-15.23-8.682-25.553-6.552-.5-3.25-8.423-3.16-9.18-.658-.668-.641-1.322-1.294-1.965-1.966-2.219,1.055-3.812,2.739-6.554,3.275,1.1,2.953,4.222-.184,7.212.656,1.595,1.727,2.357,3.032,7.207,2.619,1.653,1.381-1.655,2.56,0,3.937,7.483-3.2,17.319.467,24.246,1.964-3.181,2.8-9.881-2.626-15.07,0,1.3,3.816,6.082,1.452,9.172,1.967,4.3.715,7.837,3.265,11.145,3.935-3.52,1.558-14.91-3.731-17.7,1.307,5.693-.248,14.306.535,19.006,3.276-1.559,2.212-4.027-2.376-5.9,0,.071,2.557,2.849,2.4,5.247,2.62-.156.947-1.956.232-1.969,1.319.464,2.9,5.108-1.308,5.247,2.619-4.155-.148-6.782-.746-9.18,0,6.11,3.067,15.245,3.1,20.321,7.208-2.774-.284-9.748-.819-13.114,0,4.713,4.684,17.709,1.078,20.321,7.863-2.462-.79-9.185-4.147-10.488,0-3.523-2.026-7.48-6.808-13.107-4.584,1.409,2.434.775,1.213-.655,3.274a68.825,68.825,0,0,1,27.524,11.142c-5.142.333-9.6-5.682-17.039-5.242.38,3.114,6.074.918,7.212,3.276-2.338.785-6.56-2.161-11.141-1.31v1.965c4.188,1.271,9.435,1.488,13.105,3.276-4.384-.527-9.067,2.81-13.759,1.967-1.644,1.26,2.691,2.069,3.274,3.278,2.022-2.885,6.6.633,9.172,1.31-2.632.793.476,3.531-1.96,3.931,8.984,3.466,18.365,6.537,24.9,12.453-3.05,1.717-6.786-1.5-7.859-3.933-6.857-3.294-16.407-7.574-22.283-6.551a33.708,33.708,0,0,0,7.2,1.966c-.421.665-1.5.678-1.3,1.965,2.535.961,5.605,1.383,5.9,4.59,7.387,2.507,14.378,4.007,19.662,7.21-1.367,2.153-2.766-1.112-3.931-1.312-.918.23-.06,1.153.653,1.312-7.487,1.582-11.937-5.538-19.006-6.558-1.356.368.884,2.536,2.622,1.968-.284,1.465-3.227.264-4.591.653,5.877,3.839,13.648,4.367,20.321,9.832-1.877.76-7.207-.635-7.211-3.933-3.43,2.486-8.484-2.8-13.761-2.62,2.462,3.651,6.494,5.74,11.141,7.21-3.216.674-9.072-1.885-11.794.653-9.219-5.1-22.335-.989-34.084-5.242,9.334-1.126,21.487.211,31.46,1.966-.651-4.591-7.562-2.925-11.794-3.928-1.326-3.272-8.918-3.744-12.45-2.623-2.992-1.2,3.641-1.422.649-2.623,4.406-1.987,10.148.329,13.106,1.968,1.217-.1.408-2.221,1.317-2.622-2.944-1.184-14.638-2.862-18.356-2.621-2.119-2.067,1.711-.491,1.969-1.97-2.4-1.814-3.449-1.709-6.552-1.963,5.443-2.326,8.847,3.326,14.414,1.311-7.662-8.2-24.124-.142-33.424-7.21-.884.2-.538,1.641-.656,2.622-3.566-.587-5.727-2.573-9.832-2.622-2.25,5.125-15.081,4.593-19.661,3.276-.158,3.208-3.728.077-5.892,1.967-2.753,3.233,2.149,15.722-2.629,17.695.013,1.952,3.095.843,3.934,1.967a114.339,114.339,0,0,0,3.938,18.35c-3.365,3.671-5.854-.938-9.836-1.967-.408-7.193-7.921-16.6-3.93-24.9-3.44-8.925.209-21.454,2.62-28.836-1.286-1.659-3.282,1.475-5.9.655,2.646-2.6,4.542-7.916,1.314-11.142a3.307,3.307,0,0,0,1.964-1.965c1.587.373-.307,4.236,1.965,3.93,3.037-3.518-.529-13.634,5.9-13.761.967-7.116,1.465-14.7,4.583-19.661-2.456-.491-3.2.739-3.278,2.622-4.465-6.888-14.039-.3-19.006,1.964.455,2.057,1.751.853,3.278.658-.2,1.166-3.466,2.565-1.3,3.93-4.931,3.053-9.159,3.237-15.732,3.932,2.059,1.781,2.036,3.11,1.309,6.555-1.54-.014-1.926,1.132-3.933.656-16.979,19.438-8.179,61.635-17.037,84.545-.109,2.074,1.742,2.189,1.309,4.587-1.623-1.217-3.85-1.837-4.589-3.931-4.675,1.379,1.6,5.359,3.933,5.9-.6,1.784-2.048-.915-3.933,0v3.278c.1,1.43,1.657,1.408,3.28,1.311,1.375,7.964-4,16.342-.656,21.627,1.113.242,1.239-.512,1.309-1.31,3.269,2.8-5.034,4.862-1.309,7.865.28,1.809-2.445.614-2.624,1.962-.43,2.616,2.494,1.88,4.589,1.967-1.749,5.313-1.76,13.359-1.965,18.352-1.414-.553-.551-3.381-1.965-3.934-.489,9.192.184,20.116,5.238,24.9-.555,1.924-1.647-.85-3.274,0a3.579,3.579,0,0,0,3.274,3.278c-2.08,4.583-.658,8.127,4.589,9.174-2.519,3.235-5.958-.611-7.863-1.966-3.729,1.077-2.236,7.377-5.238,9.177,5.163,2.507,2.968,8.357,9.172,9.83,1.647-.218,6.272-3.316,7.207,0H56.651c-.573,2.1,1.012,2.049,1.964,2.623-2.471,1.237-6.761.668-8.518,2.619-.363,1.45,1.251.932,1.311,1.966,1.856-.11,2.731-1.2,4.587-1.31,10.436,3.588,23.115-4.834,29.493,3.931,15.506.438,23.981,7.916,33.424,14.418-5.505-1.936-12.405.1-20.321-1.309-5-.894-8.017-4.025-12.454-4.588-11.344-1.444-24.558,2.895-36.04,4.588-.009,17.311-2.159,27.79-2.618,47.844-3.083-.2-1.757-4.8-3.278-6.554q2.14.175,1.963-1.967c-2.219-3.533-6-6.506-4.587-11.8,1.864,1.2,2.394,3.731,4.587,4.591,4.518-4.076-6.753-5.266-3.278-10.48,1.461.279,3.553,1.5,3.933-.663-.21-4.38-6.035-3.139-4.587-9.176,2.447.062,1.869.737,3.932,0,.869-5.452-5.367-3.805-5.243-8.518,2.065-.316,1.482,2.013,3.929,1.311,1.322-2.136-1.326-4.955-3.273-5.9-.63-2.376,2.827-.663,3.273-1.966A8.556,8.556,0,0,0,40.921,561c-.63-2.381,2.945-.551,2.62-2.622.919-3.318-3-1.8-2.62-4.588-.63-2.378,2.945-.553,2.62-2.619a151.425,151.425,0,0,1-4.584-33.425c-.032-5.151,1.956-10.494,1.311-15.729-.188-1.5-1.3-3.136-1.311-4.59-.015-2,1.973-5.057,1.965-7.206-.008-1.234-1.476-1.546-1.309-2.625.209-1.393,1.747-2.675,1.965-3.929,1.326-7.657-2.907-18.208-.656-26.216-.3-2.69,1.4.266,3.28-.654,1.226-2.975-2.607-.891-1.969-3.28,1.739,0,3.746.251,4.587-.651-1.3-.889-2.552-1.822-1.969-4.59-3.073-1.112-.854,3.08-3.929,1.967.1-.761-.141-1.168-.653-1.311-.243-1.99,2.131-1.362,3.273-1.966-2.6-1.9-1.326-5.107-1.964-7.863-1.373.594-2,1.934-1.965,3.933-.863,1.911-.925-2.39-.21-3.157-1.584.973-3.432,3.153-5.037.532.542-3.3,4.489-.657,5.9-1.965-.143-5.761-7.649-4.142-11.141-6.555-1.027-4.876-7.508-4.287-10.49-7.208.412-4.349-2.992-4.876-3.93-7.864-.222-9.837,13.509-5.711,17.692-11.143-6.289.053-17.037,1.306-19.661,7.209-2.635-3.348-5.138,2.576-7.211,3.934.963-4.073,6.573-9.156,8.525-14.417-2.193-2.352-3.052,3-5.247.654,1.076-3.084,3.846-4.46,5.247-7.212-3.336-1.379-5,4.017-7.207,5.9-2.5-5.253,6.746-9.155,8.518-14.419-3.7-1.4-6.178,7.229-9.172,6.556,1.234-4.664,5.151-6.646,6.547-11.143-.555-1.921-2.11.393-3.274,0-.743-5.321,3.686-5.96,5.9-9.831.766.106.553,1.194.653,1.967,4.326-6.592,8.358-13.49,13.761-19,1.865-.118,1.279,2.211,3.936,1.306-.717,1.471-1.082,3.286-1.967,4.589,5.2,4.1-1.689,8.459-1.311,13.765,3.4-1.388,3.242-3.252,5.247-4.591,2.1,3.889-4.468,6.987-1.969,11.141,2.725-.055-.566-3.528,1.969-4.586,2.825,4.225.122,14.769,1.307,19.66-.431.978,2.535,1.055,2.652.232.889,5.216-3.8,11.226-2,17.463,2.2.673,1.023-2.039,1.314-3.278,2.406,3.129-1.463,8.971,1.311,13.11-4.783-1.385-3.8-7.243-9.176-9.176,2.122,6.613,6.686,10.79,11.141,15.071,1.7-3.582-3.534-14.459,1.309-17.036-3.29-6.078.543-11.6-2.62-17.041,1.728-3.672,5.518-5.967,4.594-10.488-.184-1.348-2.908-.156-2.629-1.965a5.977,5.977,0,0,1,3.933-4.587,14.961,14.961,0,0,0-1.3-3.929c-2.524.973-4.831,2.164-5.9,4.584-.854-5.232,6.59-7.824,9.176-11.8-2.069-1.385-4.5,2.467-7.211,2.622,1.076-5.317,4.074-7.931,7.867-11.8-.865-1.245-4.156.608-5.9.654,3.325-5.418,9.206-8.272,15.074-11.142-2.817-3.062-7.036,1.679-10.487.656.047-2.581,4.8-.443,4.589-3.276-4.809-1.741-8.892,6.384-12.45,5.9.643-6.83,14.113-6.391,18.348-11.794a54.179,54.179,0,0,0-11.136.651c.154-2.944,10.284-6.769,7.861-3.929,3.729-4.139,14.908-6.5,21.63-9.831-7.75.126-16.7,4.709-24.253,7.207,4.034-4.05,10.957-5.21,14.423-9.833-.809-2.564-5.9-.964-7.215,0,1.843-2.97,8.862-6.143,14.419-7.857,6.135-1.895,13.379-1.611,19.006-3.933,1.313.83,6.874,1.531,7.207-.657-12.55-2.5-25.328,3.765-36.7,6.552,5.121-4.012,12.963-4.937,19.666-7.211,4.871-1.651,9.96-3.26,13.759-5.894-8.328-.029-16.83,5.453-25.56,7.21,8.927-7.028,19.1-12.8,35.389-12.457-.623,2.866-2.68,4.313-1.959,8.523,4.132.2,2.131-5.729,5.234-6.557a70.2,70.2,0,0,1,3.936-24.25c-2.189-5.6,1.894-9.645,1.311-15.725-3.575-.218-1.427,3.831-5.247,1.965.82-2.6,4.959-2.281,1.973-5.241,1.625.069,2.027,1.227,3.274,0-1.006-10.428.658-16.164,1.309-29.5,4.7-.627,6.953-.317,11.794,0-3.645,8.626-1.291,21.3-5.242,30.149,2.65,4.166,6.545,4.907,11.8,5.242-1.565,2.155-9.026-1.6-7.867,3.277-2.328,1.02-.4-2.223-1.965-1.96-2.088-.566-2.026,1.024-3.273,1.308-.03,10.255-4.758,15.82-1.314,24.9,4.888-3.436-.162-12.062,2.618-17.693,4.852-.239,6.8,2.011,11.141.654-2.044,4.627-7.707.836-10.481,3.933,1.093,2.622,6.682.743,9.83,1.308-1.33,3.817-6.592.083-9.174,1.967.092,2.75,3,2.68,5.9,2.623,1.085,1.3-.066.833,0,2.622q32,6.669,57.667,19.66c-14.7-10.642-32.683-18-54.393-21.625,15.988-1.6,26.753,6.214,41.287,9.829,2.4.6,4.918,1.29,5.9,3.93,2.682-1.449,7.521,3.041,6.55,5.242,8.837,3.838,15.26,10.084,21.632,16.386,2.007-1.425-.207-4.111-.658-5.241,2.7.357,3.833,2.281,5.9,3.272.2,1.514-1.894.733-1.965,1.969.867,1.313,2.906,1.461,4.582,1.967.651,1.973.485,4.759,2.629,5.245-.284,1.467-3.233.266-4.594.653,1.532,9.18,8.963,18.124,13.11,26.875-3.588,5.676-.534,14.535,3.933,19,.359,1.45-1.251.933-1.315,1.965,4.739,9.314.427,19.643,3.28,28.837-5.774,5.06-1.085,12.279.654,18.352-1.79.058-1.322-1.092-2.618,0,.921,7.72.653,15.112,3.677,23.287C235.947,447.9,235.925,448.473,235.9,449.049Zm-175.314-70.9c5.946-3.918,10.667-14.442,17.695-13.108-2.291,3.829-7.271,4.961-10.483,7.866,1.059-.193,4.993.768,5.243-2.621,5.093,3.052,9.473-4.571,17.038-3.276-4.074,5.263-12.764,5.966-19.661,9.829,1.23,2.678-6.086,7.2-10.49,8.519.083-1.885-.355-4.288.657-5.241,2.913-.146,5.89-.231,7.212-1.969C65.38,375.435,64.274,378.727,60.582,378.147Zm2.625-10.486a14.67,14.67,0,0,0,6.552-1.311c.293-1.07-3.575-1.07-3.274,0-.7-4.2,6.657-6,11.792-6.552-4.9,5.15-11.228,8.867-16.383,13.762C61.618,370.882,64.048,370.912,63.206,367.661Zm2.623-10.485c1.866-2.5,4.383-1.031,3.929-5.243,1.177-.083,1.382.8,2.62.656.351.076.5-.055.571-.254-.453,2.374-4.115,6.116-7.12,7.463C66.012,359.03,68.712,357.075,65.829,357.176Zm7.859-12.447c2.393,2.009,8-5.925,7.866-.66,3.908-2.766,11.248-4.437,15.728-4.586.547-1.854-.923-1.7-.656-3.275,2.008.474,1.929-1.131,3.929-.662.327,2.071-1.176,2.318-.651,4.593-4.158,1.4-12.341,1.478-17.7,4.59-2.547,1.475-3.566,4.482-6.551,3.927.408.077.245-3.325-1.969-.653C74.917,346.751,73.758,346.354,73.688,344.729Zm22.285-10.492c-.35,2.244-3.158,1.006-4.589.658C91.734,332.655,94.538,333.89,95.973,334.237Zm-1.965-1.964c.884-1.916,6.336-1.854,6.547.653C97.645,333.446,96.626,332.057,94.009,332.273Zm2.618,13.764c-2.547-.2-5.183,1.695-7.211,0-3.374,3.539-6.2,3.74-11.139,5.244,1.083-2.637,4.329-3.1,7.212-3.932-.017-.637-.8-.513-1.312-.658,6.073-.7,8.655-4.887,16.379-3.932.618,4.329-1.5,5.929-3.929,7.211C96.832,348.435,97.908,347.262,96.626,346.036Zm-1.965,10.484c-1.847.558-2.689,2.119-5.247,1.965,1.1-1.3-.058-.83,0-2.615,2.315-.094,2.932-1.88,5.247-1.972C93.571,355.2,94.717,354.734,94.662,356.521Zm-5.9,1.965c-2.131,2.022-5.8,2.509-9.176,3.28A13.957,13.957,0,0,1,88.766,358.485Zm-10.49-2.615c3.853-2.71,7.654-5.461,13.763-5.9C89.078,353.556,82.842,353.879,78.276,355.87Zm13.763,5.9c-1.807,1.9-5.518,1.907-7.863,3.273C82.785,362.541,88.351,361.369,92.04,361.766Zm-17.7-7.867a1.8,1.8,0,0,0,2.627,0c-.017.888-4.026,3.385-5.9,4.587C71.99,356.789,73.288,355.462,74.343,353.9Zm9.18,72.091c-3,1.452-2.774-5.947-5.9-6.554,3.874.723,8.9,5.956,13.11,8.52-3.092,2.19-4.271-3.132-7.207-3.275A.662.662,0,0,0,83.523,425.99Zm6.551-1.965c2.356.922,4.35,2.2,4.587,5.242C93.291,427.361,90.026,427.352,90.075,424.025ZM69.1,400.431c7.494-1.462,15.369-4.969,22.284-2.62C84.019,400.037,77.5,399.151,69.1,400.431Zm21.63.657c-4.042,2.732-11.42,2.122-17.694,2.619C77.591,401.49,84.544,401.677,90.73,401.088ZM65.167,384.047c2.123.812.5-2.121,2.627-1.311-.937,2.389,2.817-.2,4.585-.656-2.182-2.487,2.881-5.311,6.556-5.9-1.371,1.9-3.957,2.6-5.9,3.933,3.3,2.747,8.655-2.895,14.414-1.969-7.59,1.2-14.319,5.713-19.644,8.541a1.613,1.613,0,0,1-.013.635c-.382-.015-.762-.032-1.138-.044-.508.251-1.008.493-1.489.7-1.089,1.3.062.835,0,2.622-1.74-.006-3.741.249-4.585-.654.367-2.549,3.058-2.764,6.074-2.667.376-.189.756-.382,1.151-.591C67.495,385.241,64.4,386.575,65.167,384.047Zm2.627,8.519c-.124.747-.658.364-.654,0H65.829c3.288-6.14,15.892-6.337,20.308-9.172C81.766,387.756,70.4,388.616,67.793,392.566Zm17.035-2.62c-3.337,1.9-8.1,2.386-12.45,3.275C75.165,390.767,80.156,390.513,84.828,389.946ZM75,384.7c2.555-2.14,13.526-5.13,4.594-1.306C77.853,384.132,76.1,386.667,75,384.7Zm15.079,1.969c.4,2.581-3.6.771-5.247,1.309C85.5,386.464,87.843,386.62,90.075,386.669Zm0,5.24c-.674,3.588-4.77,1.555-7.207,1.97-5.5.926-11.882,2.492-15.728,4.585.359,1.858-2.932,3.472-5.9,3.936C66.619,394.674,78.02,392.965,90.075,391.909Zm-1.969-10.483c-1.36-.779,3.37-.952,4.592-1.311a3.668,3.668,0,0,0-.658,2.621C89.979,383.053,90.556,380.725,88.106,381.426Zm1.309-5.244c.218-1.534,2.866-.635,3.282-1.967C94.783,375.515,91.371,376.767,89.415,376.182ZM61.238,398.464c-.575,1.609-.587,3.783-2.623,3.936C58.44,400.035,58.451,397.863,61.238,398.464Zm2.62,9.18a15.655,15.655,0,0,1-5.243,3.276C59.155,408.618,61.1,407.721,63.858,407.644Zm3.282-1.971c-1.063-.763-3.333,2.621-5.247,0,.937-1.9,2.981-2.7,5.247-3.273,2.123,7.1,16.83,6.961,24.244,4.584-.75.778-.737,2.317-.654,3.936H88.766c.461,2.375,2.872,2.8,1.965,6.551-1.172-1.233-1.023-3.785-3.28-3.931-2.526,3.856,4.414,3.867,3.933,7.862a17.841,17.841,0,0,1-9.176-7.862c-3.135,2.558,2.467,6.338,4.593,7.862-2.665.9-5.4-3.764-7.867-5.244-3.391,2.851-4.6-1.15-7.212-2.618-2.109,1.319,1.589,2.28,1.314,3.931-.587.291-1.175.574-1.314,1.313-2.586-.257-3.015-2.667-4.583-3.935-1.6,3.466,3.629,5.829,6.548,5.241,3.295,7.42,9.176,12.238,16.387,15.729-9.293-1.627-17.141-10.378-23.59-17.035-.8-.2-2.259,1.892-.655,1.966-2.636,1.3-4.062-4.231-5.247-6.556-1.251.277-1.183,1.873-3.274,1.312C59.324,410.968,65.1,410.192,67.14,405.673Zm1.3,19.008c1.9-1.213,3.846,3.122,5.9,3.931-2.565,2.712-2.957-2.677-5.243-.657C68.125,426.43,69.325,425.134,68.445,424.681Zm-7.863-5.9c-2-.032-2.547,1.383-3.931,1.966C56.192,420.972,59.9,413.617,60.582,418.784Zm46.53,14.417c.455-2.466,4.314-2.633,3.933.652C109.089,434.636,108.818,434.034,107.112,433.2Zm3.933-12.451c1.785-1.532,4.047,2.039,4.589,3.931C113.757,423.716,113.177,421.461,111.045,420.75Zm3.278,9.827c-3.278-.559-1.371-3.77-2.622-5.242C112.615,424.293,115.566,429.37,114.323,430.577Zm24.9,7.212c-1.32,2.112-2.279-1.59-3.93-1.311C136.658,434.321,138.057,437.584,139.225,437.789Zm-1.965-3.276c.854-1.271,8.294,2.751,5.243,3.276C141.768,435.682,138.595,436.019,137.26,434.512Zm5.9-36.7c-4.378,2.224-11.418.069-18.35,1.966-2.125-6.924-8.634.85-13.765-1.313-1.514-1.852-.547-2.792-1.969-5.243,2.407,0,5.065-.254,4.594,2.622C126.154,394.532,133.795,395.364,143.16,397.811Zm-7.207-7.211c3.47-1.644,7.378.427,10.487,1.966-.169-1.859,2.044-1.085,4.583-.657a3.716,3.716,0,0,0-.656,2.623c-4.2-1.915-11.059-1.172-17.041-1.311C131.45,392.67,140.209,391.483,135.953,390.6Zm11.792,15.073c-8.138,3.218-18.94-.761-28.178-.654C127.341,403.2,138.443,404.2,147.745,405.673Zm-14.419-3.931c3.265-.68,9.116-2.23,12.454-.653C142.841,403.712,137.331,401.7,133.327,401.742Zm11.145-5.242c1.6-1.982,4.267.5,6.552,0C149.531,398.367,147.182,395.58,144.472,396.5ZM105.8,403.055c1.632-.1,2.027,1.03,3.274,1.307C116.277,403.952,104.126,407.281,105.8,403.055Zm45.881-6.555c4.153.209,7.222,1.509,11.79,1.311C163.119,398.852,152.117,399.7,151.684,396.5Zm3.927,5.9c-1.629.1-2.027-1.03-3.278-1.312.429-1.963,1.4.624,2.625,0v-1.311C155.846,399.977,155.5,401.417,155.611,402.4Zm60.949-24.907c-.7-3.428-2.676-4.464-5.238-7.21.805-1.991,2.249.712,3.929,0,.07,1.636,1.226,2.028,0,3.276,4.967-1.922-1.379-6.575-2.618-8.521.424-.664,1.5-.677,1.309-1.966,3.777,1.683,3.869,7.055,5.239,11.142C218.816,375.82,215.85,374.813,216.559,377.494Zm-6.547-1.963a3.089,3.089,0,0,0,1.961.651c-5.26-4.568-13.313-6.344-17.7-11.794,7.758,1.2,10.349,7.566,18.357,8.517,1.3,1.315-.073,5.316,1.965,5.9C213.432,379.928,210.148,377.6,210.012,375.531Zm.651,7.863c-4.1,1.467-7.525-3.39-12.454-3.279C202.362,378.6,208.209,381.026,210.663,383.394ZM177.9,329.651c4.7,2.21,10.931,1.621,11.794,5.244-3.081-1.377-8.979-1.531-13.763-3.275C175.669,330.045,178.915,331.981,177.9,329.651Zm17.037,14.418c-2.106-1.609-4.775-2.648-7.209-3.93C189.763,337.636,193.688,341.741,194.933,344.069Zm-8.521-5.244c-1.091,1.471-3.562-1.2-5.238-1.31C182.934,335.373,184.832,338.615,186.412,338.825Zm1.312,4.585c-2.309,1.837-5.027-1.5-7.867-1.306C182.663,339.771,185.387,343.108,187.724,343.41Zm15.727,12.46c-6.8-2.6-12.078-6.712-19.657-8.522C191.636,346.282,200.607,349.752,203.451,355.87Zm-3.273-9.181c-2.808,1.906-2.9-4.511-5.245-5.242,1.385-1.337,3.446,2.2,5.245,2.622C201.077,345.564,198.489,346.536,200.178,346.689Zm3.927,13.764c2.932,1.877,5.543,4.07,6.558,7.865C208.269,365.906,205.457,363.912,204.105,360.453Zm11.145,26.87c-2.1-1.4-2.945-4.046-4.587-5.9C212.69,382.9,215.889,383.194,215.25,387.323Zm4.594,13.108c1.45-2.96-1.51-4.893-1.315-8.522C220.965,393.4,222.278,398.369,219.843,400.431Zm.649-28.181c1.478,2.446,3.083,4.878,1.311,7.21C219.113,378.359,222.241,375.343,220.493,372.25Zm-.649,34.078c-.568,3.839,3.628,4.171,1.96,7.212-1.587-2.131-3.758-3.67-4.589-6.556C218.391,407.067,218.6,406.183,219.843,406.328Zm-1.315,7.865c-4.137-.015-5.576-2.727-8.516-3.932C211.75,410.068,218.684,410.308,218.528,414.194ZM166.1,325.067c-8.423,1.827-12.117-3.045-21.63-2.625C149.93,320.729,159.023,323.437,166.1,325.067Zm22.275,51.77c.267-1.052,3.85.027,4.594.657C194.137,377.858,189.454,378.217,188.377,376.837ZM7.5,403.708c1.059-.187,1.125.62,1.969.654-.581,1.612-.587,3.78-2.62,3.933C6.433,405.759,6.3,405.594,7.5,403.708ZM236.22,414.194c-1.433-1.406-2.067-3.609-1.963-6.55C235.291,409.444,236.509,411.069,236.22,414.194Zm-44.565,16.383c2.8,1.141,4.222,3.648,7.863,3.936v-2.623C196.336,432.817,193.4,428.294,191.655,430.577Zm-7.212-9.174c6.132,2.066,11.814,11.2,17.7,9.174C194.747,429.783,190.929,418.784,184.443,421.4Zm-10.485-3.931c.074,3.436,3.608,6.856,3.278,8.518a2.878,2.878,0,0,1-1.309-2.618c-5.834-.066-6.823-4.973-11.141-6.555.551,3.269,6.389,6.638,10.485,8.517,2.134,3.339,6.607,7.8,9.832,7.867-1.209-2.521-6.541-4.363-5.9-6.553,4.205,3.44,8.455,6.84,14.419,8.52C188.461,427.879,180.536,423.348,173.959,417.471Zm41.291,12.453c-1.443,1.923.771,4.57,0,7.864C219.871,437.2,218.336,431.236,215.25,429.924Zm-2.618-10.488c-.844,3.679,3.265,2.413,5.9,2.623C218.629,419.118,215.583,419.323,212.632,419.436Zm-40.638,11.8c-3.966-.526-6.609-5.446-9.176-5.244-.019,3.956,4.179,3.688,5.245,6.554-5.2-2.443-7.5-7.788-10.483-12.454-3.37,1.323-7.323-4.938-11.139-3.273.8,2.474,4.625,1.923,3.274,6.555,2.018,1.909,5.405,2.458,6.552,5.241h-2.618c-.63,2.424,4.474,2.458,2.618,3.931-8.183-4.207-8.525-12.738-19.006-15.072,5.042,6.755,16.366,22.064,28.182,14.418,3.336,1.323,14.835,4.394,19,3.93-10.476-4.267-14.267-13.261-24.9-18.348C162.16,423.157,169.85,427.263,171.994,431.233Zm-20.97-9.831c4.668-.071,9.005,5.845,12.45,9.174C158.869,430.587,155.636,423.568,151.023,421.4Zm55.051,213c.51.145.764.547.655,1.311,1.922-.049,3.694-.24,3.282-2.62C208.273,633.1,206.149,632.723,206.074,634.4Zm14.419-85.2c.3-3.048-5.588-4.983-6.552-2.623C215.6,547.815,218.436,550.441,220.493,549.2Zm-2.618,5.893c-2.152,3.026-11.959-1.369-14.423,1.971C209.128,557.429,219.31,558.769,217.874,555.1Zm-18.356,51.777c-.306,2.054,1.646,1.848,2.627,2.619-.579-2.3,1.693-.678,1.96,0-.5.15-1.288.02-1.309.656,1.247.282,1.19,1.872,3.278,1.311-.771-2.72,5.18,1.33,5.247-1.968a100.344,100.344,0,0,1-10.49-4.584C201.256,607.078,202.157,607.762,199.518,606.874Zm13.114-16.386c-5.2-.916-9.614-2.623-12.454-5.9a4.628,4.628,0,0,1-1.312,1.968c-2.49-1.007-3.273-3.724-6.552-3.933-.209,3.705,4.372,2.614,4.587,5.9-5.492.832-11.3-2.265-13.763,1.962,3.207-.421,3.075-.112,6.551,0,.91,4.335,4.826,5.662,7.212,8.522-2.509-1.7-6.114.253-9.178,0,8.228,1.2,17.617,8.117,24.248,6.552-2.262-1.664-7.041-.819-7.207-4.586a14.13,14.13,0,0,0,5.9-.654c.574-2.107-2.157-.9-1.965-2.622.938-1.023,3.415-.518,3.274-2.622-3.015-1.146-9.93-1.845-9.176-4.589C205.749,589.132,211.1,595.828,212.632,590.488Zm-4.594,6.552c-1.493,2.294-2.319-1.547-4.587-.65-.888.2-.542,1.638-.656,2.62-5.2-1.346-7.745-5.358-11.794-7.859C196.774,587.086,201.583,595.88,208.039,597.04Zm-27.52-286.395c5.219,5.044,12.651,7.884,19,11.8C195.443,316.255,188.841,312.592,180.519,310.645ZM28.466,422.714c-1.471-1.148-1.51-3.73-3.927-3.93a11.352,11.352,0,0,0,2.618,5.9c1.877-1.558,2.616-.449,4.589-1.309-.944-3.21-2.8-5.5-4.589-7.866C25.21,418.1,29.765,421.017,28.466,422.714ZM95.973,317.2c.837.895,3.208,1.013,3.278-.651A2.1,2.1,0,0,0,95.973,317.2Zm48.5-20.314c9.8,2.327,18.809,7.758,26.217,6.552,1.467,2.461,4.738,3.121,8.516,3.278-2.765-4.047-7.933-2.761-11.794-3.93-9.706-2.951-18.568-9.357-30.151-9.833-.341-.968-.971-1.652-1.307-2.625a7.482,7.482,0,0,1-5.9,0C131.375,295.929,138.928,295.568,144.472,296.884Zm49.8,98.959c.122-2.743-3.116-2.124-4.585-3.277C190.15,394.729,191.085,396.414,194.275,395.843Zm-7.863-5.9c-.024-2.164-1.864-2.506-3.929-2.623C182.88,389.108,184.281,389.892,186.412,389.946Zm-68.156-69.468a35.3,35.3,0,0,0-1.313-7.211h-1.965c.517,2.471,1.147,5.552,0,7.863C116.826,321.672,116.677,320.208,118.257,320.478Zm-1.313,6.552c-6.323.5-7.049,13.408-5.9,17.038C113.211,338.586,113.678,331.408,116.944,327.03Zm2.624-18.351c1.247-2.444,5.051-10.654.65-12.452C120.239,300.7,115.25,305.742,119.568,308.679Zm15.068-9.178c18.4.4,28.361,12.715,43.261,14.42-10.822-4.743-27.1-13.886-38.014-17.038C137.739,296.261,134.42,295.16,134.636,299.5Zm-34.08,28.84c4.246-.132,3.671-5.076,5.247-7.863C102.345,318.976,100.464,324.154,100.556,328.342Zm56.366,3.278c-6.2-1.275-16.663-5.115-21.626-3.278C141.26,330.16,151.754,333.238,156.922,331.62ZM142.5,307.368c-5.61.142-10.829-1.707-13.766,1.968,15.713-2.428,27.253,9,41.952,11.794C164.5,313.333,150.87,312.981,142.5,307.368Zm30.146,8.521c-9.242-4.777-19.616-11.415-31.453-13.105-.658,0-.784.53-1.314.652-1.151.158-1.493,1.129-1.314,2.622,16.2.808,29.329,9.872,42.6,15.728C180.687,317.755,175.757,317.491,172.649,315.889Zm-71.434-1.313c1.143,1.769,4.863,1.237,5.9-.654C105.8,312.8,101.8,312.966,101.216,314.576Zm22.28,19.008c3.692,4.817,11.988,4.38,18.356,5.9,6.848,1.634,13.763,4.448,19.661,3.928C154.624,335.1,137.419,330.545,123.5,333.584Zm26.219,4.588c-1.714,2.465-6.507-1.837-10.489-1.311C142.531,334.889,146.622,337.748,149.714,338.172Zm68.16,20.313c-.06,2.9-.13,5.812,2.618,5.9C220.843,363.39,220.076,358.991,217.874,358.485Zm-2.625-9.83c-1.347,2.91,1.326,6.8,3.278,8.521A16.563,16.563,0,0,0,215.25,348.656Zm1.309-20.972a13.259,13.259,0,0,0-5.9-5.9c.137,3.14,4.074,2.485,3.278,6.556A3.66,3.66,0,0,0,216.559,327.683Zm-11.139,6.554c-.551,4.049,3,4,3.936,6.554-1.23.628-2.193-1.96-2.627,0,3.261,1.328,4.367,4.812,5.9,7.865C212.081,341.953,211.122,337.685,205.42,334.237ZM192.315,324.4c-2.468-3.6-8.35-10.2-12.458-7.857,9.464,5.836,16.813,17.25,24.909,22.278C203.093,334.158,199.234,326.009,192.315,324.4Zm-58.33,54.4c-2.11.145-2.772-1.159-5.247-.658C128.076,380.4,133.664,379.708,133.984,378.8Zm32.118,6.551c-.809,2.177,4.425,1.6,4.587.656C169.841,385.111,167.84,385.364,166.1,385.356Zm-43.912-3.93c2.923,2.529,12.332,2.873,14.414-.656C131.953,381.134,125.778,379.993,122.191,381.426ZM113.67,342.1c2.156,1.111,2.927,1.649,1.964,4.585,1.012.951,3.056.874,3.933,1.966-4.817-.139-5.451-.625-9.832-.653-.034,7.425-6.494,13.417-5.246,24.248a4.23,4.23,0,0,1-3.274.654c-.688,2.438,2.214,1.285,2.618,2.626-3.9,13.451,14.139,12.094,22.285,10.481-3.632-3.077-12.86.993-17.043-2.618,3.571.07,6.8-.193,9.18-1.314-.989-1.27-2.761,1.145-3.278-1.31,1.631-.908,1.557-1.857,1.965-2.623,2.6,1.773,6.541,2.2,11.141,1.969-1.106-3.483-8.993-.185-9.828-3.933,8.064-.887,13.089,0,22.94,0-7.839-5.871-19.956-.359-30.809-3.932,11.224-2.652,26.446-2.844,34.738,2.621-1.252.275-2.823.241-2.622,1.965,3.553-.493,4.446,1.669,6.552,2.623,1.452-1.719,8.108,2.256,11.145,3.276-6.018.641-17.18-3.419-21.63,0,4.359.231,5.99,3.189,9.834,3.933-.5-5.577,13.678,1.092,17.039-1.313-1.715-.466-2.227-2.137-3.929-2.62,4.083.935,8.93,1.115,11.792,3.276-.769.1-1.862-.113-1.96.657,4.028.6,6.735,1.944,9.829,1.309-.651-1.756-4.128-.68-5.247-1.966,1.181.085,1.535-.651,1.309-1.965a79.216,79.216,0,0,0-16.381-3.278c-.73-5.822-9.439-3.665-11.8-7.865,6.791-.007,13.876,3.16,19.661,1.967-17.976-5.544-38.7-7.407-61.6-6.554,4.755-4.555,13.219-2.483,20.317-1.968,8.025.585,16.33,1,22.939,1.968,4.626-4,17.259,6.893,23.591,3.278-17.242-6.938-41.121-11.326-64.882-13.761-.141-1.242.743-1.452.66-2.626,26.536-.427,35.095,7.637,58.98,10.488-8-6.255-19.416-5.264-28.833-9.827,10.056-2.573,21.415,6.045,29.493,3.274-9.5-3.256-22.361-4.885-34.08-8.521,8.7-1.456,20.65,6.4,29.491,2.621-16.232-3.05-28.144-4.48-44.569-9.174,5.757-.565,10.82,1.981,15.736-.658,9.849,1.536,20.024,6.157,28.18,7.212-3.325-2.895-8.594-4.6-13.766-5.893C138.069,341.656,123.572,339.623,113.67,342.1Zm1.964,36.7c-2.375-1-5.356.544-9.172,0,.267-1.576-1.2-1.429-.66-3.274C110.042,373.221,113.39,375.815,115.634,378.8Zm17.693-14.417a181.521,181.521,0,0,0-25.56-1.315v-1.964C113.644,362.767,128.855,360.894,133.327,364.388ZM111.7,351.933c4.634-1.608,8.3-.539,13.763-.653C124.125,354.172,115.588,352.427,111.7,351.933Zm11.974-3.914c2.616.225,7.829,2.306.48,1.293.237.036-3.624-.143-3.938-.656C120.059,348.389,124.185,348.111,123.675,348.019Zm69.95,285.071c-.833,1.638.333,2.052-.653,2.62-5.518-.591-7.158-7.844-11.8-7.208,2.813,4.3,8.226,11.089,13.759,8.518,1.14,1.753,3.946,4.42,6.554,2.623C199.106,637.217,196.8,634.722,193.624,633.091Zm-42.6-441.718c-.346,1.622-.617,2.666-1.309,5.237h6.552c1.13-3.529-2.97-1.834-3.933-3.275,2.708.081,4.1-1.141,7.211-.655C159.181,189.958,153.029,190.351,151.023,191.373ZM20.606,580c-.18,4.333,3.327,4.973,5.9,6.555C26.44,582.467,23.67,581.092,20.606,580Zm1.309,16.387c-3.316,4.792,5.356,8.755,7.212,4.585A11.483,11.483,0,0,1,21.915,596.39Zm7.212-15.729c-.91-4.118-4.668-5.383-7.212-7.867C19.779,577.494,25.643,579.432,29.127,580.66Zm97.649,43.909c3.344-.868,6.919,2.818,10.485,1.309C136.976,622.074,127.595,620.041,126.775,624.569Zm-16.388,1.966a47.319,47.319,0,0,0-7.859-3.928C102.367,626.1,108.887,630.945,110.387,626.536Zm3.936-1.311c-.092,2.449,3.793,3.087,5.245,1.97v-2.625C117.678,624.646,115.276,624.211,114.323,625.224Zm-18.35-2.617c.337,2.494,2.338,3.338,5.243,3.271C102.191,622.063,97.978,623.441,95.973,622.608Zm74.716-1.317h-1.973c.63,2.376-2.827.667-3.274,1.966,5.117,6.464,10.056,13.1,17.7,17.041-2.219-4.776-9.347-8.125-9.834-12.451,4.816,3.923,8.587,8.891,14.419,11.8C183.861,631.712,175.261,628.515,170.689,621.29ZM86.8,619.327c-1.093,2.456,2.973,4.687,3.929,7.209-6.628-2.544-9.155-9.191-14.419-13.109-1.706,6.154,9.23,8.626,9.176,13.109-8.021-.755-9.977-10.937-16.388-11.143,4.024,4.637,8.307,11.567,14.423,13.111,2.68.675,5.563-1.706,8.516,0,.1-2.306,3.233-1.576,2.622-4.591C91.006,623.416,88.894,621.382,86.8,619.327Zm73.4,5.242c-.508.143-.764.549-.655,1.309,4.685,3.183,7.032,8.7,13.105,10.483C169.245,632.074,165.03,625.275,160.2,624.569Zm-6.552,2.625c2.757,2.154,6.276,6.675,9.826,5.9C162.327,629.607,156.563,624.634,153.648,627.195Zm-11.8-2.625c-.228,3.307,4,4.826,6.552,3.277C147.961,625.007,144.8,624.9,141.852,624.569Zm-79.3-9.177c.258,4.663,7.066,5.888,5.9,9.832-5.138-.753-3.786-8.009-8.52-9.173-1.469,4.034,4.8,5.565,4.591,10.484-5.151-1.621-5.7-7.844-9.176-11.143-1.134,7.124,9.7,18.32,15.73,10.487,1.025,2.4,7.095,6.361,7.865,1.316C70.172,629.178,69.224,615.39,62.547,615.392Zm59.644,38.669c6.765-.2,10.914,1.834,15.723,1.964C133.292,654.112,126.137,651.392,122.191,654.061ZM189.037,549.2c-3.709.445-9.426-1.124-11.141,1.305,3.75-.764,9.133-.207,12.45-.648C189.838,549.711,189.054,549.839,189.037,549.2Z" transform="matrix(0.985, 0.174, -0.174, 0.985, 115.628, 0)" fill="#9b794e" fill-rule="evenodd"/>
</svg>
