<svg xmlns="http://www.w3.org/2000/svg" xmlns:xlink="http://www.w3.org/1999/xlink" width="288" height="236" viewBox="0 0 288 236">
  <defs>
    <clipPath id="clip-path">
      <rect id="Rectangle_152" data-name="Rectangle 152" width="288" height="236" transform="translate(-7691 -12523)" fill="#fff"/>
    </clipPath>
  </defs>
  <g id="Mask_Group_2" data-name="Mask Group 2" transform="translate(7691 12523)" clip-path="url(#clip-path)">
    <path id="Path_10610" data-name="Path 10610" d="M3219.021,1244.519c.113.5.568.663.527,1.319.958-.24.161-.777.264-1.58C3219.386,1244.182,3219.359,1244.507,3219.021,1244.519ZM3182.4,1143.365c-2.659,1.247-3.6,4.27-5.794,6.059-.9.731-2.24,1.052-3.162,1.843-1.422,1.219-2.739,2.714-4.213,3.951-1.427,1.2-3.33,2.333-3.951,4.216-6.406,4.091-10.5,10.556-17.125,15.015-1.387,1.86-2.856,3.638-5.267,4.477-.128,1.805-2.2,1.664-2.373,3.423-3.358,1.646-4.742,5.265-8.428,6.586-1.331-2.477,1.216-3.347,2.107-4.477a41.817,41.817,0,0,1,.264-6.059c-.147-1.21-1.708.366-2.107-.791-.693-3.25-.2-7.007-.528-11.854-1.6,1.856-.792,5.977-1.054,9.22-.055.693-.508,1.449-.264,2.107-.294.81-1.929.284-2.107.527.153,3.308-1.1,6.738,1.845,8.166v5.269c-8.508,9.228-18.359,17.116-26.608,26.607-.913-1.152,0-3.274-.261-4.742-.12-.656-.811-1.008-1.055-1.844a83.756,83.756,0,0,1-1.319-8.958c-1.752-13.6-4.27-29.828-2.9-41.357a13.86,13.86,0,0,1,.791-3.159c.538-.992,2.441-1.489,2.1-3.162-2.226-1.01-3.26,1.748-4.477,2.9-.969.916-2.466,1.5-3.425,2.371-2.617,2.376-4.532,5.7-8.428,6.585-6.651,7.224-15.168,12.578-20.811,20.811-1.488.532-1.937,2.1-3.424,2.635a8.172,8.172,0,0,0-1.844-2.372c-.843-3.4.112-7.29-.264-11.063-2.453,1.443-1.511,7.3-1.578,11.063-8.75,7.556-18.78,13.507-27.662,20.813-7.745,6.367-15.487,12.638-23.706,18.7-1.115.82-2.765,1.251-3.426,2.635,2.844-.833,5.077-3.018,7.375-4.742,15.755-11.812,30.987-24.818,47.944-35.827a9.853,9.853,0,0,1-.791,4.743c-2.032,3.291-5.884,6.154-8.958,9.484-4.6,4.981-8.518,9.722-13.169,14.488-3,3.078-5.8,6.21-8.958,9.483-4.591,4.77-8.155,10.587-13.17,15.279-1.063,4.58-6.638,7.376-5.8,12.117,1.5.216,2.309-2.392,3.954-2.9,6.26,2.343,15.27,1.938,21.336,4.478,6.019.669,14.137,1.482,19.493,3.687a6.341,6.341,0,0,1,3.687-.527c.624,1.172.117,3.2,0,4.477-9.351-1.913-18.849-1.669-28.976-2.9-2.83-.341-4.943-1.15-8.431-1.58-3.875-.478-8.079-2.254-11.063-.527-10.6-1.614-22.866-3.105-34.509-4.48.186-1.308,3.21-2.054,3.689-3.949,6.852-4.771,13.31-9.913,19.758-15.28,2.054-1.707,5-2.731,6.321-5.267-10.683,7.846-21.356,15.7-31.348,24.235-1.255.084-3.238-1.215-3.951,0,.326,2.292,4.2,1.681,6.848,2.108,2.914.467,5.958.634,8.167,1.58.261-.593,1.436.57,1.844-.263,6.521,3.283,15.637,4.464,23.707,6.849,1.091.051.673,1.61,1.582,1.843,3.817.925,6.755,2.727,10.275,3.952.736.228.559,1.372,1.052,1.844a41.957,41.957,0,0,1,20.285,20.021v2.634c1.725,1.031,2.212,2.814,3.424,4.215,5.457,6.314,14.112,8.889,22.391,12.381m-.262-1.845a64.777,64.777,0,0,1-12.118-4.741,31.857,31.857,0,0,1-10.537-8.694c-.151-1.6-1.135-2.377-1.317-3.951,28.734-1.15,52.406.444,79.291-1.054,3.045-.17,6-.422,9.221-.789,18.412-2.109,38.64-2.115,59.533-2.109,2.374,0,4.76-.752,6.85.527,6.478-1.156,14.788.38,21.338.79-3.471,1.657-8.5,1.192-12.645,1.054-8.485-.285-17.241.02-24.5-.263-8.615,1.247-17.587.889-26.079.789-3.877-.044-7.726.7-11.59,1.054-5.994.556-12.355-.6-19.231-.264-6.242.3-13.829-.2-20.81.264-4.862.326-9.551,1.327-14.49,1.582-5.038.256-10.7-.154-15.278.262-6.2.563-12.714.5-18.7.79-3.761.182-7.419-1.143-10.8.528,2.414,1.626,5.068.9,8.166.79,2.687-.1,5.4.263,8.168.262,5.921,0,12.233-.9,18.175-.789,6.973.138,13.5-1.037,20.547-1.58,5.73-.443,11.6.085,17.384,0,6.5-.1,12.463-.624,18.705-.262,5.362.305,10.488-1.312,15.807-1.319,11.532-.012,22.662.294,33.453-.79a6.332,6.332,0,0,0,4.743-.264c.83-.042.878.7,1.843.527,7.915-.489,19.553.264,27.133,0-.208,5.149-2.267,8.447-1.845,14.225a57.844,57.844,0,0,1-7.113,0c-.571.548.033.854.263,1.317-2.96-.684-8.242-1.254-10.537-.263a15.876,15.876,0,0,0-8.957,0c2.985,1.659,6.139-.5,9.748,1.052,9.272-.394,17.915,1.772,30.293.528-1.272-5.8,1.376-12.629,2.372-18.7.421-2.579,1.078-5.567.79-7.639-.52-3.712-4.285-4.88-6.586-7.375-.317-4.913,3.746-6.944,2.371-11.326,4.123-.884,7.432-1.485,11.064-3.163.337-4.753,2.4-7.785,6.322-8.958.147-2.593,1.657-5.965.263-8.428a118.386,118.386,0,0,1-24.5,3.95c-.981.28-.851-.553-1.317-.791-.745,1.466-3.621,1.858-5.269,1.581a67.824,67.824,0,0,1-3.951-8.693c1.576.2,2.287-.061,4.214,0,1.249.51.8,2.718,2.372,2.9-.133-1.1-1.015-1.444-1.055-2.635,9.87-.12,18.271-.085,28.714.527-2.428-16.98-6.753-43.1-5.269-64.014.135-1.9.246-5.468.79-6.849s2.558-1.537,2.372-3.16c-1.155-.493-1.951,1-2.637,1.579-13.838,11.867-28.981,24.163-43.2,35.828-1.857-4.108-.682-11.767-1.317-17.124-1.476,1.472-.9,4.332-1.053,6.586-.278,4.232-.793,9.128-1.054,13.7-1.875,2.692-3.608,5.525-6.324,7.375-.775-5.774-2.313-12.012-2.37-18.44-.031-3.773.562-7.543.265-11.326-.981-12.453-3.625-24.534-2.9-35.564.139-2.092,1.87-3.522-.527-5M3145.527,1308.8c1.069-.119,1.942-.709,2.9-.792,2.573-.218,5.784.137,8.957,0,3.438-.146,7.045-.735,10.008-.526.46.032,1.127.552,1.581.526,1.1-.062,2.132-.749,3.161-.789,2.485-.1,4.89.727,7.114.789,2.542.074,4.787-1.055,6.848,0,1.3-.844,2.283-.375,3.688-1.052-.065-.287-.523-.178-.528-.527-24.933-.277-46.333.563-69.543,2.37m-32.665,1.581c12.126.635,30.042.411,43.729-1.844,2.546,1.367,6.113-.019,9.483.79m-148.308-50.577c1.428.415,3.206.482,4.213,1.318C2994.78,1259.6,2992.836,1259.7,2991.949,1258.745Zm7.111,1.844c1.308.1,3.207-.4,3.425.791A6.839,6.839,0,0,1,2999.06,1260.589Zm3.954.526c.151.9,1.956.151,2.371.791C3005.113,1262.191,3002.236,1261.839,3003.014,1261.115Zm61.112,6.324c-1.655.671-4.725.329-7.374,0C3058.2,1265.756,3063.061,1266.565,3064.127,1267.439Zm50.579,6.058c-2.058-4.356-1.169-9.485-2.636-14.753,4.6-1.31,9.039-1.273,14.224-2.108.016,5.713-.557,12.012-.789,17.913C3121.673,1274.723,3117.06,1275.416,3114.706,1273.5Zm.263,1.58c-3.947.395-7.483-.568-10.8-.791-1.228-.083-2.5.432-3.687.263-1.158-.163-2.27-1.185-3.425-1.317-4.074-.457-8.526.593-12.906-1.052-.173-2.4-2.458-5.413-1.319-7.375C3095.6,1268.316,3104.384,1269.522,3114.969,1275.078Zm-2.634-2.9c-3.563-.671-6.828-2.593-10.537-3.689-6.743-1.99-14.229-2.563-20.284-5.531,9.229-2.012,20.206-2.273,29.5-4.216C3111.3,1263.232,3112.681,1267.936,3112.334,1272.18Zm-29.767-.526c-1.1.222-1.246-.513-2.107-.529.335-3.144-1.041-4.581-1.318-7.11C3081.761,1265.083,3081.707,1268.823,3082.568,1271.654Zm-5.8-13.435c.954-1.059-1.22-3.03.264-3.69a41.211,41.211,0,0,1,2.372,7.377C3076.9,1262.3,3078.681,1258.416,3076.772,1258.22Zm0,3.687c-2.251.471-4.268,1.177-6.585,1.582.151-2.507,3.466-4.071,5.269-5.8A8.129,8.129,0,0,1,3076.772,1261.907Zm-4.479,3.951c.7-1.851,3.39-1.7,5.269-2.37.815,2.255,1.281,4.864,2.108,7.113-1.488-.006-2.041-.949-3.426-1.056-.778-2.557-3.844-2.829-6.057-3.95C3071.374,1265.547,3071.5,1265.272,3072.293,1265.858Zm-.789,2.372c-1.293-.2-3.542.553-3.688-.791C3069.048,1267.7,3070.71,1267.529,3071.5,1268.23Zm-12.645-4.481a9.958,9.958,0,0,1-.264-3.423,78.759,78.759,0,0,1,9.747,1.317C3067.7,1264.841,3062.048,1264.7,3058.86,1263.749ZM3042,1210.538c.309.042.747-.046.789.263-9.125,10.193-17.727,20.908-27.4,30.559C3023.427,1230.25,3033.293,1220.974,3042,1210.538Zm-27.133,31.349c-1.1,1.621-1.951,3.491-3.425,4.741C3012.5,1244.966,3013.213,1242.954,3014.867,1241.887Zm-5.006,6.585c.8-.163.515-1.418,1.316-1.582C3011.267,1247.785,3010.448,1249.127,3009.861,1248.472Zm45.045,9.748c-1.052.086-1.462-.471-2.632-.265-.816-4.448,1.293-10.333-1.055-14.224-.478,3.934.188,9.339-.527,13.962-5.945-.854-13.364-1.948-18.966-3.162-.5-3.118.181-6.283-1.054-8.956-.9,2.042.05,5.853,0,8.692-2.2,0-3.741-.648-5.8-.789-2.033-3.323-3.161-8.953-5.27-11.327.9,4.026,2.6,7.238,3.69,11.065-4-1.293-8.168-1.109-12.119-2.109.59-3.012,2.413-4.786,4.214-6.586.871,1.5,1.145,5,2.372,5.27-.624-1.923-.65-4.444-1.58-6.059,3.393-4.773,7.492-8.841,11.327-13.172.744-.355.659,1.395,1.052.528.2-.812-.719-.508-.524-1.317,9.38-9.238,17.53-22.5,27.922-30.822C3056.28,1218.191,3055.559,1239.07,3054.906,1258.22Zm-45.571,2.369c2.368-.934,5.5.755,8.429,1.054,6.21.632,10.656,1.584,16.333,2.106,5,.462,10.009.933,14.752,1.581,2.042.281,5-.251,6.057,1.845-9.655,0-19.48-3.409-28.976-2.9,13.332,3.009,31.26,3.916,43.729,5.268,1.07.116,3.195.167,3.687,1.58-5.407.939-11.11-.451-16.858-1.053-5.688-.6-11.593-.919-17.123-1.842-8.371-1.4-16.335-3.159-23.446-5.006C3013.646,1262.633,3010.506,1262.675,3009.335,1260.589Zm15.016,10.8c-4.369-2.755-9.582-4.043-14.227-6.85,3.4-1.021,6.963.329,10.8,1.055a153.353,153.353,0,0,1,15.279,3.95c6.3,1.642,13.176.531,19.756,1.58,6.662,1.062,13.374,2.4,20.283,3.162,7.193.791,14.461,1.12,21.6,2.107,12.585,1.743,27.53-.723,38.461,1.845a20.2,20.2,0,0,1,6.849-.792c7.2.138,16.708-.619,22.917-.261a68.269,68.269,0,0,0,7.111-.264c8.018-.507,19.815-.223,26.869-2.372.654-.2.942-.7,1.582-.788,2.457-.355,4.922.653,7.375.525,3.686-.193,7.282-2.852,11.328-2.107-.562,2.644.2,5.156-.791,8.166-7.109.942-13.879,1.6-20.284,1.843-.154-1.25-.064-2.743-.79-3.424-1.372.01-5.529-.909-6.848.528-.718.976.131,2.2,0,3.424-4.883.018-10.075.287-13.961.529-.1-1.39-.06-2.929-.792-3.69-1.372.009-5.53-.909-6.848.527-.719.977.131,2.2,0,3.424-4.072.143-8.123.305-12.118.526-.1-1.387-.057-2.927-.79-3.687-1.373.009-5.53-.908-6.848.526-.72.977.129,2.206,0,3.425-3.611.077-7.588-.212-10.8.264-.068-1.512-.042-3.121-.792-3.952-1.37.011-5.529-.907-6.848.528-.719.977.132,2.2,0,3.425-3.738.037-7.12.432-11.065.264-.309-.92-.044-2.416-.79-2.9-1.432-.1-5.076-.651-6.849.262-.736.655.392,2.767-.525,2.636a96.194,96.194,0,0,0-10.274.262c-.622-.958-.174-2.988-1.054-3.689-1.372.011-5.53-.907-6.85.529-.675.866.039,2.1,0,3.16-4.285.13-8.66-.214-11.59,0-.068-1.512-.041-3.12-.791-3.951-1.371.011-5.528-.91-6.848.526-.678.869.038,2.106,0,3.163-14.905-.154-25.622-2.277-38.724-3.163C3032.429,1278.374,3028.957,1274.295,3024.35,1271.391Zm136.982,3.952c2.2.234,4.018-.72,5.53.262C3164.736,1275.633,3162.261,1276.512,3161.332,1275.343Zm5.8,0c5.9-.615,15.9-2.039,21.075-.793C3179.612,1274.446,3173.536,1276.081,3167.128,1275.343Zm34.771-2.371c.528-.451,2.136-.386,2.371.261C3203.556,1273.07,3202.181,1273.568,3201.9,1272.971Zm-8.956,7.375c1.784.216,5.839-.787,4.74,2.107H3193.2C3192.8,1282.07,3192.974,1281.1,3192.943,1280.346Zm-16.859,2.9c-1.768-.186-2.892.27-4.479.262-.01-.865-.446-1.313-.264-2.37C3173.127,1281.352,3177.182,1280.351,3176.084,1283.245Zm-19.759.788c-1.786-.2-2.8.362-4.478.264a5.684,5.684,0,0,1-.263-2.37C3153.3,1282.212,3157.472,1281.1,3156.325,1284.033Zm-18.175.528h-4.743a5.688,5.688,0,0,1-.262-2.371C3135.326,1282.259,3138.881,1281.687,3138.151,1284.561Zm-18.7.264h-5.006v-1.318C3116.027,1283.93,3119.154,1282.585,3119.447,1284.825Zm-18.967.262H3096a4.918,4.918,0,0,1-.262-2.108C3097.6,1283.27,3101.541,1282.156,3100.48,1285.088Zm-18.967,0h-4.478c-.542-.424-.612-1.321-.529-2.371C3078.777,1282.7,3082.169,1282.289,3081.513,1285.088Zm-29.766-1.317c1.042.1,2.523-.243,3.159.263C3055.153,1284.606,3052.207,1284.208,3051.747,1283.77Zm-12.908.263a74.615,74.615,0,0,1,16.067,1.581,78.5,78.5,0,0,0-8.428.264C3044.088,1285.949,3039,1286.711,3038.839,1284.033Zm175.968,2.372c1.354.455,3.413-.827,3.688.263A4.5,4.5,0,0,1,3214.807,1286.405Zm-3.687-.791c-16.923,1.6-33.127.675-52.16,1.58-25.564,1.218-52.478,1.726-76.92,2.109-9.6.15-18.265-.294-27.658-.528-2.867-.071-5.821-.594-8.43-.526-2.382.063-5.456,2.422-6.06,0,.232-1.4,2.062-.743,2.9-.791,9.175-.514,17.917.153,27.4-.264,3.076-.135,6.352-1.238,8.166.528.945-1.73,3.562-.46,5.8-.528,8.673-.253,18.5-.526,28.712-.526s21.046-1.164,30.558-1.054c19.556.23,40.419-1.048,59.533-1.317,4.068-1.9,10.549-1.395,15.542-2.37a1.838,1.838,0,0,1,.791.525C3219.8,1285.518,3213.3,1285.408,3211.119,1285.614Zm13.7,21.075c1.673.468,3.912-.989,4.215.526C3227.754,1306.913,3225.236,1307.851,3224.816,1306.689Zm6.584-20.284c-.583,6-3.671,12.575-3.423,18.7h-2.371c.467-3.7,2.941-8.162,3.425-12.382.265-2.318.984-6.527-1.317-7.113.778,8.418-1.886,13.393-3.424,19.495-1.893-.234-3.456.7-5.006,0-.376-9.245,2.16-15.3,2.9-24.5,1.41.1,1.919-.532,2.371.528,1.09-.754,1.18-2.509,1.053-4.477C3229.82,1278.142,3231.943,1280.862,3231.4,1286.405Zm-9.218-7.112c1.116-3.974-1.057-9.641,3.688-10.009a69.113,69.113,0,0,0-2.107,10.009Zm3.688-11.592c-4.2.457-6.656,2.651-11.591,2.371-.529.536-.069.7.263,1.053-4.762.471-8.456-.188-13.172.265-4.056.387-7.879,1.621-11.854,1.317-7.565-.578-14.908,1.155-22.39,1.317-6.542.142-13.052.292-19.232,1.581-.771.068-.81-.6-1.579-.527-.532,1.576-4,.212-5.268,1.054-.281.01-.668-.123-.264-.263-.885-.705-.109-2.868,1.317-3.424,2.306.27,4.417.846,7.111.263,1.271-.276,2.44-1.371,3.689-1.582,4.826-.812,10.094,1.277,13.96-1.053,11.568.512,26.159-1.317,36.09-3.424,7.184.645,15.574-2.174,23.446-2.9A13.462,13.462,0,0,1,3225.871,1267.7Zm-83.506-10.537c.212,4.205,2.606,8.947,1.58,12.644C3143.507,1265.68,3141.748,1261.471,3142.365,1257.164Zm-.526-2.107a9.778,9.778,0,0,0,.526,1.845C3141.645,1256.984,3141.29,1255.37,3141.839,1255.057Zm21.862,5.006c-3.179,1.7-4.147,6.429-8.693,6.585-1.363,1.357-1.979,3.464-4.739,3.424-2.318-4.092-2.748-10.074-3.952-15.278,14.4-1.146,27.789-3.105,43.843-1.871-.63.031-.875.446-1.7.291-2.641,1.4-3.752,3.929-6.847,4.741C3176.1,1259.4,3168.623,1257.434,3163.7,1260.063Zm2.373,1.052c1.5-.6,2.969-.414,5-.526C3177.543,1260.23,3166.747,1261.473,3166.073,1261.115Zm-18.178,8.957h-2.105c-.678-5.2-1.946-9.821-2.634-15.015h1.578C3145.83,1259.863,3147.3,1265.64,3147.9,1270.072Zm32.139-6.584c3.714-.8,4.5,1.443,3.952,4.213a33.6,33.6,0,0,1-3.688.264C3180.5,1266.18,3179.939,1265.163,3180.034,1263.488Zm15.278-.791c1.266-.712,3.235-1.974,5.006-1.317.228,1.138.534,3.435-.265,4.74-2.1.064-2.588.181-4.477.263C3195.171,1265.471,3195.345,1263.984,3195.313,1262.7Zm16.6,1.58v-4.742a28.945,28.945,0,0,0,5-.264c.632,2.075-.848,3.04-1.317,4.743C3214.073,1263.807,3213.346,1264.4,3211.91,1264.278Zm26.605-5.006c-7.163,1.435-13.555,3.557-20.811,4.216-.019-1.99.874-4.05.264-5.8-2.292.164-4.623.441-6.586.528-1.118,1.338.025,4.942-1.054,6.321a71.071,71.071,0,0,1-8.693,1.055c-.1-2.094.393-4.783-.791-5.8-3.1.5-5.248.424-6.849,2.634.928,1.56-.5,2.864,0,4.216-2.969.366-6.042.632-8.956,1.053-.58-1.534,1.132-3.943.263-5.795-2.54.006-5.381-.288-6.322,1.317v4.741c-1.97.841-5.567.052-7.111,1.319-6.579-1.313-10.322.286-16.862-.264,2.961-1.028,6.124-4.928,8.958-5.8,1.293-.4,3.965-.43,6.323-.792,3.636-.557,7.2-1.69,10.01-.526,2.875-1.481,6.369-1.122,9.747-1.318,9.274-.538,18.817-3.226,27.395-3.425,6.42-2.1,14.053-2.984,21.076-4.479.263,0,.313.213.527.266C3238.18,1255.233,3238.352,1256.367,3238.515,1259.272Zm-1.318-12.117c-3.969.772-8.906,1.981-13.171,1.579C3227.366,1247.5,3234.358,1247.137,3237.2,1247.155Zm7.9-1.056c-.118,1.539.093,3.639-.527,3.951-.321,1.083-1.017.153-1.58,0-2.521,1.537-6.188,1.588-10.01,2.372-15.079,3.1-30.8,6.133-46.364,6.586.759-.217,2-1.324,1.316-2.106-1.362.391-1.757,1.751-3.686,1.579,1.28-1.439,1.744-3.7,4.743-3.424,1.023.766-.874,1.557-.266,1.845v-.265c1.577-.778,2.484-2.161,3.953-2.372C3210.164,1251.759,3231.634,1251.7,3245.1,1246.1Zm-52.158,3.69c-1.929-2.287-1.848-6.584-2.635-10.01C3195.028,1238.6,3192.114,1245.945,3192.943,1249.789Zm5.006,1.054c.117,1.217-3.063,2.474-2.9.524A4.689,4.689,0,0,1,3197.949,1250.843Zm-2.9-1.318c.709-3.154-.3-8.034,1.317-10.273.933,2.93,1.073,6.655,1.317,10.273A10.7,10.7,0,0,0,3195.049,1249.525Zm6.322-.791c-.976-.187-1.129.45-2.107.265-.464-3.136-.806-6.395-1.314-9.483a2.326,2.326,0,0,1,2.1-.529C3200.258,1242.475,3200.942,1245.477,3201.371,1248.734Zm-3.951-35.035c2.834,6.914,6.867,12.626,9.483,19.759,1.037.725,2.287,2.624,1.844,3.95-2.1-.359-4.168.005-7.638,0C3200.054,1229.5,3197.656,1221.542,3197.421,1213.7Zm4.215,37.145c-.059.818-1.311.443-2.107.524v-.788C3200.16,1250.247,3201.608,1249.7,3201.635,1250.843Zm7.375,0c-2.167.209-5.2.759-6.059-.793,4.562-.443,8.424-.5,11.855-.525A27.1,27.1,0,0,1,3209.011,1250.843Zm5.269-2.9c-3.149.924-8.16.674-11.59.527-.418-2.486-.694-6.434-1.318-9.485,3.773-.257,5.26.108,8.694,0C3211.33,1242.115,3213.128,1244.707,3214.28,1247.945Zm-3.952-51.63c1.2-3.495,4.643-4.254,6.849-6.849,2.225-2.621,4.756-4.21,7.639-6.849,4.88-4.468,10.753-10.276,15.543-13.7-2.491,22.327.6,48.214,4.214,69.283a83.138,83.138,0,0,0-14.751-.528c-.9.2-.335-1.071-1.316-.79-.231.382-.209,1.02-1.054.79-4.446.419-7.006-.414-11.064,0-1.754-2.094-3.858-5-3.688-8.166-.554.578-1.171.054-1.58-.263-2.491-4.951-5.716-10.858-8.167-15.806-.979-1.977-3.56-4.611-3.423-6.323.145-1.832,2.938-3.113,3.951-4.213C3205.692,1200.492,3207.512,1197.58,3210.328,1196.315Zm-5.532,2.632c-.341,1.153-1.329,1.658-2.106,2.371C3203.031,1200.166,3204.02,1199.662,3204.8,1198.947Zm-2.9,3.161a7.344,7.344,0,0,1-3.161,3.162C3199.694,1204.12,3200.428,1202.744,3201.9,1202.108Zm-4.743,6.586c.83.128.6-.807,1.582-.524,4.672,8.556,8.6,16.287,13.435,24.5v1.581c1.632.211,1.815,1.871,2.371,3.16h-1.581c-.418-.929.465-1.638-.529-2.106-.333.757.109,1.94-1.314,2.106a10.857,10.857,0,0,1-3.424-6.321c-1.394-.719-1.34-2.474-2.108-3.952-.56-1.075-1.736-1.958-2.372-3.161-.622-1.179-.7-2.72-1.316-3.951C3200.029,1216.278,3196.78,1213.458,3197.156,1208.693Zm-.262,11.064a8.615,8.615,0,0,0,.527,3.689c.4,2.068-.047,3.366,0,5.269.025.975.789,1.973.791,2.9,0,.992-1.287,1.87,0,2.371.619-.258.236-1.52.79-1.843-.1,2.032.577,3.286.528,5.267-2.395.429-.619-2.166-1.055-2.634-.621-.644-.489.394-1.318.263C3196.456,1228.733,3195.545,1224.73,3196.894,1219.758Zm-.791,15.807c-.216.66.512,2.27-.526,2.107C3195.977,1237.352,3195.641,1234.949,3196.1,1235.564Zm-.791-23.973c.217,1.719.59,4.672,0,6.323C3195.2,1215.843,3194.495,1212.27,3195.313,1211.592Zm-.525,15.279c-.33,2.128.673,5.591-.529,6.848C3194.648,1231.385,3194.052,1228.259,3194.788,1226.87Zm-.265,7.377c-.115.864.267,3.589-.264,3.16C3194.374,1236.546,3193.993,1233.821,3194.523,1234.247Zm-5.531-16.333c.51-2.739,2.853-3.643,4.479-5.27-.712,9.009.393,17.693-1.057,25.554-8.16.329-15.094,1.565-24.762,2.105.467-2.256,2.733-3.563,4.218-5a141.241,141.241,0,0,0,13.433-14.752C3187.01,1220.15,3187.449,1218.48,3188.992,1217.914Zm-13.961,12.382c.6-1.421,1.858-2.179,2.9-3.162C3177.366,1228.591,3176.086,1229.331,3175.031,1230.3Zm7.111-83.77c-1.127,8.507.7,16.988,1.581,25.551,1.475,14.333.592,28.828,2.9,43.2-2.655,3.49-6.116,6.177-9.22,9.221-.111-.5-.094-1.134-.79-1.054-.142,1.019.471,1.286.263,2.37a96.158,96.158,0,0,0-6.584,7.9c-.829.441-1.077-.979-1.319-.261-1.434,4.621-5.409,6.706-6.848,11.326,1.571-.712,2.377-2.187,3.952-2.9,7.464.18,15.29-1.33,22.652-2.108,2.02,2.722,2.207,7.278,2.637,11.589a325.326,325.326,0,0,0-35.828,1.317c-.671-.2-.446-1.309-1.316-1.317-.938,3.026-5.06,1.629-8.167,2.108-.71-3.852-2.145-7.747-2.634-11.327-1.828-13.37-6.1-25.2-7.9-37.933-1-1.025-.452-3.586-1.847-4.215.631-1.842-.444-3.828-.788-5.532,6.052-5.45,10.939-12.067,17.123-17.386.629-.1-.146,1.2.792.79a1.257,1.257,0,0,0-.266-.79c-.316-.055-.161-.292,0-.526C3161.187,1166.664,3170.466,1155.4,3182.141,1146.526Zm-28.976,25.815c-1.128.72-2.4,2.686-3.423,2.635C3150.969,1174.355,3151.968,1172.116,3153.165,1172.341Zm-5.222,4.384a7.192,7.192,0,0,1,1.008-.959c-.32.311-.659.632-1.008.959a35.081,35.081,0,0,1-3.209,3.782c-.258.223-1.054.234-1.315.528-.653.728-.895,1.918-1.58,2.633-1.179,1.229-2.877,2.135-3.952,3.426-1.744,2.091-2.847,5.259-5.268,4.477C3136.908,1186.255,3143.524,1180.865,3147.943,1176.725Zm-14.8,25.119c2.306,6.342,3.13,14.294,4.741,19.5.2.81-.722.5-.526,1.318.351.263.979.247,1.053.789-1.161.609.478,1.083-.527,1.843.162.366,1.014.04,1.054.527-.991,1.094,1.579,2.269.791,3.162-.239-.46-.589-1.014-1.055-.528a1.711,1.711,0,0,1,.265,1.318c1.636.724,2.237,4.85,2.634,6.849,1.053,5.3,1.937,11.309,2.9,17.121-1.02.165-1.086.217-1.846-.264a5.1,5.1,0,0,1,.529-3.16,26.747,26.747,0,0,1-2.372-13.171c-1.073.17-1.166-1.045-.266-1.317a.621.621,0,0,0-1.051-.527c-.2-1.119-.326-2.306-.527-3.425.491-.252.881.788,1.055,0-.075-.611-.706-.606-1.055-.264-2.685-12.5-5.234-23.274-7.376-35.825C3132.636,1197.515,3133.73,1199.9,3133.146,1201.844Zm-3.425-17.648c-.109-2.143.335-3.217,0-5.007a10,10,0,0,1,2.371-.527c.822,1.326.122,2.539.265,4.481C3131.439,1183.454,3130.594,1183.841,3129.72,1184.2Zm.79,33.454c.2-.414.837-.393.791-1.054-.112-3.654-1.173-8.038,0-12.382,1.541,5.26,1.774,11.376,2.9,15.542.337-.016.364-.335.791-.264-1.012.831-1.338,4.336.263,4.479a2.466,2.466,0,0,1,.527-2.107c1.707,9.22,3.6,19.248,5.532,28.184.247,1.15.826,2.851,0,3.954-.526-.911-.453-2.173-1.054-2.37-1.062.29.237,1.767-.526,2.631h-1.58c-.585-3.081.365-3.958-1.316-6.057-.313,2.019.186,3.543.261,6.057a26.282,26.282,0,0,1-7.112.792C3129.78,1241.713,3129.832,1232.165,3130.51,1217.651Zm-.79,38.723c2.808.184,5.578-.815,7.64-.528,1.237,3.683-.055,9.892,2.9,11.855-1.272-4.847-.86-8.3-1.843-12.116.832.128.931-.476,1.843-.265,1.268,4.7,1.035,10.909,2.635,15.281-.963,0-1.184.746-1.843,1.053a5.177,5.177,0,0,0-1.053-3.163c-.67,1.336-.325,2.283,0,3.689-1.572,3.19-6.034,2.6-10.54,2.37A83.836,83.836,0,0,1,3129.72,1256.374Zm-2.634-32.137c-.753,9.529.291,20.212-.792,31.083-2.063-.134-4.286.514-6.848,1.055-.16-1.6.014-3.527-.79-4.477-1.3.865.1,2.871-.264,4.477-1.9-.237-2.636.7-4.479.528-.628-.334.091-2.024-1.053-1.845-.055.824.178,1.935-.263,2.372a13.1,13.1,0,0,0-5.007.791c-.98-2.449.573-6.392-1.052-8.957a88.237,88.237,0,0,0-.264,9.219c-4.49.2-7.335,1.71-11.591,1.055-.684-2.23-1.1-5.48-2.107-6.585a26.433,26.433,0,0,0,1.316,6.848c-4.177.614-9.184,1.635-13.169,1.582-.692-3.634-2.036-5.31-2.635-8.7,2.185-1.833,3.374-5.837,6.321-6.057.131-.83-.473-.929-.261-1.844,3.061-3.961,7.287-6.761,9.744-11.326a18.722,18.722,0,0,0,6.587-5.8c6.931-9.045,16.247-16.292,23.445-25.026,1.546-.736,2.336-2.231,3.951-2.9C3128,1208.5,3127.694,1216.542,3127.086,1224.237Zm-.263-27.659h.79v1.052c-11.574,10.906-22.4,22.555-33.456,33.983C3103.476,1218.364,3115.321,1207.644,3126.823,1196.577Zm-51.9-19.758c-.97,1.4-2.468,3.675-3.949,3.688C3072.45,1179.433,3073.455,1177.893,3074.927,1176.819Zm-4.479,4.48c-.1.7-1.07,1.892-1.579,1.318C3069.561,1182.342,3069.756,1181.57,3070.448,1181.3Zm-11.588,31.083c.307-.835,1.287-.994,1.318-2.107-1.283-1.512-1.069-3.124-.791-5.271,1.657-.592,1.755,1.746,2.634,1.055-.3-.9-.347-4.179-2.372-4.216-.386-1,1.176-.049.791-1.053.159-.949-.8-.775-.791-1.58a28.756,28.756,0,0,1,.529-5.269c11.822-12.236,24.572-23.545,36.614-35.562h.792c-3,17.835,2.491,33.978,3.687,51.9.686,2.432,2.486,8.633,0,9.483-.866.764-.6-1.852-1.581-1.844-.083,1.4.856,1.779.791,3.16-3.279,4.01-6.276,8.3-9.747,12.12-.321-1,.011-2.647-1.055-2.9a10.52,10.52,0,0,0-.262,4.74c-2.107,2.287-2.885,5.9-6.06,7.113a14.8,14.8,0,0,1-6.057,7.641c-.5-.64.531-1.593,0-2.371-1.578,1.112-1.061-1.64-2.636-.528.54,1.322,1.833,4.347,1.055,5.268-2.784-7.521-4.638-14.612-7.376-21.862-.638-2.028-1.212-6.08-2.9-7.9-.24-3.315-.936-8.343-3.424-10.274.782,4.137,3.106,9.937,4.214,13.171.16.465-.375.607-.264,1.054.275,1.088,1.237,2.184,1.581,3.425,1.268,4.55,2.537,8.3,3.953,12.908,2.4,7.827,4.606,12.786-.527,16.86-1.581-7.7-4.094-18.017-5.007-25.552-.812-.065-.444-1.312-1.579-1.054,1.566,8.665,3.949,17.634,5.269,27.659-3.732-.833-8.079-1.053-11.591-2.108C3057.623,1243.589,3057.457,1225.5,3058.86,1212.382Zm-12.119,59.272c-3.88-.143-3.925,6.211-1.846,8.692C3050.988,1281.418,3050.68,1271.8,3046.741,1271.654Zm.789,6.585c-.634-.108-.57.481-1.317.264-1.342-.648-.883-3.977,0-4.742C3048.351,1273.615,3047.381,1277.176,3047.53,1278.239Zm-2.106-40.3c-.424-.075-.453.249-.789.264.472,6.8,1.4,11.42-.265,17.121,2.532.038,1.693-3.777,1.843-5.795A57.093,57.093,0,0,0,3045.424,1237.935Zm-2.107-10.536c-.681,2.3.333,5.718,1.579,7.637C3044.616,1232.343,3043.758,1230.621,3043.317,1227.4Zm7.113,3.424c-1.062-.258-1.062,1.576,0,1.318Zm0,4.478c.783.055.928-.939.527-1.317C3050.07,1233.713,3050.546,1234.8,3050.429,1235.3Zm-13.962-1.583c1.342,7.548.242,14.2,2.371,21.6a130.93,130.93,0,0,0-1.845-21.862C3036.689,1233.413,3036.525,1233.515,3036.468,1233.718Zm40.3,11.855c1.033-.648,1.175-2.812.528-3.686C3076.048,1243.121,3077.156,1244.111,3076.772,1245.573Zm-46.889-11.063h-.792c.368,2.807.374,7.119,1.581,10.8C3032.057,1242.169,3029.627,1238.018,3029.883,1234.51Zm50.578-21.335a27.948,27.948,0,0,0,1.052,8.165C3082.734,1219.764,3080.976,1215.9,3080.461,1213.174Zm-.528-1.845c.773-.224-.158-.849,0-1.317C3078.761,1209.971,3079.775,1211.079,3079.933,1211.329Zm-2.9,24.5c-.375-1.86-.406-4.013-1.053-5.532C3075.081,1231.975,3075.261,1235.183,3077.035,1235.828Zm-2.372-7.9c.473-.033.556.322,1.055.264a1.649,1.649,0,0,0,0-1.844C3074.748,1226.253,3074.922,1227.3,3074.663,1227.924Zm6.85-5.795c-.2,1.434.543,1.915.79,2.9.551-.654.357-2.8-.264-3.16C3081.734,1221.823,3081.569,1221.922,3081.513,1222.129Zm1.317,9.483h.791v-1.054C3082.926,1230.479,3082.756,1230.923,3082.83,1231.612Zm.791,1.054c-.451-.851-.714.659-.791,1.052h.791C3083.983,1233.12,3082.94,1232.729,3083.62,1232.666Zm-1.317-5.8c1.059.04.7-.675.527-1.317C3081.9,1225.643,3082.15,1226.246,3082.3,1226.87Zm.527,3.425c1.054-.222.67-1.295.263-1.845C3082.219,1228.127,3082.45,1230.232,3082.83,1230.3Zm-7.9-4.479c1.564-.374.319-2.343-.263-2.9C3073.927,1223.676,3075.409,1224.446,3074.927,1225.817Zm4.48-18.966c-.971-.243-.48,1.389-.264,1.581C3080.1,1208.192,3079.3,1207.654,3079.407,1206.85Zm-14.489,9.22c.23.386.394.835,1.053.792.218-.745-.37-.683-.262-1.316C3065.362,1215.637,3065.293,1216.007,3064.918,1216.07Zm3.424,8.167c.25-1.92-.907-2.431-1.053-3.952C3066.44,1221.329,3067.23,1223.726,3068.342,1224.237Zm-6.322-12.908c.256.806.887-.117,1.054-.264.928.826,1.035,2.444,1.58,4.214,1.167-1.912-1.087-4.369-1.317-7.11-1.5.039-.4,1.667-.527,2.631-.7-.347-.445-1.659-1.053-2.107.347-.8,1.752-.7,1.053-1.843h-1.318c-.016.772-.6.979-1.052,1.319A15.351,15.351,0,0,0,3062.02,1211.329Zm5.006,8.429a6.382,6.382,0,0,0-.792-2.634C3065.293,1217.7,3065.836,1219.749,3067.026,1219.758Zm-4.217,3.951c-.822,1.169.2,4.6,1.054,5.8.053,1.351-.228,3.038,1.054,3.161-.84-6.917-2.689-13.561-4.74-20.811h-.791c.445,4.121,2.084,7.049,2.37,11.328C3062.279,1223.185,3062.093,1223.9,3062.809,1223.709Zm-1.843-16.6c.191-.8-.269-.959-.262-1.581C3059.86,1205.6,3060.1,1207.243,3060.966,1207.114Zm8.166,18.968c.04-.656-.414-.815-.527-1.318C3067.726,1224.861,3068.311,1226.164,3069.132,1226.081Zm6.323,20.018c-.116-1.289-.939-1.87-1.055-3.159C3073.275,1243.471,3074.239,1246.184,3075.455,1246.1Zm-2.9-10.009c-1.2.427-.688,2,0,2.635C3073.287,1237.854,3072.815,1237.124,3072.555,1236.09Zm1.054,6.587c1.568-.822-.223-2.44-.526-3.689-.426-.074-.454.251-.79.265C3073.353,1240.269,3072.984,1241.669,3073.609,1242.676Zm-4.213-15.015c.487-.466-.116-.77-.264-1.318C3068.561,1226.578,3068.327,1227.814,3069.4,1227.661Zm2.108,5.8a11.521,11.521,0,0,0-.527-2.635h-.791C3069.948,1231.458,3070.318,1233.4,3071.5,1233.457Zm11.853,6.584c1.34-.464.517-2.616.528-3.423-.426-.076-.454.248-.792.263C3082.917,1238.2,3083.337,1238.92,3083.357,1240.042Zm145.412-12.38c-.121-1.284.274-3.085-.263-3.952C3227.4,1224.267,3227.6,1227.18,3228.769,1227.661Zm.263,2.635c.517-.937-.344-.958-.263-2.108C3227.539,1228.236,3227.9,1230.4,3229.031,1230.3Zm-1.317-11.328c-.458-.878.132-1.169,0-2.371h-.791C3227.048,1217.528,3226.494,1219.137,3227.715,1218.968Zm-80.873,13.433h-.79a2.721,2.721,0,0,0,.527,2.9C3146.916,1234.545,3146.67,1233.775,3146.842,1232.4Zm-.79-5.531c-.581.208-.342,1.238-1.053,1.318,1.566.6-.464,3.235,1.581,3.161C3146.263,1229.81,3146.452,1228.594,3146.052,1226.87Zm-.526-3.95v-1.055h-.792c.441.522-.023.335,0,1.055Zm1.579,14.751v-1.582c-.717-.191-.53.524-1.053.528C3146.365,1237.008,3146.281,1237.8,3147.105,1237.671Zm-.263.263c-.462.063-.6.454-.525,1.052h.789C3147.218,1238.436,3146.927,1238.29,3146.842,1237.935Zm41.884-5.269c.308-.044.47.057.527.264.743-.265-.073-1.12,0-1.581C3188.369,1231.078,3188.845,1232.168,3188.726,1232.666Zm37.672-19.229c.346-.093.415-.464.79-.528.034-.473-.323-.554-.264-1.054C3225.973,1211.6,3226.556,1212.893,3226.4,1213.437Zm-13.17,14.224c-.187-2.136-.218-5.919-.528-7.639-.857,1.914-.694,4.745-.266,7.9A1.256,1.256,0,0,1,3213.227,1227.661Zm7.112-4.478v-1.054A.563.563,0,1,0,3220.339,1223.183Zm-.263,6.06c.721-.007.625-1.242.263-1.581C3219.368,1227.418,3219.86,1229.05,3220.076,1229.243Zm0-8.169c.117-1.076.43-2.11-.264-2.9-.426-.074-.453.25-.791.263C3219.064,1219.629,3218.93,1220.992,3220.076,1221.074Zm-.791-7.637c-.427-.077-.454.25-.791.261.114.5.567.662.526,1.318C3219.743,1215.01,3219.646,1213.773,3219.285,1213.437Zm-72.443,26.078c-.652.37-.464.907-.262,1.579C3147.645,1241.026,3147.354,1239.909,3146.842,1239.515Zm-10.8,0c-.474.034-.555-.324-1.054-.263.1,1.039.013,2.268,1.318,2.107C3135.673,1240.754,3135.905,1240.511,3136.043,1239.515Zm-30.293-.791c-.435-.684.392-1.584-.265-2.37C3104.406,1236.24,3104.2,1239.22,3105.75,1238.724Zm-.529-3.16c-.022-.72.439-.53,0-1.055A.563.563,0,1,0,3105.221,1235.564Zm0,3.951c.548,2.559-.131,5.623,1.054,9.219,1.938-1.3.262-6.091-.525-8.165C3105.624,1240.247,3106.47,1238.943,3105.221,1239.515Zm6.849,13.96c1.882.515,1.154-3.556,1.053-4.741C3111.48,1250.1,3113.209,1252.293,3112.07,1253.475Zm-11.326,5.269c.8-.02.616-1.722.261-2.108C3100.082,1256.782,3100.584,1258.166,3100.744,1258.745Zm11.854-15.8c.189-1.859-.592-2.745-.528-4.478-.426-.073-.453.25-.79.263C3112.111,1240.318,3110.5,1242.726,3112.6,1242.94Zm0,.263c-.425-.075-.454.249-.792.263.208,1.354-.588,3.282.528,4.742a.99.99,0,0,0,1.054-1.052C3112.15,1247.169,3113.663,1244.456,3112.6,1243.2Zm-26.343,13.7c1.939-1.363.343-5.022.263-6.852C3085,1252.165,3086.913,1253.695,3086.255,1256.9Zm14.75-1.056c.594-.587-.016-1.318-.261-1.842-.346.093-.416.463-.792.525C3100.119,1255.156,3100.307,1255.756,3101.005,1255.846Zm-14.75-8.691c-.811.483-1.185-.238-1.845.263.689,1.2,1.259,1.112,1.582,2.371C3087.062,1249.392,3086.755,1247.948,3086.255,1247.155Zm14.489,3.95c-.181-2.184-.068-4.58-.526-7.9-.308-.041-.47.059-.529.263C3100.028,1245.884,3099.049,1249.856,3100.744,1251.1Zm-8.693-.262v2.108C3093.5,1253.024,3093.073,1251.068,3092.051,1250.843Zm.526-.528a11.863,11.863,0,0,0-.262-2.108C3091.423,1248.382,3091.131,1250.6,3092.576,1250.316Zm24.5-20.02a5.947,5.947,0,0,0-.527-2.635C3115.313,1227.9,3116.232,1229.875,3117.075,1230.3Zm-27.659-2.635c-.1.69-.846.735-.528,1.844.5.113.478.753,1.317.526.206-2.085-.616-4.455-.527-6.585h-1.054C3088.733,1225.464,3088.081,1226.748,3089.417,1227.661Zm-2.108-15.017c1.05-.963-.383-3.525-.791-4.742-.426-.073-.454.249-.791.266C3086.417,1209.5,3086.678,1211.257,3087.309,1212.645Zm-23.973,37.145c-.2,1.256.412,1.693.264,2.9,1.416-.222.505-2.082.526-3.16C3063.7,1249.452,3063.674,1249.775,3063.336,1249.789Zm22.391-45.046c-.575.458.194,1.235.264,2.37A1.576,1.576,0,0,0,3085.727,1204.743Zm37.934,30.821c-.926,2.925.426,8.9.264,11.326,1.818-.938.452-3.692.263-5.8C3124,1239.045,3124.51,1236.985,3123.661,1235.564Zm-34.773-14.49c-.691.768-.291.994-.525,2.109,2-.8.047-4.5,0-6.849-.608-.083-.293.761-.793.79C3088.625,1218.251,3086.7,1220.447,3088.888,1221.074Zm27.66,9.749a132.244,132.244,0,0,0,1.844,18.967c.9-5.7-.33-12.764-1.317-19.231C3116.771,1230.515,3116.606,1230.616,3116.549,1230.823Zm7.905,16.857c-.92.716-.894,3.121-.266,3.954C3125.393,1251.144,3124.659,1248.926,3124.454,1247.68Zm-3.164-25.022c.721-.008.626-1.244.263-1.584C3120.832,1221.079,3120.929,1222.317,3121.29,1222.658Zm2.635,30.293c-.033.471.322.556.263,1.053.52-.208.947-.922.526-1.319C3124.29,1252.613,3124.262,1252.934,3123.925,1252.951Zm-.79-21.865c-.869.976-.368,2.961,0,4.215C3124.184,1234.161,3123.544,1232.166,3123.135,1231.086Zm38.2,2.371c.485.975.334.947.263,2.37,1.3-.182.4-2.036.527-2.634C3161.694,1233.118,3161.668,1233.442,3161.332,1233.457Zm-.527-5.269c1.1-.4.209-2.191,0-2.9C3159.646,1225.493,3160.447,1227.8,3160.8,1228.188Zm-.265.263c1.068,1.9-.521,3.295,1.055,4.479,1.068-.767.021-3.375-.263-4.479Zm0-3.95a9.1,9.1,0,0,0-.526-3.689C3159.188,1221.726,3159.384,1223.938,3160.54,1224.5Zm-11.327-13.435c-.85.328-.277,1.346-.262,1.844C3149.911,1212.71,3148.925,1212.068,3149.213,1211.066Zm9.222,4.742c.575-.038.565-.665.525-1.317C3158.048,1214.306,3158.016,1215.413,3158.435,1215.807Zm.262-3.425a1.71,1.71,0,0,0-.262-1.317C3157.651,1211.089,3157.728,1212.635,3158.7,1212.382Zm10.8,19.494c-.695-.078-.865.364-.791,1.054C3169.4,1233.01,3169.571,1232.564,3169.5,1231.876Zm9.747-43.728c.19-.807-.268-.961-.265-1.582C3177.944,1186.433,3178.5,1188.4,3179.245,1188.148Zm-29.767,27.659c1.416-.222.5-2.078,0-2.633C3148.18,1213.728,3149.793,1214.629,3149.478,1215.807Zm17.649.527v1.053A.563.563,0,1,0,3167.128,1216.334Zm-12.382,34.771c.19-.8-.269-.959-.264-1.58C3153.445,1249.392,3154,1251.357,3154.746,1251.1Zm12.382-35.559c.874.322.645-1.784.261-1.847C3166.512,1213.375,3166.745,1215.481,3167.128,1215.546Zm-30.293,30.553c-.9.435-.156.883-.528,1.846C3137.307,1248.156,3136.64,1246.7,3136.835,1246.1Zm-2.636-12.642c1.176-.06.831-1.708-.266-1.581C3133.744,1232.682,3134.391,1232.65,3134.2,1233.457Zm1.58-3.689a29.4,29.4,0,0,0,1.844,11.063c-.151.465.319,1.549-.262,1.582,1.51,2.09.8,7.805,2.635,8.692,1.109.83.525-1.565.523-1.58-.555-4.931-3.448-12.639-3.423-17.913C3136.153,1231.5,3136.529,1230.073,3135.779,1229.769Zm.528,12.644c-.933.377-1,2.9.263,3.16A17.958,17.958,0,0,0,3136.307,1242.413Zm-.528-16.6h-1.053c.287.767.246,1.861.791,2.371C3136.81,1228.022,3135.378,1226.766,3135.779,1225.817Zm-.527,2.634c.018.71.6,1.266,1.055.792C3136.385,1228.548,3135.941,1228.378,3135.252,1228.451Zm-71.125,20.812c-.692-1.33-.153-3.886-1.053-5C3062.875,1245.9,3062.359,1248.607,3064.127,1249.262Zm76.392-15.015c-.092-.347-.461-.415-.523-.79C3138.894,1233.634,3139.87,1235.092,3140.519,1234.247Zm12.121,2.635c.866-.123.94-3.655-.265-3.424.275-1,.684-1.28,0-2.109C3151.692,1232.773,3152.075,1235.351,3152.639,1236.882Zm-.527-7.9c.609-.586-.09-1.027,0-1.844C3150.913,1226.9,3151.143,1229.126,3152.112,1228.978Zm-16.86,5.531h-.789c-.611,1.458.3,2.64.263,3.689C3136.045,1238.071,3135.491,1235.407,3135.252,1234.51Zm15.278-12.117c.633,1.153-.123,2.24.266,3.95,2.01.1.27-2.6.523-3.95Zm1.845,15.278c.487,4.045.96,6.263,1.581,10.274.969-3.3-.418-7.075-.79-10.8C3152.819,1237.237,3152.749,1237.609,3152.375,1237.671Z" transform="translate(-10616.037 -13632.896)"/>
  </g>
</svg>
