<svg xmlns="http://www.w3.org/2000/svg" width="294.735" height="254.976" viewBox="0 0 294.735 254.976">
  <path id="Path_2155" data-name="Path 2155" d="M283.506,2202.3c8.231.672,18.068-4.883,26.767-5.942C299.994,2194.013,289.688,2198.072,283.506,2202.3Zm9.666-78.8c3.9.591.262-6.319.744-8.182q-3.721,1.632-.744,4.464c-3.516-3.209-16.515-13.336-18.588-13.384a4.548,4.548,0,0,0-.741,5.949,23.626,23.626,0,0,1-11.152-5.209,48.808,48.808,0,0,0,3.716,8.18,12.482,12.482,0,0,0-4.462-3.713c-3.482,6.652-2.8-1.642-11.152-2.973a18.786,18.786,0,0,0,7.436,8.921q-5.969-1.409-11.9-2.975a6.585,6.585,0,0,0,3.719,7.432c-1.631,8.663-11.183-6.177-11.9-7.417q-3.053,3.554-1.868,7.171a31.029,31.029,0,0,1,1.877,3.223,9.782,9.782,0,0,1-1.877-3.223,30.844,30.844,0,0,0-3.325-4.211c-4.939,11.855,7.945,8.968,9.661,12.638-4.835,21.216,2.209,50.125,10.411,57.988a40.928,40.928,0,0,1,8.179-4.458c-6.36,16.231,2.081-5.76-.746,7.433C294.668,2195.237,308.227,2147.506,293.173,2123.5Zm-20.816,8.177c-.8,1.931-4.411,1.043-5.2,2.974C265.031,2132.886,270.483,2129.57,272.356,2131.675Zm-28.254,5.949c-1.736-11.705,10.854-3.467,0,0Zm15.617-9.668c-.38,1.808-14,15.749-14.13,15.614A22.217,22.217,0,0,1,259.719,2127.955Zm-13.387,27.507a3.272,3.272,0,0,1-.031-.8c.026-.112.054-.222.08-.337A5.763,5.763,0,0,0,246.332,2155.463Zm15.613-22.3c1.85,6.334-12.737,12.686-15.255,19.86A31.343,31.343,0,0,1,261.945,2133.162ZM247.078,2162.9c-1.635-3.714,9.193-17.6,9.668-17.844q-3,6.693,5.946-2.231C262.479,2144.289,248.775,2162.2,247.078,2162.9Zm10.406,17.841c1.242-2.727,2.816-5.119,5.949-5.946C262.2,2177.525,261.363,2180.651,257.484,2180.742Zm-2.227-3.716c-7.466-3.636,4.081-11.345,9.663-11.152Q260.09,2171.454,255.257,2177.026Zm-2.232-7.432c-11.24-2.118,8.235-21.9,14.869-21.564-8.31,3.793-9.871,11.3-17.1,17.1a216.114,216.114,0,0,1,22.305-8.917A55.378,55.378,0,0,0,253.025,2169.594Zm17.1-19.337c.99-2.23,2.912-3.526,6.69-2.97C275.844,2149.538,273.33,2150.242,270.124,2150.257Zm36.432,23.793a16.489,16.489,0,0,1,11.153,7.435q-3.863-6.106-7.718-12.214Q312.179,2173.573,306.556,2174.05Zm29.733-30.481c-.339,2.322,1.59,2.378,3.719,2.234C340.349,2143.477,338.421,2143.423,336.289,2143.569Zm23.048,37.173-.648-.013C358.725,2181.084,358.92,2181.153,359.337,2180.742Zm-.738,7.434q11.52-.386,23.043,0c-9.65-10.38-26.935-1.58-38.657-7.434q7.844-.215,15.7-.013c-.1-.892.808-3.63,1.638-5.3-8.578-.331-30.967,6.1-34.442-4.354a58.047,58.047,0,0,0,23.791,2.973,194.848,194.848,0,0,0-25.278-8.176,50.58,50.58,0,0,0,30.483-1.489,53.528,53.528,0,0,1-32.714-8.176q13.707,3.187,27.51,5.948-15.331-8.632,4.46-8.923c-6.33-5.267-22.047-7.822-29.738-12.639a123.424,123.424,0,0,1,18.588-.743q-15.061-5.4-4.692-7.383a41.247,41.247,0,0,1-16.87-3.023c21.654-5.6,4.249-3.08-5.2-6.693,1.548-7.8,12.554,1.919,16.356-.745a47,47,0,0,0-11.152-4.457c1.085-1.337,7.711-8.877,5.2-11.9-28.2.878-13.4,30.422-11.153,56.5,2.448,28.326,65.173,39.5,66.168,31.225C400.249,2186.6,362.255,2189.69,358.6,2188.176Zm-41.638-58.731a13.952,13.952,0,0,0,9.154,4.028C322.746,2138.21,316.837,2129.361,316.962,2129.444Zm28.254,23.789c-6.87,3.075-20.272.1-24.537-7.43C329.239,2147.893,337.014,2150.772,345.216,2153.233Zm-35.224,16.038a13.143,13.143,0,0,0-1.206-1.907Zm12.174,27.83c4.035.567,5.763-1.18,9.663-.744C330.951,2193.372,322.943,2195.125,322.166,2197.1Zm24.534,15.612c3.519,1.965,5.2-3.5,9.666-2.975C353.685,2205.6,349.2,2211.782,346.7,2212.713Zm12.638-5.206c1.309-.428,4.37.9,4.462-.742C362.845,2205.743,359.357,2205.471,359.337,2207.507Zm-21.044-75.039a43.54,43.54,0,0,0,6.922-.793A58.207,58.207,0,0,0,338.294,2132.468ZM261.2,2087.811c-3.379,12.571,31.461-14.262,31.225-14.128C280.1,2074.28,273.9,2087.125,261.2,2087.811Zm20.072,4.462c-1.533,1.187-4.766.685-5.206,2.973C279.306,2095.752,280.185,2093.907,281.276,2092.273Zm11.153-26.023c-3.341.627-6.217,1.714-8.179,3.714C286.324,2070.707,291.17,2068.708,292.43,2066.25Zm-5.949,23.047c10.465-5.646,18.663-13.555,29.738-18.589C305.63,2073.284,294.949,2082.129,286.481,2089.3Zm19.331,55.019c1.95,8.8.738,15.13-2.232,23.789C309.948,2163.3,309.867,2151.729,305.812,2144.316Zm28.251-42.381c3.032-.1,3.174-3.014,2.227-3.715C336.064,2099.97,333.711,2099.6,334.063,2101.935Zm20.074,43.868a59.543,59.543,0,0,0-12.639-1.487C342.245,2147.7,352.088,2148.5,354.136,2145.8Zm-20.074-78.066c-1.644-3.769-16.978.426-16.353,3.715C322.888,2068.537,329.02,2069.561,334.063,2067.737Zm-6.693,46.095c1.631,1.087,6.757.7,6.693-2.229C331.85,2112.363,328.12,2111.606,327.369,2113.832Zm-47.578-47.582a163.053,163.053,0,0,0,20.072-8.925C295.568,2056.605,282.741,2061.1,279.791,2066.25ZM236.669,2174.8c.126,2.1-.638,5.1,1.486,5.2C237.616,2178.312,239.5,2174.2,236.669,2174.8Zm-1.487-69.884c2.477-10.249-6.44,1.4,0,0Zm2.965,9.678.008-.015C238.079,2114.462,238.083,2114.482,238.146,2114.59Zm16.366-17.116c.944,1.017,3.642,1.15,3.717-.741C257.279,2095.716,254.59,2095.586,254.513,2097.473Zm12.639-27.509c-2-.012,16.818-12.383,17.1-12.64-4.812-.861-33.6,13.922-30.483,20.075Q257.484,2068.425,267.152,2069.965Zm-29,26.768a7.569,7.569,0,0,1,7.435,0,8.9,8.9,0,0,0-5.2-3.718c1.322-11.693,10.5-.89,12.6,3.146.879-8.458,24.195-19.135,31.258-25.452-6.872-.223-28.577,21.47-33.457,17.1,3.92-4.143,19.779-11.211,24.319-16.857C267.354,2079.6,226.118,2087.757,238.155,2096.732Zm29.74-37.174c4.724-2.215,7.85-6.022,14.869-5.95C278.825,2048.318,269.426,2055.185,267.894,2059.558Zm8.4,8.169a4.056,4.056,0,0,1-1.185,3.227A3.716,3.716,0,0,0,276.3,2067.727Zm-23.272,29.746c.578.286.486-.309-.033-1.313A4.353,4.353,0,0,0,253.025,2097.473Zm107.3,77.958a9.985,9.985,0,0,1,1.242.111C361.72,2173.333,361.055,2173.965,360.327,2175.431Zm124.66-25.084c2.112-26.412-10.033-48.691-19.5-71.467-18.992-29.4-56.418-45.957-96.742-55.838-19.21-4.7-45.255-4.071-65.245,1.494-7.1,1.973-15.571,6.332-24,9.677-8.3,3.292-17.935,5.488-24.748,8.933-23.662,11.948-25.288,45.477-42.745,63.279-3.382,3.444-9.488,5.5-11.25,9.678-7.238,17.162,5.751,28.312,1.5,44.669,5.494,9.391,4.328,16.629-.748,24.568-2.742,4.285-9.362,6.545-10.5,10.42-3.546,12.053,12.32,21.215,11.247,34.246-.481,5.852-4.939,10.656-6,15.63-1.219,5.73-1.476,9.635,0,17.126,5.928,1.312,7.148,7.3,10.5,11.164,6.034,2.713,12.237-1.234,18.747-1.482,2.944-.114,5.9,2.152,9,1.482,3.226-.69,4.954-3.772,8.248-4.463,8.238,2.084,13.527-2.164,22.5-1.488,11.23-8.458,26.144-13.255,34.5-24.567-.336-4.555,2.474-5.984,1.5-11.168,5.78-7.2,12.274-15.87,23.248-14.142,10.35,1.623,12.444,12.986,19.5,18.606,5.24,1.472,10.553-1.5,15.746-1.488,5.946.02,11.527,2.284,17.251,2.237,3.037-.029,6.024-1.581,9-1.493,7.062.22,13.686,2.846,21,1.493,6.026-1.117,13.006-4.551,18.752-6.7,15.2-5.691,26.716-13.214,34.495-25.312,1.9-2.955,2.238-7.1,4.5-10.422,5.255-7.7,12.083-12.939,15.748-24.568.535-1.7-.434-3.916,0-5.955C481.471,2159.837,484.6,2155.223,484.987,2150.346Zm-8.922-20.9a63.906,63.906,0,0,1-20.821,12.637C460.263,2134.859,470.848,2128.819,476.065,2129.444Zm-41.636,52.786q-4.091.743-8.176,1.487a39.982,39.982,0,0,1,11.528-9.232q3.885-3.716,12.261-4.15a41.2,41.2,0,0,0-12.261,4.15A11.306,11.306,0,0,0,434.429,2182.23Zm9.666,6.691c-1.441,2.276-6.25,1.187-8.922,2.229C436.96,2189.224,440.173,2188.718,444.1,2188.921Zm-9.666,7.436c-4.094,5.57-12.354,6.975-20.816,8.174C419.845,2201.1,424.676,2196.269,434.429,2196.357Zm-17.844-2.231a65.414,65.414,0,0,1,11.9-5.95C424.552,2190.2,423.665,2195.257,416.585,2194.125Zm.745-11.9c3.809-2.638,9.112-3.773,12.637-6.688C431.28,2177.488,423.719,2183.064,417.33,2182.23Zm24.532-12.636c3.115-6.8,12.405-7.425,21.564-8.181C457.127,2164.276,450.718,2167.587,441.862,2169.594Zm-20.072.741a46.663,46.663,0,0,1,24.535-10.407C437.372,2162.344,433.4,2177.477,421.79,2170.335Zm20.816-13.382c2.9-9.242,18.105-6.184,23.046-13.383C464.154,2151.381,451.165,2155.929,442.606,2156.952Zm11.9-19.329c2.885,2.107-4.741,6-10.407,4.458C446.553,2139.587,451.744,2139.825,454.5,2137.623Zm-8.177-.747c3.675-6.731,15.3-5.507,20.072-11.152C464.745,2131.509,455.146,2135.783,446.325,2136.877Zm10.406,8.18c3.249-2.952,6.278-6.118,11.9-6.693C465.906,2141.84,460.746,2142.873,456.731,2145.057Zm-1.487-15.613c2.078-4.869,9.84-10.483,17.844-11.894C470.074,2124.445,461.5,2125.783,455.244,2129.444Zm.746-14.128c2.2-3.493,6.878-4.519,11.152-5.948C466.7,2114.632,459.817,2113.444,455.99,2115.316Zm11.152,1.488c-1.759-.385,7.164-9.6,0,0Zm-5.2,0c-2.017,5.167-9.447,4.926-14.866,6.694C450.056,2119.3,456.013,2118.066,461.937,2116.8Zm1.031-7.073c-4.974,1.174-12.253,2.959-22.593,5.585a35.17,35.17,0,0,1,14.869-8.18c-3.717,3.592,1.96,3.461,7.724,2.6C479.043,2105.936,470.924,2108.533,462.968,2109.731Zm-17.253-2.558a23.438,23.438,0,0,0,2.84-.777,10.694,10.694,0,0,1-2.84.777,23.265,23.265,0,0,1-12.773-.777q7.657-8.824,18.586-4.46a70.871,70.871,0,0,1-12.638,2.977A8.356,8.356,0,0,0,445.715,2107.173Zm22.914-7.467c3.006.237-7,7.3-7.436,7.43A16.137,16.137,0,0,1,468.629,2099.706Zm-20.816-1.486c3.289-3.156,9.786-3.1,12.637-6.693C462.891,2094.606,454.279,2099.132,447.812,2098.22Zm11.9-11.154a72.011,72.011,0,0,1-7.435,3.715Q458.9,2078.424,459.709,2087.066Zm-2.978-9.666c2.474-.389-10.839,13.709-14.869,14.127A124.869,124.869,0,0,0,456.731,2077.4Zm-11.15,2.979c1.148-3.312,3.761-5.161,4.462-8.926A6.246,6.246,0,0,1,445.581,2080.379Zm2.232-12.642c1.258,2.859-2.736,13.042-9.665,12.642C441.63,2076.423,443.6,2070.967,447.812,2067.737Zm-5.206-5.2c.484,4.7-2.1,6.32-5.946,6.691C438.208,2066.559,438.007,2062.147,442.606,2062.533Zm-233.444,77.318c2.151,1.029-1.248,2.631-2.975,2.23C205.628,2138.642,209.028,2141.051,209.162,2139.851ZM199.5,2206.02c1.392-1.1,4.324,2.579,4.46,5.2C201.684,2210.276,201.772,2206.967,199.5,2206.02Zm4.542-1.493c1.309.448,2.621.848,3.794,1.148C210.663,2212.7,207.148,2207.947,204.04,2204.527Zm73.518,43.128c1.7-2.511,5.448-2.981,8.923-3.718C284.779,2246.446,281.036,2246.918,277.557,2247.656Zm-2.23-2.976c-3.4,2.544-6.96,4.931-11.895,5.949C264.077,2243.771,267.952,2243.828,275.327,2244.679Zm-8.176-28.25c.011-1.136,5.509-1.63,4.46.742C269.339,2217.713,268.9,2216.417,267.152,2216.429ZM273.1,2241.7c1.566-3.548,4.743-1.236,8.177-2.227C281.607,2243.276,276.016,2241.157,273.1,2241.7Zm8.177-5.2c1.615-1.111,4.184-1.268,6.7-1.485C286.69,2236.466,284.118,2236.62,281.276,2236.5Zm73.6-6.689c-15.543.677-2.786-12.407-12.641-20.074a9.725,9.725,0,0,0,0,8.922,54.243,54.243,0,0,0-9.527-8.819c-.141,0-.192-.037-.137-.1.046.033.092.072.137.1,1.921.085,20.682-5.026,22.14-5.326q-12.369-8.265-26-2.217,3.73,1.085,7.433,2.232c-12.657,4.565-45.844,24.23-58.732,14.129,18.223,1.155,32.518-8.92,49.071-14.129-20.021-8.338-41.108,21.8-66.17,3.719,19.385,8.358,42.318-1.423,59.478-10.4-9.689-2.255-25.264,3.53-40.17,6.606.007.029.016.054.025.08l-.088-.064c-7.618,1.567-15.061,2.425-21.454,1.133a17.325,17.325,0,0,1,1.471,1.907c-18.6-2.976-25.281-19.877-25.281-37.172-6.175,10.12,5.417,44.441,7.436,38.663,7.413,4.451-2.521,14.307-2.974,19.325q8.408-4.794,8.179-14.869c7.75,5.9-3.23,15.728-2.232,22.3a20.769,20.769,0,0,0,7.436-14.872q13.729,4.472-2.232,14.13a16.119,16.119,0,0,0,11.895-5.2,37.223,37.223,0,0,0-7.433,11.15c28.289-12.832,2.42-.8,7.433,15.612q.881-9.3,14.125-5.2-5.7,2.734-11.15,5.946c5.929,4.536-2.894,5.829-19.331,8.923,2.014-2.868,4.372-14.713,0-17.843-2.484,6.479-3.488,18.683-11.152,20.074-4.084-4.052-1.276-12.558-5.2-20.816a125.539,125.539,0,0,0-5.949,20.072h-7.431a50.678,50.678,0,0,0,0-17.842,19.845,19.845,0,0,0-5.2,11.895,20.177,20.177,0,0,1,1.168-16.373q-2.3,3.717-4.827,7.28c-.241-6.727,1.423-14.905,2.659-19.937,1.353-2.664,2.544-4.987,3.226-6.657q.989,5.238,2.232,10.409c.918-3.139,1.69-5.9,2.333-8.347a60.888,60.888,0,0,1,1.612-13.433c.177-.4.362-.771.548-1.129.422,2.958-.28,7.383-2.16,14.562a35.831,35.831,0,0,0,.64,6.862c5.578-3.246,4.1-17.1,3.311-24.208,2.5-3.151,4.946-3.619,4.946-3.619s-.188-1.316-4.707-.939a19.853,19.853,0,0,1-9.136-.545,8.078,8.078,0,0,0-1.846-1.173c.064.2.115.408.175.611a24.7,24.7,0,0,1-7.078-4.166c-2.192-1.879.043-7.529.856-9.375,3.532-3.657,7.4-8.276,9.761-13.089,2.763,7.313-2.747,21.563-2.23,21.563,18.694,19.9,17.205-39.876,10.411-51.3-9.072-.894-7.939,10.227-11.152,11.895-3.005-.1,21.563-33.282,16.353-46.837q-5.232,3.2-2.228,8.919a10.893,10.893,0,0,1-2.233-6.69c-1.819,5.7-18.909,2.53-11.15,17.1-.031-.045,6.5-3.175,6.345-2.955-.677.912-10.183,8.989-10.8,8.9-2.009-13.874,2.613-18.367,17.1-26.763a19.577,19.577,0,0,0-16.356,5.206c2.142-14.329,25.5-13.74,24.756-31.6-.723-17.324,14.93-32.829,29.517-39.774,24.663-11.744,54.558-25.756,80.929-22.219a73.757,73.757,0,0,1-16.993,5.861,101.965,101.965,0,0,0,25.276-5.205,106.784,106.784,0,0,1-13.38,5.205q12.158-2.83,24.532-4.462a87.663,87.663,0,0,0-18.585,5.951,40.893,40.893,0,0,0,18.585-2.978q-4.552,2.45-8.92,5.208a67.719,67.719,0,0,1,23.048-4.463,48.116,48.116,0,0,0-17.1,6.694c6.587,4.049,14.717-1.688,25.28,0a20.479,20.479,0,0,0-8.177,3.716,110.965,110.965,0,0,0,18.588-2.229,125.483,125.483,0,0,0-13.388,5.949c8.559.288,20.525-4.025,29.089-.379-5.036-1.6-13.123,1.706-17.934,2.606q12.592,1.666,25.278,2.229a27.121,27.121,0,0,0-13.382,3.717c-.826,4.427,20.3.446,23.047,2.974a11.339,11.339,0,0,1-11.9.746c-3.393,5.129,9.182,5.686,17.454,5.034q1.323-1.008,2.621-2.061c7.417.405,3.629,1.58-2.621,2.061a109.6,109.6,0,0,1-10.018,6.863,35.442,35.442,0,0,0,11.152-2.23q-5.35,12.738-19.331,5.2c2.885,5.777,19.3,6.572,21.559,4.466,1.345,9-14.881,3.539-17.842,2.969a26.8,26.8,0,0,0,18.588,5.207,14.007,14.007,0,0,1-8.55,4.683,77.328,77.328,0,0,1,10.038.521,98.036,98.036,0,0,1-23.793.743c22.132,11.664,9.239,4.079,24.532,4.46a5.9,5.9,0,0,1,.038,1.624,7.516,7.516,0,0,1,3.683-.135c-9.866,8.99-24.768-2.718-35.689,2.229a197.313,197.313,0,0,0,28.254,3.714q-10.148,7.662-22.307,2.976c-1.487,3.612,26.494,6.793,29,6.691q-29.116,6.331-4.46,8.178c2.565.228-7.834-.566,8.181,1.488-3.951,5.25-10.622,6.48-14.13,13.383a22.148,22.148,0,0,1,18.586-5.207,13.289,13.289,0,0,0-9.667,4.462,29.2,29.2,0,0,0,5.951,0,15.121,15.121,0,0,1-14.13,6.69c1.052,2.667,1.2,4.682.654,6.2a94.7,94.7,0,0,1,12.734.5,44.673,44.673,0,0,1-14.13,6.685,12.516,12.516,0,0,0,9.665,0c-10.478,9.08-29.9,10.585-17.84,21.562-9.265,13.038-31.359,7.465-43.864,5.948a43.981,43.981,0,0,0,32.711,3.719q-5.679,4.328-11.152,8.919a47.875,47.875,0,0,1,19.329-5.205,94.262,94.262,0,0,0-16.355,8.925,56.533,56.533,0,0,0,15.614,0c-12.246,8.409-27.845,8.981-40.893,15.61C416.644,2184.98,358.177,2215.918,354.881,2229.812Zm-7.436-24.536c-3.6-1.111-9.624.205-11.895-2.229C338.922,2201.431,346.095,2202.4,347.444,2205.276Zm-84.012,11.153c-1.077,1.376-3.575.157-5.2-1.488C259.746,2212.763,262.121,2215.948,263.433,2216.429Zm-52.289-10.179c.754.29,1.44.561,2.093.833a7.5,7.5,0,0,1,1.721,2.447,24.844,24.844,0,0,1,.9,6.9C212.8,2214.52,212.178,2210.179,211.144,2206.25ZM380.156,2032.8c-2.193,1.276-5.362,1.572-8.923,1.486C373.433,2033,376.6,2032.7,380.156,2032.8Zm6.693,180.658c1.106-2.854,5.3-2.628,8.923-2.969C393.917,2212.6,391.011,2213.652,386.849,2213.453Zm1.487,4.461c.165.458-4.357,2.554-6.693,2.971C383.465,2219.49,385.28,2218.084,388.336,2217.915Zm-20.075,11.152c1.031-1.7,5.177-.278,7.436-.745C375.445,2230.744,369.6,2230.03,368.261,2229.067Zm8.181-11.152c1.71-1.156,4.56-3.818,6.692-2.231C382.176,2217.7,379.437,2217.937,376.442,2217.915Zm13.382,8.919c-2.937,1.527-6.942,1.988-11.155,2.233C377.318,2226,405.311,2225.82,389.823,2226.834Zm-6.69-3.715c4.233-2.705,10.553-3.321,16.353-4.458A28.742,28.742,0,0,1,383.133,2223.118Zm17.1-8.92c4.773-2.417,8.959-5.418,16.356-5.2C413.148,2212.744,406.328,2213.109,400.229,2214.2Zm28.253.743c-5.357,0-12.75,5.57-18.588,5.945C411.831,2218.471,431.248,2211.793,428.482,2214.941Zm10.409-9.665c.5,5.46-6.53,3.382-9.666,5.208C429.615,2208.868,435.147,2206.006,438.891,2205.276ZM432.2,2219.4c2.214-3.234,6.065-4.834,9.661-6.687A34.2,34.2,0,0,1,432.2,2219.4Zm2.973-17.838c1.679-5.507,7.443-6.933,12.639-8.924C449.018,2198.07,440.306,2199.993,435.173,2201.561Zm6.688-15.615c-1.314-3.074,7.318-2.576,10.412-3.716C451.328,2186,444.249,2183.624,441.862,2185.946Zm3.719-5.948c-1.97-2.989,5.067-3.336,8.179-3.717C453.776,2180.263,447.565,2178.017,445.581,2180Zm12.641,2.978c2.813-1.665,5.936-6.93,8.92-5.95C466.931,2181.774,462.992,2182.788,458.222,2182.975Zm-6.693-9.669c6.278-3.387,10.986-8.343,19.331-9.666C468.5,2171.761,458.544,2171.648,451.528,2173.306Zm.746-13.378c4.547-4.133,13.293-4.056,18.585-7.439C473.325,2157.767,458.231,2158.137,452.274,2159.928Zm23.047-6.695c3.11-6.125,2.83-2.246,0,0Zm-1.491-9.664q-3.342,2.974-6.688,5.949c-.28-8.057,8.917-9.62,12.639-11.154Q480.372,2145.5,473.83,2143.569Zm-123.408-75.085c-1.379-.522-6.5-1.9,0,0Zm10.4,83.267c-1.625-1.542-4,.363-5.2,1.483C357.84,2154.267,360.173,2154.112,360.825,2151.75Zm68.773-64.46c-.671.033-.571.077,0,0Zm-210.779,117.1c-.128.156.013.224,0,0Zm2.238-95.758c1.531-.45,5.164,1.2,4.46-1.494C223.546,2107.152,221.139,2106.728,221.057,2108.629Zm161.327,61.706c.481,2.485,6.023,3.117,5.208-.741C385.846,2169.827,384.8,2170.768,382.384,2170.335Zm21.564-31.971c-2.187,8.005,24.912,2.572,26.764.743A204.121,204.121,0,0,0,403.948,2138.364Zm-49.1,66.151c.011,0,.018.012.028.016C354.982,2204.5,354.962,2204.5,354.853,2204.515Zm-84.729-1.469c1.016,5.365,6.916-.733,9.578,1.42.023,0,.043-.01.064-.015C278.379,2199.244,273.326,2205.4,270.124,2203.047ZM398,2162.156a24.458,24.458,0,0,0,20.815-.744c-3.254.717-27.909-6.849-28.994-2.976C394.974,2161.6,397.093,2157.96,398,2162.156Zm14.123,8.92q-9.63,1.2-19.329,1.489C406.418,2177.927,410.571,2172.622,412.125,2171.077Zm-5.946-63.941c-3.588-3.181-14.4-1.126-17.1,1.494C394.725,2108.076,399.506,2106.663,406.18,2107.135Zm-19.331,8.18h-3.716C381.994,2117.6,387.984,2117.6,386.849,2115.316Zm17.842-24.534c-3.307-3.107-16.654-3.363-20.816-.742C389.154,2091.542,400.563,2090.577,404.691,2090.781Zm5.2-9.662c-2.67-1.545-8.038-.388-11.891-.741C398.7,2083.86,409.807,2083.8,409.894,2081.119Zm-7.433,57.988c-5.955-.83-15.034-2.187-20.077-1.484C386.27,2140.157,398.058,2141.97,402.461,2139.107Zm-15.612,20.071c-.09-3.44-7.029-1.307-9.665-.741C379.189,2159.9,383.68,2158.878,386.849,2159.178Zm26.764-88.47c-1.09-.995-5.889-1.518-5.947.744C408.752,2072.454,413.554,2072.975,413.613,2070.708Zm-171.149,121.75c3.37,7.964,8.984,11.767,15.784,13.142C253.788,2200.508,246.532,2197.544,242.464,2192.458Zm142.151-92.752c3.513,2.2,15.8,2.675,18.588.741C399.329,2098.269,389.485,2098.457,384.616,2099.706Zm23.791,19.33a23.649,23.649,0,0,0,17.847-2.232C430.488,2116.169,403.562,2118.4,408.406,2119.036Zm-6.688-.745c-1.736-2.729-7.094-1.827-11.154-2.23C392.3,2118.791,397.66,2117.891,401.718,2118.291Zm11.895,8.179q-11.466,1.925-23.048,2.974c.924.1,43.154,4.789,43.118-2.974Q423.653,2126.667,413.613,2126.47Zm-190.329,86.983c.362,2.89-.8,11.176.748,10.41C223.672,2220.973,224.828,2212.688,223.284,2213.453Zm19.18-21a42.5,42.5,0,0,1-2.821-10.973A13.482,13.482,0,0,0,242.464,2192.458Zm145.872-45.918a130.707,130.707,0,0,0,14.038.391C396.636,2146.177,391.491,2145.725,388.336,2146.54Zm46-1.235c-10.111.188-20.879,1.4-31.963,1.626C415.574,2148.672,431.9,2152.029,434.337,2145.3Zm6.075-50.667c-1.27.532-.216,1.512,0,0Z" transform="translate(-190.493 -2019.897)" fill-rule="evenodd"/>
</svg>
