<svg xmlns="http://www.w3.org/2000/svg" xmlns:xlink="http://www.w3.org/1999/xlink" viewBox="0 0 69.87 53.09"><defs><style>.cls-1{fill:none;}.cls-2{clip-path:url(#clip-path);}.cls-3{clip-path:url(#clip-path-2);}.cls-4{fill:#9b794e;}.cls-5{fill:#fff;}</style><clipPath id="clip-path" transform="translate(0 0.01)"><rect class="cls-1" width="69.87" height="53.09"/></clipPath><clipPath id="clip-path-2" transform="translate(0 0.01)"><rect class="cls-1" width="69.87" height="53.09"/></clipPath></defs><g id="Layer_2" data-name="Layer 2"><g id="Layer_1-2" data-name="Layer 1"><g class="cls-2"><g class="cls-3"><path class="cls-4" d="M4.14,49.17s0-.08-.1-.11-.1-.08-.1-.1a.05.05,0,0,0,0-.05h0c-.08,0-.06.15,0,.25s.18.1.19,0" transform="translate(0 0.01)"/><path class="cls-4" d="M.41,52.71a.12.12,0,0,1,.15,0c.16.12.3,0,.17-.09s-.31-.11-.37-.05a.16.16,0,0,1-.12,0c-.1,0-.26.1-.24.16l.09.14a.56.56,0,0,1,.09.17L.35,53c0-.24,0-.27.06-.3" transform="translate(0 0.01)"/><path class="cls-4" d="M4.42,50.31c.08-.13.12-.17.17-.15a.12.12,0,0,0,.15-.07.06.06,0,0,0,0-.06.22.22,0,0,0-.1-.11.18.18,0,0,1-.09-.19.24.24,0,0,0-.07-.18c-.06,0-.1,0-.2.08s-.16.25,0,.29.08,0,0,.14-.06.23-.08.35,0,.25-.09.29l.24-.17,0,0c0-.07.07-.14.11-.2" transform="translate(0 0.01)"/><path class="cls-4" d="M2.35,51.42a.08.08,0,0,0-.05-.07h0a.18.18,0,0,1-.1-.07c-.06-.09-.12-.09-.13,0s.05.09.11.13.16.1.17,0" transform="translate(0 0.01)"/><path class="cls-4" d="M5.46,49.21c-.15,0-.37.06-.37,0a.69.69,0,0,1,.1-.19c.14-.21.14-.32,0-.49s-.21-.15-.31,0a.17.17,0,0,0,0,.18c.06.13,0,.15-.2,0s-.13-.08-.19,0-.09.11,0,.2.1.1.09.12a.32.32,0,0,0,0,.17c0,.1,0,.15.09.16a.15.15,0,0,1,.13.16h0c0,.1.07.12.1,0s.12-.13.33-.11a.25.25,0,0,0,.17,0,.13.13,0,0,1,.12,0c.13,0,.18-.06.1-.15a.11.11,0,0,0-.15,0M5,49c0,.07-.12.08-.12,0A.09.09,0,0,1,5,48.92H5A0,0,0,0,1,5,49" transform="translate(0 0.01)"/><path class="cls-4" d="M4.77,48.35c.2,0,.27-.06.21-.14a.09.09,0,0,1,0-.07,3.28,3.28,0,0,1-.31.2h.13" transform="translate(0 0.01)"/><path class="cls-4" d="M9.32,47.12s0,0-.05.08,0,.07,0,.06a.1.1,0,0,0,0-.08s0-.06,0-.06" transform="translate(0 0.01)"/><path class="cls-4" d="M11.77,47.61c-.06,0,0,.15.1.16a.06.06,0,0,0,.06-.06.14.14,0,0,0-.17-.1" transform="translate(0 0.01)"/><path class="cls-4" d="M1.46,50.92c.13.06.16,0,.08-.19a.19.19,0,0,1,0-.07l-.22.23.16,0" transform="translate(0 0.01)"/><path class="cls-4" d="M6,49.53s0,0,0-.05-.09,0-.06,0,.06,0,.1,0" transform="translate(0 0.01)"/><path class="cls-4" d="M8.73,49h0c.07-.05.09-.06.07,0l.41,0-.05-.06c-.06-.11-.12-.12-.42-.06-.13,0-.22.06-.22.1a.08.08,0,0,0,0,.08l.15,0h0" transform="translate(0 0.01)"/><path class="cls-4" d="M69.87,6.28s0-.07,0-.1h0a.22.22,0,0,1-.15.13s-.07.08-.1.07,0-.09-.07-.18-.07-.12-.05-.17,0,0,0,0a.39.39,0,0,0-.21-.29s.09.07.06.09-.17-.06-.17-.1.1,0,.11,0,0-.07,0-.06-.12,0-.17,0a1,1,0,0,0-.6,0,2.14,2.14,0,0,0-.4.2s0,0,0,0h0a1.32,1.32,0,0,0-.27.42c0,.06-.15.08-.2.13a.21.21,0,0,1-.21.09h-.15s0-.06-.06-.08-.38-.09-.58-.12c0,0-.06-.08-.1-.08v0s0,0-.09,0,0,.06-.11,0l0,.06a1.26,1.26,0,0,0-.38.1c-.15.08-.16.26-.19.44a2,2,0,0,1-.08.26.5.5,0,0,1-.49.38,2.29,2.29,0,0,1-.28-.07,1.08,1.08,0,0,1-.44,0,1.34,1.34,0,0,1-.66-.86A4.37,4.37,0,0,0,63.46,6V6s-.07-.09-.06-.1l.09,0c0-.06-.11-.12-.15-.18s-.12-.2-.18-.3c-.14-.27-.33-.52-.49-.79a1.2,1.2,0,0,0-.55-.54l0,.06-.08,0s0-.05,0-.07l0,0A1.47,1.47,0,0,0,61.78,4a.73.73,0,0,0-.83.62.67.67,0,0,0,0,.2c0,.09-.09.18-.1.27s-.05.28-.06.42a2.48,2.48,0,0,1-.06.72.73.73,0,0,1-.38.41s-.06,0-.07,0a1.84,1.84,0,0,1-1.06.15,1.77,1.77,0,0,1-.87-.26,2.58,2.58,0,0,1-.5-.6,3.14,3.14,0,0,0-.68-.52,3.09,3.09,0,0,0-.81-.46,2.88,2.88,0,0,0-1.24,0,2,2,0,0,0-.79.42s0,0,0,0,.11.13,0,.15-.17-.08-.18-.12a2.26,2.26,0,0,0-.35.34c-.1.11-.26.22-.29.38a1.1,1.1,0,0,0,.1.62q.12.41.27.78a1.44,1.44,0,0,1,.09.77.83.83,0,0,1-.22.45,2.66,2.66,0,0,1-.76.66,3.52,3.52,0,0,1-1.28.34c-.28,0-.58-.09-.86-.09a5.15,5.15,0,0,1-1,0A4.67,4.67,0,0,1,48.41,9l0-.07a1.64,1.64,0,0,1-.22-.14c-.46-.33-1-.6-1.44-.93a8.56,8.56,0,0,0-1.64-.93L44,6.43a15,15,0,0,0-3.13-.94c-.76-.13-1.53-.2-2.3-.28-.47,0-.94-.12-1.42-.13a26.22,26.22,0,0,0-2.66,0c-.88,0-1.77.18-2.66.28-.68.07-1.35.08-2,.16-.5.05-1,.08-1.49.16-.15,0-.31.16-.46.19A19.15,19.15,0,0,1,19.5.62c-.82,4.84-1.6,9.73-2.42,14.57.3-2.48.56-5.29,1-8.71-.05.07-.07.13-.18.12a.15.15,0,0,1-.17-.15s0,0,0,0,0-.14-.07-.08,0,.08,0,0-.1-.13-.06-.22A.41.41,0,0,1,17.94,6a.32.32,0,0,1,.22.24c.23-1.71.57-3.57.86-5.62.09-.62-1.21-.83-1.33-.23-3.07,15.62-4,20.3-5.31,29.45,0,0,0,0,0,0s.08.16,0,.16a.1.1,0,0,1-.07-.09l.05,0c0,.16,0,.31,0,.47,0,0,0-.07,0-.07s0,.2-.08.43c0,0,0,.05,0,.06,0,.24-.1.48-.13.72.08-.05.06,0,.11.06s.12,0,.16,0,.25.17.25.24-.22,0-.25,0a.35.35,0,0,0-.2-.1s-.06.05-.09.05c0,.2,0,.4-.07.6l.1-.15c.17-.16.33-.2.44,0a.33.33,0,0,1-.11.47.32.32,0,0,1-.43-.06.8.8,0,0,1-.08-.16c-.06.45-.13.9-.2,1.36,0,0,.13,0,.14,0s-.05.06-.08.06h-.07c-.1.73-.11,1.49-.23,2.28.1.06.18.12.19.16s0,.09-.09.12-.07,0-.18-.08c0,.11-.09.22-.1.33a.33.33,0,0,1,0,.13.21.21,0,0,1,0,.12c-.05.31-.05.64-.1,1,0,0,0,0,.1,0s.2.05.13.18-.16.15-.2.06,0,0,0,0c0,.28-.07.55-.11.84,0,0,0-.1,0-.14s.17-.06.23-.08.1-.11.13-.23,0-.13.13-.12.16,0,.17.08-.07,0-.11,0-.07.08-.08.11.06.15.2.16,0,0,0,.08a.74.74,0,0,0,0,.14.09.09,0,0,1-.11.06c-.09,0-.22-.06-.23,0s-.29,0-.33,0c0,.11,0,.2,0,.31s0,0,0,0a.54.54,0,0,1,.28,0c.06,0,.13.32.1.47s-.09.13-.23.14l-.24,0s0,0,0,0-.12.27-.14.41c0,0,.06-.05.07-.06s.13-.06.25,0a.59.59,0,0,0,.26.07s.13-.07.19,0a.16.16,0,0,1,.13.17.31.31,0,0,1-.09.18c-.2,0-.28,0-.4.09s-.35.1-.4-.1c0,.1,0,.19,0,.28s0,0,0,0,.15.2.13.24-.15,0-.2,0,0,.23,0,.34h0c.18-.07.24,0,.1.08s-.14.09-.1.15,0,.09-.05,0c0,.07,0,.11,0,.18s.14.08.13.18-.08.23-.19.16c0,.09,0,.16,0,.26s0,0,0,0,0,.08,0,.1,0,.07-.05.13.23,0,.29.16.06.12-.12.18a.56.56,0,0,0-.24.13.24.24,0,0,0,0,.26.16.16,0,0,0,.16.08c.08,0,.27.2.22.24a.36.36,0,0,1-.2-.06c-.11-.08-.05-.09-.08,0s-.18.06-.24,0c-.06.46-.14.93-.2,1.42a.6.6,0,0,0,.06.19.65.65,0,0,0,.17.08c.2.07.27.05.38.24s0,.25,0,.24,0,0-.09.13-.17.14-.2.18a.59.59,0,0,0-.09.24.35.35,0,0,1,0,.18.18.18,0,0,0,0,.17s0,0,0,.08-.06.13-.12.06a.27.27,0,0,0-.16-.08.42.42,0,0,1-.14-.09c-.1-.1-.27-.06-.28.05s0,.1,0,.09c-.36-.22-.37-.27-.33-.35a.23.23,0,0,0-.06-.16c-.11,0-.1,0,0-.06a1.81,1.81,0,0,1,.17-.1.62.62,0,0,0,.2-.16c.05-.09.1-.23.13-.23a.25.25,0,0,0,.24-.17.17.17,0,0,0,0-.18c-.06,0-.13-.05-.19,0s0,0,0,.07,0,.08-.12.07-.06,0-.06.17a.34.34,0,0,1-.36.31h0c-.09,0-.18-.06-.21,0s-.12.11-.14,0,0-.09-.13-.11-.13-.06-.15-.14a6.53,6.53,0,0,0-.7.35.17.17,0,0,1,0,.18.3.3,0,0,1-.17.12c-.06,0-.13-.07-.16-.13s-.23.22-.37.31-.06,0-.06,0,.1,0,.24-.1.3,0,.26.16,0,.18-.17.18L7.27,47c-.06,0-.08,0-.12-.15s0-.07-.08-.08-.14.06-.22.11,0,0-.1.1a.3.3,0,0,0-.1.22c0,.11,0,.15-.13.13s-.26,0-.27.13,0,0,0,0-.09.11-.16.17-.06,0-.15,0,0,0-.05-.06,0,0,0,0-.24.14-.36.23c.08,0,.13,0,.17.12s.22.15.29,0,.07-.1.13-.08a.07.07,0,0,0,.09,0c.05-.07.24,0,.2.06s-.07.11-.1.11a.18.18,0,0,0-.16.05c-.1.09-.13.12-.1.19a.44.44,0,0,0,.26.24c.06,0,.13.07.1.21s-.07.2,0,.2.06.08-.12.18-.22.1-.22.14a.1.1,0,0,0,.09.12l.09,0s.1-.11.19-.11.08.08.15,0,0-.06,0-.14.07-.26.29-.18.24.07.21.2,0,.23.12.12a.27.27,0,0,1,.34,0l0,0s.08-.1.13-.11,0,0,0,0,0-.13-.07-.15-.06,0,0-.15,0-.17-.06-.31a.27.27,0,0,1,0-.2s.06,0,.06,0,.14.24.26.23.06,0,.07.07.31.1.38,0a.36.36,0,0,0,.06-.2c0-.07.09-.14.14-.19s0-.07,0-.13,0-.09,0-.13-.17-.08-.16-.11.1,0,.16.09.15.07.17,0,0,0,0,0,.16.05.22.07.13.12.2.31.12.25.17.25a.15.15,0,0,1,.15.15.1.1,0,0,1,0,.07s-.06,0-.08.06.2,0,.29,0,.05-.12.06-.11l0,0c.22,0,.44,0,.65,0,0-.08-.06-.14,0-.16s0,.07.09.13.06-.07.07-.06.21,0,.31,0,.1-.08.1-.11,0-.1,0-.1a.58.58,0,0,0,.37-.12.35.35,0,0,0-.07-.12c-.17-.18,0-.33.19-.17s0,.12,0,.26,0,.12-.1.1-.18,0-.07.12,0,0,0,.06a1.92,1.92,0,0,1,.24,0s0,0,0,0h0L13,48.61s.08-.1.12-.1a.1.1,0,0,1,.06.05c.13,0,.25,0,.38,0s0-.09.08-.09,0,.07.05.09h.27l0,0a.26.26,0,0,1,0-.32.16.16,0,0,1,.12,0s.12,0,.15,0,.06-.1.08.08a.37.37,0,0,1-.06.29s0,0-.06,0c.45,0,.89,0,1.31,0,0,0,.05-.05.08,0,.19,0,.36-.09.54-.1,0,0,0,0,.07-.08s.14,0,.17,0,0,0,0,.07c.33,0,.65,0,1,0a.14.14,0,0,0,.06-.1c0-.15,0-.16.22-.34s.25-.22.32-.12,0,.1-.05.13-.07,0-.06.16a.23.23,0,0,1-.09.23c.12,0,.25.06.37,0a.13.13,0,0,1,0-.18s0,0,0,0,.13.08.12.11c.22,0,.43,0,.64,0,0,0-.06,0-.08-.06s-.07-.23,0-.26.37.21.26.34c3-.15,5.38-.21,7.6-.19,0,0,0-.13.09-.13s.06.13.06.17c.61,0,1.2,0,1.79,0a.25.25,0,0,1,0-.08.11.11,0,0,1,.15,0l0,0c5.8.15,11,.71,22.53.75,4,0-3.69-1.48-7.66-1.8-7.89-.63-11.83-1.14-15.76-1.51,0,.08-.09.05-.14,0s0-.08,0-.1c-.77-.07-1.54-.1-2.35-.15,0,.09-.11.13-.16,0s-.25,0-.39,0c0,0,.07,0,.07.06s-.25.2-.28.16a.42.42,0,0,1,0-.29c-.65,0-1.34,0-2.06,0,0,0,0,.11-.09.13a.47.47,0,0,1-.2,0s0-.07,0-.12c-.72,0-1.49-.11-2.31-.11,0,0,0,.12,0,.12s-.09-.09-.12-.1c-.18,0-.34.07-.53.07.05.08.1.17.07.18s-.05,0-.05,0-.09-.06-.12-.07,0-.05,0-.08c-.79,0-1.63,0-2.54,0,0,0,0,.06,0,.1a.06.06,0,0,1-.06.06.05.05,0,0,1-.05,0s-.05-.07,0-.1l.05-.06c-.09,0-.14.1-.23.1s0,.14-.11.21a.3.3,0,0,0-.08.21c0,.09,0,.14,0,.14a.1.1,0,0,1-.07-.11v0s0,0-.08-.1a.26.26,0,0,1,0-.37h0s0,.07,0,.06c-.28,0-.56,0-.85,0a.35.35,0,0,1-.16.08.73.73,0,0,1-.58,0l-.07,0c-.18,0-.35.07-.53.07a.08.08,0,0,1-.11,0l0,0c-.14,0-.27-.09-.4-.08s0,.07,0,.08-.07,0-.16,0h0c-.26,0-.53.06-.8.07,0,0-.05,0-.06,0s.08.11.14.18,0,.14,0,.18a.18.18,0,0,1-.25,0l0,0c0-.07-.09,0-.17,0-.33.05-.34,0-.42-.17s-.11-.21-.06-.35a.13.13,0,0,1,.09-.07h0c0-.08,0-.12,0-.21s-.08,0,0-.06l.07,0c0-.17.07-.35.11-.51a.35.35,0,0,1-.07-.34c0-.08.16-.09.2-.1s0-.27,0-.38c-.1.09-.2.07-.32,0s-.14,0-.1-.42c0-.26,0-.34.06-.33s0,.1.05.13.09,0,.17,0,.11,0,.21.12S12,43,12,43c.1-.4.12-.82.21-1.2,0,0,0,0,0,0a.33.33,0,0,1,.13,0c.08-.35.11-.72.2-1.05-.12,0-.16,0-.16.07s-.06.15-.2.2-.16,0-.22,0a.14.14,0,0,1-.05-.13s.08,0,.14,0,.23-.14.23-.28.11-.21.33-.22c0-.17.13-.32.17-.48h-.07c-.21.06-.36-.08-.21-.2s.05,0,.11,0,.1.1.12.1,0-.06,0-.06.12-.3.15-.45a.09.09,0,0,1,0-.11l0,0s.1,0,.09-.1,0,0,0-.05c0-.17,0-.34,0-.51a1.19,1.19,0,0,1-.36-.38.09.09,0,0,1,0-.09.17.17,0,0,0,0-.15.23.23,0,0,1,.1-.19c.12-.06.18,0,.22,0a.13.13,0,0,1,0,.18.1.1,0,0,1-.09,0h-.14s.23.19.32.21c0-.18.13-.33.17-.5,0,0,0,0,0,0,0-.17,0-.35.09-.52,0,0,0,0,0,0s-.07-.37,0-.36.1.14.15.2c0-.14.09-.34.12-.47s-.2,0-.16-.08a.11.11,0,0,1,.09,0s0,0,0,0c0-.25.21-.46.26-.7l0,0c-.07-.07-.08-.07,0-.11a.12.12,0,0,1,.1,0c.08-.34.07-.69.14-1,0,0,0,0,0,0s-.1.08-.13.1-.13-.1,0-.2.12-.1.12-.13.08-.07.14,0,.06-.12.07-.18-.14,0-.14-.07a.26.26,0,0,1,.13-.1v.05c.17-.78.38-1.53.53-2.25,0,0-.07-.06-.1-.06s-.13-.07,0-.11a.15.15,0,0,1,.13,0c.1-.46.2-.91.29-1.35a.23.23,0,0,0-.07.07c-.06.1-.34.07-.37,0s-.06-.07,0-.19l.08-.16a.21.21,0,0,0,0-.19c0-.15-.07-.17,0-.28s.18-.2.32-.18.1.08.12.08c.05-.3.05-.62.1-.92a.05.05,0,0,1,0-.07c.13-.74.29-1.45.41-2.15,0,0-.08,0-.12,0s-.09,0,0-.15,0-.14.08-.13c.06-.4.21-.77.27-1.15v0s-.12-.05-.11-.07.07-.07.1-.07l0,0c.06-.44.15-.85.21-1.29.14.07.23.06.37.12s.05-.08.05-.12.06-.08.12-.1.24-.19.44-.32c.4-.25.45-.25.59-.06a.75.75,0,0,1,0,.74c-.06.19-.07.22-.06.29.3.1.58.24.88.31h-.06c0-.05.06-.1.11-.09s0,.07.06.1,0,0,0,0a10.6,10.6,0,0,0,1.57.3l0,0s.07-.12.1-.11,0,.09,0,.12l0,.05a14.24,14.24,0,0,0,3.06-.12s0-.12.06-.12v0c.07,0,.11.07.12.12.6-.09,1.21-.21,1.82-.36,0,0,0-.07,0-.08.19-.18.22-.19.26-.06,5.87-1.54,11.86-5.44,17.68-5.9.11,0,.2.12.31.14.53.1,1.07.15,1.6.26l1.57.36c.54.12,1.09.18,1.63.3s1,.21,1.47.29c.29,0,.59,0,.88,0s.47,0,.71,0c.49,0,1,.06,1.48,0a4.7,4.7,0,0,0,.53,0,10.19,10.19,0,0,0,1.23-.35,9.84,9.84,0,0,0,1.42-.47c.37-.15.76-.26,1.12-.44a10,10,0,0,0,1.06-.6s.07,0,.1,0,.23-.07.35-.1a2.87,2.87,0,0,1,.77-.11h1a1,1,0,0,1,.56.2l.42.41.08,0c.13.09.27.15.4.24a.81.81,0,0,0,.38.19s.08.1.13.1a5.52,5.52,0,0,0,.91-.11,1.57,1.57,0,0,0,.88-.34c.11-.1.2-.21.31-.3a1.38,1.38,0,0,0,.49-.8,2.26,2.26,0,0,1,0-.26c0-.08.1-.11.15-.16a1,1,0,0,1,.4-.26s.09.06.13.07a.77.77,0,0,1,.3.19.69.69,0,0,0,.44.2,2.77,2.77,0,0,0,.5-.1.74.74,0,0,0,.48-.17c.13-.13.24-.29.37-.42a.78.78,0,0,1,.46-.16c.08,0,.13-.13.2-.15a.69.69,0,0,0,.45-.33.55.55,0,0,0,.08-.15c0-.06,0-.16-.06-.17s-.1.05-.15.12a.76.76,0,0,1-.13.23c-.12.13-.2.1-.34,0s-.18,0-.27,0a.94.94,0,0,0-.4.16c-.16.09-.36.1-.52.19s-.24.14-.36.11a.62.62,0,0,1-.44-.46c0-.13-.21-.16-.31-.24a1.18,1.18,0,0,0-.5-.28,2.77,2.77,0,0,0-.76-.08,1.12,1.12,0,0,0-.5.18.74.74,0,0,0-.32.38,1.34,1.34,0,0,0,.1.59.43.43,0,0,1,0,.16c0,.09-.07.17-.08.25a.1.1,0,0,1,0,.07,1.54,1.54,0,0,1-.48.24,2.18,2.18,0,0,1-.48.14,1.18,1.18,0,0,1-.72-.38,3.57,3.57,0,0,1-.37-.31,1.81,1.81,0,0,1-.33-.5c-.1-.21-.27-.38-.36-.59a1.34,1.34,0,0,0-.7-.74,3.54,3.54,0,0,0-.83-.23,2.83,2.83,0,0,0-.77-.05,1.76,1.76,0,0,0-.75.14c-.22.1-.45.17-.66.28l-.46.26a4.45,4.45,0,0,1-1.78.87,4.35,4.35,0,0,1-.61.2c-.3.05-.62,0-.92,0a15.3,15.3,0,0,1-2.14.06c-.3,0-.6-.15-.9-.19-.52-.08-1.06-.09-1.58-.18a5,5,0,0,1-1.24-.44c-.3-.14-.61-.25-.91-.4s-.61-.23-.89-.39-.74-.5-1.11-.7a19.9,19.9,0,0,1,2.77-.23s0-.05.05,0c.35.1.68.28,1,.36a6.58,6.58,0,0,0,1.09,0,7.43,7.43,0,0,0,1.25.07l.65,0a10.75,10.75,0,0,1,1.47.43c-.2-.22-.45-.38-.66-.58.07,0,.17-.11.24-.13a8,8,0,0,0,1.23-.47,3.24,3.24,0,0,0,1-.67c.17-.18.32-.39.48-.58,0,0,.09,0,.1-.06s.07-.26.12-.38a1.87,1.87,0,0,0,.2-.77c0-.06-.07-.1-.08-.16v0l.07,0a.41.41,0,0,0,0-.11s0,0,0-.07a1.11,1.11,0,0,0-.07-.26s0-.06,0-.06,0,.07,0,0-.07-.06-.06-.06l0,0a1.3,1.3,0,0,1-.08-.17A.71.71,0,0,1,55.87,9a.77.77,0,0,1,.33-.18,1.56,1.56,0,0,1,.68,0,1.72,1.72,0,0,1,.58.19,2.3,2.3,0,0,0,.85.28c.19,0,.38-.06.57,0l.42,0H60a1.36,1.36,0,0,0,.6-.14,2.47,2.47,0,0,0,.7-.55,2.44,2.44,0,0,0,.14-.28c0-.06.11-.1.14-.16s0-.12,0-.17l.05,0c0-.06-.08-.17,0-.19s.08,0,.09,0,0-.12.12-.13a1.74,1.74,0,0,1,.55-.31.15.15,0,0,1,.2,0h0a1.09,1.09,0,0,1,.08.15c.07.1.17.2.24.3l.1,0c.09,0,.1,0,.12.1a.17.17,0,0,1,0,.15c0,.09.13.17.19.26a3.65,3.65,0,0,0,.18.34,2.83,2.83,0,0,0,.2.28.86.86,0,0,0,.39.2l0,0s.1,0,.11,0a.28.28,0,0,1,0,.09c.08,0,.18-.08.26-.08h0c0-.06,0,0,.07,0s.17,0,.18,0a1.35,1.35,0,0,0,.61-.18l.27-.18a2.5,2.5,0,0,0,.61-.86c0-.09,0-.2,0-.28a.47.47,0,0,1,.45-.28l.2,0a2.32,2.32,0,0,0,.59,0l.3-.1a.46.46,0,0,0,.37-.34,1.07,1.07,0,0,1,.21-.41h0s0-.09,0-.12a.11.11,0,0,1,.09,0s.1,0,.12,0,0-.1,0-.13a.66.66,0,0,1,.59-.11.39.39,0,0,1,.2.13.24.24,0,0,0,.24.13c.06,0,.15,0,.19,0m-16,.19a.44.44,0,0,1-.18,0s0-.06,0-.09.06,0,.12,0,0,0,0,0,.18.06.18.1-.06,0-.14,0M11.2,38.5s0,0,0,0,0-.09.05-.09,0,.07,0,.1,0,0-.05,0m.29,1.44s0,0,0,0,0-.09.05-.07.07.11,0,.1M6.18,48.2s0,0,0,0,0-.1,0-.09,0,.08,0,.12,0,0,0,0M35.61,47s0,0,0,0,0,.07,0,.07,0,0,0-.07,0,0,0,0m-1.69.66c.08-.15.24-.1.23.06s0,.14-.1.15-.19-.09-.13-.21m-3.48-.46c.07,0,.18.1.14.13a.11.11,0,0,1-.12,0c-.1-.06-.11-.16,0-.15m-.29-.35c.05,0,.16,0,.16,0a.16.16,0,0,1-.06.13c-.07.06-.1,0-.12,0s0-.11,0-.14m-1.31,0s0-.07,0,0,0,.08,0,.1-.08,0,0-.06m-.54.6s0,0,0,0,0,.11-.05.11,0-.06,0-.1m-.21-1.16c.07,0,.12,0,.09.08s-.06.07-.1,0,0-.11,0-.1m-.68.77s0,0,0,0,0,.08,0,.08,0-.06,0-.08,0,0,0,0M27.18,46c.12,0,.15,0,.1.11s-.05.12-.11.11a.11.11,0,0,1-.09-.13.12.12,0,0,1,.1-.09m-.06.94s0,0,0,0,0,.06,0,.07,0,0,0,0,0,0,0,0m-1.31.75c.15,0,.27.06.32.17s.05.19-.17.17-.15,0-.15-.21,0-.13,0-.13m-.14-2.17s.06,0,.06,0,0,.09-.07.09-.06-.07-.06-.1,0,0,.07,0M24.76,47s0,0,0,0,0,.06,0,.06,0,0,0-.07,0,0,0,0m-.5-1.4s0,0,0,0a.07.07,0,0,1-.05.11c-.05,0,0-.06,0-.1m-.36.62c0-.17,0-.18.07-.2a.24.24,0,0,1,.28.22c0,.12,0,.11-.1.1s-.09.08-.12.11-.15,0-.13-.23m-.46.22s0,0,0,0,0,.07,0,.08,0,0-.06-.06,0,0,0,0m-.71,1.41c-.11,0-.13,0-.13,0s0-.09.09-.07.1.09.13.09,0,0-.09,0m-.22-1.65c0-.08.07,0,.17.08s.14.21,0,.2-.24-.22-.2-.28M18.08,47c0-.13-.08-.1,0-.15a.18.18,0,0,1,.25.06s0,0,0,0a.12.12,0,0,1-.09.17.14.14,0,0,1-.17-.09v0m.3.4c.05,0,0-.06,0,0s-.06.18-.12.14,0-.09.08-.14m.05.3c-.06,0-.08-.05,0-.08s.12,0,.11,0,0,0-.07,0m.16-.62s0,0,0,0,0-.08,0-.09.05,0,.06.06,0,0,0,0m.33.36s0,0,0,0,0-.1,0-.1,0,.08,0,.1m.48.31c-.07,0-.1,0-.06,0s.16,0,.15,0-.06,0-.1,0m0-.4c-.14.12-.12.13-.29,0s-.13,0-.16-.05-.07-.17,0-.19a1.53,1.53,0,0,1,.64,0s-.06.09-.17.18m-.13-.5c.07,0,.05.15,0,.12s-.13,0-.2,0-.15-.13-.08-.19a.44.44,0,0,1,.3.06m-.16-.46s.06,0,.05,0a.08.08,0,0,1-.1,0,.1.1,0,0,1,0-.05s0,0,.09,0m.58,1s0,0,0,0,0-.07,0-.07,0,.06,0,.1,0,0,0,0m.23.73c-.07,0-.06-.1,0-.09S20,48,20,48s-.1.12-.15.08m.13-.31s0,0,0,0,0-.07,0-.07,0,0,0,.07,0,0,0,0m.14.25s0,0,0,0,.08,0,.08,0-.05,0-.07,0m.45-2.23s0,0,0,0,.08,0,.08,0-.06,0-.08,0,0,0,0,0m0,1.65s0,0,0,0,.11,0,.06.08,0,0-.06-.05m.6-1.08s0,0,0,0,0-.07,0-.09.09,0,0,.07m.57.31s0,0,0,0,.09,0,.09,0-.07,0-.1,0,0,0,0,0m0-.2s0,0,0,0,.07.1,0,.12,0,0,0-.07m.19,1c-.1,0-.11.07-.06.19s.07.11,0,.14-.07,0-.1-.15-.1-.2,0-.24.21,0,.2,0,0,0-.09,0m.23-.8s0,0,0,0,0,.06,0,.06,0-.05,0-.08,0,0,0,0m-.33-1.38s.09,0,.06.06-.16,0-.16,0,.08,0,.1-.05m-.1.79a.91.91,0,0,1,.18-.21c.06,0,.05-.14.12-.13s0,.1,0,.15.13.27,0,.34a.64.64,0,0,1-.47,0s.05-.06.09-.14m-.29-.75c.13-.1.16-.06.06.07s-.07.08-.1.06,0-.07.05-.13m-.14,1.92h.16c.18,0,.19.14,0,.16s-.24-.09-.16-.16M21.22,46s.07,0,.06,0,0,.1-.05.1-.06,0-.05-.11,0,0,0,0m-.14-.52s0,0,.05,0,0,.07,0,.07,0-.06,0-.08,0,0,0,0m0,1.91s0,0,0,0,0,.07,0,.07,0,0,0-.08,0,0,0,0m-.11-.51c-.1,0-.14-.07-.05-.09s.09,0,.11,0,0,.13-.06.12m0-.45c0,.06,0,.06-.06.05s-.15-.05-.07-.12.14,0,.13.07m-.12-.29s.08,0,.08.1-.06.09-.13,0,0-.08,0-.12m-.08,1.66s0,0-.06,0,0-.08,0-.06,0,.05,0,.08m-.28-2.57c.08,0,.24,0,.23.08s-.23.16-.3,0,0-.06.07-.07M20.31,47c-.1,0-.1,0-.09-.07s0-.14,0-.14.08.09.15.14.11.08-.09.07m-.1-.45s.05,0,0,0,0,.07,0,.07-.05-.06,0-.1m-.09.95s0,0,0,0,0,.07,0,.08-.05,0-.06-.06,0,0,0,0M20,46.61s0,0,0,0-.14.08-.13,0,.06,0,.1,0m-.13,1.08s0,0,0,0-.1-.06-.05-.1.08,0,.07.09m-.73-2c.09-.07.09-.09.15,0s.12.06.1,0,.14-.21.21-.2.11.31,0,.33-.11,0-.12.06,0,.15.12.06.31-.06.3.07a.19.19,0,0,1-.15.16.41.41,0,0,1-.19,0s0,0,0,.08-.13,0-.19,0-.12-.09,0-.15,0,0,0-.1-.06-.13-.1-.13-.14,0,0-.12M19,45.43s0,0,0,0,0,.07,0,.07,0-.06,0-.08,0,0,0,0m-.06.6c.06,0,.13,0,.12,0a.21.21,0,0,1,0,.13c-.06,0-.08,0-.1-.05s0-.11,0-.13m-.1.46s-.3.09-.4,0-.16-.15-.07-.22.11,0,.15,0,.32.12.31.16m-.5-.5c.08-.07.12-.08.11,0s0,.12-.09.11-.1,0,0-.12m0-.47c.1-.13.13-.14.2,0s0,.12-.06.18-.26.06-.25,0a.53.53,0,0,1,.11-.15m-.19,1c.06,0,.08,0,.14,0s.13.11,0,.19a.14.14,0,0,1-.23-.05c0-.11,0-.1.07-.14M16.5,48.13c-.11.08-.25-.06-.14-.14s.06-.08.11-.07.12.15,0,.21m-.15-1.41s0,0,0,0,.06,0,.06,0-.05,0-.07,0,0,0,0,0M16.89,48c-.05,0,0,0-.11-.09s-.15-.2-.1-.23.1,0,.18,0,.18,0,.18.13-.11.13-.15.15m.27-2.31s.05,0,.05,0,0,.08,0,.08,0-.07,0-.09,0,0,0,0m.08,2s-.1.06-.09,0,0-.08,0-.09a.05.05,0,0,1,.08,0,.06.06,0,0,1,0,.06m.11-.71c-.06.1-.09.12-.12,0s-.05-.2,0-.25.17.09.1.22m.4.16c-.1,0-.15-.06-.1-.11a.14.14,0,0,1,.2,0c.08.1,0,.12-.1.09m0-.77c0-.08,0-.1.05-.09a.12.12,0,0,1,.08.14.11.11,0,0,1-.08.07c-.11.05-.08,0-.05-.12m.07-.45s0,0,0,0,0-.12.07-.1,0,.08,0,.11,0,0-.07,0m-.07-.53c.11-.08.17-.07.16.06s-.2.22-.26.14,0-.12.1-.2m-.13.58c.07,0,.18.08.18.16s-.05.07-.13.06-.1-.09-.11-.15,0-.06.06-.07m-.07.42c-.05,0-.12-.19-.08-.18a.13.13,0,0,1,.1.1c0,.1,0,.1,0,.08m-.07-.6s0,0,0,0-.09,0-.09-.05.07,0,.1,0,0,0,0,0m-.15-.33c.07,0,.12,0,.11,0a.09.09,0,0,1-.11,0c-.05,0-.09,0-.09-.09s0,0,.1,0m-.2-.26c.07,0,.1,0,.06.07s-.16,0-.16-.07.06,0,.1,0M17,46.79s0,0,0,0-.1-.06-.05-.1.07,0,.07.09M17,46s0,.06,0,0-.1-.24-.06-.24.13.15.1.21m-.31-.54c.07-.11.09-.13.2-.06a.23.23,0,0,1,.08.31.21.21,0,0,1-.2.1c-.12,0-.13,0-.14-.12s0-.12.06-.23m-.05.73s0,0,0,0,0,.08,0,.08,0,0,0-.05h0m0,1.06a.22.22,0,0,1,.31,0,.18.18,0,0,1,.05.07.26.26,0,0,0,.17.07c.07,0,0,.08-.07.2s-.12.17-.27.15-.38-.27-.2-.45m-.11-.94s0,0,0,0-.07,0-.07-.05.06,0,.08,0,0,0,0,.05m0-.4s0,0,0,0,0,.06,0,.06,0,0,0-.08,0,0,0,0m-.14-.34a.09.09,0,0,1,.08.12s-.06.06-.1,0,0-.15,0-.14m-.05.34c.05,0,.05-.06,0,0s0,.09,0,.09-.06-.07,0-.1m0,.57s0,0,0,0h-.07s.06,0,.08,0,0,0,0,0m-.06.43c.07-.06.14,0,.16.08s-.1.26-.2.08,0-.12,0-.16m-.09.64s0,0,0,0-.14.09-.13,0,.06,0,.1,0m-1.87-.65s0,0,0,0,.08,0,.08,0,0,0-.06,0,0,0,0,0m0-.57s0,0,0,0,0,.11-.05.1,0-.1,0-.12m1.16,1.49c0,.06,0,.06-.05,0s0-.07,0-.07,0,0,0,.07m.24-.9s-.12-.07-.11-.12,0-.07,0-.07.11.16.07.2m.25,1s0,0,0,0,0-.07,0-.08,0,0,.06.06,0,0,0,0m.05-.66s0,0-.08,0-.1-.18,0-.13.11.12.06.16m-.1-.86c-.09.13-.22.22-.33.18s-.22-.48-.11-.52.09.06.13.1.12,0,.19,0,.2.13.12.26m-.4-.61c.07-.08.18-.06.28.06s.09.1,0,.12l-.24,0c-.17,0-.18,0-.07-.16m-.17,1s0,0,0,.05-.11.08-.12,0,0,0,.08,0m-.05.55s0,0,0,0,0,.07,0,.08-.05,0-.06-.06,0,0,0,0m-.38-.56c.07,0,.15,0,.14,0s0,.09,0,.11-.08,0-.13-.06,0,0,0-.07m0,.31c.14.13.13.56,0,.49a.15.15,0,0,1-.08-.2.05.05,0,0,1,0,0c.07-.12.11-.13,0-.21s-.14-.2,0-.2.08.13.13.17m-.21-1.24s0,0,0,0,0,.07,0,.07,0-.06,0-.08,0,0,0,0m0,.58s0,0,0,0-.06,0-.06,0,0,0,.05,0m0,1.08c.05.07,0,0,0,.13s0,.08,0,.15,0,0,.11,0,.19,0,.23,0,.05.14.1.17a.18.18,0,0,1,.11.21q0,.21-.15.21a.39.39,0,0,1-.21-.06c-.06,0-.07,0-.13,0s-.43-.26-.3-.45.13-.35.05-.36-.09,0-.11,0-.1-.12,0-.14a2.09,2.09,0,0,0,.23.1c.08,0,.09,0,.14,0m-.19-.35c0,.07,0,.08-.06.1s-.12.06-.14,0,0-.16.06-.23.14,0,.14.08m-.1-1.38s0,0,0,0,0,.08-.07,0,0-.08,0-.09a0,0,0,0,0,0,0m-.1.24s0,0,0,0,0,.1-.05.1,0-.07,0-.1,0,0,0,0M15.57,15.6s0,0,.06,0,0,.09,0,.08-.1-.12,0-.11m-.24-1.92s0,0,0,0,0,.12,0,.12,0-.07,0-.1m-.46,10.15c.06,0,.09,0,.08.06s-.07.09-.13,0,0,0,0-.07M14,20.15a.28.28,0,0,1,.3.11c.07.14,0,.23-.21.19s-.14-.07-.14-.19,0-.1,0-.11m-.67,4.38c0-.07,0-.14.14-.29s.2,0,.23,0,0-.31,0-.37,0-.26.12-.32.08-.08.16-.06.13.05.23.14.28.38.08.62c0,.06-.28.09-.31.14s.18.12.17.2-.14.38-.26.4a.88.88,0,0,0-.42.11c-.09.08-.1.07-.3-.14s.16-.33.16-.42m.88,3.81c-.06,0-.09,0-.09,0s-.07-.07-.11-.12a.14.14,0,0,1,0-.15c0-.09.18-.07.22.06s0,.16,0,.18.07.06,0,.05m.06,3.09s0,.06,0,0-.08-.11,0-.14.07,0,0,.1m0-3.61s0,0,0-.05.14.09.1.15-.13,0-.13-.1m0-.42c-.06.05,0,.06-.1,0s-.12-.14-.06-.21.17,0,.2.13,0,.08,0,.11m-.6-.7s0,0,0,0,0-.08,0-.09.05,0,.06.06,0,0,0,0m0,3.23s0,.06,0,0-.12-.16-.06-.2.1.05.09.15m-.06-1.18c0,.05,0,.07,0,.06s-.1-.12-.06-.15.07,0,.06.09m-.45-1.48s.08,0,.1,0,.09.08,0,.14-.1,0-.13,0-.06-.11,0-.13m0,2s0,0,0,0-.08,0-.08,0,.06,0,.08,0,0,0,0,0m-.26-2.19c.08-.07.07-.08.06,0s-.06.15-.13.06,0-.06.07-.09m-.11,2.06c0-.09.08-.06.07.05s0,.13,0,.13-.07-.12,0-.18m.24,2.69c.07.08.09.07,0,.17s-.14.18-.25,0,0-.21.06-.4.19-.24.26-.19-.05.11-.09.16-.09.13,0,.22m.06.83c0,.06,0,.09,0,.08s-.05-.12,0-.15,0,0,0,.07m-.21.74s0,.07-.05.07-.09-.17,0-.21.14.05.08.14M12.63,31a.22.22,0,0,0-.11-.12c-.06,0-.08,0,0-.21a.21.21,0,0,1,.15-.11,1.3,1.3,0,0,1,0,.59s0-.08-.06-.15m-.38,2s.05,0,.05,0-.11.06-.13,0,.05,0,.09,0m0,.5c.16-.17.17-.18.17,0s0,.14.16.15a.12.12,0,0,1,.13.12h0c0,.07,0,.13-.11.1a1.38,1.38,0,0,0-.3-.14c-.17,0-.24,0-.24-.1s.12-.11.19-.17m.64,2.55s.06,0,0,.06-.18,0-.17,0,.07,0,.1-.05,0,0,.08,0m0-.77c.09,0,.11,0,0,0s-.08.07-.11,0,0,0,.07-.06m-.18,1.18c.07.09.08.11,0,.1s-.14,0-.13-.1a.07.07,0,0,1,.09-.07s.05,0,.07.06M12.42,36c-.07,0-.1,0-.09-.14s-.05-.12-.1-.15a.14.14,0,0,1,0-.15c0-.06,0,0-.17,0s-.06-.24,0-.3a.6.6,0,0,1,.13-.09c.08,0,.14,0,.12.2s0,.3.16.24a.2.2,0,0,1,.24,0,.24.24,0,0,1,0,.34.25.25,0,0,1-.27,0m0,.26s0,0,0,0,0-.07,0-.08,0,0,.06.06,0,0,0,0m-.33-.11s0,0,.07,0,0,.23-.11.14a.11.11,0,0,1,0-.14l0,0M12,35.79c-.06,0-.07,0,0,0s.11,0,.11.06-.06,0-.1,0m.19,1.52s.05,0,0,0-.1.06-.12,0,0,0,.08,0m.32-1.84s-.06,0,0-.07.11-.06.11,0-.06,0-.08,0M12,33.93c.05,0,.09,0,.08,0s0,.1-.05.09A.05.05,0,0,1,12,34a.05.05,0,0,1,0,0m0,.79c.06,0,.06,0,0,0s0,.11,0,.1,0-.09,0-.13m-.22-.35c.07-.06.1,0,.08,0s0,.13-.07.12-.06-.12,0-.16m-.11,1c-.09,0-.09,0,0-.06s.08-.09.13-.08.05,0,0,0,0,.07,0,.1-.1,0-.15,0m0,2c-.09-.11-.1-.16,0-.27s0-.15,0-.22.22-.16.3.06.11.46,0,.5-.14,0-.14,0-.08,0-.16-.09m.14.33c.11-.11.22-.17.31-.13a.45.45,0,0,1,.25.4c0,.13-.07.14-.19.18s-.18.12-.31,0a.31.31,0,0,1-.09-.42l0,0m.38,1c.11,0,.18.05.12.1S12,38.74,12,38.7s.08,0,.15,0m-.1-.37c0-.1-.07-.09,0-.09s.13.1.07.15,0,0-.06-.06m-.29.67s.07,0,.07,0,0,.08,0,.06-.05-.08-.06-.11,0,0,0,0m-.36,1.64c.05-.05.09-.05.09,0s0,.1,0,.09a.05.05,0,0,1-.06-.05,0,0,0,0,1,0,0m-.1.5s.06,0,.07,0-.09.2-.14.16,0-.13.07-.15m-.13.93s0,0,0,0-.06,0,0-.06,0,0,.06.06m-.11.4s0,0,0,0,0-.08,0-.09,0,0,0,.07,0,0,0,0m0,.73s0,0-.05,0-.13-.14,0-.13.07.06.06.1M11,41.78c0-.11,0-.15,0-.15s.18.08.17.14-.1,0-.15.09S11,42,10.9,42s.07-.14.08-.22m-.15.84c-.05,0-.05-.18,0-.17s.1,0,.12,0,0,.08-.07.12-.05,0-.07,0m-.22,4.6s0,0,0,0,.09,0,.08,0-.11.07-.1,0m0,.42s0,0,0,0-.08,0-.08,0,.05,0,.08,0,0,0,0,0m.05.33c.05.12,0,.15-.1.08s-.16-.15-.06-.22.11,0,.16.14m-.37-.78s0,0,.08,0,.06.12,0,.16a.11.11,0,0,1-.12,0s0-.15,0-.18m-.05.38c.07,0,.07,0,0,.07s-.08,0-.07-.06,0,0,.08,0m-1.94-1.2s0,0,0,0,0,.07,0,.07,0-.06,0-.08,0,0,0,0m-.26.4s.08,0,.08.08,0,.07-.07.07-.08-.09,0-.15m-.18-.17s0,0,0,0,.07.06,0,.1-.16,0-.07-.06m-1.36,1c-.09,0-.1,0-.1-.13s0-.19,0-.19.18.18.18.24,0,0,.11,0,.11.06.13.12a.12.12,0,0,1-.07.17.13.13,0,0,1-.16-.06s0-.13-.11-.15m.14.48c-.08-.12-.12-.2-.05-.19a.23.23,0,0,1,.16.06c.08.09,0,.11,0,.18s0,0-.1,0m.42.56c-.19.05-.17.07-.26,0s-.13-.14-.12-.22.07-.11.2-.14.4,0,.39.13,0,.1,0,.13,0,.06-.19.12m.24-.51s0,0,0,0,0-.08,0-.07,0,.06,0,.1,0,0,0,0m.78-.3c-.16,0-.21.12-.14.3s.08.2,0,.2-.16-.23-.15-.32a.25.25,0,0,0-.22-.23c-.11,0-.1.07,0,.13s.13.06.13.08-.22,0-.29,0-.35-.14-.37,0-.12.06-.14,0,0-.28.29-.27.33,0,.22-.08-.1,0,0-.09,0-.06,0-.11-.12-.14-.16,0-.08.08-.16,0-.09-.09,0-.13h.11c.06,0,.06-.06.08-.12a.06.06,0,0,1,.07,0l0,0a.57.57,0,0,0,.43.09c0-.05.3,0,.33,0s.06.09.12.08.27,0,.29.09,0,.12,0,.12,0,0,0,.08-.24.27-.4.28m.39-.71s-.21-.08-.2-.13,0-.07,0-.07.21.17.19.2m.1-.16s-.05,0,0,0,.08,0,.09,0,0,.09-.07,0m.21.62a.17.17,0,0,0-.1,0s0-.06,0-.08.23,0,.23,0,0,0-.11,0m0-.9a.24.24,0,0,0-.24.07c-.11.08-.25,0-.18-.06s.11-.09.14-.16,0-.13-.07-.24a.22.22,0,0,1,0-.3h0c.07-.05.1,0,.07,0s0,0,0,0a.31.31,0,0,1,.16.16.18.18,0,0,0,.12.12.21.21,0,0,1,.13.19c0,.18-.11.18-.24.14m.77,1.66c-.06,0-.1.07-.12,0a.13.13,0,0,1,0-.18l.05,0c.06,0,.1.06.14.1s0,0-.06.07m.25.19a0,0,0,0,1-.06,0,0,0,0,0,1,0,0s0-.07,0-.07.07.06,0,.1M9.9,48a.07.07,0,0,1,0,.1.07.07,0,0,1,0,0s0,0,.08.08.1.17,0,.21-.25-.17-.23-.28.07-.1-.08-.1l-.3,0a.51.51,0,0,1-.3-.06c-.16-.09-.17-.2-.08-.27s.05-.1.07-.3,0-.24,0-.28A.1.1,0,0,1,9,47.07.11.11,0,0,1,9.1,47a.3.3,0,0,0,.17-.1c.06-.06.11-.06.1,0s-.07.09,0,.11l.14.1c.13.08.23.06.24,0s0-.06.1,0,.24.07.2.3-.1.23,0,.26.09.22,0,.28-.09.1-.06.12m.35.1s0,0,0-.06.16.06.12.11a.08.08,0,0,1-.1,0,.08.08,0,0,1,0-.07m.28.55s0,0,0,0,0-.08,0-.1,0,0,0,.07,0,0,0,0m.15-.26a.13.13,0,0,0-.16.07h0c0,.08-.15.13-.19,0s.06-.07.1-.11.3-.17.35-.06,0,.07-.1,0m0-1.51a.2.2,0,0,0,0,.15s0,0-.06,0a.12.12,0,0,1-.05-.1s0-.08,0-.12.12,0,.15,0,.08.06,0,.13m.78,1.18s0,0,0,0,0-.08,0-.07,0,.08,0,.1,0,0,0,0m.49.48c0,.11-.11.12-.1,0s0-.12.07-.12,0,.05,0,.1m.18,0s0,0,0,0,.05,0,.07,0,0,.09-.08.08m.55-.07s0,0,0,0,0-.08,0-.07,0,0,0,.07,0,0,0,0m.83-1.15c-.05,0-.06-.09,0-.08s.1,0,.11,0-.07.12-.11.09m0,.44c0-.1-.06-.1,0-.1s.22,0,.22.1-.2.07-.22,0m.26-.13s0,0,0,0,0-.07,0-.09.09,0,0,.07m.2.23c0,.06,0,.06,0,0s-.07-.09,0-.11.07,0,.05.11m0-1.14a.09.09,0,0,1,.08,0c0,.06,0,.09,0,.07s-.13-.12-.06-.11m0,.46c.07.17.05.23-.1.21s-.06-.19,0-.27.05,0,.08.06m-.2-1.48s0,0,0,0,0,.06,0,.08,0,0,0,0,0,0,0,0m-.46-.23s0,0,.08,0,.1.08.06.12-.1,0-.13,0-.07-.08,0-.11m0,.51c.09-.25.14-.32.25-.22a.8.8,0,0,0,.2.07c.09,0,.07.19,0,.18s0,.17.05.29a.81.81,0,0,1,.07.22s-.05.14-.05.2c0,.28-.27.12-.3,0s-.07-.13-.16-.13a.36.36,0,0,1-.17-.07c0-.09.07-.39.13-.58m0,1.07s0,0,0,0-.09,0-.09,0,.06,0,.1,0,0,0,0,0M13,47.1c.06-.06,0-.09,0,0s-.05.2-.12.16-.07-.13,0-.12A.24.24,0,0,0,13,47.1m-.09-.19c0,.07,0,.08,0,0s0-.08,0-.09,0,0,0,.07m-.14-.53a.11.11,0,0,0,.09-.08s0-.07,0-.07,0,.06,0,.12,0,.15,0,.21-.06.11-.12.1-.1,0-.07-.11,0-.07,0-.08,0-.1,0-.09m-.11-1s0,0,0,0,0,.1-.05.09,0-.06,0-.1,0,0,0,0m-.18.32s.07-.07.09-.12.06-.09.12.08,0,.2,0,.24-.1.09-.17,0-.07-.21,0-.2m-.1.92a.22.22,0,0,1,.14,0c.12,0,.17,0,.16.12s-.06.1-.17.09-.22-.11-.13-.18m0,.8s0,0,0,0-.1-.06-.05-.1.08,0,.07.06m.08-1.28s0,0-.07,0-.14,0,0-.08.1,0,.1.05m-.17-.62s.05,0,0,0-.07,0-.07,0,.05,0,.06,0m0,.37s0,0,0,0,0,.07,0,.07,0-.06,0-.09,0,0,0,0m-.16.88s0,0,0,0,0,.11-.08.05,0,0,.05-.05m-.12.57c-.11,0-.12.14,0,.25s.12.1.07.18,0,.18.19.11.2-.09.25,0,.13.11.12-.07,0-.15.06-.15a.17.17,0,0,1,.16.17.16.16,0,0,1,0,.09c-.06.08-.06,0,0,.08s0,0,.11,0,.08,0,.09-.07.12-.05.14-.09-.05-.13-.13-.18-.21-.22-.14-.25.11.11.17.19a1.31,1.31,0,0,0,.25.22c.19.1.2.19,0,.36s-.16.12-.24.1-.07,0-.09.08-.17,0-.23-.09a.19.19,0,0,0-.24-.1l0,0a.51.51,0,0,1-.3.06c-.14,0-.32-.07-.4-.06s-.19,0-.15-.06.08-.12,0-.25-.17-.21,0-.26.13-.09.07-.17a.31.31,0,0,0-.38-.06c-.09,0,0,.15,0,.3s-.05.17-.16.13,0-.36.06-.35,0,0-.12-.07a.45.45,0,0,1-.19-.33s.08,0,.1-.05l-.09,0c.07-.14.28-.17.47-.14s.32,0,.27.2.06.3.2.16a.14.14,0,0,1,.16,0s.07.1.11.1.1,0,0,0m-.11-.44s0,0,0,0,.06,0,.07,0,0,0-.05,0,0,0,0,0m.06-1s0,0,.06,0S12,46,12,46s0,0,0-.06m-.61,0c.13,0,.12-.06.13,0s.21.18.26.12.14.08.21.25.09.16-.07.28a.3.3,0,0,1-.26,0s-.07,0-.11.07-.13.07-.27,0-.14-.07-.2,0-.34,0-.33-.09,0,0,0,0-.12-.07-.14,0-.08.1-.07,0,0-.12,0-.17.16-.1.16-.16,0-.11.15-.17.17-.1.3.06.23.18.29.1-.07-.07-.14-.14,0-.08-.06-.16.06,0,.13,0m-.51-.65c0-.09,0-.1.08-.11a.22.22,0,0,1,.25.19.22.22,0,0,1-.06.19c-.13.1-.29-.07-.27-.27m.2.5c0,.06-.06.07-.09,0s0-.07,0-.1.11,0,.11.08m.25-1.26c0,.07,0,.12-.08.13s-.09.13-.14.23-.13.15-.3.12-.24,0-.24-.1.07-.09.09-.09.16-.1.14-.15,0,0-.07,0a.24.24,0,0,1-.14-.1s0,0-.11,0a.17.17,0,0,1-.19-.2c0-.12,0-.08.12,0s.16.07.31,0,.19-.18.71.08a1,1,0,0,0-.1.17m.08-.58c0,.08.08.05,0,.07s-.09.09-.13.12-.09,0-.14,0-.07-.22.05-.21.1,0,.11,0,0-.06.11.07m0-1.84a.21.21,0,0,1,.08-.11c.15-.11.25,0,.11.09s-.2.09-.19,0m.41.6-.18,0c-.1,0-.11-.07,0-.15s.23,0,.24.12,0,.08-.06,0m0-.38c-.07-.11-.09-.09,0-.17a.13.13,0,0,1,.11-.09c.07,0,.07.07.07.12s.08.1.09.14-.15.11-.22,0m.28-.2s0,0,0,0H12l.09,0s0,0,0,0m-.1-.8s0,0,0,0,0,.08,0,.07,0-.06,0-.08,0,0,0,0m.05.17c.05.05,0,0,0,.11s0,.19-.15.19-.22-.12-.2-.28-.07-.06-.1-.08,0-.14,0-.24a.18.18,0,0,1,.25,0l0,0c.07.06.08.12,0,.23s-.13,0-.09,0,0,0,.11,0,.08,0,.14.07m.11-1.4c-.09,0-.11,0-.18,0a.14.14,0,0,0-.14,0s0,0,0-.09,0-.12,0-.21c.06-.31.14-.31.29-.3s.24.09.16.17,0,.08,0,.23l0,.23h-.17m.3-1c-.07.1-.11.1-.22,0s-.11-.23,0-.16a.41.41,0,0,0,.19.08c.15,0,.13,0,0,.12m.11-1.52a.19.19,0,0,0-.09-.14s-.07,0-.07-.05.06,0,.08,0a.78.78,0,0,1,.24.33c0,.11-.15,0-.16-.1m.06-.68c-.07,0-.08,0-.07-.06s0,0-.12-.06-.08-.06-.07-.12,0-.14,0-.15.3.22.31.32,0,0-.05.07m.38.51a.13.13,0,0,0-.16-.08c-.08,0-.14,0-.17,0s0-.11,0-.15.23,0,.25,0,0,.09.06.09.15,0,.17.12-.14.27-.19,0M13.07,35a.27.27,0,0,1-.23,0,.26.26,0,0,0-.21,0c-.09,0-.08,0-.06-.2a.22.22,0,0,0-.08-.19s0-.1,0-.14,0-.07.11,0,.1.09.05,0,.07-.28.17-.22a.89.89,0,0,1,.13.53.14.14,0,0,0,.14.14h0c.1,0,.06,0-.06.09m.2-.34c0,.11,0,.1,0,0s-.1-.14-.06-.18.07.05.06.16m.44-1.37c-.17,0-.22,0-.15.12s.08.11,0,.13-.06-.07-.09-.13-.15-.1-.22-.14-.11-.15-.06-.19a.41.41,0,0,1,.4.06c.16.1.2.17.07.15m-.25-.65s0,0,0,0,.15.06.11.11-.14,0-.13-.07m.17.16s0-.05,0,0,0,.1,0,.09-.06-.07,0-.1m.18-.85s0,.06-.06.06-.12,0-.13-.06.05-.06.14-.05.06,0,.05.05m0-.79s-.05,0,0,0,.07,0,.09,0,0,.09-.07,0m.07-.49c-.09.21-.12.26-.33.27s-.27.13-.2.24,0,.06,0,.06-.1,0-.1,0,0-.05-.08-.06-.25-.09-.24-.44c0-.14,0-.33,0-.42a.33.33,0,0,1,.12-.32c.05-.06.06-.13.14-.13s.11,0,.19.09.11.21.14.23a.88.88,0,0,1,.19.1c.06.05.22.07.27.12s0,.13,0,.29m-.09-3.2s0,0,0,0,.07,0,.06,0-.05,0-.07,0,0,0,0,0M13.9,26c-.14,0-.25.05-.25,0s-.05-.1,0-.15.3-.09.34.06,0,.07-.07.1m.21,7.37c0,.07,0,.08,0,.06s-.13-.2-.06-.23.1.05.09.17m.18-1c-.09,0-.15-.06-.08-.12s.06-.08.1-.07.08.16,0,.19m.22-1.58c.08,0,.08,0,.1.05s0,.31-.1.3-.22-.37-.13-.36h.14m.06-2.35c-.08.07-.07.1-.09,0s0-.1,0-.12.16,0,.08.11m.13-2.79a.46.46,0,0,0-.2.05c-.17.08-.22.06-.22-.28a.52.52,0,0,1,.17-.42c.16-.2.28-.34.39-.3s.12.17,0,.44-.12.34-.06.42,0,.13-.06.1m.09,3s0-.05,0-.05.07,0,.07.05-.06,0-.08,0,0,0,0,0m.07.34c-.06,0-.06,0,0-.09s.09-.06.1,0a.07.07,0,0,1,0,.1.08.08,0,0,1-.08,0m.06-.73s0,0,0,0,0-.09,0-.09,0,.06,0,.1,0,0-.05,0m0-.73c0,.07,0,.07,0,0s-.07-.1,0-.11.07,0,0,.11m.08-.86c0,.14-.07.18-.06.05s0-.14,0-.16.08,0,.06.11m.11-.84s0,0,0,0,0-.06,0-.06,0,.05,0,.08,0,0,0,0m.1,1.67c-.06,0-.07,0,0-.08a.09.09,0,0,1,.11,0,.09.09,0,0,1,0,.05s-.07,0-.1,0m.12-5.86c0,.12-.11.16-.1,0s0-.11,0-.13.13,0,.1.09m0-.93c0,.1-.07,0-.11-.08s-.11-.11-.15-.15,0-.16,0-.22a.22.22,0,0,1,.27,0c.22.14.21.22.09.32s-.14.11-.14.14M15.57,22c-.07,0-.07,0,0,0s.07,0,.08,0,0,0-.07,0m.11,2.16c0-.1-.07-.07,0-.13s.07-.09.1-.09.1.17.1.27-.15.05-.19-.05m.19-6.38c-.1-.05-.12-.11,0-.13s.21,0,.2.1-.07.08-.18,0m.15-.62c0,.06,0,.08,0,.08s-.1,0-.09-.07.07-.06.11-.07,0,0,0,.06m.22-.93c-.09,0-.1,0,0-.1s.09-.07.12-.06,0,.18-.1.16m.64,5.59c0,.13,0,.11,0,0s0-.12,0-.11,0,.07,0,.14m-.07-6.11s0,0,0,0,0,.07,0,.07,0-.06,0-.08,0,0,0,0M16.6,17s0,0,0,0,.1,0,.1,0-.05,0-.07,0,0,0,0,0m.08,4.19s0,0,0,0,0-.07,0-.06.05.07,0,.07m.14,1.27c-.06-.11-.09-.15,0-.18s.21.06.23.16-.11.18-.2,0m.3-4.86c0,.15,0,.21-.11.17a.19.19,0,0,1,0-.27c.09-.08.14,0,.13.1m2.49,6.57s0,.06-.07,0-.15-.1-.05-.18.13,0,.12.13M23,23.78s-.05,0,0,0,0-.09,0-.09,0,.07,0,.1,0,0,0,0m.71.23s0,0,0,0,0-.1,0-.09,0,.06,0,.1,0,0,0,0M48.73,10c0,.1-.1.13-.16,0a.16.16,0,0,1,0-.22l0,0s0,0,.07,0,.08,0,.1,0,0,.1-.07.14m.36,1s0,0,0,0,0,0,0,0,0,0,0,0m1.85.2s0,0,0,0,0-.05,0,0,0,.05,0,.06,0,0,0,0m.85-.06c-.11,0-.19,0-.18,0A.78.78,0,0,1,52,11c.2,0,0,.22-.17.18m1.38,1.23s0,0,0,0,.06-.05.07,0,0,0-.07,0m.08-.74s-.06.06-.07.06,0,0,0-.07.08,0,.12,0,0,0,0,0,0,0,0,0m.79-.89s0,0,0,0,0-.1.07-.07,0,.08,0,.1M54.2,7s0,0,0,0-.06,0,0,0,.09,0,.06,0m.3-.35c0,.05-.14,0-.16,0s0-.08.07-.08.11.06.09.1m.37-.37s0,0,0,0,0,0,0,0,0,0,0,.06M55,5.58a.31.31,0,0,1-.28,0c-.08-.06-.17-.14-.15-.19s.1,0,.15,0c.2-.08.5,0,.5.16s-.11.09-.22.11M56.28,8.2c-.08,0-.08.06-.09,0a.09.09,0,0,1,.06-.12h.06c.08,0,0,.08,0,.12m.12-1s0-.1.06-.1.08,0,.09,0,0,.06-.07.1-.09,0-.08,0m.19,1.07c-.07,0-.07,0-.12,0a.09.09,0,0,1,0-.13l0,0c.08,0,.11,0,.16.09s0,.08-.08.09m.15-1.08s0,0,0,0l.06,0s0,0,0,0M57,5.7c0,.07,0,.09-.06,0s0-.13.08-.11,0,0,0,.09m.41,2.51s0,0,0,0,0,0,0,0,0,0,0-.07.06-.1.1-.08,0,.06,0,.08m.17,0s0,0,0,0,0,0,.06,0h0M58.34,7s0,0,0,0-.09,0-.13,0,0-.09,0-.11S58,6.9,58,6.89s.15,0,.26.08.07,0,.05.07m.33-.28s0,0,0,0,0-.06,0-.06,0,0,0,.07,0,0,0,0m.26,2s0,0,0,0,0-.06.06,0,0,0,0,0m1-.12s-.1,0-.1,0,.1-.1.15-.07,0,.09,0,.1m0,.51,0,0s-.05,0-.05,0,0,0,0,0,0,0,0,0m.3-.22s0,0,0,0,0-.1.08-.08,0,.09,0,.1m.21.13h0s.06,0,.08,0,0,0-.06,0m.26-2.61s0,0,0,0,.09-.08.12,0,0,0-.07,0M61,5s0,0,0,0S61,5,61,5s0,0,0,0,0,0,0,0m0,2.87s-.06,0,0-.06.05,0,.08,0,0,0,0,.08-.05.05-.09,0m1.13-3.06c0,.06,0,0-.05,0s-.11,0-.11,0,.14,0,.16,0m-.82.6s-.08,0-.05,0,0,0,.09,0,.14.08.1.14-.11.13-.17.07,0-.11,0-.14m.14,1.8s0,0,0,0,.07,0,.07,0,0,0,0,0m0-.22s-.17,0-.17,0,.11-.14.16-.12,0,.07,0,.1m0-1.92s-.1.06-.19,0-.11,0-.11-.07.09-.1.15-.13.1-.08.14,0a.18.18,0,0,1,0,.22m.11-.58c-.06-.09-.06-.1.07-.12a.39.39,0,0,1,.26,0c.13.06.12.11.14.16s.06.1,0,.13-.21,0-.35,0a.35.35,0,0,1-.13-.14m.24,1.26a.22.22,0,0,1-.13-.08c0-.07-.1-.12-.09-.14s.07,0,.09,0,0,0-.06,0,0-.08,0-.11,0-.06,0-.1a.21.21,0,0,1,.07-.2s0,0,0,0,0-.11,0-.13a.15.15,0,0,1,.18,0s0,.16.13.2.19,0,.16.09.05,0,.05,0-.06.07-.07.09a.28.28,0,0,0,0,.09.2.2,0,0,1-.06.19c-.05,0-.19,0-.27,0m.4.11s0,0,0,0,0-.06.06,0,0,0,0,.06,0,0,0,0m.07-.35s0,0,0,0,0,0,0,0,0,0,0,0,0,0,0,0m.34.43s0,0,0,0,0,0,0,0,0,0,.06,0h0m.53,1.78s0,0,0,0,0-.06,0-.06,0,0,0,0m0-1.34s0,0,0,0,0-.05,0-.05,0,0,0,0,0,0,0,0m.3,1c0,.08-.09.08-.11,0s0-.12.08-.08,0,0,0,0,0,0,0,0M65,7.8s0,0,0,0,0-.1.06-.07,0,0,0,.06m.19.06c-.1-.11-.09-.22,0-.26s.19-.08.28,0,0,.09.07.15c.07.23-.22.34-.39.15m.68-1.16s0,0,0,0,0-.06.05,0,0,0,0,.07,0,0,0,0M66,7s0,0,0,0,0,0,0,0S66,7,66,7m2.12-.43c-.08,0-.11,0-.17,0a.19.19,0,0,1-.06-.19c0-.1.31,0,.33.09s0,.1-.1.13" transform="translate(0 0.01)"/><path class="cls-4" d="M4.14,48.73a.05.05,0,0,0,0-.08l-.11.06a.1.1,0,0,0,.09,0" transform="translate(0 0.01)"/><path class="cls-4" d="M11.07,46.23a.14.14,0,0,0-.08.05s-.05,0,0,.08a.08.08,0,0,0,.08,0s.06-.13,0-.13" transform="translate(0 0.01)"/><path class="cls-4" d="M15,29.35v0s0-.07,0-.1a.09.09,0,0,0,0,.08" transform="translate(0 0.01)"/><path class="cls-4" d="M4.11,50.08c.08,0,.09,0,0-.14s-.06,0-.2,0a.56.56,0,0,0-.2.08.37.37,0,0,1-.21,0,.54.54,0,0,0-.22,0s0,.08,0,.16,0,.15,0,.19,0,.13.11.15.32.26.13.44-.44,0-.38-.19a.35.35,0,0,0-.11-.37c-.06,0-.1,0-.17,0s-.16.06-.09-.08.05-.18,0-.18a.08.08,0,0,1,0-.07h0c0-.06,0-.07-.17-.06s-.17,0-.11-.07,0-.13,0-.16l-.2.17a.24.24,0,0,1,0,.22s0,0-.19,0l-.1,0-.36.35h.06c.06,0,.1,0,.11,0a.1.1,0,0,0,.1,0c.09,0,.09.08,0,.15s-.08.24,0,.27.08,0,.08.06.13.1.17,0a.92.92,0,0,0,0-.52.22.22,0,0,1,0-.14c0-.08.06-.1.17-.1s.15,0,.17-.08,0-.07.08-.07,0,.06,0,.19a.35.35,0,0,0,.11.32c.06.07.12.05.12.14s-.06,0-.12.07a.25.25,0,0,0-.13.22c0,.16,0,.18.23.1a.53.53,0,0,1,.33,0h.17l.16-.1a.11.11,0,0,1,.07-.06l.54-.37a.38.38,0,0,1-.15,0,.21.21,0,0,1-.21-.13c-.07-.14,0-.25.08-.24s.3-.16.26-.22,0-.06.05-.07m-.64.18a.09.09,0,0,1-.07,0,0,0,0,0,1,0,0s0,0,.07,0,0,0,0,0M3,50.89c-.08.12-.12.09-.1-.08s0-.11.09-.11.1,0,0,.19" transform="translate(0 0.01)"/><path class="cls-4" d="M2.72,49.72c-.13.07-.12.1,0,.17a.29.29,0,0,0,.18,0,.54.54,0,0,1,.18,0c.11,0,.14,0,.14-.06s-.11-.18-.15-.1-.11,0-.17-.07-.06-.11,0-.15a.34.34,0,0,1,.18,0h.12s0,0,0-.09a.2.2,0,0,0-.08-.08l-.34.24c0,.09,0,.12-.06.16" transform="translate(0 0.01)"/><path class="cls-5" d="M30.63,12c.29-.86.6-1.57-.28-1.77-1.55-.35-1.66.18-3,1.07a2.26,2.26,0,0,0-1.16,1.5.07.07,0,0,1,0,.1h0l-.05,0-.06.16a3,3,0,0,0-.37,1.12h0s0,0,0,0h0a2.38,2.38,0,0,0,.13.6c.19.57.44.53,1,.7s.71-.21,1.37-.07c.25,0,.31.15.35.4a.9.9,0,0,1-.17.86,1.24,1.24,0,0,1-.69.73,2.58,2.58,0,0,1-1.39.47c-.57.08-.88-.67-1.11-.14-.4.92-.64,1.72.33,1.93,1.74.38,1.87-.16,3.36-1.12.93-.6.9-.79,1.29-1.83a2.5,2.5,0,0,0,.22-2.15.83.83,0,0,0-.23-.43.05.05,0,0,1-.05,0l-.07-.06,0-.07c-.2-.07-.41-.13-.61-.18-.65-.19-.71.21-1.37.07-.25-.05-.26-.15-.32-.4a.57.57,0,0,1,.1-.61c.22-.37.2-.44.58-.65a1.85,1.85,0,0,1,1.36-.4c.49,0,.7.5.84.07M26,14.91s0,0-.06,0a0,0,0,0,1,0-.06l0,0H26s0,0,0,.06m.22.25s0,0,0,0,0,0,0,0,.06,0,.05,0m0-.45s0-.05,0-.05.06,0,0,0a0,0,0,0,1-.07,0m.09,0s0,0,0,0,0,0,0,0,0,0,0,0m.13-.36s0,0-.05,0a0,0,0,0,1,.07,0s0,0,0,0m.19-.35c0-.11,0-.19,0-.23s.07-.05.11,0,0,.06,0,.13a.28.28,0,0,1,0,.12c-.06.08-.09.07-.11,0M27,15.36h0s0,0,0,0h0m-.12-1s0,0,0,0h0s0,0,0,0M26.7,12.8s0,0,0,0,0,0,0,0,0,0,0,0m-.07-.69h0m.32.39s0,0,0,0,0,0,0,0,0,0,0,0v0m.26.45v0s0,0,0,0h0m0-1.15s0,0,0,0,0,0,0,0,0-.06.06,0,0,0,0,.06m.18.57s-.08,0-.08,0,0,0,.06,0l0,0s0,0,0,0m-2.24,5.9a0,0,0,0,1,0-.05,0,0,0,0,1,.05,0s0,0,0,0,0,0,0,0h0m.3-.09s0,0-.05,0,0-.05.05-.06,0,0,0,.06m.45.6s0-.05,0-.05,0,0,0,0,0,.05-.06,0m.18.92s0,0,0,0h0a0,0,0,0,1,0,0h0m.2-.73a0,0,0,0,1-.06,0l0,0c0-.06,0-.1.06-.09a.06.06,0,0,1,0,.08h0m0-.22s0,0,0,0,0,0,.06,0,0,.06,0,.06m.67-.26s0,0-.05,0,0-.07,0-.08.05,0,.06,0a0,0,0,0,1,0,0m.23.93a0,0,0,0,1,0,0s0,0,0,0a0,0,0,0,1,0,0s0,.05-.05,0m.15-1.23a.06.06,0,0,1,0,0s0,0,.05,0,0,.05,0,0m.52.27s0,0,0,0l0,0s0,0,0,0h0s0,0,0,0h0m.41-.32s0,0,0,0,0,0,0,0l0,0s0,0,0,0m0-.89s0,0,0,0h0s0,0,0,0m.09.87s0,0,0,0h0s0,0,0,0m.36.53s0,0,0-.05l0-.05v.06s0,.07-.05,0m-.14-1.54s0,0-.08,0a.1.1,0,0,1,0-.1.07.07,0,0,1,0-.06s.11.07.12.15,0,0,0,.05m1.61-2.74c0-.07,0-.09.07-.05s0,.13,0,.13-.06,0,0-.08m-.13.08s0,0,.05,0,.07,0,0,.06-.08,0-.07,0m0,.69a.14.14,0,0,1,.16.07s0,0,0,.08a.1.1,0,0,1-.14,0h0a.11.11,0,0,1-.05-.09c0-.05,0-.06.05-.08m-.08,1.43s-.06,0-.07,0,0-.07,0-.07.06,0,.05.06m-.19-.75c.05,0,.08.05.05.07a.06.06,0,0,1-.1,0s0-.06,0-.06m-.39,1.45s0,0,0,0,0,0,0,0l0,0M29,16.55h0a0,0,0,0,1,0,0,0,0,0,0,1,0,0h0M28.85,16s0,0,0,0-.06,0-.05,0,0,0,0,0M29,18a.23.23,0,0,1,0,.16c0,.06-.06.06-.11,0s0-.1,0-.19.1-.06.14,0m-.34-1.63s0,0,0,0h0s0,0,0,0,0,0,0,0m-1-5.18s0-.05,0,0a0,0,0,0,1,0,0h0m.38,1s-.07,0-.1,0,0-.08,0-.1.06,0,.1.05,0,0,0,.07" transform="translate(0 0.01)"/><path class="cls-5" d="M42.89,11.89c-.34-.65-.45.6-1.1,1a5.38,5.38,0,0,1-1.77.64.13.13,0,0,1-.17-.09v0c.22-2.67.27-2.67.64-5.32.09-.6.89-1.06.3-1.19-1.14-.24-1.33,0-2.22.76-.37.31.25.49.21,1a57.72,57.72,0,0,1-.62,6c-.09.6-1,1.22-.39,1.15,2.43-.26,2.46-.52,4.6-1.6v0s0,0,0,0l0,0c1.07-.54,1-1.19.45-2.2m-3.57,3.31s0,0-.08,0a.1.1,0,0,1,0-.1s0-.06,0-.06.12.07.13.15,0,.05,0,.05m.13-.76s0,0,0,0h0s0,0,0,0m.27.21v0h0l0,0h0" transform="translate(0 0.01)"/><path class="cls-5" d="M24.81,11.93c-1.1-.07-1.18.1-2.08.75-.3.21.14.39.06.74s-.16.65-.23.89c0,0,.05,0,.05.07a.07.07,0,0,1-.09.08c-.22.8-.36,1.12-.76,2.4-.24.8-.12,2.3-.55,1.58-1.1-1.82-.63-2-1-4.12-.07-.38.47-.76.09-.76a2.38,2.38,0,0,0-2.14.74c-.3.24.28.26.42.61l.74,1.83h0a.13.13,0,0,1,.11.06.4.4,0,0,1,.1.23c0,.07,0,.17,0,.17h0a30.5,30.5,0,0,1,1.1,3.35s0,0,0,.07v0a.61.61,0,0,1-.08.26h0a0,0,0,0,1,0,0h0c-.13.23-.32.4-.06.41h.13s0,0,.05,0,0,0,0,0a1.72,1.72,0,0,0,1-.2.06.06,0,0,1,0,0c0-.06.07-.06.07,0a3.73,3.73,0,0,0,.34-.24h0c-.06,0-.1-.13-.07-.17s.14-.08.17-.05l.05,0a.11.11,0,0,1,0,.1l.23-.16c.29-.22-.22-.34-.13-.69.14-.57.26-1.05.36-1.47h0a0,0,0,0,1,0,0h0s0,0,0,0a37.85,37.85,0,0,1,1.75-5.6c.2-.54.87-.84.39-.87m-6.45,2.6s0,0,0,0h0v0s0,0,0,0m.37.74h0a0,0,0,0,1,0,0l0,0h0m.12-.62a.15.15,0,0,1,0-.13s0,0,0,0,0,.18,0,.14m.12.18,0,0,0,0A.14.14,0,0,1,19,15c0,.06,0,.07-.07,0a.19.19,0,0,1,0-.18m.17,1s0,0-.06,0,0-.08.06-.06a0,0,0,0,1,0,.07m2.29,3.75s0,0,0,.05a0,0,0,0,1,0,0s0,0,0,0m-.5-1s0,0,0,0,0,0,0,0,0,0,0,0h0m-.1-.46s0,.07,0,.08l0,0s0-.07,0-.06m-.68-3.5h0s0,0,0,0h0s0,0,0,0m.36,2.75s0,.05-.05,0,0,0,0,0h0s0,0,0,0m-.28-1.79s0,0,0,0,0,0,0,0l0,0h0s0,0,0,0h0M20.7,19s.05,0,0,.09a.05.05,0,0,0,0,0l0,0a.05.05,0,0,1,0-.08s0,0,0,0m-.09.23c0,.06-.09.07-.11,0s0-.17.09-.16.05.09,0,.15m.08.77,0,0s0-.07,0-.05,0,.07,0,.07m0,.76s0,0,0,0h0a0,0,0,0,1,0,0s0-.06,0,0m-.12-.59s0,0,0,0,0,0,0,0,0,0,0,0m-.3-2.79s0,0,0,0h0s0,0,0,0h0s0,0,0,0h0s0,0,0,0h0m-.15-.82s0,0,0,0,0-.08,0-.09.06,0,0,.08M20,15.85s0,0,0,0,0,0,0,0v0m-.59-2.2a.06.06,0,0,1,.07,0l0,0s-.07.08-.09,0a.06.06,0,0,1,0-.06m.33,4s0,0,0,0,0,0,0,0,0,.06,0,0m-.07-1h0v0a0,0,0,0,1,0,0h0m-.3-2.16h0l0,0h0l0,0m.6,3.7s0,0,0,0,0,0,0,0,0,0,0,0m-.38-3h0v0h0s0,0,0,0h0m0-.51,0,0s0,0,0,0l0,0s0,0,0,0m.54,3.94s0-.05,0,0,0,0,0,0,0,0-.05,0m-.24-1.95a0,0,0,0,1,0,0s.05,0,.05,0,0,0-.05,0m-.21-1.82a0,0,0,0,1,0,0s0,0,0,0a0,0,0,0,1,0,0m.63,3.84h0l0,0s0,0,0,0,0,0,0,0h0m.09.13h0s0-.06.05-.07,0,.07,0,.08m.21,1.49a0,0,0,0,1,0,0s0,0,0,0,0,0,0,0m.2.9,0,0s-.07,0-.12,0-.05,0,0-.1.07-.15.1-.15h.05s0,0,0,.08a.15.15,0,0,0,0,.09s0,0,0,0m.08-.5s-.07.06-.1,0,0,0,0-.06a.13.13,0,0,1,.1-.13c.06,0,.08.09,0,.15m0-.44,0,0s0,0,0,0,0,0,0,0v0m0-.7s0,0,0,0,0,0-.06,0,0-.05,0-.05m.07.61a0,0,0,0,1,0,0l0,0s-.05,0-.06,0m.21.49h0a0,0,0,0,1,0,0h0s0,0,0,0m.15.55c-.06,0-.07,0-.08,0s0-.06.08-.06.07,0,0,.06m-.2-2.16s0-.06,0-.1,0,0,0,0,0,.15-.05.1m.17-.22,0,0c0,.06-.06.13-.09.07s0-.12,0-.11m0,.68s0-.05,0-.06,0,0,0,0,0,.07-.06,0m.36,1.65s0,0,0,0a0,0,0,0,1,0,0s0,0,0,0m0-.38s0,0,0,0,0,0,0,0a0,0,0,0,1,0,0s.05,0,0,0m-.08-.2s0,0,0,0,0-.07,0-.15,0-.09.11-.07.05,0,.06.06a.16.16,0,0,1-.12.19m.1-1.16a.06.06,0,0,1,0-.08s0,0,0,0,.09,0,.09,0a.07.07,0,0,1-.07.07h0m.35.27s0,0,0,0,0,0,0,0,0,0,0,0a0,0,0,0,1,0,0m.36.69a.05.05,0,0,1-.07,0s0,0,0,0-.08-.15-.06-.16l.09,0c.08,0,.1.07.06.12m-.19-3.33s-.05,0-.06-.08a.14.14,0,0,1,.08-.17h0c.07,0,.08,0,.09.07s-.06.21-.14.18m.4,1.2s0,0,0,0a0,0,0,0,1,0,0s0,.05,0,0m-.27-2.63a.14.14,0,0,1,0-.06s0,0,0,0a.07.07,0,0,1,0,0s-.06,0-.06,0m.28,1a.05.05,0,0,1,0,0s0,0,.06,0,0,.07,0,.05m.16-1.42h0s0,0,0,0,0,0,0,0m.14-.37h0a0,0,0,0,1,0,0s0,0,0,0m.31,1.44s0,0,0,0,0,0,0,0v0m.58-1.86a.05.05,0,0,1-.07,0s0,0,0,0,0,0,0,0,.12,0,.1,0m-.16-.87s0-.05,0,0,0,0,0,0,0,0,0,0h0" transform="translate(0 0.01)"/><path class="cls-5" d="M36.73,10.23c.3-.86.55-1.63-.33-1.83-1.55-.35-1.67.22-3,1.11-.92.61-.91.74-1.33,1.77A1.84,1.84,0,0,0,32,13c.19.56.38.56.95.73s.71-.23,1.37-.09c.25.05.27.16.31.41s.1.46,0,.73a.36.36,0,0,1,0,.09c0,.07,0,.14,0,.14a.48.48,0,0,1-.09-.1h0a1.21,1.21,0,0,1-.72.7,2.66,2.66,0,0,1-1.37.55c-.57.07-.94-.75-1.17-.22-.4.92-.6,1.78.38,2,1.47.32,1.78-.08,2.75-.8h0c.17-.12.35-.25.57-.39l.07-.05h0c.85-.55.86-.72,1.24-1.72a2.42,2.42,0,0,0,.16-2.13c-.15-.58-.36-.55-.94-.72s-.7.19-1.36,0c-.24,0-.25-.15-.31-.39s-.06-.32.11-.6.21-.4.6-.61c.62-.35.61-.53,1.32-.5.53,0,.77.56.91.14m-4.48,1.49a0,0,0,0,1,0,0s0,0,0,0,0,0,0,0m.55.79s0,0,0,0,0,0,0,0l0,0m-.05-.69a0,0,0,0,1-.06,0c-.06,0-.1,0-.07-.09a.05.05,0,0,1,.08,0h0s0,.06,0,.1m.13-.21c0-.06,0-.14,0-.15s.08.07.08.16a.13.13,0,0,1,0,.09.23.23,0,0,1-.1-.1m.22.72s-.05,0,0-.05.06,0,.06,0l0,0m.73,1.21s0,0,0,0a.05.05,0,0,1,.06,0h0s0,0,0,.06M31.63,16s0,0,0,0,0,.09,0,.1,0-.07,0-.1m.14,1.06s0,0,0,0l0,0,0,0s0,0,0,0m.22.51a.09.09,0,0,1-.12,0h0s0-.1.05-.11,0,0,0,0,0,0,0,0,.07,0,0,.07m.17.06s0,0,0,0,0-.06,0-.05a.05.05,0,0,1,0,.07m.59.3v0a0,0,0,0,1,0,0s0,0,0,0m.46-1.35s0,0,0,0a0,0,0,0,1,0,0s0,0,0,0,0,0,0,0m.55,1s-.06,0,0-.06,0,0,0,0,0,.06,0,.05m2.42-4.37s0,0,0,0h0s0,0,0,0m-1.37,2.24s0,0,0,0,0,0,0,0,0,0,0,0a0,0,0,0,1,0,0m.33-1.72s0,0,0,0v0s0,0,0,0m-.35.59a.08.08,0,0,1,.08.12s-.06,0-.1,0,0-.1,0-.11m-.17-.52,0,.06s0,0,0,0a.09.09,0,0,1,0-.06v0Z" transform="translate(0 0.01)"/></g></g></g></g></svg>