<svg xmlns="http://www.w3.org/2000/svg" width="54.724" height="41.579" viewBox="0 0 54.724 41.579">
  <g id="vssl-flag-texture" transform="translate(811.445 -16.932)">
    <g id="Group_299" data-name="Group 299" transform="translate(-811.445 16.932)">
      <g id="Group_298" data-name="Group 298">
        <path id="Path_3637" data-name="Path 3637" d="M-809.727,36.189c0-.024-.03-.062-.072-.086s-.076-.06-.074-.076a.033.033,0,0,0-.03-.036c-.06-.006-.042.115.028.195s.143.082.149,0" transform="translate(812.965 2.323)" fill="#9b794e"/>
        <path id="Path_3638" data-name="Path 3638" d="M-811.123,37.526a.1.1,0,0,1,.121.016c.118.088.231.028.129-.07-.062-.06-.241-.088-.285-.044a.147.147,0,0,1-.093.034c-.08-.006-.211.078-.191.125a.84.84,0,0,0,.07.109.455.455,0,0,1,.068.131l.133-.06c-.014-.189-.008-.209.048-.239" transform="translate(811.445 3.753)" fill="#9b794e"/>
        <path id="Path_3639" data-name="Path 3639" d="M-809.6,36.842c.062-.1.1-.137.141-.123a.089.089,0,0,0,.117-.1.2.2,0,0,0-.083-.084.147.147,0,0,1-.07-.145.192.192,0,0,0-.056-.143c-.046-.03-.074-.018-.151.066-.115.125-.125.189-.036.221.056.02.062.038.036.113a1.87,1.87,0,0,0-.062.277.406.406,0,0,1-.072.221c.062-.044.127-.086.189-.129-.024-.006-.038-.014-.038-.018s.04-.076.087-.155" transform="translate(813.064 2.565)" fill="#9b794e"/>
        <path id="Path_3640" data-name="Path 3640" d="M-810.421,37.047a.045.045,0,0,0-.04-.052.135.135,0,0,1-.078-.056c-.046-.068-.093-.072-.1-.01,0,.026.038.074.087.107.112.07.125.072.13.012" transform="translate(812.26 3.226)" fill="#9b794e"/>
        <path id="Path_3641" data-name="Path 3641" d="M-808.9,36.417c-.113.042-.29.044-.287,0a.717.717,0,0,1,.078-.151c.111-.165.107-.251-.014-.38s-.169-.121-.241-.01a.125.125,0,0,0-.016.143c.042.1-.042.121-.161.034-.076-.054-.1-.058-.147-.028-.076.054-.072.084.032.157.048.036.078.076.068.09a.325.325,0,0,0-.01.141c.008.082.028.115.072.119a.116.116,0,0,1,.1.141c0,.078.058.092.076.018s.1-.1.265-.086a.18.18,0,0,0,.125-.02.129.129,0,0,1,.1-.024c.1.008.139-.044.08-.115-.038-.046-.062-.052-.123-.028m-.344-.179c-.026.058-.1.06-.09,0a.052.052,0,0,1,.056-.046c.028,0,.044.02.034.042" transform="translate(813.17 2.126)" fill="#9b794e"/>
        <path id="Path_3642" data-name="Path 3642" d="M-809.535,35.848c.161-.012.215-.046.165-.1a.154.154,0,0,1-.026-.054c-.076.05-.159.1-.241.157a.389.389,0,0,0,.1,0" transform="translate(813.271 2.019)" fill="#9b794e"/>
        <path id="Path_3643" data-name="Path 3643" d="M-807.794,35.288c-.018,0-.034.028-.038.064s.01.058.028.05a.089.089,0,0,0,.038-.064c0-.026-.01-.048-.028-.05" transform="translate(815.094 1.613)" fill="#9b794e"/>
        <path id="Path_3644" data-name="Path 3644" d="M-806.853,35.485c-.044.02.02.113.078.119a.046.046,0,0,0,.048-.042c.006-.05-.078-.1-.127-.076" transform="translate(816.07 1.806)" fill="#9b794e"/>
        <path id="Path_3645" data-name="Path 3645" d="M-810.811,36.874c.1.042.127-.024.064-.149a.359.359,0,0,1-.022-.056c-.054.058-.113.117-.169.177a.68.68,0,0,1,.127.028" transform="translate(811.957 3.009)" fill="#9b794e"/>
        <path id="Path_3646" data-name="Path 3646" d="M-809.067,36.252c.032-.028.026-.038-.036-.044s-.068,0-.04.036.044.034.077.008" transform="translate(813.755 2.541)" fill="#9b794e"/>
        <path id="Path_3647" data-name="Path 3647" d="M-807.967,36.1l.01-.006c.058-.044.07-.05.056,0l.32-.028a.119.119,0,0,1-.042-.046c-.048-.088-.094-.094-.322-.048-.106.02-.175.052-.177.082a.064.064,0,0,0,.026.06l.119-.012.01,0" transform="translate(814.802 2.277)" fill="#9b794e"/>
        <path id="Path_3648" data-name="Path 3648" d="M-758.879,21.849c0-.02-.01-.056-.01-.076v0a.153.153,0,0,1-.115.1c-.014,0-.054.062-.082.056s-.036-.072-.058-.137-.05-.1-.034-.137c.006-.014,0-.012.01-.022a.3.3,0,0,0-.155-.227c.016.018.062.056.042.068s-.135-.046-.133-.078c0-.016.076.01.091.006l0-.054c-.038-.02-.1.026-.139.016a.793.793,0,0,0-.472-.034,1.315,1.315,0,0,0-.31.155c.016.012.026.024,0,.03-.01,0-.02,0-.026,0a1.041,1.041,0,0,0-.213.326c-.028.05-.115.062-.153.1a.168.168,0,0,1-.167.07c-.038-.006-.083.012-.121,0s-.024-.048-.042-.064c-.125-.107-.3-.068-.456-.09-.028,0-.048-.06-.076-.06l0,.016c.006.042-.008,0-.072.022s-.026.04-.084-.02l-.044.044a1.368,1.368,0,0,0-.3.08c-.119.066-.125.205-.151.346a1.622,1.622,0,0,1-.06.209.391.391,0,0,1-.384.3c-.074,0-.147-.052-.221-.054-.115,0-.241.038-.342-.01a1.039,1.039,0,0,1-.517-.669,3.454,3.454,0,0,0-.225-.448l0,.032c-.03-.01-.05-.072-.046-.08l.072-.022c-.03-.052-.087-.1-.121-.147-.048-.074-.09-.153-.135-.233-.117-.209-.263-.406-.386-.611a.908.908,0,0,0-.432-.424l.022.044a.111.111,0,0,1-.062.016c-.008,0,.01-.04.01-.05l-.02.012a1.092,1.092,0,0,0-.217-.066.609.609,0,0,0-.474.153.619.619,0,0,0-.175.488c0,.072-.068.145-.076.217-.012.109-.042.219-.05.328a1.972,1.972,0,0,1-.04.567.6.6,0,0,1-.305.32c-.008,0-.042-.042-.05-.036a1.427,1.427,0,0,1-.83.119,1.445,1.445,0,0,1-.684-.205,1.949,1.949,0,0,1-.388-.466,2.27,2.27,0,0,0-.531-.406,2.192,2.192,0,0,0-.633-.362,2.191,2.191,0,0,0-.975.018,1.567,1.567,0,0,0-.615.324c.014,0,0-.026.028-.016.07.034.092.1.036.123-.038.014-.139-.066-.141-.1a2.212,2.212,0,0,0-.28.271c-.08.088-.2.171-.225.294a.942.942,0,0,0,.078.491c.068.205.135.41.215.609a1.126,1.126,0,0,1,.07.6.684.684,0,0,1-.173.354,2.083,2.083,0,0,1-.6.513,2.735,2.735,0,0,1-1,.271c-.223.018-.452-.072-.675-.072a3.946,3.946,0,0,1-.816-.014,3.561,3.561,0,0,1-1.154-.513l.026-.05c-.058-.036-.113-.072-.169-.111-.366-.261-.77-.468-1.132-.734a6.372,6.372,0,0,0-1.285-.722c-.3-.127-.6-.243-.9-.366a11.934,11.934,0,0,0-2.449-.738c-.595-.1-1.2-.159-1.8-.215-.37-.034-.74-.09-1.112-.1-.69-.026-1.387-.034-2.083,0s-1.391.147-2.089.221c-.527.056-1.057.064-1.582.125-.388.044-.78.066-1.164.131-.121.02-.243.125-.364.147a15.058,15.058,0,0,1-6.545-4.115c-.641,3.793-1.256,7.623-1.9,11.414.231-1.938.442-4.145.792-6.819-.038.05-.052.1-.137.094s-.129-.04-.141-.135-.028-.117-.052-.064.042.062.03-.012c-.016-.09-.078-.1-.048-.165a.333.333,0,0,1,.231-.129.236.236,0,0,1,.173.191c.177-1.347.446-2.8.673-4.409.066-.48-.947-.649-1.039-.175-2.408,12.229-3.1,15.9-4.161,23.06.006-.008-.006.006,0,.01.044.018.064.131.02.127a.083.083,0,0,1-.056-.074l.038-.016c-.018.119-.006.241-.024.362l-.026-.052c.044,0,0,.153-.064.334-.008.02.018.044.006.052-.028.185-.078.372-.107.563.06-.044.048-.028.086.042.024.042.1.024.125.028.066.008.2.137.193.185s-.169.016-.193-.03a.291.291,0,0,0-.153-.076c-.028,0-.05.042-.07.038-.022.155-.034.312-.058.47a.95.95,0,0,1,.084-.113c.127-.131.257-.165.344-.048a.246.246,0,0,1-.052.348.243.243,0,0,1-.376-.02.925.925,0,0,1-.058-.125c-.05.346-.1.7-.157,1.065.008,0,.1,0,.109.014s-.04.048-.06.046l-.058-.008c-.08.569-.089,1.168-.177,1.787a.431.431,0,0,1,.151.123c.006.028-.044.074-.07.1s-.06.024-.141-.064c-.012.084-.07.173-.083.257a.192.192,0,0,1,.03.1.149.149,0,0,1-.03.092c-.034.243-.038.495-.074.748.028-.034.026,0,.083.022.129.044.155.04.1.147s-.125.111-.159.04c-.006-.012-.012,0-.03-.01-.032.217-.06.432-.09.655.01-.02-.026-.076,0-.109s.137-.048.187-.062c.072-.024.08-.088.1-.181s.036-.1.106-.1.127.012.129.066-.052.032-.083.028-.054.064-.066.088c-.026.054.05.115.157.125.056,0,.024.006,0,.064a.8.8,0,0,0-.028.107c0,.012-.022.054-.09.048s-.169-.044-.179-.026c-.014.034-.229.014-.259-.024-.012.084.014.159,0,.245.012,0-.026-.014-.01-.016.165-.038.179-.02.215-.014s.106.253.076.366c-.022.082-.068.1-.183.111a.858.858,0,0,0-.185.026l-.01-.01c-.014.109-.092.209-.109.32.01-.012.046-.036.058-.048.08-.084.1-.044.2,0a.553.553,0,0,0,.2.06c.04-.008.1-.06.149-.046a.132.132,0,0,1,.1.139.249.249,0,0,1-.07.139c-.161,0-.219-.006-.316.072-.143.117-.273.078-.316-.076-.01.074-.022.145-.034.217l-.016.032c.03.07.119.159.1.187s-.119,0-.157.022c-.012.08.026.183.014.265l.008,0c.143-.052.191-.012.078.064-.07.046-.113.072-.078.123.064.09.042.066-.038-.02-.008.054,0,.084-.008.139.083-.008.109.064.1.143-.01.117-.06.177-.147.125-.008.072.014.131.006.2.006.006-.03.014-.026.024.014.028.03.062,0,.08-.006.046-.032.054-.04.1.088-.038.179.024.227.127s.05.1-.1.145a.414.414,0,0,0-.187.1.18.18,0,0,0,.014.2.123.123,0,0,0,.125.058c.062-.012.211.159.169.193a.268.268,0,0,1-.155-.048c-.084-.06-.038-.074-.06-.014s-.147.046-.189.018c-.052.362-.109.734-.161,1.112a.357.357,0,0,0,.048.159.541.541,0,0,0,.131.056c.159.058.213.046.3.189s.038.193-.028.187c-.028,0-.038.04-.072.1s-.131.113-.153.143a.452.452,0,0,0-.066.191.293.293,0,0,1-.018.139.119.119,0,0,0,.03.127c.028.02.03.032.026.066-.006.076-.048.1-.094.048a.244.244,0,0,0-.125-.064.2.2,0,0,1-.112-.07c-.083-.074-.215-.042-.223.036,0,.036.018.078.006.072-.29-.173-.3-.211-.265-.275a.136.136,0,0,0-.046-.119c-.084-.036-.08,0,.03-.052.052-.022.106-.068.133-.076a.388.388,0,0,0,.159-.127c.046-.064.084-.177.109-.175a.193.193,0,0,0,.185-.139.134.134,0,0,0-.038-.139c-.05.008-.1-.036-.153-.028l.01.052c-.006.068-.016.06-.1.052s-.046.028-.048.137a.262.262,0,0,1-.3.239c-.07-.006-.135-.044-.167,0-.056.076-.09.092-.1.014-.006-.04-.028-.07-.1-.092s-.1-.048-.116-.107a4.79,4.79,0,0,0-.549.271.138.138,0,0,1-.018.145.236.236,0,0,1-.131.09c-.054.006-.107-.05-.129-.1-.1.062-.181.169-.287.239l-.048.008c.028.034.082-.032.189-.078.179-.078.235-.016.2.129s-.016.143-.131.143a.473.473,0,0,0-.147.038c-.046.014-.064-.024-.094-.119-.02-.066-.028-.052-.06-.064-.056.038-.113.048-.173.09.014.016-.026.026-.077.07a.246.246,0,0,0-.076.177c0,.09-.006.115-.1.1-.121-.01-.2.012-.211.1,0,.032,0,.022-.026.018s-.072.09-.127.135-.052.018-.117.018-.014-.008-.04-.048c-.01-.014-.02.006-.026-.008-.092.062-.185.115-.283.181.064-.028.107.012.135.1.04.121.175.119.231,0,.038-.078.052-.08.1-.062s.058-.022.07-.036c.034-.048.181,0,.155.052-.012.026-.054.08-.076.08a.185.185,0,0,0-.131.046c-.078.066-.1.092-.078.143a.357.357,0,0,0,.2.189c.052.016.1.054.082.169-.012.08-.054.153-.032.155.064.006.046.058-.091.137-.078.046-.173.074-.175.111a.083.083,0,0,0,.139.07c.024-.02.075-.09.149-.084s.064.058.117.014.016-.046.018-.113c0-.179.054-.2.229-.137.129.046.187.048.167.157-.024.137-.01.179.093.094a.2.2,0,0,1,.263-.014l.022.034c.04-.008.062-.08.1-.088.008-.012.028.006.03-.012,0-.042-.012-.1-.048-.117-.072-.026-.048,0,.008-.119.032-.064-.01-.135-.04-.245a.181.181,0,0,1,0-.153c.016-.012.044-.024.05,0,.026.107.1.193.2.183.064-.006.05.018.06.052.016.058.239.082.3.032a.3.3,0,0,0,.046-.153c0-.056.062-.109.1-.151s.032-.052.03-.1,0-.068-.036-.1-.133-.066-.121-.082.077.032.121.066.119.052.135.022-.038-.01-.01.034.129.034.177.052c.068.024.1.1.151.245.052.131.1.193.141.195a.117.117,0,0,1,.1.171c-.014.03-.048.03-.068.044.074-.006.155.046.227.04.01-.008.038-.09.046-.084l-.026.03c.167-.014.342-.006.5-.02-.036-.064-.044-.107-.008-.125.016-.006.028.05.064.1.008.008.048-.052.056-.044.08-.006.161.036.241.03.02-.028.078-.06.08-.088s-.02-.076,0-.076c.127,0,.285-.056.289-.094a.213.213,0,0,0-.056-.088c-.131-.143,0-.257.149-.131.056.046.034.092.016.2s0,.094-.078.078c-.109-.022-.137.038-.054.092.014.008.008.03.016.044.066-.006.125.006.189,0,.006-.02.018-.012.032-.01s.022-.014.03,0c.39-.032.766-.062,1.136-.09.03-.032.066-.076.1-.074a.122.122,0,0,1,.05.038c.1-.008.193.01.291,0,0-.026.036-.072.062-.07s.034.052.04.07c.072,0,.143,0,.213,0-.006-.008-.024-.012-.032-.022a.2.2,0,0,1,0-.247.15.15,0,0,1,.094-.02c.022,0,.1,0,.121-.032.054-.082.048-.076.06.07a.273.273,0,0,1-.046.223c-.01.012-.04-.018-.048-.008.352-.026.7.006,1.031-.016.022-.016.038-.034.062-.022.145-.01.281-.068.424-.078-.018-.026,0-.038.05-.058s.115-.032.137,0-.006.032,0,.048c.257-.016.509,0,.754-.018a.1.1,0,0,0,.048-.074c0-.125.014-.133.171-.271s.2-.173.253-.1c.028.042.02.078-.038.1s-.056.032-.046.125a.2.2,0,0,1-.068.187c.094,0,.191.04.283.034a.1.1,0,0,1-.006-.139c.018-.022-.028-.03-.022-.022.04.078.1.062.1.084.171-.01.336.026.5.018-.014-.014-.054-.026-.07-.05-.07-.109-.054-.179.014-.2.143-.04.289.165.2.263,2.32-.119,4.214-.165,5.948-.151.008-.038.032-.1.074-.1s.05.1.046.129q.712.006,1.4.022l.01-.056a.082.082,0,0,1,.141.028c4.543.117,8.582.555,17.644.585,3.164.01-2.891-1.16-6-1.407-6.174-.489-9.265-.889-12.345-1.178-.022.058-.062.04-.107,0-.01-.01-.006-.064-.01-.078-.605-.056-1.212-.076-1.841-.117-.02.07-.09.1-.129.022-.106-.006-.2-.026-.308-.032.012.016.058.028.056.046-.006.05-.195.159-.219.131a.332.332,0,0,1,.01-.227c-.513-.026-1.049.01-1.614-.006-.016.036-.03.082-.068.1a.269.269,0,0,1-.159-.016c-.032-.014-.034-.052-.032-.092-.569-.014-1.168-.088-1.813-.088-.006,0,0,.094-.012.1s-.066-.066-.087-.08c-.143,0-.271.058-.42.058.042.06.076.129.06.141-.038.032-.044,0-.042-.044,0-.026-.07-.042-.094-.054s-.026-.036-.032-.06c-.617,0-1.279-.024-1.984-.01.026.01.012.048.01.076a.047.047,0,0,1-.086.028c-.014-.018-.038-.054-.02-.078.006-.008.032-.048.04-.05-.074,0-.111.074-.185.076.036.058-.026.109-.084.161a.25.25,0,0,0-.06.169c.006.07.034.109-.01.1a.068.068,0,0,1-.046-.094c.016-.042-.016-.038-.066-.078a.206.206,0,0,1,0-.294l.03.052c-.217,0-.438-.016-.665-.01a.352.352,0,0,1-.123.062.579.579,0,0,1-.452-.034.293.293,0,0,1-.058-.034c-.137.006-.269.056-.41.06a.064.064,0,0,1-.109.006c-.1,0-.205-.07-.312-.066-.008.006-.006.06-.01.066-.03.044-.054.042-.125,0l-.014-.008c-.209.008-.416.044-.631.052,0,.014-.036-.026-.042-.014-.014.03.064.086.107.143.056.072.028.109,0,.143a.142.142,0,0,1-.221-.026c-.044-.056-.07-.03-.135-.018-.259.038-.267-.012-.326-.133s-.09-.167-.052-.273a.112.112,0,0,1,.07-.054l.022.01c.018-.064,0-.1.012-.163-.084.006-.06-.03.024-.048.006,0,.042-.026.05-.028.034-.129.06-.271.093-.4a.255.255,0,0,1-.058-.263c.034-.064.129-.07.159-.082.022-.084.014-.211.036-.293-.076.066-.153.05-.257-.016s-.1-.014-.08-.33c.016-.2,0-.265.052-.261.03,0,.022.078.034.109.022.046.07.016.135-.014s.086-.012.167.094c.016.02.07.046.08.062.078-.314.09-.639.165-.941l-.022.008c-.008-.012.078-.028.1-.032.068-.275.092-.559.157-.824-.091-.008-.121.01-.121.056,0,.1-.05.123-.153.157-.082.028-.127.04-.177,0-.034-.028-.046-.092-.034-.1s.064.034.106.038c.083.006.181-.115.179-.221s.084-.167.259-.173c.032-.131.107-.247.139-.378h-.058c-.165.046-.279-.062-.165-.157.05-.042.04-.036.086.014.026.03.076.078.1.08l-.016-.042c.028-.123.09-.233.119-.354a.063.063,0,0,1,.006-.109c.018-.008.074-.044.068-.08s0-.036.026-.038c.032-.137-.014-.267.016-.4a.861.861,0,0,1-.286-.3c0-.026.006-.042.036-.062a.172.172,0,0,0,.04-.121.164.164,0,0,1,.08-.151c.094-.048.141-.02.173.024a.1.1,0,0,1-.1.155c-.042,0-.094-.014-.108,0s.181.147.255.161c.034-.139.1-.259.133-.4l-.006-.012c.034-.137.042-.277.074-.412-.02,0-.014-.024-.026-.038-.046-.044-.054-.287-.008-.283a1.132,1.132,0,0,1,.121.161c.026-.109.068-.261.093-.368-.05,0-.155-.038-.125-.062a.094.094,0,0,1,.072-.03c.012,0-.02-.026-.012-.022.044-.193.163-.364.2-.549l-.032-.034c-.05-.048-.06-.052-.022-.082a.107.107,0,0,1,.081-.018c.06-.265.054-.543.112-.8-.008,0,.016-.018.008-.018-.046,0-.084.068-.1.084-.08.054-.106-.076-.022-.157.048-.046.092-.082.1-.109,0-.054.06-.048.1,0,.008-.042.048-.094.058-.137-.02-.014-.111-.036-.109-.058s.076-.074.1-.072l-.006.036c.135-.615.3-1.2.418-1.763-.014,0-.056-.048-.074-.052-.09-.022-.109-.046-.02-.084a.115.115,0,0,1,.1,0c.074-.36.155-.71.221-1.051a.216.216,0,0,0-.05.046c-.05.078-.267.054-.289-.024s-.044-.06.02-.151a1.372,1.372,0,0,0,.062-.125.173.173,0,0,0,.03-.149c-.034-.119-.056-.139.018-.223.1-.119.141-.159.249-.141.028,0,.076.06.094.066.044-.241.042-.486.084-.722-.012-.014-.01-.036.01-.056.1-.577.231-1.132.322-1.681-.026.01-.06-.02-.093-.032-.074-.032-.068-.008.006-.119.04-.062.026-.113.062-.1.05-.31.169-.6.215-.9l-.012.032c-.018.01-.088-.032-.086-.052s.06-.054.078-.052l.016.028c.05-.342.123-.665.171-1.005.106.05.179.046.286.092.018-.048.036-.062.04-.094.006-.054.048-.066.092-.084s.187-.147.348-.249c.314-.2.348-.193.462-.044a.606.606,0,0,1,.022.581c-.05.149-.056.171-.048.223.237.076.45.189.688.243l-.046-.008c-.01-.036.046-.076.084-.064s.04.054.046.076l.022-.03a9.028,9.028,0,0,0,1.224.241l-.032-.024c0-.026.058-.092.076-.09s-.012.07-.016.1l.036.038a11.264,11.264,0,0,0,2.394-.092c.006-.032.022-.092.046-.1l0-.014c.054-.016.094.054.1.1.47-.072.951-.167,1.423-.285.008-.008.012-.054.02-.062.149-.137.171-.149.2-.042,4.6-1.206,9.289-4.26,13.849-4.624.083.012.159.09.241.107.414.078.836.119,1.248.207s.818.187,1.228.277.856.141,1.279.233c.382.084.762.181,1.15.227.227.026.462-.016.692,0,.187.016.37.024.559.024.384,0,.772.044,1.158.032.135-.006.276,0,.41-.018a8.274,8.274,0,0,0,.971-.277,8.257,8.257,0,0,0,1.106-.362c.289-.123.6-.205.883-.348s.559-.3.83-.472c.02-.012.054.016.076.01.09-.02.177-.056.267-.08a2.248,2.248,0,0,1,.6-.088c.259.006.517,0,.776.01a.714.714,0,0,1,.436.157c.117.1.221.217.336.322.016.014.042.014.058.024.1.072.213.125.314.195a.687.687,0,0,0,.3.147c.036,0,.064.074.1.078a3.65,3.65,0,0,0,.716-.09,1.124,1.124,0,0,0,.686-.265c.084-.074.159-.161.241-.235a1.04,1.04,0,0,0,.386-.625c.008-.064-.006-.135.006-.2s.074-.086.123-.129a.7.7,0,0,1,.31-.205c.034,0,.072.046.1.058a.631.631,0,0,1,.237.149.556.556,0,0,0,.342.153,2.11,2.11,0,0,0,.392-.076.552.552,0,0,0,.376-.133c.1-.1.185-.229.292-.33a.656.656,0,0,1,.362-.127c.058-.01.1-.1.157-.115a.526.526,0,0,0,.348-.261c.022-.038.06-.074.064-.119s-.014-.123-.048-.129-.081.038-.113.09-.052.135-.1.183c-.1.1-.161.078-.267.018a.373.373,0,0,0-.215,0,.809.809,0,0,0-.314.131c-.125.072-.28.082-.408.143-.1.048-.185.115-.283.092a.492.492,0,0,1-.342-.364c-.036-.1-.165-.125-.243-.187a.954.954,0,0,0-.39-.223,2.176,2.176,0,0,0-.593-.056.9.9,0,0,0-.39.141.546.546,0,0,0-.247.294.923.923,0,0,0,.08.464c.01.038-.012.088-.01.129,0,.066-.056.127-.066.195a.057.057,0,0,1-.03.05,1.1,1.1,0,0,1-.378.191,1.539,1.539,0,0,1-.374.107.894.894,0,0,1-.561-.294,3.146,3.146,0,0,1-.3-.247,1.5,1.5,0,0,1-.255-.392c-.078-.159-.213-.3-.283-.46a1.038,1.038,0,0,0-.547-.581,3.254,3.254,0,0,0-.647-.179,2.441,2.441,0,0,0-.605-.04,1.441,1.441,0,0,0-.589.113c-.169.08-.35.137-.515.223a4,4,0,0,0-.36.2,5.456,5.456,0,0,1-.617.4,5.318,5.318,0,0,1-.778.285,3.876,3.876,0,0,1-.476.159c-.239.034-.486-.016-.724-.006a11.631,11.631,0,0,1-1.671.048c-.237-.022-.468-.117-.7-.149-.412-.058-.83-.072-1.24-.139a3.847,3.847,0,0,1-.973-.346c-.235-.109-.478-.195-.71-.31s-.476-.187-.7-.306c-.287-.157-.579-.4-.869-.549a16.1,16.1,0,0,1,2.173-.185c.01,0,.024-.034.032-.03.275.078.537.217.818.285a5.428,5.428,0,0,0,.85.028,5.934,5.934,0,0,0,.983.054c.169-.018.336-.006.5-.024a9.834,9.834,0,0,1,1.156.336c-.159-.167-.356-.3-.519-.452.054-.012.137-.082.191-.1a6.441,6.441,0,0,0,.961-.37,2.661,2.661,0,0,0,.762-.521c.133-.145.247-.308.374-.456.018-.02.07-.022.082-.044.046-.1.05-.209.1-.3a1.447,1.447,0,0,0,.153-.6c0-.044-.054-.08-.06-.121v-.022l.052-.012a.334.334,0,0,0-.008-.088c-.008-.02-.032-.034-.034-.058a.723.723,0,0,0-.052-.2l0-.052c-.012,0,.016.056.024.042l-.05-.048.016.02a.712.712,0,0,1-.06-.125.549.549,0,0,1,.113-.484.66.66,0,0,1,.253-.141,1.2,1.2,0,0,1,.533-.022,1.335,1.335,0,0,1,.452.151,1.881,1.881,0,0,0,.673.219c.145.016.3-.046.442-.034.111.01.217.018.33.018.193,0,.386,0,.579-.01a1.025,1.025,0,0,0,.466-.109,1.924,1.924,0,0,0,.545-.428,1.887,1.887,0,0,0,.113-.219c.028-.046.089-.078.113-.129s-.026-.094-.006-.129l.044-.03c-.032-.04-.068-.131-.028-.145.014,0,.066.032.074.018s.03-.1.09-.1a1.391,1.391,0,0,1,.43-.243.114.114,0,0,1,.161.046c.028.034.038.082.064.119.054.082.129.155.183.235.026,0,.062.01.084.016.07.024.08.02.093.074a.149.149,0,0,1-.042.119c.042.068.106.135.147.2.054.086.087.187.147.269a1.859,1.859,0,0,0,.153.219.723.723,0,0,0,.308.157l-.04-.03c.012-.024.076,0,.084.024a.238.238,0,0,1,.006.064c.062.014.141-.058.207-.058,0-.006,0,.014,0,.008-.012-.048-.016-.042.052-.038s.137-.024.141.008a.948.948,0,0,0,.478-.133,2.035,2.035,0,0,0,.211-.143,1.972,1.972,0,0,0,.478-.679c.028-.066.006-.151.032-.217a.353.353,0,0,1,.354-.213,1.357,1.357,0,0,1,.155.02,1.822,1.822,0,0,0,.456.012,1.312,1.312,0,0,0,.239-.074.358.358,0,0,0,.29-.271.935.935,0,0,1,.167-.32c.006-.008.008.008.014,0-.012-.03.024-.066.042-.088a.071.071,0,0,1,.07-.04c.018-.02.074.006.092-.014s.012-.084.04-.107a.529.529,0,0,1,.462-.088.29.29,0,0,1,.155.107.2.2,0,0,0,.189.1c.046,0,.119.008.149-.04M-771.395,22c-.052,0-.135-.016-.137-.038s-.026-.046-.01-.068c.028-.038.046-.008.088.024s.018-.006.024-.016.147.05.145.082-.048.022-.11.016m-33.4,25.09c-.026,0-.032.008-.03-.02s.012-.072.038-.07.028.05.026.076-.006.016-.034.014m.227,1.128c-.028,0-.036.008-.034-.02s.016-.07.036-.06c.058.024.056.086,0,.08m-4.161,6.473c-.018,0-.016,0-.014-.034s.02-.08.038-.068,0,.066-.006.09,0,.014-.018.012m23.044-.911c.018,0,.02-.016.018,0s0,.058-.022.056-.014-.042-.012-.06,0,0,.016,0M-787,54.3c.056-.117.185-.08.175.046-.006.056-.012.109-.073.119-.115.016-.151-.07-.1-.165m-2.73-.36c.054,0,.143.078.112.1a.1.1,0,0,1-.1.01c-.078-.046-.086-.123-.014-.115m-.229-.271c.042-.02.129-.006.127.03a.137.137,0,0,1-.042.1c-.062.046-.078.02-.1-.024-.034-.064-.026-.084.016-.107m-1.025-.022c.034-.024.018-.052.016-.03s.008.066-.012.076c-.06.03-.062-.006,0-.046m-.424.474c.012-.01,0-.022.018-.012.032.024,0,.092-.04.088s-.012-.048.022-.076m-.167-.909c.054.008.1.028.072.06s-.042.054-.074.022-.038-.086,0-.082m-.535.605c.018,0,.018-.018.016,0s0,.058-.022.056-.012-.042-.012-.058,0,0,.018,0m-.171-.883c.093-.02.117,0,.08.084-.018.046-.04.094-.089.082a.085.085,0,0,1,.008-.167m-.044.732c.016,0,.018-.024.018-.018s.01.048-.008.058-.028-.022-.026-.04,0,0,.016,0m-1.029.591c.121.012.215.048.249.129.046.117.038.151-.131.137-.137-.012-.121-.04-.121-.169,0-.072-.01-.1,0-.1m-.109-1.7c.036,0,.048-.008.046.018s-.02.074-.054.072-.046-.052-.042-.08.014-.014.05-.01m-.714,1.174c.008,0,.012-.008.02.01s.014.05,0,.048-.014-.04-.014-.058-.01,0,0,0m-.392-1.1c.012-.01,0-.022.02-.01s0,.09-.04.086-.012-.048.02-.076m-.283.484c.012-.133-.006-.145.058-.155a.2.2,0,0,1,.223.173c.022.09-.006.088-.084.08-.046,0-.07.062-.094.088-.07.08-.119-.018-.1-.187m-.36.175c.018-.008.01-.024.018-.006s.03.056.012.064-.038-.028-.048-.046,0,0,.018-.012m-.557,1.1c-.084,0-.1.016-.094-.022s.018-.07.068-.052.078.068.1.07c.1.012.028.01-.074,0m-.171-1.293c.032-.06.054-.044.139.056s.1.167.02.159-.183-.165-.159-.215m-3.47.677c-.038-.107-.062-.076,0-.119a.139.139,0,0,1,.207.066.107.107,0,1,1-.207.052m.233.308c.042-.03.02-.048.034,0,.018.066-.044.147-.093.111s0-.064.058-.107m.044.233c-.044-.022-.064-.034-.032-.062s.094-.024.089.042c0,.038-.034.028-.056.02m.125-.486c-.02.008-.012.024-.02.006s-.028-.056-.01-.064.036.028.044.046,0,0-.014.012m.263.285c-.018.01,0,.026,0,0s0-.076.006-.076c.034,0,.026.064-.006.078m.372.241c-.052,0-.078-.008-.046-.036s.125-.022.121.028c0,.026-.048.01-.074.008m-.034-.314c-.111.09-.1.1-.225.012-.034-.026-.1-.02-.131-.036-.052-.03-.052-.129-.008-.149a1.159,1.159,0,0,1,.494.034c.026.032-.044.066-.131.139m-.1-.39c.052.04.042.115-.016.09-.024-.01-.1.016-.153.008-.09-.012-.123-.1-.066-.145.034-.028.185.006.235.046m-.127-.358c.032.01.048-.006.042.012a.058.058,0,0,1-.106-.01c-.008-.03.026-.014.064,0m.456.742c-.016-.012-.032-.008-.03-.026s0-.056.02-.054.012.05.01.078.018.014,0,0m.179.571c-.054-.04-.048-.074.018-.068.034,0,.094-.008.1.008.02.042-.08.09-.121.06m.1-.241c-.018,0-.018.016-.016,0s0-.058.022-.058.012.042.01.06,0,0-.016,0m.117.193c0-.02-.032-.008-.012,0s.066.014.066.028c0,.036-.046.014-.054-.028m.352-1.749c0-.016-.018-.016,0-.016s.06.006.058.024-.042.01-.06.01,0,0,0-.018m.026,1.3c-.008-.02-.022-.014,0-.024.052-.028.09.024.046.062-.026.02-.032-.016-.044-.038m.472-.846c-.024.022-.008.038-.02.014s-.026-.058-.006-.068c.054-.026.072.016.026.054m.45.241c0-.028-.008-.034.018-.032s.074.012.072.04-.052.028-.078.024-.016-.006-.012-.032m.014-.161c0-.028-.024-.036-.016-.036.034,0,.056.074.024.09s-.01-.026-.008-.054m.147.8c-.078.012-.088.056-.042.143.022.046.052.09.028.111s-.05-.032-.078-.113c-.04-.113-.074-.153,0-.195.094-.05.163-.01.159.04,0,.018-.032.008-.068.014m.177-.627c.008,0,.012-.008.02.01s.014.052-.006.05-.014-.042-.012-.06-.01,0,0,0m-.261-1.088c.032-.026.072.018.048.052s-.129.03-.123-.018c0-.024.06-.024.074-.034m-.076.617a.528.528,0,0,1,.141-.169c.048-.028.036-.107.094-.1s.01.076.036.117c.07.1.1.209.024.267a.518.518,0,0,1-.368-.006c-.006-.014.038-.052.072-.111m-.227-.591c.1-.074.121-.044.044.056-.018.022-.054.064-.081.05-.062-.03-.028-.06.036-.107m-.1,1.51a.21.21,0,0,1,.121,0c.145.028.151.111,0,.125-.109.01-.187-.072-.125-.125m-.125-1c.03.008.048,0,.046.03s-.012.076-.044.08-.042-.04-.038-.088,0-.034.036-.022m-.112-.408c.016,0,.026-.008.036.012s.006.05-.022.048-.03-.044-.028-.062,0,0,.014,0m-.036,1.5c.018,0,.018-.018.016,0s0,.058-.022.058-.012-.044-.01-.06,0,0,.016,0m-.09-.4c-.076-.006-.109-.054-.04-.072.024-.008.072-.04.09-.026.054.04.014.1-.05.1m.028-.356c-.006.048.006.05-.052.044-.088-.008-.119-.042-.052-.1s.111-.02.1.052m-.1-.223c.032-.026.068.024.062.078s-.046.072-.094.016,0-.066.032-.094m-.056,1.295c-.016.046-.036.038-.05-.012-.006-.03,0-.06.042-.05s.014.046.008.062m-.219-2.008c.056-.016.181.022.175.062-.012.121-.181.123-.235,0-.022-.052.016-.048.06-.06m-.131,1.381c-.074-.008-.074.012-.068-.054,0-.044.006-.109.02-.107s.062.07.119.1c.113.068.087.068-.07.056m-.08-.352c.03-.024.04-.016.036.024,0,.016-.01.054-.036.052-.05,0-.038-.044,0-.076m-.064.744c.018-.008.012-.024.02-.006s.028.056.01.064-.036-.028-.046-.046,0,0,.016-.012m-.1-.673c.028,0,.032-.018.024,0-.026.058-.109.066-.1.008,0-.028.05-.014.078-.01m-.1.84c0,.016.01.014-.016.012-.05,0-.08-.048-.038-.08s.058.028.054.068m-.571-1.56c.068-.054.066-.07.117-.038.084.056.093.048.076-.006s.1-.169.165-.163c.111.01.087.245-.028.265-.044.006-.084-.01-.09.046-.01.109.02.115.092.044.089-.086.245-.046.237.054a.152.152,0,0,1-.119.127.3.3,0,0,1-.147-.016c-.02-.014.016,0-.012.06s-.1.03-.145.02c-.086-.02-.092-.07-.014-.123.062-.038.02-.018-.036-.07-.032-.03-.046-.107-.074-.109-.112-.012-.11-.024-.022-.092m-.135-.2c.008,0,.01-.01.02.01s.014.05,0,.048-.016-.042-.014-.06-.01,0,0,0m-.042.466c.046-.024.1,0,.1.042,0,.022,0,.08-.028.1s-.06,0-.08-.04c-.032-.064-.026-.086.012-.1m-.08.362c0,.042-.229.07-.31.042s-.119-.119-.048-.177c.024-.02.082,0,.11.006.072.006.251.1.247.129m-.39-.39c.064-.052.089-.062.085.01-.006.048-.016.09-.074.086-.089-.008-.076-.04-.01-.1m-.034-.366c.078-.1.106-.115.155,0,.02.05.034.088-.046.137-.113.064-.2.048-.2-.014a.571.571,0,0,1,.089-.121m-.149.774c.048-.02.064-.034.109-.006.076.05.1.086.016.149s-.159.028-.179-.04c-.024-.084-.018-.072.054-.1m-1.244,1.266c-.088.062-.2-.046-.115-.115.014-.012.048-.054.088-.052.084.008.094.121.026.167m-.121-1.108c0-.008-.01-.012.008-.02s.052-.014.05,0-.042.016-.06.014,0,.008,0,0m.428,1.033c-.04.028-.032.028-.093-.066-.08-.129-.11-.161-.072-.181.016-.006.083.026.137.026.09,0,.143-.01.143.1,0,.072-.086.1-.115.125m.209-1.809c.028,0,.036-.016.034,0s0,.058-.02.058-.02-.052-.03-.07-.012.008.016.01m.06,1.556c-.028.036-.074.048-.07.01,0-.016-.01-.062.01-.072a.044.044,0,0,1,.06.062m.088-.555c-.046.082-.068.1-.09.022s-.04-.151.016-.191c.08-.054.131.07.074.169m.316.125c-.076-.022-.123-.048-.08-.082a.115.115,0,0,1,.159.016c.06.074.018.094-.078.066m-.01-.6c.014-.062,0-.076.036-.066a.088.088,0,0,1,.006.167c-.086.036-.066.016-.042-.1m.056-.352c-.04,0-.036.018-.032-.03s.014-.09.054-.08.03.062.028.086-.018.02-.05.024m-.056-.414c.087-.066.129-.056.121.044s-.151.175-.2.111.006-.1.084-.155m-.1.456a.141.141,0,0,1,.141.127c0,.02-.036.054-.1.042-.076-.016-.083-.064-.086-.117s.014-.042.042-.052m-.054.328c-.038-.016-.094-.147-.058-.145a.118.118,0,0,1,.078.08c.02.076.006.076-.02.064m-.058-.47c0,.026.008.034-.018.03s-.074-.012-.07-.038.05-.028.077-.026.014.008.012.034m-.111-.261c.052.012.087,0,.084.016s-.032.048-.086.042a.083.083,0,0,1-.074-.074c0-.024.016,0,.076.016m-.157-.2c.056.006.078.018.048.058s-.129,0-.123-.052c0-.024.048-.008.074-.006m-.127,1.23c0,.016.008.014-.018.012-.05,0-.078-.048-.038-.08s.058.026.056.068m-.016-.653c-.02.042,0,.048-.028.016s-.084-.187-.048-.183c.064.006.1.117.076.167m-.241-.424c.054-.088.068-.1.161-.05a.175.175,0,0,1-.1.324c-.093,0-.1-.038-.109-.094-.016-.088,0-.1.05-.179m-.038.571c.018-.01,0-.034,0-.014s0,.06-.022.058-.012-.034-.012-.042.016.006.034,0m-.036.828a.175.175,0,0,1,.287.024A.169.169,0,0,0-800.2,54c.06.006.036.064-.05.155-.06.062-.094.133-.211.123-.235-.022-.3-.211-.153-.358m-.089-.738c0,.026.016.034,0,.032s-.058-.01-.056-.036.044-.03.062-.028,0,.006,0,.032m-.038-.314c.016,0,.026-.006.036.012s.008.05-.022.048-.03-.044-.028-.062,0,0,.014,0m-.108-.269c.048,0,.09.058.064.094s-.044.05-.074.018c-.046-.046-.034-.117.01-.113m-.04.269c.042-.034.04-.044.036.006,0,.026,0,.074-.02.074-.042,0-.042-.058-.016-.08m.012.442c0,.018.018.02,0,.018s-.06.006-.058,0,.048,0,.068-.014-.008-.018-.01,0m-.05.336c.054-.044.109-.024.133.058.042.153-.078.205-.159.066-.048-.084-.008-.094.026-.125m-.07.5c.028,0,.03-.016.022,0-.024.058-.106.066-.1.008,0-.028.052-.014.08-.012m-1.462-.509c-.01-.018-.032,0-.014,0s.06,0,.058.022-.034.014-.042.012.006-.014,0-.034m.022-.448c.036-.01.026-.028.022.018s-.018.084-.04.074c-.056-.024-.038-.076.018-.092m.9,1.168c-.02.044-.024.044-.038-.006,0-.018,0-.054.034-.05s.014.034,0,.056m.187-.708c-.024.02-.094-.06-.091-.1,0-.014.006-.052.03-.05.046,0,.091.125.06.153m.191.764c-.018.008-.01.024-.018.006s-.028-.056-.01-.064.036.028.046.046,0,0-.018.012m.038-.515c-.02.016-.024.016-.06-.024-.08-.086-.074-.145.014-.107s.09.092.046.131m-.075-.681c-.068.1-.169.173-.253.145-.1-.036-.179-.38-.084-.406.024-.006.064.046.094.074s.1-.014.149-.018c.127-.014.161.1.094.205m-.314-.48c.056-.064.143-.048.225.048.044.052.066.074.018.094-.028.014-.116-.016-.183-.02-.139,0-.145-.026-.06-.123m-.129.8c.03,0,.036,0,.032.036-.006.078-.093.064-.1-.018,0-.032.038-.022.068-.018m-.038.432c.018-.01.01-.024.018-.006s.03.054.01.064-.036-.028-.046-.046,0,0,.018-.012m-.3-.438c.056-.038.117-.04.11.012,0,.016,0,.068-.024.088-.044.03-.066,0-.1-.048s-.03-.018.016-.052m-.022.241c.117.1.109.438-.012.378a.119.119,0,0,1-.042-.193c.058-.092.088-.1-.012-.163s-.109-.159-.03-.153c.032,0,.062.1.1.131m-.161-.969c.008,0,.01-.008.02.01s.014.052,0,.05-.016-.042-.014-.06-.01,0,0,0m-.01.456c.036,0,.04.018.01.034s-.052.008-.05-.02.034-.016.04-.014m.008.842c.036.054,0,.042-.016.107s-.028.062.008.117.032.024.084.018c.068-.01.153-.046.183-.016s.04.1.076.127a.153.153,0,0,1,.084.165c-.012.111-.046.163-.115.167a.393.393,0,0,1-.169-.046c-.048-.032-.05-.03-.1-.01-.157.066-.338-.2-.237-.352.058-.09.1-.271.038-.283-.026,0-.07.014-.093.012-.044-.008-.072-.092-.032-.109.016-.006.1.058.179.074.062,0,.068-.026.1.03m-.143-.271c0,.052.01.062-.046.078s-.1.05-.113.042c-.03-.022.01-.129.048-.179s.107-.026.111.058m-.076-1.08c.026,0,.034-.006.032.022s-.016.064-.054.028-.01-.066-.008-.074a.036.036,0,0,0,.03.024m-.083.189c.026,0,.034-.008.032.018s-.014.074-.04.07-.028-.05-.026-.076.008-.014.034-.012m1.073-23.78c.026,0,.042,0,.05.03s.006.068-.03.056c-.066-.018-.084-.09-.02-.086m-.189-1.5c.012-.01,0-.022.02-.01s0,.09-.04.086-.012-.048.02-.076m-.358,7.959c.048-.024.066-.014.062.042s-.058.072-.1.01c-.024-.034.014-.04.038-.052m-.677-2.891a.226.226,0,0,1,.239.092c.06.107,0,.177-.163.149-.121-.018-.11-.054-.113-.149,0-.056.016-.082.036-.092m-.525,3.436c0-.052.014-.115.109-.229.024-.032.153.032.179-.006.044-.068-.016-.245,0-.291.026-.078.034-.2.1-.253s.062-.058.127-.044c.1.02.1.042.177.111.2.173.219.3.066.488-.032.04-.223.066-.243.1s.141.1.133.159c-.022.169-.113.3-.2.312a.65.65,0,0,0-.336.09c-.064.064-.083.056-.237-.115-.048-.054.133-.253.129-.326m.688,2.983c-.044,0-.066.008-.066-.012s-.056-.056-.086-.1a.128.128,0,0,1,0-.121c.034-.07.145-.05.169.05.014.052,0,.125.022.137.072.034.05.048-.036.042m.046,2.422c-.014.028,0,.042-.016.028-.04-.028-.056-.084-.01-.109s.056.02.026.08m.006-2.826c0-.022,0-.034.024-.042.048-.014.107.07.072.117s-.1-.024-.1-.074m-.014-.334c-.046.038-.022.05-.072-.026-.062-.1-.1-.111-.054-.169s.135.01.163.1c.014.052,0,.058-.036.09m-.474-.555c-.018.008-.01.024-.02.006s-.026-.056-.01-.064.038.028.046.046,0,0-.016.012m.012,2.531c0,.044.014.046-.024.036-.062-.018-.1-.123-.044-.151s.076.04.068.115m-.046-.923c0,.036.016.05,0,.05-.036,0-.08-.094-.052-.119s.058.006.052.068m-.354-1.164a.064.064,0,0,1,.074.01c.04.04.068.06.016.109s-.076.014-.107-.016c-.056-.052-.048-.084.016-.1m.024,1.558c0,.018.018.018,0,.016s-.058,0-.056-.022.04-.012.058-.01,0,0,0,.016m-.2-1.719c.064-.052.056-.062.048.026s-.052.117-.1.044c-.022-.032.024-.044.054-.07m-.09,1.614c.032-.072.064-.05.056.034,0,.044-.006.107-.022.107-.044,0-.054-.1-.034-.141m.191,2.1c.058.066.07.052.026.139-.06.113-.113.139-.2.03-.072-.092-.034-.173.048-.314.06-.1.147-.187.2-.151.014.012-.032.084-.064.125-.052.066-.07.1-.01.171m.046.653c.02.042.016.066-.028.062s-.044-.1,0-.119c.016-.008.02.036.03.056m-.171.577c-.02.03-.02.058-.034.056-.046,0-.068-.137-.024-.167.066-.044.107.038.058.111m-.221-1.86a.173.173,0,0,0-.088-.1c-.044,0-.06-.024.03-.165a.17.17,0,0,1,.123-.082,1.052,1.052,0,0,1-.018.458c-.014.012-.034-.064-.046-.113m-.3,1.6c.028,0,.036-.006.034.022-.006.056-.084.048-.1-.014-.006-.022.036-.012.064-.008m0,.388c.131-.131.137-.143.133.022,0,.133.02.113.129.123.084.01.1.056.1.1s0,.1-.082.072a.965.965,0,0,0-.235-.1c-.135-.018-.187-.024-.189-.078,0-.036.09-.086.145-.139m.5,2c.038.028.044,0-.006.042s-.143.038-.137-.034c0-.024.056-.032.08-.038s.04.012.062.03m.028-.6c.074-.02.088-.024.034.02-.032.026-.058.054-.084.022s.008-.03.05-.042m-.137.921c.058.068.06.088-.026.08-.064-.006-.107-.01-.1-.072a.07.07,0,0,1,.074-.06c.022,0,.034.028.052.052m-.265-.374c-.056-.032-.074-.038-.068-.109s-.042-.092-.084-.119-.026-.082-.018-.113c.012-.05-.022-.016-.139-.036-.058-.01-.04-.189.022-.231.024-.016.066-.064.1-.066.056,0,.1.04.091.159-.016.183,0,.235.125.185a.154.154,0,0,1,.191.034.188.188,0,0,1-.221.3m0,.207c-.016.01-.01.024-.02.008s-.026-.056-.008-.066.036.028.044.048,0,0-.016.01m-.255-.092c.018-.01.026-.01.052.02.062.074-.016.177-.082.111a.08.08,0,0,1,.03-.131m-.07-.283c-.05,0-.054,0-.014-.032s.093,0,.089.042c0,.018-.048-.006-.074-.01m.151,1.19c.026,0,.036-.006.032.022,0,.056-.083.048-.1-.014-.006-.022.034-.01.064-.008m.249-1.445c-.042,0-.044-.006-.024-.054s.088-.044.084.026c0,.036-.044.028-.06.028m-.4-1.2c.042-.036.072-.04.068.01,0,.026-.012.074-.038.072-.054-.006-.062-.056-.03-.082m-.024.617c.046-.038.04-.042.034.026,0,.038-.016.086-.038.076-.046-.02-.03-.074,0-.1m-.171-.275c.054-.046.078-.04.06.03-.01.04-.024.1-.052.1-.05,0-.05-.092-.008-.127m-.084.794c-.072-.006-.072,0-.01-.048.022-.02.064-.068.1-.066s.04.026.016.034.008.052.006.076-.076.006-.113,0m.016,1.538c-.066-.086-.08-.119-.018-.207.024-.034.016-.121.034-.173.044-.155.167-.125.235.044.077.193.087.368-.022.4-.044.012-.1-.008-.1.01-.006.058-.062.008-.125-.072m.1.265c.084-.086.173-.137.243-.107a.351.351,0,0,1,.2.314c-.01.1-.058.113-.153.147s-.135.088-.239.006a.243.243,0,0,1-.05-.36m.3.82c.092.01.147.036.1.076-.024.02-.227-.07-.223-.1,0-.012.068.018.123.026m-.078-.3c-.036-.072-.06-.068-.006-.064s.109.076.06.117c-.03.026-.034-.014-.054-.052m-.227.525c.032.01.056.008.062.034s0,.06-.038.05-.038-.066-.044-.09-.014,0,.02.006m-.277,1.287c.042-.034.072-.038.068.01,0,.028-.012.074-.038.072a.045.045,0,0,1-.03-.082m-.078.39c.03-.01.044-.026.056-.01.03.038-.072.155-.115.125s-.006-.1.058-.115m-.1.728c.026.032.014.022-.032,0s-.05-.03-.016-.048.038.032.048.044m-.094.314c-.018,0-.018.016-.016,0s-.01-.062.01-.072.028.028.024.056,0,.016-.018.016m-.018.571c0,.034.008.034-.038.022-.1-.024-.108-.113-.006-.1.054,0,.046.048.044.08m-.06-1.132c.008-.084-.008-.117.02-.113.05,0,.141.062.137.109,0,.018-.078.04-.125.068s-.04.121-.089.109c-.066-.018.05-.107.056-.173m-.11.661c-.044-.034-.04-.139.01-.135.024,0,.08,0,.1.022s-.012.062-.056.1-.04.024-.054.014m-.179,3.6c0-.026-.006-.036.022-.034s.068.016.06.036c-.026.06-.087.056-.083,0m0,.326c0,.028.024.03.008.018s-.064-.026-.062-.042.04-.012.058-.01,0,.008,0,.034m.044.259c.04.1.02.117-.076.06s-.125-.115-.048-.169c.058-.038.086.02.125.109m-.292-.613c.042-.034.038-.036.07.036s.044.094-.006.125a.089.089,0,0,1-.09-.014c-.028-.022-.006-.119.026-.147m-.034.3c.054.026.052.04-.01.054a.043.043,0,0,1-.056-.042c0-.048.032-.028.066-.012m-1.522-.941c.02,0,.022-.016.018,0s.006.06,0,.058-.006-.048-.014-.068-.02.006,0,.008m-.209.322c.026-.022.068.02.064.06,0,.016-.018.054-.054.05-.062,0-.058-.07-.01-.111m-.139-.135c.018-.024.012-.038.032-.024s.054.044.022.076c-.078.078-.123.036-.054-.052m-1.065.788c-.072-.016-.077,0-.074-.109,0-.066,0-.147.014-.145.054,0,.143.143.139.191s.026,0,.086-.006.089.052.107.1a.1.1,0,0,1-.179.086c-.018-.028-.044-.1-.092-.115m.11.374c-.062-.094-.094-.155-.036-.149a.2.2,0,0,1,.129.046c.062.072.034.086-.02.137s-.022.044-.072-.034m.328.436c-.151.038-.139.058-.205-.018-.042-.048-.1-.1-.1-.171.008-.088.054-.086.159-.109.145-.032.314.01.306.1,0,.034-.036.082-.012.107.062.062.03.05-.151.092m.185-.4c-.016-.012-.034-.008-.032-.026s0-.056.022-.054.012.05.01.076.016.016,0,0m.617-.237c-.131.014-.165.1-.113.233s.062.159.016.155-.125-.177-.121-.251a.186.186,0,0,0-.167-.179c-.088-.008-.076.056.016.109.036.02.1.044.094.058,0,.042-.165.042-.227-.014-.113-.1-.269-.107-.283.006-.008.052-.093.05-.109-.028-.03-.147.038-.223.227-.213.2.01.259.008.165-.066-.064-.052-.08-.016-.024-.066s0-.048-.028-.092c-.05-.072-.088-.1-.121-.03s-.064.066-.127-.016-.07-.07-.036-.1a.183.183,0,0,1,.092,0c.046,0,.046-.048.064-.09a.039.039,0,0,1,.068-.008c.028.05.3.111.334.07s.233-.036.257.012c.01.02.05.072.094.066.106-.018.211-.024.225.068.008.046-.024.1-.006.1s.022.026.018.058c-.006.092-.191.211-.312.225m.307-.563c-.03.026-.163-.058-.159-.1,0-.016,0-.058.012-.056.048,0,.169.137.147.155m.075-.123c-.02-.026-.038-.008-.014-.02s.06-.026.07-.006c.026.052-.018.072-.056.026m.165.484a.148.148,0,0,0-.082.022s-.026-.042-.014-.064c.028-.056.185-.024.179.034,0,.032-.018.014-.083.008m0-.706a.2.2,0,0,0-.189.052c-.086.066-.2.028-.141-.046.018-.022.088-.064.113-.119.038-.084-.018-.1-.06-.193a.167.167,0,0,1,.058-.245c.054-.034.077-.03.054.032s-.024.03.028.042a.266.266,0,0,1,.127.127.139.139,0,0,0,.093.09.167.167,0,0,1,.1.149c-.012.143-.084.141-.187.111m.6,1.3c-.048.026-.077.054-.094.04a.1.1,0,0,1,.034-.173c.044-.01.081.04.109.072.038.048.03.02-.048.06m.2.147a.037.037,0,0,1-.066-.028c0-.016.008-.054.032-.052.054.006.056.048.034.08m.064-.412a.059.059,0,0,1,0,.111c-.024.014.012.032.064.064.078.052.078.139.022.167s-.195-.137-.179-.219.052-.076-.068-.082a1.363,1.363,0,0,0-.235.04.383.383,0,0,1-.235-.046c-.119-.07-.133-.161-.056-.213.036-.024.036-.074.048-.231.016-.189.026-.187-.024-.221a.083.083,0,0,1,.044-.157c.038,0,.107-.048.135-.078.048-.048.086-.046.072.008-.008.032-.048.072-.024.088s.074.054.113.078c.1.066.183.042.191-.03,0-.056.008-.048.08-.024.139.046.189.052.153.231-.028.149-.072.181-.018.2.087.038.066.177-.034.217-.046.02-.068.084-.044.094m.273.084c0-.026-.01-.042.006-.05.042-.02.125.046.1.084a.056.056,0,0,1-.1-.034m.221.426c-.018,0-.018.016-.016,0s-.01-.062.008-.072.03.028.026.054,0,.018-.018.018m.115-.2a.1.1,0,0,0-.127.064c-.024.066-.119.1-.147.042-.008-.016.048-.056.082-.09.1-.094.233-.131.267-.046.028.064-.006.054-.076.03m.006-1.182a.123.123,0,0,0-.026.117c.012.018-.014.01-.05-.026a.111.111,0,0,1-.034-.084s-.034-.058-.012-.088.094-.018.121-.016c.072.008.064.042,0,.1m.6.929c-.018,0-.018.008-.014-.02s.018-.062.034-.05,0,.056,0,.074,0,0-.016,0m.384.378c-.024.082-.084.092-.076.012,0-.048.012-.094.06-.09s.026.04.016.078m.139-.038c-.036,0-.03,0,0-.03.012-.01.04-.042.054-.032.032.024-.014.066-.058.062m.43-.058c-.018,0-.018.016-.016,0s0-.058.022-.056.012.042.012.06,0,0-.018,0m.649-.9c-.04-.032-.044-.072,0-.066.024,0,.074-.02.084-.006.026.03-.054.1-.089.072m.038.34c-.022-.076-.044-.082,0-.076.078.006.173.036.169.078-.006.06-.157.058-.173,0m.207-.094c-.026.02-.008.038-.02.014s-.026-.06-.006-.07c.052-.026.07.018.026.056m.155.177c-.014.048.026.048-.008,0s-.052-.074-.024-.088c.05-.024.052.02.032.088m-.018-.895a.068.068,0,0,1,.06.034c.032.05.036.07-.016.054s-.1-.094-.044-.088m-.026.362c.054.131.04.177-.082.165-.046,0-.044-.145.012-.209s.04-.024.07.044m-.155-1.162c.016,0,.018-.024.018-.016s.01.046-.008.056-.028-.022-.028-.04,0,0,.018,0m-.364-.181c.018-.008.03-.01.062.018s.074.068.042.094-.074-.01-.1-.022c-.052-.026-.05-.066,0-.09m.036.406c.07-.2.107-.253.2-.175.034.03.117.036.155.058.066.034.05.143-.018.137-.042,0,0,.131.036.229a.549.549,0,0,1,.062.171c0,.042-.04.113-.04.155,0,.219-.211.1-.241.03-.044-.088-.048-.1-.119-.1a.267.267,0,0,1-.139-.054c-.034-.066.054-.306.107-.448m0,.838c0,.026.008.034-.018.03s-.074-.012-.072-.038.05-.028.078-.026.014.006.012.034m-.249.056c.046-.048.01-.072-.018.014-.036.117-.04.151-.1.121s-.048-.1.006-.094a.188.188,0,0,0,.113-.04m-.068-.153c-.006.056.022.06,0,.012-.008-.018-.026-.056-.006-.064s.012.024.008.052m-.109-.414c.026,0,.068-.042.07-.06s0-.058.022-.056,0,.048-.02.094.028.113.032.161c.008.07-.048.086-.092.082s-.074-.024-.056-.086c.012-.044.014-.052,0-.062-.042-.032-.006-.078.046-.072m-.09-.792c.026,0,.032-.008.03.018s-.012.074-.038.072-.03-.05-.026-.078.008-.014.034-.012m-.141.249c.014,0,.058-.058.072-.1.024-.064.042-.07.089.062.04.115.008.155-.026.187s-.074.072-.135.006-.054-.165,0-.159m-.082.722a.162.162,0,0,1,.109-.02c.1.01.135.006.127.094s-.044.076-.129.068c-.109-.008-.173-.088-.107-.143m.028.625c0,.026.008.034-.018.032-.05-.006-.08-.05-.038-.082s.06,0,.056.05m.058-1.005c0,.03,0,.032-.05.028-.1-.008-.112-.022-.026-.066s.083-.022.076.038m-.137-.486c.034,0,.038.02.008.036s-.052.006-.05-.02.034-.016.042-.016m-.026.291c.028,0,.036-.014.034,0s0,.06-.02.058-.02-.05-.03-.07-.012.008.016.01m-.129.69c.018-.01.012-.024.022,0,.026.052-.024.09-.06.046-.022-.026.014-.032.038-.042m-.094.448c-.088.02-.1.111-.012.191.056.054.094.076.054.143-.058.1-.012.141.147.09.111-.034.155-.07.2.012.058.109.1.088.09-.05,0-.08,0-.123.052-.119a.129.129,0,0,1,.1.2c-.048.06-.05.024-.012.062s.016.024.084-.014c.048-.026.062-.034.064-.056s.1-.042.113-.068-.034-.1-.1-.147c-.1-.072-.169-.169-.117-.195.018-.008.089.086.139.149a.834.834,0,0,0,.2.177c.145.076.157.147.026.279-.08.082-.119.1-.183.082s-.058.034-.072.062c-.036.072-.131.026-.181-.07a.147.147,0,0,0-.223-.062.424.424,0,0,1-.235.042c-.113-.008-.255-.052-.316-.044-.1.014-.151.032-.123-.048s.062-.094-.026-.2c-.123-.149-.127-.163-.03-.2.068-.028.1-.07.056-.135a.237.237,0,0,0-.3-.042c-.066.038-.024.113-.028.239,0,.145-.038.127-.131.1-.034-.01.012-.279.048-.275.068.006,0,.008-.092-.05a.374.374,0,0,1-.149-.263s.064-.008.078-.036l-.07-.036c.054-.1.221-.129.372-.111.191.024.243.038.209.153-.046.159.05.239.157.131a.1.1,0,0,1,.125.012c.022.02.056.082.088.078.081-.006.078,0,0,.02m-.09-.352c0-.016-.024-.018-.016-.016s.046-.012.056.008-.022.028-.04.026,0,0,0-.018m.052-.764c.022-.012.028-.022.046,0,.046.054,0,.094-.064.05-.04-.026-.012-.032.018-.048m-.479-.012c.1-.02.09-.046.1.008.014.074.167.141.2.09s.111.062.165.2c.036.086.072.127-.054.215a.244.244,0,0,1-.2.026c-.024-.012-.058.026-.09.054-.056.046-.1.056-.211-.006-.093-.052-.1-.058-.157-.034-.1.042-.261-.012-.255-.07,0-.026.018,0-.008,0s-.094-.05-.106-.024c-.024.048-.06.078-.056.03,0-.014-.016-.094.024-.133s.123-.072.129-.125c.006-.07.03-.088.115-.129.143-.07.135-.084.233.04s.179.143.223.082c.018-.022-.05-.052-.107-.109s-.022-.068-.048-.129.048.026.1.014m-.4-.507c.008-.068,0-.078.066-.088a.177.177,0,0,1,.145.3c-.1.082-.225-.058-.211-.215m.161.392c-.006.05-.042.054-.066.008-.006-.014-.034-.054-.018-.076.036-.048.089,0,.084.068m.2-.991c-.018.058-.026.094-.062.1s-.072.1-.117.185c-.076.143-.1.117-.235.092-.112-.018-.185-.016-.189-.078,0-.04.056-.066.074-.064.05,0,.125-.082.107-.119-.008-.016-.024-.008-.056-.012a.168.168,0,0,1-.1-.082c-.01-.032-.016-.018-.088-.018-.1,0-.153-.054-.147-.151s.03-.066.088-.014c.084.07.133.048.245-.038s.149-.137.557.062a1.465,1.465,0,0,0-.072.137m.058-.458c.036.068.058.046,0,.06-.034.008-.07.072-.1.094-.048.036-.072,0-.111-.034-.068-.068-.054-.169.038-.161.06.006.085.036.091-.014.006-.082.026-.048.082.054m-.03-1.443a.153.153,0,0,1,.064-.084c.117-.088.191-.03.084.064-.078.07-.153.072-.149.02m.32.468a.75.75,0,0,0-.139-.018c-.074-.006-.086-.052,0-.115s.181-.016.185.1c0,.086.022.06-.044.036m.012-.3c-.054-.082-.07-.068-.038-.135.012-.02.044-.068.086-.064s.058.05.054.094.062.074.07.1c.026.092-.113.09-.173,0m.221-.159c0,.02.016.02,0,.018s-.06,0-.058,0,.05,0,.068-.014-.008-.018-.01,0m-.074-.625c.018,0,.02-.016.018,0s0,.06,0,.058-.006-.05-.014-.068-.018.006,0,.008m.036.131c.04.044,0,.034-.012.092-.02.111-.014.149-.119.149-.127,0-.175-.094-.163-.223,0-.042-.05-.046-.076-.058-.054-.026-.026-.113.026-.187a.143.143,0,0,1,.217-.018c.054.046.066.092,0,.175-.034.042-.1,0-.066.042s.024-.014.084-.028.066.01.109.056m.086-1.1c-.068.02-.089.03-.143-.012a.1.1,0,0,0-.1-.006c-.036.018-.042-.042-.008-.07.012-.01-.022-.094-.01-.161.048-.245.107-.249.225-.239s.187.072.127.133c-.028.028-.012.058.012.177.018.088.034.173.034.179a.9.9,0,0,0-.133,0m.231-.746c-.052.082-.083.076-.169-.032s-.088-.179-.01-.129a.262.262,0,0,0,.147.066c.114-.006.1-.008.032.094m.084-1.192a.167.167,0,0,0-.07-.113c-.014,0-.052-.01-.05-.038s.042-.028.058-.028a.579.579,0,0,1,.189.259c-.008.082-.117.014-.127-.08m.05-.537c-.06.03-.064.03-.056-.044,0-.046-.036-.042-.094-.046s-.062-.05-.056-.094-.018-.113,0-.121c.04-.02.231.181.245.253.01.034-.012.04-.036.052m.293.4a.106.106,0,0,0-.127-.058c-.058.008-.109.018-.129-.03-.034-.08,0-.086.03-.115s.179-.032.193.018c.008.032,0,.072.054.07.068,0,.11.006.127.1.032.193-.109.207-.149.016m.084-1.888a.2.2,0,0,1-.175.014.2.2,0,0,0-.169.028c-.064.026-.062,0-.048-.155a.161.161,0,0,0-.06-.149c-.016-.012.008-.078.01-.1s.022-.06.086-.024c.1.054.082.068.04-.028s.052-.221.127-.171a.662.662,0,0,1,.1.418.106.106,0,0,0,.137.1c.076-.02.042.032-.052.07m.159-.267c-.008.082.036.078,0,.014s-.08-.111-.046-.139.058.036.05.125m.34-1.073c-.133-.026-.169.026-.119.1.032.04.062.086.04.1s-.046-.052-.064-.1-.119-.072-.173-.107c-.1-.062-.087-.117-.046-.151a.312.312,0,0,1,.306.046c.129.082.155.139.056.121m-.195-.507c0-.016-.006-.024.014-.034.048-.024.119.044.088.086s-.1-.01-.1-.052m.133.123c.04-.032.04-.042.036.008,0,.026-.006.074-.022.072-.04,0-.042-.056-.014-.08m.139-.665c-.008.03-.012.046-.046.042s-.094-.012-.1-.044.042-.042.107-.036.05,0,.038.038m.016-.619c-.02-.024-.038-.006-.014-.018s.06-.026.07-.006c.026.052-.018.07-.056.024m.056-.386c-.068.165-.092.205-.255.215s-.217.1-.159.187c.024.036,0,.048-.022.046s-.08-.006-.08-.024,0-.04-.062-.046c-.141-.012-.2-.07-.189-.342,0-.111-.01-.259-.016-.334a.271.271,0,0,1,.093-.251c.044-.042.048-.1.113-.1s.086.038.145.072.089.163.115.181.1.042.149.076.167.052.209.092c.074.072.01.107-.038.229m-.074-2.5c0-.018-.006-.028.012-.036s.052-.006.048.02-.044.03-.06.03,0,0,0-.014m.072-1.168c-.1.03-.191.04-.2-.006,0-.018-.034-.072-.022-.111.03-.109.231-.072.271.044.028.078.028.05-.052.072m.161,5.774c0,.06.016.064-.024.052-.062-.018-.1-.155-.044-.181s.076.04.068.129m.139-.768c-.072.02-.115-.046-.058-.092.012-.012.042-.056.074-.054.074.008.058.125-.016.147m.175-1.234c.056-.01.058-.024.074.036.024.09-.022.243-.084.237s-.173-.285-.094-.279a.47.47,0,0,0,.1.006m.044-1.841c-.056.058-.052.074-.07.014-.008-.026-.02-.082.008-.1.074-.052.127.022.062.086m.107-2.183a.342.342,0,0,0-.157.04c-.133.062-.173.044-.171-.223a.38.38,0,0,1,.133-.324c.125-.155.219-.265.308-.241.111.034.092.141-.016.352s-.1.263-.05.322,0,.107-.046.074m.068,2.352c0-.026-.018-.034,0-.032s.058.01.056.038-.044.028-.062.026,0-.006.006-.032m.058.271c-.044-.034-.048-.03.012-.072.042-.028.073-.046.084,0a.063.063,0,0,1-.1.072m.048-.573c-.026,0-.034.008-.032-.018s.014-.074.04-.072.028.052.026.078-.008.016-.034.012m.03-.571c-.014.05.026.05-.008,0s-.052-.074-.024-.088c.05-.026.052.02.032.086m.06-.673c-.024.111-.056.141-.046.034,0-.042-.014-.109,0-.119.05-.042.066,0,.048.084m.084-.663c-.008,0-.01.01-.02-.01s-.014-.052.006-.05.014.042.012.06.01,0,0,0m.074,1.311c-.048,0-.052-.028-.01-.062a.056.056,0,0,1,.087.056c0,.026-.05.01-.077.006m.1-4.585c-.022.09-.087.119-.078.03,0-.034-.016-.09,0-.1.054-.046.1,0,.083.072m-.026-.73c-.008.074-.054.028-.085-.064-.018-.05-.089-.09-.119-.117-.064-.056-.036-.127.032-.173a.158.158,0,0,1,.207,0c.177.107.163.169.07.251-.042.036-.1.086-.106.107m.189,1c-.056,0-.06.022-.012,0,.018-.01.056-.026.064-.008s-.024.012-.052.008m.086,1.691c-.034-.08-.054-.054,0-.1.024-.018.054-.07.076-.07.046.006.08.135.074.211s-.112.04-.147-.042m.149-5c-.078-.038-.1-.082-.02-.1s.165.012.159.082-.052.064-.139.022m.123-.493c0,.048.008.064-.022.062s-.072-.018-.07-.052.06-.05.086-.056.01-.012.006.046m.177-.726c-.068-.02-.076-.036-.014-.078.028-.02.072-.06.089-.048.044.036-.02.143-.074.127m.5,4.376c-.008.1-.034.086-.04-.02,0-.046,0-.094.034-.09s.012.056.006.111m-.056-4.784c.018,0,.02-.018.018,0l0,.058c-.008,0-.006-.048-.016-.068s-.018.008,0,.01m-.179,1.041c-.008-.018-.024,0,0,0s.078.006.076.024-.042.014-.058.012-.01-.018-.02-.036m.058,3.283c-.014,0-.016.01-.022-.01s0-.05.022-.042c.04.018.038.056,0,.052m.11,1c-.05-.088-.074-.119-.026-.143s.169.046.183.123c.022.135-.086.145-.157.02m.233-3.812c-.012.119-.024.171-.084.141a.154.154,0,0,1-.018-.217c.072-.06.11-.016.1.076m1.948,5.146c0,.044.006.046-.052.042-.09-.008-.119-.082-.038-.137.062-.044.1.01.091.094m2.621-.32c-.026,0-.034.008-.03-.02s.012-.072.04-.07.026.05.024.076-.006.016-.034.014m.555.181c-.016,0-.016.01-.014-.018s0-.074.022-.072.012.05.01.076,0,.016-.018.014m19.639-11.006c-.038.078-.078.1-.129.034a.122.122,0,0,1,.048-.181c.026-.008.028.012.054.022s.062-.012.08.016-.038.074-.054.109m.285.812c-.01,0,0,.024,0,.01s.024-.044.032-.036-.01.028-.036.026m1.445.159c-.018-.008-.028.016-.024.008s.018-.04.036-.032,0,.038,0,.048.006-.016-.01-.024m.665-.044c-.084-.014-.145-.006-.135-.024a.6.6,0,0,1,.269-.123c.157.032.028.173-.135.147m1.08.961c-.02-.008-.026.03,0,.02s.05-.036.054-.028-.024.022-.054.008m.064-.581c-.03.018-.046.044-.056.044-.026,0-.04-.03-.012-.054s.062.016.088.02,0-.014.01-.034,0,.008-.03.024m.619-.7c-.026.016-.026.018-.028-.02s.01-.076.05-.056,0,.06-.022.076m.129-2.969c-.008.01,0,.02-.026.012s-.05-.022-.024-.034.072,0,.05.022m.229-.271c-.016.036-.107.022-.121-.018s0-.064.054-.062.082.048.066.08m.294-.291c-.01.018-.01.014-.026-.008s-.018-.04.01-.042.028.026.016.05m.1-.511a.254.254,0,0,1-.221-.042c-.058-.04-.129-.107-.113-.141.006-.014.076-.01.119-.026.153-.06.384,0,.384.125,0,.068-.084.068-.169.084m1,2.057c-.056.028-.056.046-.07,0a.076.076,0,0,1,.1-.1c.056.028.03.064-.03.094m.094-.764c0-.042.012-.076.048-.08s.062-.02.074.014-.018.042-.06.074-.066.038-.062-.008m.153.836c-.058,0-.052.02-.093-.012a.071.071,0,0,1,.03-.125c.064-.018.088.026.121.072s.008.062-.058.064m.113-.84c-.008-.026-.03-.016-.006,0s.05.014.046.022-.032,0-.04-.018m.189-1.19c-.032.054-.034.068-.046.014s.016-.1.068-.086.006.026-.022.072m.322,1.962c-.006.012.022.022.02.02s-.028.036-.042.036-.012-.042-.012-.054.042-.076.076-.062c.01.006-.036.048-.042.06m.135.016c-.016-.006-.032.03-.024.028s.034-.03.044-.02,0,0-.02-.008m.611-.929c-.008.016,0,.028-.022.03-.044,0-.072.03-.107-.008-.014-.016-.012-.072-.034-.088s-.084-.044-.08-.052c.012-.028.113.012.2.06s.058.036.046.058m.259-.219c-.01,0-.014.022-.01.012l.012-.042s-.02.038-.018.048.024-.014.016-.018m.2,1.528c-.022.014-.01.03-.012,0s.022-.05.046-.024-.024.016-.034.022m.788-.088c-.038,0-.074.006-.078-.02s.078-.078.113-.056.006.07-.034.076m.022.4c0,.008.026.014.022.012s-.04,0-.042-.006.026,0,.034,0-.01-.012-.014,0m.233-.173c-.026.008-.044.008-.042-.018s.028-.078.062-.06.006.068-.02.078m.165.1c-.008,0-.012.012-.014,0s.042-.04.056-.018-.02.026-.042.016m.205-2.044c-.034.026-.038.04-.042.006s.068-.068.093-.042-.024.018-.05.036m.193-1.13c.012,0,0-.034-.006-.026s-.012.044-.02.04.012-.028.014-.032,0,.018.012.018m-.04,2.243c-.026-.022-.042-.034-.016-.044.01,0,.04-.042.066-.036s.026.042.022.064c0,.04-.04.042-.072.016m.889-2.4c.012.046.02.034-.042.006-.034-.018-.086-.024-.084-.044,0-.056.113-.024.127.038m-.643.466c-.01-.026-.064-.01-.042-.024s.034-.034.072-.028c.1.018.115.06.074.109s-.082.1-.129.056c-.012-.01.034-.086.024-.113m.108,1.407c-.014-.008-.024.02-.022.016s.054-.018.056,0-.022-.01-.034-.016m.028-.173c-.024.022-.129.038-.131.014s.086-.111.121-.092.032.056.01.078m.022-1.506c-.018.04-.072.048-.143.014-.048-.02-.092-.024-.086-.052.012-.06.068-.076.115-.1s.076-.064.113-.03c.054.048.02.131,0,.167m.084-.454c-.046-.07-.046-.076.052-.09a.29.29,0,0,1,.207,0c.1.042.094.084.106.123s.05.078.014.107c-.083.064-.171.024-.274-.028a.231.231,0,0,1-.106-.111m.185.991a.159.159,0,0,1-.094-.068c-.036-.048-.084-.092-.074-.1s.058,0,.068-.016-.02,0-.044-.008,0-.064.01-.084-.024-.052-.032-.084a.151.151,0,0,1,.054-.157c.018-.016.024.034,0,.026s-.022-.088.024-.1a.125.125,0,0,1,.141.038c.03.036.016.129.1.159.141.05.153.014.125.072-.012.024.038.034.044.044s-.048.05-.056.064a.119.119,0,0,0-.006.074A.152.152,0,0,1-765,21.4c-.036.03-.143.016-.211,0m.312.084c-.026-.01-.03.018-.02,0s.022-.046.044-.032,0,.044,0,.052,0-.014-.02-.02m.056-.277c-.008,0-.014.028-.012.024s0-.042.006-.044.006.026,0,.034.014-.01.006-.014m.261.336c0,.008.022.012.014.008s-.042-.012-.038-.02.03.014.038.016-.01-.014-.014,0m.42,1.4c-.014.028.02.04.018.012,0-.01-.012-.044,0-.046s-.012.02-.018.034m.022-1.047c-.008,0-.014.026-.012.022s0-.04.008-.042,0,.024,0,.034.014-.01,0-.014m.231.758c-.028.058-.068.06-.082,0-.01-.04.032-.092.056-.066.01.01.016.046.024.04.024-.016.016,0,0,.028m1.186.39c-.018.024-.024.036-.034.008s.014-.074.05-.056,0,.03-.016.048m.149.046c-.078-.086-.072-.173.032-.207s.145-.064.217-.03c.05.024.042.074.056.119.056.181-.171.265-.306.119m.537-.911c-.018-.008-.026.012-.02,0s.022-.048.038-.04,0,.042,0,.056,0-.006-.014-.016m.141.229c-.006.012.014.018,0,.012s-.044-.022-.036-.032c.024-.024.048-.008.036.02m1.656-.338c-.058.02-.084.026-.133-.026-.032-.036-.073-.094-.046-.147.038-.078.241-.022.257.068.01.066-.014.082-.078.1" transform="translate(813.603 -16.932)" fill="#9b794e"/>
        <path id="Path_3649" data-name="Path 3649" d="M-809.8,35.947c.028-.014.034-.028.02-.062l-.085.052a.072.072,0,0,0,.064.01" transform="translate(813.04 2.217)" fill="#9b794e"/>
        <path id="Path_3650" data-name="Path 3650" d="M-807.082,34.945a.115.115,0,0,0-.068.032c-.034.028-.034.04-.006.062a.08.08,0,0,0,.064.014c.034-.018.042-.107.01-.109" transform="translate(815.757 1.267)" fill="#9b794e"/>
        <path id="Path_3651" data-name="Path 3651" d="M-805.584,28.4l0,.008.012-.072a.074.074,0,0,0-.016.064" transform="translate(817.365 -5.409)" fill="#9b794e"/>
        <path id="Path_3652" data-name="Path 3652" d="M-808.858,36.539c.058-.018.066-.038.032-.1-.02-.04-.048-.042-.155-.016a.394.394,0,0,0-.153.056.3.3,0,0,1-.171.024.506.506,0,0,0-.173.01c-.012.01-.008.068.006.127.02.076.014.117-.014.145-.056.058-.016.111.093.119.193.018.249.207.1.35-.1.1-.346-.02-.3-.151a.287.287,0,0,0-.086-.289c-.052-.032-.078-.028-.139.022-.093.076-.125.046-.064-.058.05-.088.04-.143-.03-.149a.048.048,0,0,1-.042-.054c0-.042-.02-.05-.131-.042-.129.01-.133.01-.09-.052s.038-.107-.016-.129c-.054.044-.1.088-.155.131a.2.2,0,0,1,.03.173c-.006.032-.042.034-.147.008a.568.568,0,0,0-.074-.012c-.1.086-.189.177-.281.271.008,0,.024,0,.048-.01.046-.02.072-.018.086.008a.069.069,0,0,0,.076.028c.066-.012.064.058,0,.115s-.064.187.006.211c.036.014.062.036.062.05-.006.046.1.076.131.036a.7.7,0,0,0,.03-.4.147.147,0,0,1-.016-.113c.014-.06.042-.076.129-.076s.117-.02.133-.062.04-.058.066-.056.04.048.03.151a.26.26,0,0,0,.084.253c.048.054.1.036.1.107s-.05.028-.1.056a.189.189,0,0,0-.1.171c-.012.125.02.139.179.076a.5.5,0,0,1,.259-.01.661.661,0,0,0,.135.016c.042-.03.084-.056.125-.086a.089.089,0,0,1,.056-.042c.143-.1.283-.2.422-.294a.265.265,0,0,1-.121.01.157.157,0,0,1-.161-.1c-.052-.1-.02-.191.066-.183s.227-.129.2-.177c-.01-.02.006-.042.034-.05m-.5.135a.063.063,0,0,1-.052.028.03.03,0,0,1-.028-.034c0-.018.026-.03.054-.028s.038.018.026.034m-.366.5c-.062.1-.092.072-.08-.056.006-.07.022-.09.072-.086.076.008.076.034.008.143" transform="translate(812.08 2.682)" fill="#9b794e"/>
        <path id="Path_3653" data-name="Path 3653" d="M-810.349,36.459c-.1.054-.1.082.018.135a.226.226,0,0,0,.135.026.321.321,0,0,1,.143,0c.088.014.108.006.112-.05.006-.072-.09-.141-.116-.08s-.087.034-.141-.054c-.04-.068-.04-.086,0-.115a.317.317,0,0,1,.139-.036c.05,0,.1,0,.1,0s0-.034-.02-.072a.113.113,0,0,0-.064-.06c-.1.066-.185.129-.267.189.028.066.014.094-.042.125" transform="translate(812.479 2.479)" fill="#9b794e"/>
      </g>
    </g>
  </g>
</svg>
