<svg id="Group_331" data-name="Group 331" xmlns="http://www.w3.org/2000/svg" width="175.222" height="150.286" viewBox="0 0 175.222 150.286">
  <path id="Path_3677" data-name="Path 3677" d="M634.447,714.577c24.7-25.578,69.344-45.542,102.847-25.316a2.017,2.017,0,0,1,.492.449c.6-.525,1.176-1.076,1.766-1.608,1.714-1.553,3.451-3.057,5.3-4.447,1.746-1.314,4.773-3.2,7.135-2.753-1.571-6.445,2.753-13.972,8.527-17.057,7.5-4.007,16.945-2.675,23.587,2.308,6.714,5.035,7.1,15.831,2.139,22.146-3.484,4.434-12.814,9.151-19.224,7.241,1.674,5.931-5.846,14.723-11.1,17.947,1.3,1.987,2.627,3.948,4.019,5.8,6.159,8.2,4.877,17.613,3.146,27.327-4.2,23.474-24.353,42.293-44.493,52.857-19.331,10.139-45.213,15.146-66.7,10.64-7.686-1.612-15.2-5.8-18.116-13.359-.464-1.213-1-2.388-1.56-3.553a2.024,2.024,0,0,0,.51.317l.479.2c.8.306.03-.766-.744-1.1l-.471-.217a.557.557,0,0,0-.208-.067c-3.169-6.289-7.456-12-11-18.072C605.753,757.169,620.025,729.509,634.447,714.577ZM757.967,679.7a8.514,8.514,0,0,1,7.575,1.1,7.757,7.757,0,0,1,3.167,8.367c.174.022.328.048.505.063a15.13,15.13,0,0,0,8.911-2.367c5.252-3.163,6.742-10.994,2.187-15.25-3.139-2.931-8.6-3.176-12.573-2.523C762.87,669.889,757.145,674.44,757.967,679.7ZM745.8,709.039c-.05-.054-.011.137.059.382C745.839,709.293,745.828,709.167,745.8,709.039ZM760.225,736.8a2.6,2.6,0,0,0-.041-1.276c-.089-.273-.208-.152-.226.219l.007.523C759.943,736.741,760.141,737.236,760.225,736.8Zm-3.338,15.374a25.7,25.7,0,0,0,1.519-3.1,13.727,13.727,0,0,0,.785-3.167c.076-.69-.208-.738-.4-.076a30.7,30.7,0,0,1-1,3.419l-1.23,2.755C756.3,752.59,756.557,752.731,756.887,752.174Zm-1.562-3.26.332-1.189a6.714,6.714,0,0,0,.167-.959c0-.221-.124-.332-.241-.08a18.542,18.542,0,0,0-.623,2.566C754.876,749.625,755.214,749.282,755.325,748.913Zm-2.447,20.235.367-.36c.338-.3.664-.928.354-.746a2.114,2.114,0,0,0-.456.365,3.326,3.326,0,0,0-.43.555C752.525,769.277,752.62,769.374,752.878,769.148Zm-1.1-7.2c-.28.479-.6.97-.933,1.453-.265.386-.644.835-.85,1.2-.172.3-.156.525.156.249a11.834,11.834,0,0,0,2.085-3.167C752.448,761.254,752.021,761.547,751.782,761.946ZM746.9,772.285c.386.024.883-.184,1.731-1.089a14.327,14.327,0,0,0,1.594-2.115c.761-1.193-.451-.609-1.226.562a10,10,0,0,1-.671.924,5.578,5.578,0,0,1-.4.427l-.117.106c0-.006-.017,0-.074.026C747.279,771.311,746.613,772.268,746.9,772.285Zm.946-15.751c-.009-.1-.1-.082-.236.039a12.146,12.146,0,0,0-.983,1.31c-.282.351-.6.612-.859.974a.408.408,0,0,0-.1.288C745.8,759.64,747.906,757.065,747.843,756.534Zm-4.885-5.43c.638-1.094,1.089-2.106,1.683-3.176.293-.54.015-.7-.3-.171-.646,1.072-1.345,2.384-1.889,3.505C742.183,751.794,742.671,751.6,742.958,751.1Zm-5.36,33.442a16.226,16.226,0,0,0,2.365-1.694c.447-.358.876-.723,1.315-1.111.738-.653.783-1.284.03-.725l-1.286.957a28.022,28.022,0,0,0-2.377,1.89C737.033,784.438,737.109,784.778,737.6,784.546Zm2.2-14.513a2.642,2.642,0,0,0-.525.39,2.791,2.791,0,0,0-.432.521c-.163.271-.007.314.291.08.136-.109.266-.254.4-.362C739.914,770.35,740.172,769.814,739.8,770.034Zm-1.762,10.126c.048-.143-.048-.178-.252-.067a17.6,17.6,0,0,0-1.725,1.4c-.475.367-.933.584-1.4.983a.744.744,0,0,0-.269.36C734.237,783.626,737.782,780.965,738.036,780.16Zm-6.3.061a71.821,71.821,0,0,0,6.961-5.428c1.115-.974,1.113-1.861.009-.881-2.245,1.97-4.822,3.74-7.133,5.69C730.632,780.39,730.849,780.808,731.732,780.221ZM737.6,766.8a28.021,28.021,0,0,1-4.369,5.488c-.458.451-.3.66.2.219a20.648,20.648,0,0,0,5.039-6.209C738.723,765.734,737.951,766.2,737.6,766.8Zm-6.7,1.072c-.032-.037-.145,0-.3.135a2.813,2.813,0,0,0-.412.319l-2.237,2.141c-.69.655-1.441,1.3-2.106,1.957-.557.551-.345.863.323.378a49.29,49.29,0,0,0,4.425-4.042C731.2,768.179,731.22,767.806,730.9,767.868Zm-7.645,23.112a13.713,13.713,0,0,0,3.69-2.859c.414-.41-.187-.258-.616.115-.516.447-1.078.9-1.653,1.323-.46.343-1.074.718-1.469,1.061C722.881,790.893,722.788,791.16,723.254,790.98Zm-2.933,5.436.657-.278c.6-.212,1.26-.816.738-.714a3.451,3.451,0,0,0-.792.252,3.965,3.965,0,0,0-.8.471C719.748,796.423,719.865,796.568,720.321,796.417Zm-.907-9.135c.891-.382,1.659-.8,2.553-1.254l2.059-.974c1.152-.525,1.733-1.664.61-1.13a40.928,40.928,0,0,0-5.454,2.961C718.536,787.342,718.744,787.57,719.414,787.282Zm4.909-7.219c.039-.115-.07-.143-.274-.05a14.552,14.552,0,0,0-1.64,1.15c-.453.3-.907.475-1.339.794-.163.119-.226.221-.232.293C720.774,782.91,724.156,780.739,724.323,780.062ZM709.29,800.777c.371-.091.709-.189,1.091-.308.737-.247,1.427-.642,1.343-.857s-.859-.05-1.566.254c-.371.158-.69.3-1.026.471C708.542,800.634,708.648,800.931,709.29,800.777ZM708.748,796l.141-.046a.567.567,0,0,0,.076-.015.1.1,0,0,1,.039-.007l.032,0,.208-.017a3.471,3.471,0,0,0,1.551-.6c.345-.265.338-.521-.171-.436a8.9,8.9,0,0,0-1.824.479c-.529.21-.94.486-.881.642C707.962,796.109,708.31,796.134,708.748,796Zm.957-4.291a2.816,2.816,0,0,0-.759.16,3.248,3.248,0,0,0-.727.351c-.323.215-.18.349.254.245.2-.05.423-.135.618-.191C709.65,792.122,710.216,791.659,709.7,791.707Zm-7.92.182a8.74,8.74,0,0,0,2.54-.87,12.678,12.678,0,0,0,2-1.169c.671-.494-.583-.414-1.273.072a9.011,9.011,0,0,1-1.829.948,11.63,11.63,0,0,0-1.7.727C701.157,791.818,701.42,791.922,701.784,791.889Zm-4.749-1.64a2.835,2.835,0,0,0,.633-.154,1.245,1.245,0,0,0,.423-.25c.13-.139-.13-.182-.473-.085l-.451.156C696.725,790.045,696.547,790.321,697.036,790.249Zm-7.974,15.493c.57-.093,1.148-.184,1.708-.254.453-.059.954-.087,1.41-.193.371-.089.7-.273.419-.321a14.875,14.875,0,0,0-3.7.553C688.382,805.643,688.59,805.821,689.061,805.742Zm2.213-10.25c-.3-.312-3.288.527-3.169.846.026.061.174.085.384.063a7.887,7.887,0,0,0,1.438-.451c.4-.119.872-.174,1.228-.319C691.287,795.579,691.309,795.527,691.274,795.492Zm-10.554,7.489a70.893,70.893,0,0,0,8.078-1.191c1.354-.258,1.236-.848-.108-.588-2.6.486-5.467.82-8.033,1.262C679.755,802.619,679.8,803.044,680.72,802.981Zm2.315-12.5a6.122,6.122,0,0,0-2.512.978c-.252.154.356.184.646.057.345-.158.733-.3,1.13-.453a8.78,8.78,0,0,0,1.02-.365C683.5,790.586,683.432,790.442,683.035,790.481Zm-14.682,12.452.522,0c.8,0,.8-.384,0-.356l-.523.015C667.6,802.595,667.594,802.933,668.353,802.933Zm.77-16.07c-.729.009-.727.393,0,.386S669.85,786.859,669.123,786.863Zm-4.165,9.17.2.065a3.322,3.322,0,0,0,.722.1c.775.037.8-.356.006-.38l-.312-.082a3.379,3.379,0,0,0-.646-.08c-.74-.037-.72.3-.009.351C664.811,796,664.891,796.007,664.958,796.033Zm-1.293,6.612c.5.017.512-.208.011-.225S663.166,802.621,663.665,802.645Zm-5.07-5.983c-.918-.1-.978.343-.048.447S659.513,796.766,658.6,796.662Zm.035,9.476c.961.084,1-.323.039-.412S657.672,806.035,658.63,806.137Zm-7.31-13.491.421.128c.862.232.978-.3.111-.453l-.43-.087C650.641,792.071,650.545,792.419,651.32,792.646Zm-15.109-7,.564.354a1.232,1.232,0,0,1,.577.427c.319.377.677.748,1.022,1.093a25.632,25.632,0,0,0,2.525,2.245c.67.538,1.241.245.571-.248a26.762,26.762,0,0,1-2.512-2.191c-.33-.319-.633-.668-.937-1.013-.161-.165-.3-.349-.445-.516a5.97,5.97,0,0,0-.668-.282C636.319,785.3,635.746,785.375,636.21,785.65Zm-2.924-7.855c21.2,13.051,52.892,5.38,72.871-5.38a71.579,71.579,0,0,0,13.417-9.76c-1.395-.976-2.774-1.963-4.115-3.02-1.393-1.093.343-3.347,1.827-2.458,1.54.918,3.02,1.946,4.516,2.933.1.063.2.124.3.187,13.938-13.491,26.465-33.542,23.817-50.452-11.58-31.524-57.281-13.356-75.7-2.777C653.5,716.675,607.074,757.015,633.286,777.8Zm-11.461-12.373c-2.113-21.7,27.791-49.4,42.072-58.9,13.046-8.673,39.954-20.708,60.287-18.437-27.817-7.591-57.346,7.38-78.876,24.988C630.852,724.89,614.125,747.815,621.826,765.422Z" transform="translate(-614.379 -661.492)" fill="#9b794e"/>
  <path id="Path_3678" data-name="Path 3678" d="M680.916,711.017a40.343,40.343,0,0,1,10.8-6.239c.058-.046.087-.111.152-.15,14.48-9.315,30.383-16.437,45.349-24.932a2.23,2.23,0,0,1,2.757.5c1.182,1.191.946,2.508,1.193,4.063a3.547,3.547,0,0,1-.7,2.241c-10.686,13.183-21.982,28.292-35.5,38.631-17.615,13.471-42.36,21.962-63.029,29.468-.811.295-1.946.256-2.336-.6-.243-.547-.872-2.677-1.033-3.011a1.873,1.873,0,0,1,.28-2.28c12.918-12.372,25.641-26.422,40.62-36.39C679.951,711.852,680.437,711.409,680.916,711.017Zm27.654,2.041c6.918-8.393,13.912-16.749,21.075-24.938-9.508,4.974-19.281,9.706-28.4,15.289a10.717,10.717,0,0,1,2.809.842C708.466,706.288,709.41,709.589,708.57,713.058ZM682.441,727.71c4.562.449,10.428-2.163,13.613-4.248l.035-.011c4.074-3.011,8.551-6.219,8.738-11.773.124-3.757-3.282-4.382-6.184-4.245-5.482.26-10.962,3.49-15.266,6.649C679.421,716.989,673.51,726.831,682.441,727.71Z" transform="translate(-617.892 -640.525)" fill="#9b794e"/>
  <path id="Path_3679" data-name="Path 3679" d="M678.517,695.293a32.627,32.627,0,0,1-4.605-2.432,44.1,44.1,0,0,1-4.8-2.907c-1.271-.985.03-3.324,1.54-2.766a24.026,24.026,0,0,1,4.4,2.514c1.512.957,3.061,1.84,4.586,2.766C681.06,693.33,680.2,695.944,678.517,695.293Z" transform="translate(-622.751 -631.544)" fill="#9b794e"/>
  <path id="Path_3680" data-name="Path 3680" d="M665.41,695.564a1.632,1.632,0,0,1,.772,2.7c-.568.456-1.25.664-1.8,1.111a10.148,10.148,0,0,1-2.495,1.662c-1.649.7-3.085-1.8-1.8-2.955C661.586,696.737,663.3,695.286,665.41,695.564Z" transform="translate(-589.506 -621.692)" fill="#9b794e"/>
</svg>
